<?xml version="1.0" encoding="utf-8" standalone="no"?>
<!DOCTYPE svg PUBLIC "-//W3C//DTD SVG 1.1//EN"
  "http://www.w3.org/Graphics/SVG/1.1/DTD/svg11.dtd">
<svg xmlns:xlink="http://www.w3.org/1999/xlink" width="288pt" height="216pt" viewBox="0 0 288 216" xmlns="http://www.w3.org/2000/svg" version="1.1">
 <metadata>
  <rdf:RDF xmlns:dc="http://purl.org/dc/elements/1.1/" xmlns:cc="http://creativecommons.org/ns#" xmlns:rdf="http://www.w3.org/1999/02/22-rdf-syntax-ns#">
   <cc:Work>
    <dc:type rdf:resource="http://purl.org/dc/dcmitype/StillImage"/>
    <dc:date>2025-07-22T09:44:27.728756</dc:date>
    <dc:format>image/svg+xml</dc:format>
    <dc:creator>
     <cc:Agent>
      <dc:title>Matplotlib v3.9.3, https://matplotlib.org/</dc:title>
     </cc:Agent>
    </dc:creator>
   </cc:Work>
  </rdf:RDF>
 </metadata>
 <defs>
  <style type="text/css">*{stroke-linejoin: round; stroke-linecap: butt}</style>
 </defs>
 <g id="figure_1">
  <g id="patch_1">
   <path d="M 0 216 
L 288 216 
L 288 0 
L 0 0 
z
" style="fill: #ffffff"/>
  </g>
  <g id="axes_1">
   <g id="patch_2">
    <path d="M 36 192.24 
L 259.2 192.24 
L 259.2 25.92 
L 36 25.92 
z
" style="fill: #ffffff"/>
   </g>
   <g id="PolyCollection_1">
    <defs>
     <path id="m72a2323a39" d="M 53.169231 -23.76 
L 36 -23.76 
L 36 -190.08 
L 53.169231 -190.08 
L 53.169231 -190.08 
L 53.169231 -23.76 
z
" style="stroke: #ffffff; stroke-opacity: 0.7"/>
    </defs>
    <g clip-path="url(#p2b75d9360c)">
     <use xlink:href="#m72a2323a39" x="0" y="216" style="fill: #ffffff; fill-opacity: 0.7; stroke: #ffffff; stroke-opacity: 0.7"/>
    </g>
   </g>
   <g id="PolyCollection_2">
    <defs>
     <path id="m4a779eeff2" d="M 259.2 -23.76 
L 53.169231 -23.76 
L 53.169231 -190.08 
L 259.2 -190.08 
L 259.2 -190.08 
L 259.2 -23.76 
z
" style="stroke: #808080; stroke-opacity: 0.4"/>
    </defs>
    <g clip-path="url(#p2b75d9360c)">
     <use xlink:href="#m4a779eeff2" x="0" y="216" style="fill: #808080; fill-opacity: 0.4; stroke: #808080; stroke-opacity: 0.4"/>
    </g>
   </g>
   <g id="matplotlib.axis_1">
    <g id="xtick_1">
     <g id="line2d_1">
      <defs>
       <path id="m3e018cf370" d="M 0 0 
L 0 3.5 
" style="stroke: #000000; stroke-width: 0.8"/>
      </defs>
      <g>
       <use xlink:href="#m3e018cf370" x="53.169231" y="192.24" style="stroke: #000000; stroke-width: 0.8"/>
      </g>
     </g>
     <g id="text_1">
      <!-- 0 -->
      <g transform="translate(50.169231 207.435625) scale(0.12 -0.12)">
       <defs>
        <path id="STIXGeneral-Regular-30" d="M 3046 2112 
Q 3046 1683 2963 1302 
Q 2880 922 2717 602 
Q 2554 282 2266 96 
Q 1978 -90 1600 -90 
Q 1210 -90 915 108 
Q 621 307 461 640 
Q 301 973 227 1350 
Q 154 1728 154 2150 
Q 154 2746 301 3222 
Q 448 3699 790 4012 
Q 1133 4326 1626 4326 
Q 2253 4326 2649 3712 
Q 3046 3098 3046 2112 
z
M 2432 2080 
Q 2432 3091 2217 3625 
Q 2003 4160 1587 4160 
Q 1190 4160 979 3622 
Q 768 3085 768 2106 
Q 768 1120 979 598 
Q 1190 77 1600 77 
Q 2003 77 2217 598 
Q 2432 1120 2432 2080 
z
" transform="scale(0.015625)"/>
       </defs>
       <use xlink:href="#STIXGeneral-Regular-30"/>
      </g>
     </g>
    </g>
    <g id="xtick_2">
     <g id="line2d_2">
      <g>
       <use xlink:href="#m3e018cf370" x="121.846154" y="192.24" style="stroke: #000000; stroke-width: 0.8"/>
      </g>
     </g>
     <g id="text_2">
      <!-- 200 -->
      <g transform="translate(112.846154 207.435625) scale(0.12 -0.12)">
       <defs>
        <path id="STIXGeneral-Regular-32" d="M 3034 877 
L 2688 0 
L 186 0 
L 186 77 
L 1325 1286 
Q 1773 1754 1965 2144 
Q 2157 2534 2157 2950 
Q 2157 3379 1920 3616 
Q 1683 3853 1267 3853 
Q 922 3853 720 3673 
Q 518 3494 326 3021 
L 192 3053 
Q 301 3648 630 3987 
Q 960 4326 1523 4326 
Q 2054 4326 2380 4006 
Q 2707 3686 2707 3200 
Q 2707 2477 1888 1613 
L 832 486 
L 2330 486 
Q 2541 486 2665 569 
Q 2790 653 2944 915 
L 3034 877 
z
" transform="scale(0.015625)"/>
       </defs>
       <use xlink:href="#STIXGeneral-Regular-32"/>
       <use xlink:href="#STIXGeneral-Regular-30" x="49.999985"/>
       <use xlink:href="#STIXGeneral-Regular-30" x="99.999969"/>
      </g>
     </g>
    </g>
    <g id="xtick_3">
     <g id="line2d_3">
      <g>
       <use xlink:href="#m3e018cf370" x="190.523077" y="192.24" style="stroke: #000000; stroke-width: 0.8"/>
      </g>
     </g>
     <g id="text_3">
      <!-- 400 -->
      <g transform="translate(181.523077 207.435625) scale(0.12 -0.12)">
       <defs>
        <path id="STIXGeneral-Regular-34" d="M 3027 1069 
L 2368 1069 
L 2368 0 
L 1869 0 
L 1869 1069 
L 77 1069 
L 77 1478 
L 2086 4326 
L 2368 4326 
L 2368 1478 
L 3027 1478 
L 3027 1069 
z
M 1869 1478 
L 1869 3674 
L 333 1478 
L 1869 1478 
z
" transform="scale(0.015625)"/>
       </defs>
       <use xlink:href="#STIXGeneral-Regular-34"/>
       <use xlink:href="#STIXGeneral-Regular-30" x="49.999985"/>
       <use xlink:href="#STIXGeneral-Regular-30" x="99.999969"/>
      </g>
     </g>
    </g>
    <g id="xtick_4">
     <g id="line2d_4">
      <g>
       <use xlink:href="#m3e018cf370" x="259.2" y="192.24" style="stroke: #000000; stroke-width: 0.8"/>
      </g>
     </g>
     <g id="text_4">
      <!-- 600 -->
      <g transform="translate(250.2 207.435625) scale(0.12 -0.12)">
       <defs>
        <path id="STIXGeneral-Regular-36" d="M 2854 4378 
L 2867 4275 
Q 2112 4154 1606 3664 
Q 1101 3174 973 2451 
Q 1344 2739 1786 2739 
Q 2349 2739 2672 2380 
Q 2995 2022 2995 1402 
Q 2995 774 2669 378 
Q 2291 -90 1651 -90 
Q 870 -90 518 557 
Q 218 1107 218 1786 
Q 218 2835 915 3552 
Q 1312 3962 1731 4131 
Q 2150 4301 2854 4378 
z
M 2419 1203 
Q 2419 2445 1555 2445 
Q 1235 2445 1024 2275 
Q 813 2106 813 1702 
Q 813 954 1046 522 
Q 1280 90 1722 90 
Q 2061 90 2240 394 
Q 2419 698 2419 1203 
z
" transform="scale(0.015625)"/>
       </defs>
       <use xlink:href="#STIXGeneral-Regular-36"/>
       <use xlink:href="#STIXGeneral-Regular-30" x="49.999985"/>
       <use xlink:href="#STIXGeneral-Regular-30" x="99.999969"/>
      </g>
     </g>
    </g>
    <g id="text_5">
     <!-- Depth $z$ [µm] -->
     <g transform="translate(110.64 223.7) scale(0.14 -0.14)">
      <defs>
       <path id="STIXGeneral-Regular-44" d="M 102 4237 
L 1830 4237 
Q 3078 4237 3750 3654 
Q 4384 3110 4384 2138 
Q 4384 966 3514 410 
Q 2880 0 1901 0 
L 102 0 
L 102 122 
Q 474 147 570 252 
Q 666 358 666 736 
L 666 3520 
Q 666 3891 570 3990 
Q 474 4090 102 4115 
L 102 4237 
z
M 1318 3731 
L 1318 538 
Q 1318 365 1379 301 
Q 1440 237 1626 237 
Q 2125 237 2432 307 
Q 2739 378 3021 570 
Q 3686 1018 3686 2099 
Q 3686 3027 3078 3558 
Q 2803 3802 2476 3901 
Q 2150 4000 1658 4000 
Q 1472 4000 1395 3942 
Q 1318 3885 1318 3731 
z
" transform="scale(0.015625)"/>
       <path id="STIXGeneral-Regular-65" d="M 2611 1050 
L 2714 1005 
Q 2330 -64 1376 -64 
Q 813 -64 486 329 
Q 160 723 160 1389 
Q 160 2074 525 2509 
Q 890 2944 1485 2944 
Q 2061 2944 2374 2502 
Q 2560 2246 2592 1773 
L 621 1773 
Q 646 1370 700 1158 
Q 755 947 915 730 
Q 1184 378 1626 378 
Q 1939 378 2153 531 
Q 2368 685 2611 1050 
z
M 634 1978 
L 1939 1978 
Q 1882 2381 1750 2547 
Q 1619 2714 1312 2714 
Q 1043 2714 864 2525 
Q 685 2336 634 1978 
z
" transform="scale(0.015625)"/>
       <path id="STIXGeneral-Regular-70" d="M 1018 2931 
L 1018 2438 
Q 1421 2944 1939 2944 
Q 2406 2944 2707 2560 
Q 3008 2176 3008 1581 
Q 3008 883 2621 409 
Q 2234 -64 1664 -64 
Q 1466 -64 1328 -6 
Q 1190 51 1018 211 
L 1018 -794 
Q 1018 -1094 1120 -1180 
Q 1222 -1267 1581 -1274 
L 1581 -1389 
L 32 -1389 
L 32 -1280 
Q 314 -1254 397 -1171 
Q 480 -1088 480 -838 
L 480 2157 
Q 480 2381 429 2451 
Q 378 2522 218 2522 
Q 115 2522 58 2515 
L 58 2618 
Q 506 2752 979 2944 
L 1018 2931 
z
M 1018 2138 
L 1018 563 
Q 1018 422 1238 281 
Q 1459 141 1683 141 
Q 2029 141 2243 467 
Q 2458 794 2458 1325 
Q 2458 1888 2243 2224 
Q 2029 2560 1670 2560 
Q 1446 2560 1232 2419 
Q 1018 2278 1018 2138 
z
" transform="scale(0.015625)"/>
       <path id="STIXGeneral-Regular-74" d="M 1702 493 
L 1786 422 
Q 1478 -64 1011 -64 
Q 448 -64 448 749 
L 448 2675 
L 109 2675 
Q 83 2694 83 2720 
Q 83 2771 192 2842 
Q 435 2982 813 3526 
Q 826 3546 874 3606 
Q 922 3667 941 3706 
Q 986 3706 986 3622 
L 986 2880 
L 1632 2880 
L 1632 2675 
L 986 2675 
L 986 845 
Q 986 538 1062 403 
Q 1139 269 1318 269 
Q 1510 269 1702 493 
z
" transform="scale(0.015625)"/>
       <path id="STIXGeneral-Regular-68" d="M 3117 0 
L 1760 0 
L 1760 96 
Q 2042 128 2118 224 
Q 2195 320 2195 653 
L 2195 1920 
Q 2195 2598 1722 2598 
Q 1530 2598 1370 2508 
Q 1210 2419 1005 2195 
L 1005 653 
Q 1005 320 1081 224 
Q 1158 128 1440 96 
L 1440 0 
L 58 0 
L 58 96 
Q 333 134 400 224 
Q 467 314 467 653 
L 467 3667 
Q 467 3872 406 3933 
Q 346 3994 141 3994 
Q 83 3994 64 3987 
L 64 4090 
L 237 4141 
Q 730 4288 973 4371 
L 1005 4352 
L 1005 2406 
Q 1229 2694 1446 2819 
Q 1664 2944 1946 2944 
Q 2733 2944 2733 1926 
L 2733 653 
Q 2733 320 2793 233 
Q 2854 147 3117 96 
L 3117 0 
z
" transform="scale(0.015625)"/>
       <path id="STIXGeneral-Regular-20" transform="scale(0.015625)"/>
       <path id="STIXGeneral-Italic-7a" d="M 2432 2669 
L 582 467 
Q 877 403 1021 307 
Q 1165 211 1350 -64 
Q 1568 -384 1798 -384 
Q 1971 -384 1971 -288 
Q 1971 -256 1939 -192 
Q 1888 -90 1888 -13 
Q 1894 70 1958 137 
Q 2022 205 2099 205 
Q 2202 205 2262 141 
Q 2323 77 2323 -32 
Q 2323 -230 2156 -374 
Q 1990 -518 1728 -518 
Q 1459 -518 1005 -237 
Q 570 32 333 32 
Q 186 32 45 -83 
L -13 -26 
L 1971 2355 
L 1101 2355 
Q 845 2355 729 2281 
Q 614 2208 518 1971 
L 416 1997 
L 621 2739 
L 2432 2739 
L 2432 2669 
z
" transform="scale(0.015625)"/>
       <path id="STIXGeneral-Regular-5b" d="M 1914 -998 
L 563 -998 
L 563 4237 
L 1914 4237 
L 1914 4077 
L 1382 4077 
Q 1216 4077 1133 4006 
Q 1050 3936 1050 3770 
L 1050 -493 
Q 1050 -838 1382 -838 
L 1914 -838 
L 1914 -998 
z
" transform="scale(0.015625)"/>
       <path id="STIXGeneral-Regular-b5" d="M 2752 2880 
L 2752 614 
Q 2752 173 2950 173 
Q 3072 173 3277 358 
L 3277 301 
Q 3110 90 2998 13 
Q 2886 -64 2707 -64 
Q 2515 -64 2371 89 
Q 2227 243 2221 512 
L 2208 512 
Q 1894 -64 1370 -64 
Q 1094 -64 915 48 
Q 736 160 582 410 
Q 589 256 704 -233 
Q 819 -723 819 -902 
Q 819 -1395 512 -1395 
Q 378 -1395 304 -1257 
Q 230 -1120 230 -902 
Q 230 -717 307 -217 
Q 384 282 384 346 
L 384 2880 
L 947 2880 
L 947 992 
Q 947 666 1088 499 
Q 1229 333 1485 333 
Q 1990 333 2189 736 
L 2189 2880 
L 2752 2880 
z
" transform="scale(0.015625)"/>
       <path id="STIXGeneral-Regular-6d" d="M 4960 0 
L 3565 0 
L 3565 96 
Q 3834 122 3907 208 
Q 3981 294 3981 576 
L 3981 1894 
Q 3981 2278 3869 2444 
Q 3757 2611 3488 2611 
Q 3264 2611 3107 2521 
Q 2950 2432 2803 2221 
L 2803 608 
Q 2803 301 2896 201 
Q 2989 102 3264 96 
L 3264 0 
L 1830 0 
L 1830 96 
Q 2112 115 2189 188 
Q 2266 262 2266 550 
L 2266 1901 
Q 2266 2611 1850 2611 
Q 1670 2611 1468 2531 
Q 1267 2451 1171 2336 
Q 1088 2240 1088 2227 
L 1088 448 
Q 1088 243 1177 176 
Q 1267 109 1523 96 
L 1523 0 
L 102 0 
L 102 96 
Q 371 102 460 195 
Q 550 288 550 563 
L 550 2150 
Q 550 2387 499 2480 
Q 448 2573 326 2573 
Q 230 2573 122 2547 
L 122 2656 
Q 557 2778 1011 2944 
L 1062 2925 
L 1062 2451 
L 1075 2451 
Q 1363 2752 1584 2848 
Q 1805 2944 2054 2944 
Q 2560 2944 2733 2406 
Q 3232 2944 3776 2944 
Q 4518 2944 4518 1792 
L 4518 493 
Q 4518 282 4582 202 
Q 4646 122 4794 109 
L 4960 96 
L 4960 0 
z
" transform="scale(0.015625)"/>
       <path id="STIXGeneral-Regular-5d" d="M 1568 -998 
L 218 -998 
L 218 -838 
L 781 -838 
Q 947 -838 1014 -768 
Q 1082 -698 1082 -544 
L 1082 3731 
Q 1082 4077 755 4077 
L 218 4077 
L 218 4237 
L 1568 4237 
L 1568 -998 
z
" transform="scale(0.015625)"/>
      </defs>
      <use xlink:href="#STIXGeneral-Regular-44" transform="translate(0 0.703125)"/>
      <use xlink:href="#STIXGeneral-Regular-65" transform="translate(72.199982 0.703125)"/>
      <use xlink:href="#STIXGeneral-Regular-70" transform="translate(116.599976 0.703125)"/>
      <use xlink:href="#STIXGeneral-Regular-74" transform="translate(166.59996 0.703125)"/>
      <use xlink:href="#STIXGeneral-Regular-68" transform="translate(194.399948 0.703125)"/>
      <use xlink:href="#STIXGeneral-Regular-20" transform="translate(244.399933 0.703125)"/>
      <use xlink:href="#STIXGeneral-Italic-7a" transform="translate(269.399918 0.703125)"/>
      <use xlink:href="#STIXGeneral-Regular-20" transform="translate(308.299911 0.703125)"/>
      <use xlink:href="#STIXGeneral-Regular-5b" transform="translate(333.299896 0.703125)"/>
      <use xlink:href="#STIXGeneral-Regular-b5" transform="translate(366.599884 0.703125)"/>
      <use xlink:href="#STIXGeneral-Regular-6d" transform="translate(416.599869 0.703125)"/>
      <use xlink:href="#STIXGeneral-Regular-5d" transform="translate(494.399857 0.703125)"/>
     </g>
    </g>
   </g>
   <g id="matplotlib.axis_2">
    <g id="ytick_1">
     <g id="line2d_5">
      <defs>
       <path id="meee56d9431" d="M 0 0 
L -3.5 0 
" style="stroke: #000000; stroke-width: 0.8"/>
      </defs>
      <g>
       <use xlink:href="#meee56d9431" x="36" y="192.24" style="stroke: #000000; stroke-width: 0.8"/>
      </g>
     </g>
     <g id="text_6">
      <!-- 0 -->
      <g transform="translate(23 196.337813) scale(0.12 -0.12)">
       <use xlink:href="#STIXGeneral-Regular-30"/>
      </g>
     </g>
    </g>
    <g id="ytick_2">
     <g id="line2d_6">
      <g>
       <use xlink:href="#meee56d9431" x="36" y="154.44" style="stroke: #000000; stroke-width: 0.8"/>
      </g>
     </g>
     <g id="text_7">
      <!-- 100 -->
      <g transform="translate(11 158.537813) scale(0.12 -0.12)">
       <defs>
        <path id="STIXGeneral-Regular-31" d="M 2522 0 
L 755 0 
L 755 96 
Q 1107 115 1235 227 
Q 1363 339 1363 608 
L 1363 3482 
Q 1363 3795 1171 3795 
Q 1082 3795 883 3718 
L 710 3654 
L 710 3744 
L 1856 4326 
L 1914 4307 
L 1914 486 
Q 1914 275 2042 185 
Q 2170 96 2522 96 
L 2522 0 
z
" transform="scale(0.015625)"/>
       </defs>
       <use xlink:href="#STIXGeneral-Regular-31"/>
       <use xlink:href="#STIXGeneral-Regular-30" x="49.999985"/>
       <use xlink:href="#STIXGeneral-Regular-30" x="99.999969"/>
      </g>
     </g>
    </g>
    <g id="ytick_3">
     <g id="line2d_7">
      <g>
       <use xlink:href="#meee56d9431" x="36" y="116.64" style="stroke: #000000; stroke-width: 0.8"/>
      </g>
     </g>
     <g id="text_8">
      <!-- 200 -->
      <g transform="translate(11 120.737812) scale(0.12 -0.12)">
       <use xlink:href="#STIXGeneral-Regular-32"/>
       <use xlink:href="#STIXGeneral-Regular-30" x="49.999985"/>
       <use xlink:href="#STIXGeneral-Regular-30" x="99.999969"/>
      </g>
     </g>
    </g>
    <g id="ytick_4">
     <g id="line2d_8">
      <g>
       <use xlink:href="#meee56d9431" x="36" y="78.84" style="stroke: #000000; stroke-width: 0.8"/>
      </g>
     </g>
     <g id="text_9">
      <!-- 300 -->
      <g transform="translate(11 82.937812) scale(0.12 -0.12)">
       <defs>
        <path id="STIXGeneral-Regular-33" d="M 390 3264 
L 288 3290 
Q 435 3770 748 4048 
Q 1062 4326 1542 4326 
Q 1990 4326 2265 4083 
Q 2541 3840 2541 3450 
Q 2541 2925 1946 2566 
Q 2298 2413 2477 2227 
Q 2758 1914 2758 1402 
Q 2758 890 2464 506 
Q 2246 211 1840 60 
Q 1434 -90 979 -90 
Q 262 -90 262 275 
Q 262 378 339 442 
Q 416 506 525 506 
Q 685 506 915 339 
Q 1197 141 1466 141 
Q 1818 141 2058 425 
Q 2298 710 2298 1120 
Q 2298 1856 1632 2048 
Q 1434 2112 979 2112 
L 979 2202 
Q 1338 2323 1517 2432 
Q 2035 2726 2035 3290 
Q 2035 3610 1852 3776 
Q 1670 3942 1344 3942 
Q 768 3942 390 3264 
z
" transform="scale(0.015625)"/>
       </defs>
       <use xlink:href="#STIXGeneral-Regular-33"/>
       <use xlink:href="#STIXGeneral-Regular-30" x="49.999985"/>
       <use xlink:href="#STIXGeneral-Regular-30" x="99.999969"/>
      </g>
     </g>
    </g>
    <g id="ytick_5">
     <g id="line2d_9">
      <g>
       <use xlink:href="#meee56d9431" x="36" y="41.04" style="stroke: #000000; stroke-width: 0.8"/>
      </g>
     </g>
     <g id="text_10">
      <!-- 400 -->
      <g transform="translate(11 45.137812) scale(0.12 -0.12)">
       <use xlink:href="#STIXGeneral-Regular-34"/>
       <use xlink:href="#STIXGeneral-Regular-30" x="49.999985"/>
       <use xlink:href="#STIXGeneral-Regular-30" x="99.999969"/>
      </g>
     </g>
    </g>
    <g id="text_11">
     <!-- Concentration $C$ [µmol/mol] -->
     <g transform="translate(3.92 188.81) rotate(-90) scale(0.14 -0.14)">
      <defs>
       <path id="STIXGeneral-Regular-43" d="M 3930 838 
L 4051 723 
Q 3482 -90 2304 -90 
Q 1376 -90 794 480 
Q 179 1082 179 2080 
Q 179 3014 755 3661 
Q 1357 4326 2310 4326 
Q 2720 4326 3072 4230 
Q 3475 4115 3514 4115 
Q 3725 4115 3782 4326 
L 3910 4326 
L 3968 2874 
L 3821 2874 
Q 3718 3334 3488 3584 
Q 3034 4070 2458 4070 
Q 1747 4070 1334 3548 
Q 922 3027 922 2182 
Q 922 1152 1382 653 
Q 1811 192 2522 192 
Q 2944 192 3251 339 
Q 3558 486 3930 838 
z
" transform="scale(0.015625)"/>
       <path id="STIXGeneral-Regular-6f" d="M 3008 1478 
Q 3008 806 2608 371 
Q 2208 -64 1568 -64 
Q 979 -64 582 368 
Q 186 800 186 1459 
Q 186 2125 582 2534 
Q 979 2944 1626 2944 
Q 2221 2944 2614 2537 
Q 3008 2131 3008 1478 
z
M 2432 1306 
Q 2432 2035 2112 2445 
Q 1856 2765 1504 2765 
Q 1171 2765 966 2493 
Q 762 2221 762 1747 
Q 762 928 1101 435 
Q 1318 115 1677 115 
Q 2029 115 2230 432 
Q 2432 749 2432 1306 
z
" transform="scale(0.015625)"/>
       <path id="STIXGeneral-Regular-6e" d="M 3104 0 
L 1773 0 
L 1779 96 
Q 2016 115 2096 233 
Q 2176 352 2176 672 
L 2176 1946 
Q 2176 2592 1709 2592 
Q 1549 2592 1408 2515 
Q 1267 2438 1050 2227 
L 1050 461 
Q 1050 269 1136 192 
Q 1222 115 1466 96 
L 1466 0 
L 115 0 
L 115 96 
Q 358 115 435 214 
Q 512 314 512 602 
L 512 2157 
Q 512 2394 467 2483 
Q 422 2573 288 2573 
Q 160 2573 102 2547 
L 102 2656 
Q 550 2784 979 2944 
L 1030 2925 
L 1030 2426 
L 1037 2426 
Q 1491 2944 1958 2944 
Q 2323 2944 2518 2688 
Q 2714 2432 2714 1958 
L 2714 544 
Q 2714 288 2790 205 
Q 2867 122 3104 96 
L 3104 0 
z
" transform="scale(0.015625)"/>
       <path id="STIXGeneral-Regular-63" d="M 2547 998 
L 2637 941 
Q 2362 403 2112 205 
Q 1786 -64 1376 -64 
Q 845 -64 502 336 
Q 160 736 160 1357 
Q 160 2170 698 2618 
Q 1094 2944 1562 2944 
Q 1965 2944 2256 2749 
Q 2547 2554 2547 2285 
Q 2547 2176 2457 2096 
Q 2368 2016 2246 2016 
Q 2022 2016 1939 2310 
L 1901 2451 
Q 1850 2630 1773 2694 
Q 1696 2758 1523 2758 
Q 1133 2758 893 2451 
Q 653 2144 653 1645 
Q 653 1094 928 745 
Q 1203 397 1645 397 
Q 1920 397 2118 528 
Q 2317 659 2547 998 
z
" transform="scale(0.015625)"/>
       <path id="STIXGeneral-Regular-72" d="M 1024 2931 
L 1024 2342 
Q 1267 2688 1430 2816 
Q 1594 2944 1792 2944 
Q 1958 2944 2051 2854 
Q 2144 2765 2144 2605 
Q 2144 2470 2077 2393 
Q 2010 2317 1894 2317 
Q 1773 2317 1638 2445 
Q 1536 2541 1472 2541 
Q 1338 2541 1181 2355 
Q 1024 2170 1024 2016 
L 1024 576 
Q 1024 301 1133 205 
Q 1242 109 1568 96 
L 1568 0 
L 32 0 
L 32 96 
Q 339 154 412 224 
Q 486 294 486 538 
L 486 2138 
Q 486 2349 438 2435 
Q 390 2522 269 2522 
Q 166 2522 45 2496 
L 45 2598 
Q 448 2726 992 2944 
L 1024 2931 
z
" transform="scale(0.015625)"/>
       <path id="STIXGeneral-Regular-61" d="M 2829 422 
L 2829 243 
Q 2586 -64 2253 -64 
Q 1888 -64 1843 403 
L 1837 403 
Q 1427 -64 909 -64 
Q 608 -64 422 112 
Q 237 288 237 602 
Q 237 1050 685 1350 
Q 992 1555 1837 1869 
L 1837 2214 
Q 1837 2502 1699 2646 
Q 1562 2790 1338 2790 
Q 1146 2790 1018 2697 
Q 890 2605 890 2477 
Q 890 2419 909 2348 
Q 928 2278 928 2208 
Q 928 2112 841 2029 
Q 755 1946 634 1946 
Q 525 1946 441 2029 
Q 358 2112 358 2240 
Q 358 2547 685 2752 
Q 986 2944 1421 2944 
Q 1939 2944 2176 2656 
Q 2291 2522 2323 2384 
Q 2355 2246 2355 1946 
L 2355 723 
Q 2355 301 2554 301 
Q 2682 301 2829 422 
z
M 1837 813 
L 1837 1715 
Q 1248 1510 1018 1293 
Q 800 1094 800 800 
Q 800 557 921 432 
Q 1043 307 1242 307 
Q 1453 307 1613 410 
Q 1747 506 1792 589 
Q 1837 672 1837 813 
z
" transform="scale(0.015625)"/>
       <path id="STIXGeneral-Regular-69" d="M 1152 4045 
Q 1152 3904 1056 3811 
Q 960 3718 819 3718 
Q 685 3718 592 3811 
Q 499 3904 499 4045 
Q 499 4179 595 4275 
Q 691 4371 826 4371 
Q 966 4371 1059 4275 
Q 1152 4179 1152 4045 
z
M 1619 0 
L 102 0 
L 102 96 
Q 435 115 521 211 
Q 608 307 608 666 
L 608 2118 
Q 608 2342 563 2432 
Q 518 2522 397 2522 
Q 243 2522 128 2490 
L 128 2592 
L 1120 2944 
L 1146 2918 
L 1146 672 
Q 1146 314 1226 218 
Q 1306 122 1619 96 
L 1619 0 
z
" transform="scale(0.015625)"/>
       <path id="STIXGeneral-Italic-43" d="M 4410 4250 
L 4173 2970 
L 4058 2989 
Q 3942 4032 3104 4032 
Q 2406 4032 1830 3411 
Q 1491 3053 1315 2541 
Q 1139 2029 1139 1485 
Q 1139 173 2259 173 
Q 2656 173 2985 339 
Q 3315 506 3725 934 
L 3840 838 
Q 3411 333 2998 109 
Q 2586 -115 2093 -115 
Q 1344 -115 883 329 
Q 422 774 422 1555 
Q 422 2214 748 2812 
Q 1075 3411 1619 3795 
Q 2272 4262 3021 4262 
Q 3462 4262 3770 4154 
Q 3898 4109 4032 4109 
Q 4205 4109 4275 4250 
L 4410 4250 
z
" transform="scale(0.015625)"/>
       <path id="STIXGeneral-Regular-6c" d="M 1645 0 
L 134 0 
L 134 96 
Q 435 122 531 221 
Q 627 320 627 589 
L 627 3590 
Q 627 3821 569 3910 
Q 512 4000 358 4000 
Q 224 4000 122 3987 
L 122 4090 
Q 730 4237 1133 4371 
L 1165 4346 
L 1165 557 
Q 1165 288 1254 201 
Q 1344 115 1645 96 
L 1645 0 
z
" transform="scale(0.015625)"/>
       <path id="STIXGeneral-Regular-2f" d="M 1837 4326 
L 378 -90 
L -58 -90 
L 1408 4326 
L 1837 4326 
z
" transform="scale(0.015625)"/>
      </defs>
      <use xlink:href="#STIXGeneral-Regular-43" transform="translate(0 0.703125)"/>
      <use xlink:href="#STIXGeneral-Regular-6f" transform="translate(66.699997 0.703125)"/>
      <use xlink:href="#STIXGeneral-Regular-6e" transform="translate(116.699982 0.703125)"/>
      <use xlink:href="#STIXGeneral-Regular-63" transform="translate(166.699966 0.703125)"/>
      <use xlink:href="#STIXGeneral-Regular-65" transform="translate(211.09996 0.703125)"/>
      <use xlink:href="#STIXGeneral-Regular-6e" transform="translate(255.499954 0.703125)"/>
      <use xlink:href="#STIXGeneral-Regular-74" transform="translate(305.499939 0.703125)"/>
      <use xlink:href="#STIXGeneral-Regular-72" transform="translate(333.299927 0.703125)"/>
      <use xlink:href="#STIXGeneral-Regular-61" transform="translate(366.599915 0.703125)"/>
      <use xlink:href="#STIXGeneral-Regular-74" transform="translate(410.999908 0.703125)"/>
      <use xlink:href="#STIXGeneral-Regular-69" transform="translate(438.799896 0.703125)"/>
      <use xlink:href="#STIXGeneral-Regular-6f" transform="translate(466.599884 0.703125)"/>
      <use xlink:href="#STIXGeneral-Regular-6e" transform="translate(516.599869 0.703125)"/>
      <use xlink:href="#STIXGeneral-Regular-20" transform="translate(566.599854 0.703125)"/>
      <use xlink:href="#STIXGeneral-Italic-43" transform="translate(591.599838 0.703125)"/>
      <use xlink:href="#STIXGeneral-Regular-20" transform="translate(658.299835 0.703125)"/>
      <use xlink:href="#STIXGeneral-Regular-5b" transform="translate(683.29982 0.703125)"/>
      <use xlink:href="#STIXGeneral-Regular-b5" transform="translate(716.599808 0.703125)"/>
      <use xlink:href="#STIXGeneral-Regular-6d" transform="translate(766.599792 0.703125)"/>
      <use xlink:href="#STIXGeneral-Regular-6f" transform="translate(844.39978 0.703125)"/>
      <use xlink:href="#STIXGeneral-Regular-6c" transform="translate(894.399765 0.703125)"/>
      <use xlink:href="#STIXGeneral-Regular-2f" transform="translate(922.199753 0.703125)"/>
      <use xlink:href="#STIXGeneral-Regular-6d" transform="translate(949.999741 0.703125)"/>
      <use xlink:href="#STIXGeneral-Regular-6f" transform="translate(1027.799728 0.703125)"/>
      <use xlink:href="#STIXGeneral-Regular-6c" transform="translate(1077.799713 0.703125)"/>
      <use xlink:href="#STIXGeneral-Regular-5d" transform="translate(1105.599701 0.703125)"/>
     </g>
    </g>
   </g>
   <g id="patch_3">
    <path d="M 36 192.24 
L 36 25.92 
" style="fill: none; stroke: #000000; stroke-width: 0.8; stroke-linejoin: miter; stroke-linecap: square"/>
   </g>
   <g id="patch_4">
    <path d="M 259.2 192.24 
L 259.2 25.92 
" style="fill: none; stroke: #000000; stroke-width: 0.8; stroke-linejoin: miter; stroke-linecap: square"/>
   </g>
   <g id="patch_5">
    <path d="M 36 192.24 
L 259.2 192.24 
" style="fill: none; stroke: #000000; stroke-width: 0.8; stroke-linejoin: miter; stroke-linecap: square"/>
   </g>
   <g id="patch_6">
    <path d="M 36 25.92 
L 259.2 25.92 
" style="fill: none; stroke: #000000; stroke-width: 0.8; stroke-linejoin: miter; stroke-linecap: square"/>
   </g>
   <g id="line2d_10">
    <path d="M 53.169231 105.552 
L 54.903497 105.558866 
L 56.637762 105.565661 
L 58.372028 105.572387 
L 60.106294 105.579043 
L 61.840559 105.585629 
L 63.574825 105.592145 
L 65.309091 105.598592 
L 67.043357 105.604968 
L 68.777622 105.611274 
L 70.511888 105.617511 
L 72.246154 105.623678 
L 73.98042 105.629774 
L 75.714685 105.635801 
L 77.448951 105.641758 
L 79.183217 105.647646 
L 80.917483 105.653463 
L 82.651748 105.659211 
L 84.386014 105.664889 
L 86.12028 105.670497 
L 87.854545 105.676035 
L 89.588811 105.681503 
L 91.323077 105.686902 
L 93.057343 105.69223 
L 94.791608 105.697489 
L 96.525874 105.702678 
L 98.26014 105.707798 
L 99.994406 105.712847 
L 101.728671 105.717827 
L 103.462937 105.722737 
L 105.197203 105.727578 
L 106.931469 105.732348 
L 108.665734 105.737049 
L 110.4 105.74168 
L 112.134266 105.746241 
L 113.868531 105.750733 
L 115.602797 105.755155 
L 117.337063 105.759507 
L 119.071329 105.763789 
L 120.805594 105.768002 
L 122.53986 105.772145 
L 124.274126 105.776218 
L 126.008392 105.780222 
L 127.742657 105.784155 
L 129.476923 105.78802 
L 131.211189 105.791814 
L 132.945455 105.795539 
L 134.67972 105.799194 
L 136.413986 105.802779 
L 138.148252 105.806295 
L 139.882517 105.809741 
L 141.616783 105.813117 
L 143.351049 105.816424 
L 145.085315 105.819661 
L 146.81958 105.822828 
L 148.553846 105.825926 
L 150.288112 105.828954 
L 152.022378 105.831912 
L 153.756643 105.834801 
L 155.490909 105.83762 
L 157.225175 105.84037 
L 158.959441 105.843049 
L 160.693706 105.84566 
L 162.427972 105.8482 
L 164.162238 105.850671 
L 165.896503 105.853072 
L 167.630769 105.855404 
L 169.365035 105.857666 
L 171.099301 105.859858 
L 172.833566 105.861981 
L 174.567832 105.864034 
L 176.302098 105.866018 
L 178.036364 105.867932 
L 179.770629 105.869776 
L 181.504895 105.871551 
L 183.239161 105.873256 
L 184.973427 105.874891 
L 186.707692 105.876457 
L 188.441958 105.877953 
L 190.176224 105.87938 
L 191.91049 105.880737 
L 193.644755 105.882024 
L 195.379021 105.883242 
L 197.113287 105.88439 
L 198.847552 105.885469 
L 200.581818 105.886478 
L 202.316084 105.887418 
L 204.05035 105.888287 
L 205.784615 105.889088 
L 207.518881 105.889818 
L 209.253147 105.890479 
L 210.987413 105.891071 
L 212.721678 105.891593 
L 214.455944 105.892045 
L 216.19021 105.892428 
L 217.924476 105.892741 
L 219.658741 105.892985 
L 221.393007 105.893159 
L 223.127273 105.893263 
L 224.861538 105.893298 
" clip-path="url(#p2b75d9360c)" style="fill: none; stroke: #71a8c4; stroke-width: 2; stroke-linecap: square"/>
   </g>
   <g id="line2d_11">
    <path d="M 36 71.28 
L 37.907692 75.088 
L 39.815385 78.896 
L 41.723077 82.704 
L 43.630769 86.512 
L 45.538462 90.32 
L 47.446154 94.128 
L 49.353846 97.936 
L 51.261538 101.744 
L 53.169231 105.552 
" clip-path="url(#p2b75d9360c)" style="fill: none; stroke: #71a8c4; stroke-width: 2; stroke-linecap: square"/>
   </g>
   <g id="line2d_12">
    <path d="M 224.861538 192.24 
L 224.861538 105.893298 
" clip-path="url(#p2b75d9360c)" style="fill: none; stroke-dasharray: 5.55,2.4; stroke-dashoffset: 0; stroke: #71a8c4; stroke-width: 1.5"/>
   </g>
   <g id="line2d_13">
    <path d="M 53.169231 110.97 
L 53.862937 111.119159 
L 54.556643 111.266683 
L 55.25035 111.412575 
L 55.944056 111.55684 
L 56.637762 111.69948 
L 57.331469 111.840499 
L 58.025175 111.979902 
L 58.718881 112.117692 
L 59.412587 112.253871 
L 60.106294 112.388445 
L 60.8 112.521415 
L 61.493706 112.652786 
L 62.187413 112.78256 
L 62.881119 112.910742 
L 63.574825 113.037334 
L 64.268531 113.162339 
L 64.962238 113.285762 
L 65.655944 113.407604 
L 66.34965 113.52787 
L 67.043357 113.646561 
L 67.737063 113.763682 
L 68.430769 113.879235 
L 69.124476 113.993223 
L 69.818182 114.105649 
L 70.511888 114.216516 
L 71.205594 114.325826 
L 71.899301 114.433583 
L 72.593007 114.539789 
L 73.286713 114.644447 
L 73.98042 114.74756 
L 74.674126 114.84913 
L 75.367832 114.94916 
L 76.061538 115.047652 
L 76.755245 115.144609 
L 77.448951 115.240034 
L 78.142657 115.333928 
L 78.836364 115.426294 
L 79.53007 115.517135 
L 80.223776 115.606453 
L 80.917483 115.69425 
L 81.611189 115.780528 
L 82.304895 115.86529 
L 82.998601 115.948538 
L 83.692308 116.030273 
L 84.386014 116.110499 
L 85.07972 116.189216 
L 85.773427 116.266428 
L 86.467133 116.342135 
L 87.160839 116.416341 
L 87.854545 116.489046 
L 88.548252 116.560253 
L 89.241958 116.629963 
L 89.935664 116.698179 
L 90.629371 116.764901 
L 91.323077 116.830133 
L 92.016783 116.893874 
L 92.71049 116.956128 
L 93.404196 117.016895 
L 94.097902 117.076177 
L 94.791608 117.133976 
L 95.485315 117.190293 
L 96.179021 117.24513 
L 96.872727 117.298487 
L 97.566434 117.350367 
L 98.26014 117.40077 
L 98.953846 117.449699 
L 99.647552 117.497153 
L 100.341259 117.543135 
L 101.034965 117.587646 
L 101.728671 117.630686 
L 102.422378 117.672257 
L 103.116084 117.712359 
L 103.80979 117.750995 
L 104.503497 117.788164 
L 105.197203 117.823869 
L 105.890909 117.858108 
L 106.584615 117.890885 
L 107.278322 117.922199 
L 107.972028 117.952051 
L 108.665734 117.980442 
L 109.359441 118.007373 
L 110.053147 118.032844 
L 110.746853 118.056856 
L 111.440559 118.07941 
L 112.134266 118.100506 
L 112.827972 118.120145 
L 113.521678 118.138327 
L 114.215385 118.155053 
L 114.909091 118.170323 
L 115.602797 118.184138 
L 116.296503 118.196497 
L 116.99021 118.207402 
L 117.683916 118.216852 
L 118.377622 118.224848 
L 119.071329 118.231389 
L 119.765035 118.236477 
L 120.458741 118.240111 
L 121.152448 118.242292 
L 121.846154 118.243019 
" clip-path="url(#p2b75d9360c)" style="fill: none; stroke: #307da6; stroke-width: 2; stroke-linecap: square"/>
   </g>
   <g id="line2d_14">
    <path d="M 36 78.84 
L 37.907692 82.41 
L 39.815385 85.98 
L 41.723077 89.55 
L 43.630769 93.12 
L 45.538462 96.69 
L 47.446154 100.26 
L 49.353846 103.83 
L 51.261538 107.4 
L 53.169231 110.97 
" clip-path="url(#p2b75d9360c)" style="fill: none; stroke: #307da6; stroke-width: 2; stroke-linecap: square"/>
   </g>
   <g id="line2d_15">
    <path d="M 121.846154 192.24 
L 121.846154 118.243019 
" clip-path="url(#p2b75d9360c)" style="fill: none; stroke-dasharray: 5.55,2.4; stroke-dashoffset: 0; stroke: #307da6; stroke-width: 1.5"/>
   </g>
   <g id="line2d_16">
    <path d="M 53.169231 124.515 
L 54.20979 124.924228 
L 55.25035 125.328035 
L 56.290909 125.72646 
L 57.331469 126.119545 
L 58.372028 126.507331 
L 59.412587 126.889855 
L 60.453147 127.267159 
L 61.493706 127.639279 
L 62.534266 128.006254 
L 63.574825 128.368122 
L 64.615385 128.724919 
L 65.655944 129.076682 
L 66.696503 129.423447 
L 67.737063 129.765248 
L 68.777622 130.102122 
L 69.818182 130.434102 
L 70.858741 130.761222 
L 71.899301 131.083515 
L 72.93986 131.401015 
L 73.98042 131.713754 
L 75.020979 132.021763 
L 76.061538 132.325075 
L 77.102098 132.623719 
L 78.142657 132.917728 
L 79.183217 133.20713 
L 80.223776 133.491954 
L 81.264336 133.772232 
L 82.304895 134.047989 
L 83.345455 134.319256 
L 84.386014 134.586059 
L 85.426573 134.848427 
L 86.467133 135.106384 
L 87.507692 135.359959 
L 88.548252 135.609176 
L 89.588811 135.854061 
L 90.629371 136.09464 
L 91.66993 136.330936 
L 92.71049 136.562974 
L 93.751049 136.790778 
L 94.791608 137.01437 
L 95.832168 137.233774 
L 96.872727 137.449012 
L 97.913287 137.660106 
L 98.953846 137.867077 
L 99.994406 138.069947 
L 101.034965 138.268736 
L 102.075524 138.463464 
L 103.116084 138.654152 
L 104.156643 138.840819 
L 105.197203 139.023484 
L 106.237762 139.202165 
L 107.278322 139.376881 
L 108.318881 139.54765 
L 109.359441 139.714489 
L 110.4 139.877414 
L 111.440559 140.036444 
L 112.481119 140.191593 
L 113.521678 140.342878 
L 114.562238 140.490314 
L 115.602797 140.633916 
L 116.643357 140.7737 
L 117.683916 140.909678 
L 118.724476 141.041865 
L 119.765035 141.170275 
L 120.805594 141.294921 
L 121.846154 141.415814 
L 122.886713 141.532969 
L 123.927273 141.646396 
L 124.967832 141.756107 
L 126.008392 141.862113 
L 127.048951 141.964426 
L 128.08951 142.063055 
L 129.13007 142.158011 
L 130.170629 142.249303 
L 131.211189 142.336941 
L 132.251748 142.420934 
L 133.292308 142.50129 
L 134.332867 142.578017 
L 135.373427 142.651123 
L 136.413986 142.720617 
L 137.454545 142.786503 
L 138.495105 142.848791 
L 139.535664 142.907485 
L 140.576224 142.962592 
L 141.616783 143.014117 
L 142.657343 143.062067 
L 143.697902 143.106444 
L 144.738462 143.147255 
L 145.779021 143.184503 
L 146.81958 143.218193 
L 147.86014 143.248327 
L 148.900699 143.274908 
L 149.941259 143.29794 
L 150.981818 143.317424 
L 152.022378 143.333363 
L 153.062937 143.345759 
L 154.103497 143.354612 
L 155.144056 143.359923 
L 156.184615 143.361694 
" clip-path="url(#p2b75d9360c)" style="fill: none; stroke: #06568c; stroke-width: 2; stroke-linecap: square"/>
   </g>
   <g id="line2d_17">
    <path d="M 36 97.74 
L 37.907692 100.715 
L 39.815385 103.69 
L 41.723077 106.665 
L 43.630769 109.64 
L 45.538462 112.615 
L 47.446154 115.59 
L 49.353846 118.565 
L 51.261538 121.54 
L 53.169231 124.515 
" clip-path="url(#p2b75d9360c)" style="fill: none; stroke: #06568c; stroke-width: 2; stroke-linecap: square"/>
   </g>
   <g id="line2d_18">
    <path d="M 156.184615 192.24 
L 156.184615 143.361694 
" clip-path="url(#p2b75d9360c)" style="fill: none; stroke-dasharray: 5.55,2.4; stroke-dashoffset: 0; stroke: #06568c; stroke-width: 1.5"/>
   </g>
   <g id="line2d_19">
    <path d="M 53.169231 89.298 
L 54.556643 90.866709 
L 55.944056 92.402839 
L 57.331469 93.907014 
L 58.718881 95.37985 
L 60.106294 96.821948 
L 61.493706 98.233896 
L 62.881119 99.616271 
L 64.268531 100.969636 
L 65.655944 102.294544 
L 67.043357 103.591536 
L 68.430769 104.861141 
L 69.818182 106.103877 
L 71.205594 107.320252 
L 72.593007 108.510761 
L 73.98042 109.675892 
L 75.367832 110.816119 
L 76.755245 111.931907 
L 78.142657 113.023713 
L 79.53007 114.091981 
L 80.917483 115.137148 
L 82.304895 116.15964 
L 83.692308 117.159875 
L 85.07972 118.138261 
L 86.467133 119.095197 
L 87.854545 120.031073 
L 89.241958 120.946273 
L 90.629371 121.841168 
L 92.016783 122.716125 
L 93.404196 123.5715 
L 94.791608 124.407643 
L 96.179021 125.224895 
L 97.566434 126.023589 
L 98.953846 126.804052 
L 100.341259 127.566602 
L 101.728671 128.31155 
L 103.116084 129.0392 
L 104.503497 129.749849 
L 105.890909 130.443788 
L 107.278322 131.121299 
L 108.665734 131.782659 
L 110.053147 132.428138 
L 111.440559 133.057999 
L 112.827972 133.672499 
L 114.215385 134.27189 
L 115.602797 134.856416 
L 116.99021 135.426315 
L 118.377622 135.98182 
L 119.765035 136.523158 
L 121.152448 137.05055 
L 122.53986 137.56421 
L 123.927273 138.064349 
L 125.314685 138.551171 
L 126.702098 139.024874 
L 128.08951 139.485651 
L 129.476923 139.933692 
L 130.864336 140.369178 
L 132.251748 140.792287 
L 133.639161 141.203193 
L 135.026573 141.602062 
L 136.413986 141.989058 
L 137.801399 142.364338 
L 139.188811 142.728056 
L 140.576224 143.08036 
L 141.963636 143.421394 
L 143.351049 143.751297 
L 144.738462 144.070204 
L 146.125874 144.378245 
L 147.513287 144.675545 
L 148.900699 144.962226 
L 150.288112 145.238406 
L 151.675524 145.504195 
L 153.062937 145.759704 
L 154.45035 146.005037 
L 155.837762 146.240293 
L 157.225175 146.465568 
L 158.612587 146.680955 
L 160 146.886542 
L 161.387413 147.082412 
L 162.774825 147.268645 
L 164.162238 147.445317 
L 165.54965 147.612501 
L 166.937063 147.770264 
L 168.324476 147.918672 
L 169.711888 148.057784 
L 171.099301 148.187657 
L 172.486713 148.308345 
L 173.874126 148.419896 
L 175.261538 148.522356 
L 176.648951 148.615768 
L 178.036364 148.700168 
L 179.423776 148.775592 
L 180.811189 148.842071 
L 182.198601 148.899631 
L 183.586014 148.948295 
L 184.973427 148.988085 
L 186.360839 149.019015 
L 187.748252 149.0411 
L 189.135664 149.054347 
L 190.523077 149.058762 
" clip-path="url(#p2b75d9360c)" style="fill: none; stroke: #023376; stroke-width: 2; stroke-linecap: square"/>
   </g>
   <g id="line2d_20">
    <path d="M 36 48.6 
L 37.907692 53.122 
L 39.815385 57.644 
L 41.723077 62.166 
L 43.630769 66.688 
L 45.538462 71.21 
L 47.446154 75.732 
L 49.353846 80.254 
L 51.261538 84.776 
L 53.169231 89.298 
" clip-path="url(#p2b75d9360c)" style="fill: none; stroke: #023376; stroke-width: 2; stroke-linecap: square"/>
   </g>
   <g id="line2d_21">
    <path d="M 190.523077 192.24 
L 190.523077 149.058762 
" clip-path="url(#p2b75d9360c)" style="fill: none; stroke-dasharray: 5.55,2.4; stroke-dashoffset: 0; stroke: #023376; stroke-width: 1.5"/>
   </g>
   <g id="line2d_22">
    <path d="M 53.169231 97.425 
L 54.73007 104.627825 
L 56.290909 111.138631 
L 57.851748 117.023904 
L 59.412587 122.343742 
L 60.973427 127.152472 
L 62.534266 131.499197 
L 64.095105 135.428306 
L 65.655944 138.979922 
L 67.216783 142.190312 
L 68.777622 145.092261 
L 70.338462 147.715401 
L 71.899301 150.086521 
L 73.46014 152.229832 
L 75.020979 154.167223 
L 76.581818 155.918476 
L 78.142657 157.501476 
L 79.703497 158.932388 
L 81.264336 160.225823 
L 82.825175 161.39499 
L 84.386014 162.451828 
L 85.946853 163.407129 
L 87.507692 164.270648 
L 89.068531 165.051204 
L 90.629371 165.756767 
L 92.19021 166.394542 
L 93.751049 166.971042 
L 95.311888 167.492154 
L 96.872727 167.9632 
L 98.433566 168.38899 
L 99.994406 168.773871 
L 101.555245 169.121774 
L 103.116084 169.436252 
L 104.676923 169.720516 
L 106.237762 169.977469 
L 107.798601 170.209735 
L 109.359441 170.419686 
L 110.92028 170.609465 
L 112.481119 170.781011 
L 114.041958 170.936075 
L 115.602797 171.076242 
L 117.163636 171.202941 
L 118.724476 171.317467 
L 120.285315 171.42099 
L 121.846154 171.514567 
L 123.406993 171.599153 
L 124.967832 171.675612 
L 126.528671 171.744725 
L 128.08951 171.807197 
L 129.65035 171.863667 
L 131.211189 171.914711 
L 132.772028 171.96085 
L 134.332867 172.002556 
L 135.893706 172.040255 
L 137.454545 172.074331 
L 139.015385 172.105132 
L 140.576224 172.132973 
L 142.137063 172.158139 
L 143.697902 172.180886 
L 145.258741 172.201446 
L 146.81958 172.22003 
L 148.38042 172.236827 
L 149.941259 172.252009 
L 151.502098 172.26573 
L 153.062937 172.278132 
L 154.623776 172.28934 
L 156.184615 172.299469 
L 157.745455 172.308623 
L 159.306294 172.316894 
L 160.867133 172.324368 
L 162.427972 172.331121 
L 163.988811 172.337222 
L 165.54965 172.342732 
L 167.11049 172.347709 
L 168.671329 172.352202 
L 170.232168 172.356259 
L 171.793007 172.35992 
L 173.353846 172.363223 
L 174.914685 172.366201 
L 176.475524 172.368886 
L 178.036364 172.371303 
L 179.597203 172.373479 
L 181.158042 172.375435 
L 182.718881 172.377191 
L 184.27972 172.378765 
L 185.840559 172.380173 
L 187.401399 172.38143 
L 188.962238 172.382549 
L 190.523077 172.38354 
L 192.083916 172.384414 
L 193.644755 172.385181 
L 195.205594 172.385847 
L 196.766434 172.386419 
L 198.327273 172.386904 
L 199.888112 172.387306 
L 201.448951 172.387629 
L 203.00979 172.387878 
L 204.570629 172.388053 
L 206.131469 172.388158 
L 207.692308 172.388193 
" clip-path="url(#p2b75d9360c)" style="fill: none; stroke: #001261; stroke-width: 2; stroke-linecap: square"/>
   </g>
   <g id="line2d_23">
    <path d="M 36 59.94 
L 37.907692 64.105 
L 39.815385 68.27 
L 41.723077 72.435 
L 43.630769 76.6 
L 45.538462 80.765 
L 47.446154 84.93 
L 49.353846 89.095 
L 51.261538 93.26 
L 53.169231 97.425 
" clip-path="url(#p2b75d9360c)" style="fill: none; stroke: #001261; stroke-width: 2; stroke-linecap: square"/>
   </g>
   <g id="line2d_24">
    <path d="M 207.692308 192.24 
L 207.692308 172.388193 
" clip-path="url(#p2b75d9360c)" style="fill: none; stroke-dasharray: 5.55,2.4; stroke-dashoffset: 0; stroke: #001261; stroke-width: 1.5"/>
   </g>
   <g id="legend_1">
    <g id="patch_7">
     <path d="M 162.395625 69.54 
L 250.8 69.54 
Q 253.2 69.54 253.2 67.14 
L 253.2 34.32 
Q 253.2 31.92 250.8 31.92 
L 162.395625 31.92 
Q 159.995625 31.92 159.995625 34.32 
L 159.995625 67.14 
Q 159.995625 69.54 162.395625 69.54 
z
" style="fill: #ffffff; opacity: 0.8; stroke: #cccccc; stroke-linejoin: miter"/>
    </g>
    <g id="patch_8">
     <path d="M 164.795625 45.12 
L 188.795625 45.12 
L 188.795625 36.72 
L 164.795625 36.72 
z
" style="fill: #ffffff; fill-opacity: 0.7; stroke: #ffffff; stroke-opacity: 0.7; stroke-linejoin: miter"/>
    </g>
    <g id="text_12">
     <!-- stomata -->
     <g transform="translate(198.395625 45.12) scale(0.12 -0.12)">
      <defs>
       <path id="STIXGeneral-Regular-73" d="M 998 1926 
L 1664 1523 
Q 1984 1331 2105 1164 
Q 2227 998 2227 736 
Q 2227 416 1961 176 
Q 1696 -64 1331 -64 
Q 1030 -64 864 -6 
Q 691 51 570 51 
Q 461 51 416 -26 
L 333 -26 
L 333 979 
L 435 979 
Q 538 512 730 294 
Q 922 77 1248 77 
Q 1485 77 1632 211 
Q 1779 346 1779 550 
Q 1779 845 1440 1030 
L 1094 1222 
Q 326 1651 326 2150 
Q 326 2522 566 2730 
Q 806 2938 1210 2938 
Q 1491 2938 1638 2867 
Q 1754 2816 1818 2816 
Q 1862 2816 1920 2880 
L 1990 2880 
L 2022 2010 
L 1926 2010 
Q 1818 2445 1654 2621 
Q 1491 2797 1203 2797 
Q 986 2797 854 2688 
Q 723 2579 723 2362 
Q 723 2253 796 2128 
Q 870 2003 998 1926 
z
" transform="scale(0.015625)"/>
      </defs>
      <use xlink:href="#STIXGeneral-Regular-73"/>
      <use xlink:href="#STIXGeneral-Regular-74" x="38.899994"/>
      <use xlink:href="#STIXGeneral-Regular-6f" x="66.699982"/>
      <use xlink:href="#STIXGeneral-Regular-6d" x="116.699966"/>
      <use xlink:href="#STIXGeneral-Regular-61" x="194.499954"/>
      <use xlink:href="#STIXGeneral-Regular-74" x="238.899948"/>
      <use xlink:href="#STIXGeneral-Regular-61" x="266.699936"/>
     </g>
    </g>
    <g id="patch_9">
     <path d="M 164.795625 62.124375 
L 188.795625 62.124375 
L 188.795625 53.724375 
L 164.795625 53.724375 
z
" style="fill: #808080; fill-opacity: 0.4; stroke: #808080; stroke-opacity: 0.4; stroke-linejoin: miter"/>
    </g>
    <g id="text_13">
     <!-- mesophyll -->
     <g transform="translate(198.395625 62.124375) scale(0.12 -0.12)">
      <defs>
       <path id="STIXGeneral-Regular-79" d="M 3040 2880 
L 3040 2784 
Q 2925 2771 2854 2700 
Q 2784 2630 2720 2458 
L 1760 -160 
Q 1510 -838 1257 -1116 
Q 1005 -1395 640 -1395 
Q 435 -1395 313 -1289 
Q 192 -1184 192 -1024 
Q 192 -902 272 -816 
Q 352 -730 467 -730 
Q 653 -730 800 -813 
Q 883 -858 966 -858 
Q 1101 -858 1286 -576 
Q 1376 -448 1459 -211 
Q 1542 26 1542 115 
Q 1542 198 1274 762 
L 429 2566 
Q 346 2752 90 2790 
L 90 2880 
L 1402 2880 
L 1402 2784 
Q 1197 2778 1117 2739 
Q 1037 2701 1037 2611 
Q 1037 2541 1120 2349 
L 1837 749 
L 2458 2515 
Q 2483 2573 2483 2630 
Q 2483 2784 2189 2784 
L 2189 2880 
L 3040 2880 
z
" transform="scale(0.015625)"/>
      </defs>
      <use xlink:href="#STIXGeneral-Regular-6d"/>
      <use xlink:href="#STIXGeneral-Regular-65" x="77.799988"/>
      <use xlink:href="#STIXGeneral-Regular-73" x="122.199982"/>
      <use xlink:href="#STIXGeneral-Regular-6f" x="161.099976"/>
      <use xlink:href="#STIXGeneral-Regular-70" x="211.09996"/>
      <use xlink:href="#STIXGeneral-Regular-68" x="261.099945"/>
      <use xlink:href="#STIXGeneral-Regular-79" x="311.09993"/>
      <use xlink:href="#STIXGeneral-Regular-6c" x="361.099915"/>
      <use xlink:href="#STIXGeneral-Regular-6c" x="388.899902"/>
     </g>
    </g>
   </g>
  </g>
 </g>
 <defs>
  <clipPath id="p2b75d9360c">
   <rect x="36" y="25.92" width="223.2" height="166.32"/>
  </clipPath>
 </defs>
</svg>
