<?xml version="1.0" encoding="utf-8" standalone="no"?>
<!DOCTYPE svg PUBLIC "-//W3C//DTD SVG 1.1//EN"
  "http://www.w3.org/Graphics/SVG/1.1/DTD/svg11.dtd">
<svg xmlns:xlink="http://www.w3.org/1999/xlink" width="288pt" height="216pt" viewBox="0 0 288 216" xmlns="http://www.w3.org/2000/svg" version="1.1">
 <metadata>
  <rdf:RDF xmlns:dc="http://purl.org/dc/elements/1.1/" xmlns:cc="http://creativecommons.org/ns#" xmlns:rdf="http://www.w3.org/1999/02/22-rdf-syntax-ns#">
   <cc:Work>
    <dc:type rdf:resource="http://purl.org/dc/dcmitype/StillImage"/>
    <dc:date>2025-07-28T17:42:38.782166</dc:date>
    <dc:format>image/svg+xml</dc:format>
    <dc:creator>
     <cc:Agent>
      <dc:title>Matplotlib v3.9.3, https://matplotlib.org/</dc:title>
     </cc:Agent>
    </dc:creator>
   </cc:Work>
  </rdf:RDF>
 </metadata>
 <defs>
  <style type="text/css">*{stroke-linejoin: round; stroke-linecap: butt}</style>
 </defs>
 <g id="figure_1">
  <g id="patch_1">
   <path d="M 0 216 
L 288 216 
L 288 0 
L 0 0 
z
" style="fill: #ffffff"/>
  </g>
  <g id="axes_1">
   <g id="patch_2">
    <path d="M 36 192.24 
L 259.2 192.24 
L 259.2 25.92 
L 36 25.92 
z
" style="fill: #ffffff"/>
   </g>
   <g id="PolyCollection_1">
    <defs>
     <path id="m9aa9dbd96c" d="M 53.169231 -23.76 
L 36 -23.76 
L 36 -190.08 
L 53.169231 -190.08 
L 53.169231 -190.08 
L 53.169231 -23.76 
z
" style="stroke: #ffffff; stroke-opacity: 0.7"/>
    </defs>
    <g clip-path="url(#p1abbc20668)">
     <use xlink:href="#m9aa9dbd96c" x="0" y="216" style="fill: #ffffff; fill-opacity: 0.7; stroke: #ffffff; stroke-opacity: 0.7"/>
    </g>
   </g>
   <g id="PolyCollection_2">
    <defs>
     <path id="m55f1080d7b" d="M 259.2 -23.76 
L 53.169231 -23.76 
L 53.169231 -190.08 
L 259.2 -190.08 
L 259.2 -190.08 
L 259.2 -23.76 
z
" style="stroke: #808080; stroke-opacity: 0.4"/>
    </defs>
    <g clip-path="url(#p1abbc20668)">
     <use xlink:href="#m55f1080d7b" x="0" y="216" style="fill: #808080; fill-opacity: 0.4; stroke: #808080; stroke-opacity: 0.4"/>
    </g>
   </g>
   <g id="matplotlib.axis_1">
    <g id="xtick_1">
     <g id="line2d_1">
      <defs>
       <path id="mc79f02c9fd" d="M 0 0 
L 0 3.5 
" style="stroke: #000000; stroke-width: 0.8"/>
      </defs>
      <g>
       <use xlink:href="#mc79f02c9fd" x="53.169231" y="192.24" style="stroke: #000000; stroke-width: 0.8"/>
      </g>
     </g>
     <g id="text_1">
      <!-- 0 -->
      <g transform="translate(50.169231 207.435625) scale(0.12 -0.12)">
       <defs>
        <path id="STIXGeneral-Regular-30" d="M 3046 2112 
Q 3046 1683 2963 1302 
Q 2880 922 2717 602 
Q 2554 282 2266 96 
Q 1978 -90 1600 -90 
Q 1210 -90 915 108 
Q 621 307 461 640 
Q 301 973 227 1350 
Q 154 1728 154 2150 
Q 154 2746 301 3222 
Q 448 3699 790 4012 
Q 1133 4326 1626 4326 
Q 2253 4326 2649 3712 
Q 3046 3098 3046 2112 
z
M 2432 2080 
Q 2432 3091 2217 3625 
Q 2003 4160 1587 4160 
Q 1190 4160 979 3622 
Q 768 3085 768 2106 
Q 768 1120 979 598 
Q 1190 77 1600 77 
Q 2003 77 2217 598 
Q 2432 1120 2432 2080 
z
" transform="scale(0.015625)"/>
       </defs>
       <use xlink:href="#STIXGeneral-Regular-30"/>
      </g>
     </g>
    </g>
    <g id="xtick_2">
     <g id="line2d_2">
      <g>
       <use xlink:href="#mc79f02c9fd" x="121.846154" y="192.24" style="stroke: #000000; stroke-width: 0.8"/>
      </g>
     </g>
     <g id="text_2">
      <!-- 200 -->
      <g transform="translate(112.846154 207.435625) scale(0.12 -0.12)">
       <defs>
        <path id="STIXGeneral-Regular-32" d="M 3034 877 
L 2688 0 
L 186 0 
L 186 77 
L 1325 1286 
Q 1773 1754 1965 2144 
Q 2157 2534 2157 2950 
Q 2157 3379 1920 3616 
Q 1683 3853 1267 3853 
Q 922 3853 720 3673 
Q 518 3494 326 3021 
L 192 3053 
Q 301 3648 630 3987 
Q 960 4326 1523 4326 
Q 2054 4326 2380 4006 
Q 2707 3686 2707 3200 
Q 2707 2477 1888 1613 
L 832 486 
L 2330 486 
Q 2541 486 2665 569 
Q 2790 653 2944 915 
L 3034 877 
z
" transform="scale(0.015625)"/>
       </defs>
       <use xlink:href="#STIXGeneral-Regular-32"/>
       <use xlink:href="#STIXGeneral-Regular-30" x="49.999985"/>
       <use xlink:href="#STIXGeneral-Regular-30" x="99.999969"/>
      </g>
     </g>
    </g>
    <g id="xtick_3">
     <g id="line2d_3">
      <g>
       <use xlink:href="#mc79f02c9fd" x="190.523077" y="192.24" style="stroke: #000000; stroke-width: 0.8"/>
      </g>
     </g>
     <g id="text_3">
      <!-- 400 -->
      <g transform="translate(181.523077 207.435625) scale(0.12 -0.12)">
       <defs>
        <path id="STIXGeneral-Regular-34" d="M 3027 1069 
L 2368 1069 
L 2368 0 
L 1869 0 
L 1869 1069 
L 77 1069 
L 77 1478 
L 2086 4326 
L 2368 4326 
L 2368 1478 
L 3027 1478 
L 3027 1069 
z
M 1869 1478 
L 1869 3674 
L 333 1478 
L 1869 1478 
z
" transform="scale(0.015625)"/>
       </defs>
       <use xlink:href="#STIXGeneral-Regular-34"/>
       <use xlink:href="#STIXGeneral-Regular-30" x="49.999985"/>
       <use xlink:href="#STIXGeneral-Regular-30" x="99.999969"/>
      </g>
     </g>
    </g>
    <g id="xtick_4">
     <g id="line2d_4">
      <g>
       <use xlink:href="#mc79f02c9fd" x="259.2" y="192.24" style="stroke: #000000; stroke-width: 0.8"/>
      </g>
     </g>
     <g id="text_4">
      <!-- 600 -->
      <g transform="translate(250.2 207.435625) scale(0.12 -0.12)">
       <defs>
        <path id="STIXGeneral-Regular-36" d="M 2854 4378 
L 2867 4275 
Q 2112 4154 1606 3664 
Q 1101 3174 973 2451 
Q 1344 2739 1786 2739 
Q 2349 2739 2672 2380 
Q 2995 2022 2995 1402 
Q 2995 774 2669 378 
Q 2291 -90 1651 -90 
Q 870 -90 518 557 
Q 218 1107 218 1786 
Q 218 2835 915 3552 
Q 1312 3962 1731 4131 
Q 2150 4301 2854 4378 
z
M 2419 1203 
Q 2419 2445 1555 2445 
Q 1235 2445 1024 2275 
Q 813 2106 813 1702 
Q 813 954 1046 522 
Q 1280 90 1722 90 
Q 2061 90 2240 394 
Q 2419 698 2419 1203 
z
" transform="scale(0.015625)"/>
       </defs>
       <use xlink:href="#STIXGeneral-Regular-36"/>
       <use xlink:href="#STIXGeneral-Regular-30" x="49.999985"/>
       <use xlink:href="#STIXGeneral-Regular-30" x="99.999969"/>
      </g>
     </g>
    </g>
    <g id="text_5">
     <!-- Depth $z$ [µm] -->
     <g transform="translate(110.64 223.7) scale(0.14 -0.14)">
      <defs>
       <path id="STIXGeneral-Regular-44" d="M 102 4237 
L 1830 4237 
Q 3078 4237 3750 3654 
Q 4384 3110 4384 2138 
Q 4384 966 3514 410 
Q 2880 0 1901 0 
L 102 0 
L 102 122 
Q 474 147 570 252 
Q 666 358 666 736 
L 666 3520 
Q 666 3891 570 3990 
Q 474 4090 102 4115 
L 102 4237 
z
M 1318 3731 
L 1318 538 
Q 1318 365 1379 301 
Q 1440 237 1626 237 
Q 2125 237 2432 307 
Q 2739 378 3021 570 
Q 3686 1018 3686 2099 
Q 3686 3027 3078 3558 
Q 2803 3802 2476 3901 
Q 2150 4000 1658 4000 
Q 1472 4000 1395 3942 
Q 1318 3885 1318 3731 
z
" transform="scale(0.015625)"/>
       <path id="STIXGeneral-Regular-65" d="M 2611 1050 
L 2714 1005 
Q 2330 -64 1376 -64 
Q 813 -64 486 329 
Q 160 723 160 1389 
Q 160 2074 525 2509 
Q 890 2944 1485 2944 
Q 2061 2944 2374 2502 
Q 2560 2246 2592 1773 
L 621 1773 
Q 646 1370 700 1158 
Q 755 947 915 730 
Q 1184 378 1626 378 
Q 1939 378 2153 531 
Q 2368 685 2611 1050 
z
M 634 1978 
L 1939 1978 
Q 1882 2381 1750 2547 
Q 1619 2714 1312 2714 
Q 1043 2714 864 2525 
Q 685 2336 634 1978 
z
" transform="scale(0.015625)"/>
       <path id="STIXGeneral-Regular-70" d="M 1018 2931 
L 1018 2438 
Q 1421 2944 1939 2944 
Q 2406 2944 2707 2560 
Q 3008 2176 3008 1581 
Q 3008 883 2621 409 
Q 2234 -64 1664 -64 
Q 1466 -64 1328 -6 
Q 1190 51 1018 211 
L 1018 -794 
Q 1018 -1094 1120 -1180 
Q 1222 -1267 1581 -1274 
L 1581 -1389 
L 32 -1389 
L 32 -1280 
Q 314 -1254 397 -1171 
Q 480 -1088 480 -838 
L 480 2157 
Q 480 2381 429 2451 
Q 378 2522 218 2522 
Q 115 2522 58 2515 
L 58 2618 
Q 506 2752 979 2944 
L 1018 2931 
z
M 1018 2138 
L 1018 563 
Q 1018 422 1238 281 
Q 1459 141 1683 141 
Q 2029 141 2243 467 
Q 2458 794 2458 1325 
Q 2458 1888 2243 2224 
Q 2029 2560 1670 2560 
Q 1446 2560 1232 2419 
Q 1018 2278 1018 2138 
z
" transform="scale(0.015625)"/>
       <path id="STIXGeneral-Regular-74" d="M 1702 493 
L 1786 422 
Q 1478 -64 1011 -64 
Q 448 -64 448 749 
L 448 2675 
L 109 2675 
Q 83 2694 83 2720 
Q 83 2771 192 2842 
Q 435 2982 813 3526 
Q 826 3546 874 3606 
Q 922 3667 941 3706 
Q 986 3706 986 3622 
L 986 2880 
L 1632 2880 
L 1632 2675 
L 986 2675 
L 986 845 
Q 986 538 1062 403 
Q 1139 269 1318 269 
Q 1510 269 1702 493 
z
" transform="scale(0.015625)"/>
       <path id="STIXGeneral-Regular-68" d="M 3117 0 
L 1760 0 
L 1760 96 
Q 2042 128 2118 224 
Q 2195 320 2195 653 
L 2195 1920 
Q 2195 2598 1722 2598 
Q 1530 2598 1370 2508 
Q 1210 2419 1005 2195 
L 1005 653 
Q 1005 320 1081 224 
Q 1158 128 1440 96 
L 1440 0 
L 58 0 
L 58 96 
Q 333 134 400 224 
Q 467 314 467 653 
L 467 3667 
Q 467 3872 406 3933 
Q 346 3994 141 3994 
Q 83 3994 64 3987 
L 64 4090 
L 237 4141 
Q 730 4288 973 4371 
L 1005 4352 
L 1005 2406 
Q 1229 2694 1446 2819 
Q 1664 2944 1946 2944 
Q 2733 2944 2733 1926 
L 2733 653 
Q 2733 320 2793 233 
Q 2854 147 3117 96 
L 3117 0 
z
" transform="scale(0.015625)"/>
       <path id="STIXGeneral-Regular-20" transform="scale(0.015625)"/>
       <path id="STIXGeneral-Italic-7a" d="M 2432 2669 
L 582 467 
Q 877 403 1021 307 
Q 1165 211 1350 -64 
Q 1568 -384 1798 -384 
Q 1971 -384 1971 -288 
Q 1971 -256 1939 -192 
Q 1888 -90 1888 -13 
Q 1894 70 1958 137 
Q 2022 205 2099 205 
Q 2202 205 2262 141 
Q 2323 77 2323 -32 
Q 2323 -230 2156 -374 
Q 1990 -518 1728 -518 
Q 1459 -518 1005 -237 
Q 570 32 333 32 
Q 186 32 45 -83 
L -13 -26 
L 1971 2355 
L 1101 2355 
Q 845 2355 729 2281 
Q 614 2208 518 1971 
L 416 1997 
L 621 2739 
L 2432 2739 
L 2432 2669 
z
" transform="scale(0.015625)"/>
       <path id="STIXGeneral-Regular-5b" d="M 1914 -998 
L 563 -998 
L 563 4237 
L 1914 4237 
L 1914 4077 
L 1382 4077 
Q 1216 4077 1133 4006 
Q 1050 3936 1050 3770 
L 1050 -493 
Q 1050 -838 1382 -838 
L 1914 -838 
L 1914 -998 
z
" transform="scale(0.015625)"/>
       <path id="STIXGeneral-Regular-b5" d="M 2752 2880 
L 2752 614 
Q 2752 173 2950 173 
Q 3072 173 3277 358 
L 3277 301 
Q 3110 90 2998 13 
Q 2886 -64 2707 -64 
Q 2515 -64 2371 89 
Q 2227 243 2221 512 
L 2208 512 
Q 1894 -64 1370 -64 
Q 1094 -64 915 48 
Q 736 160 582 410 
Q 589 256 704 -233 
Q 819 -723 819 -902 
Q 819 -1395 512 -1395 
Q 378 -1395 304 -1257 
Q 230 -1120 230 -902 
Q 230 -717 307 -217 
Q 384 282 384 346 
L 384 2880 
L 947 2880 
L 947 992 
Q 947 666 1088 499 
Q 1229 333 1485 333 
Q 1990 333 2189 736 
L 2189 2880 
L 2752 2880 
z
" transform="scale(0.015625)"/>
       <path id="STIXGeneral-Regular-6d" d="M 4960 0 
L 3565 0 
L 3565 96 
Q 3834 122 3907 208 
Q 3981 294 3981 576 
L 3981 1894 
Q 3981 2278 3869 2444 
Q 3757 2611 3488 2611 
Q 3264 2611 3107 2521 
Q 2950 2432 2803 2221 
L 2803 608 
Q 2803 301 2896 201 
Q 2989 102 3264 96 
L 3264 0 
L 1830 0 
L 1830 96 
Q 2112 115 2189 188 
Q 2266 262 2266 550 
L 2266 1901 
Q 2266 2611 1850 2611 
Q 1670 2611 1468 2531 
Q 1267 2451 1171 2336 
Q 1088 2240 1088 2227 
L 1088 448 
Q 1088 243 1177 176 
Q 1267 109 1523 96 
L 1523 0 
L 102 0 
L 102 96 
Q 371 102 460 195 
Q 550 288 550 563 
L 550 2150 
Q 550 2387 499 2480 
Q 448 2573 326 2573 
Q 230 2573 122 2547 
L 122 2656 
Q 557 2778 1011 2944 
L 1062 2925 
L 1062 2451 
L 1075 2451 
Q 1363 2752 1584 2848 
Q 1805 2944 2054 2944 
Q 2560 2944 2733 2406 
Q 3232 2944 3776 2944 
Q 4518 2944 4518 1792 
L 4518 493 
Q 4518 282 4582 202 
Q 4646 122 4794 109 
L 4960 96 
L 4960 0 
z
" transform="scale(0.015625)"/>
       <path id="STIXGeneral-Regular-5d" d="M 1568 -998 
L 218 -998 
L 218 -838 
L 781 -838 
Q 947 -838 1014 -768 
Q 1082 -698 1082 -544 
L 1082 3731 
Q 1082 4077 755 4077 
L 218 4077 
L 218 4237 
L 1568 4237 
L 1568 -998 
z
" transform="scale(0.015625)"/>
      </defs>
      <use xlink:href="#STIXGeneral-Regular-44" transform="translate(0 0.703125)"/>
      <use xlink:href="#STIXGeneral-Regular-65" transform="translate(72.199982 0.703125)"/>
      <use xlink:href="#STIXGeneral-Regular-70" transform="translate(116.599976 0.703125)"/>
      <use xlink:href="#STIXGeneral-Regular-74" transform="translate(166.59996 0.703125)"/>
      <use xlink:href="#STIXGeneral-Regular-68" transform="translate(194.399948 0.703125)"/>
      <use xlink:href="#STIXGeneral-Regular-20" transform="translate(244.399933 0.703125)"/>
      <use xlink:href="#STIXGeneral-Italic-7a" transform="translate(269.399918 0.703125)"/>
      <use xlink:href="#STIXGeneral-Regular-20" transform="translate(308.299911 0.703125)"/>
      <use xlink:href="#STIXGeneral-Regular-5b" transform="translate(333.299896 0.703125)"/>
      <use xlink:href="#STIXGeneral-Regular-b5" transform="translate(366.599884 0.703125)"/>
      <use xlink:href="#STIXGeneral-Regular-6d" transform="translate(416.599869 0.703125)"/>
      <use xlink:href="#STIXGeneral-Regular-5d" transform="translate(494.399857 0.703125)"/>
     </g>
    </g>
   </g>
   <g id="matplotlib.axis_2">
    <g id="ytick_1">
     <g id="line2d_5">
      <defs>
       <path id="m8c16a34715" d="M 0 0 
L -3.5 0 
" style="stroke: #000000; stroke-width: 0.8"/>
      </defs>
      <g>
       <use xlink:href="#m8c16a34715" x="36" y="192.24" style="stroke: #000000; stroke-width: 0.8"/>
      </g>
     </g>
     <g id="text_6">
      <!-- 0 -->
      <g transform="translate(23 196.337813) scale(0.12 -0.12)">
       <use xlink:href="#STIXGeneral-Regular-30"/>
      </g>
     </g>
    </g>
    <g id="ytick_2">
     <g id="line2d_6">
      <g>
       <use xlink:href="#m8c16a34715" x="36" y="154.44" style="stroke: #000000; stroke-width: 0.8"/>
      </g>
     </g>
     <g id="text_7">
      <!-- 100 -->
      <g transform="translate(11 158.537813) scale(0.12 -0.12)">
       <defs>
        <path id="STIXGeneral-Regular-31" d="M 2522 0 
L 755 0 
L 755 96 
Q 1107 115 1235 227 
Q 1363 339 1363 608 
L 1363 3482 
Q 1363 3795 1171 3795 
Q 1082 3795 883 3718 
L 710 3654 
L 710 3744 
L 1856 4326 
L 1914 4307 
L 1914 486 
Q 1914 275 2042 185 
Q 2170 96 2522 96 
L 2522 0 
z
" transform="scale(0.015625)"/>
       </defs>
       <use xlink:href="#STIXGeneral-Regular-31"/>
       <use xlink:href="#STIXGeneral-Regular-30" x="49.999985"/>
       <use xlink:href="#STIXGeneral-Regular-30" x="99.999969"/>
      </g>
     </g>
    </g>
    <g id="ytick_3">
     <g id="line2d_7">
      <g>
       <use xlink:href="#m8c16a34715" x="36" y="116.64" style="stroke: #000000; stroke-width: 0.8"/>
      </g>
     </g>
     <g id="text_8">
      <!-- 200 -->
      <g transform="translate(11 120.737812) scale(0.12 -0.12)">
       <use xlink:href="#STIXGeneral-Regular-32"/>
       <use xlink:href="#STIXGeneral-Regular-30" x="49.999985"/>
       <use xlink:href="#STIXGeneral-Regular-30" x="99.999969"/>
      </g>
     </g>
    </g>
    <g id="ytick_4">
     <g id="line2d_8">
      <g>
       <use xlink:href="#m8c16a34715" x="36" y="78.84" style="stroke: #000000; stroke-width: 0.8"/>
      </g>
     </g>
     <g id="text_9">
      <!-- 300 -->
      <g transform="translate(11 82.937812) scale(0.12 -0.12)">
       <defs>
        <path id="STIXGeneral-Regular-33" d="M 390 3264 
L 288 3290 
Q 435 3770 748 4048 
Q 1062 4326 1542 4326 
Q 1990 4326 2265 4083 
Q 2541 3840 2541 3450 
Q 2541 2925 1946 2566 
Q 2298 2413 2477 2227 
Q 2758 1914 2758 1402 
Q 2758 890 2464 506 
Q 2246 211 1840 60 
Q 1434 -90 979 -90 
Q 262 -90 262 275 
Q 262 378 339 442 
Q 416 506 525 506 
Q 685 506 915 339 
Q 1197 141 1466 141 
Q 1818 141 2058 425 
Q 2298 710 2298 1120 
Q 2298 1856 1632 2048 
Q 1434 2112 979 2112 
L 979 2202 
Q 1338 2323 1517 2432 
Q 2035 2726 2035 3290 
Q 2035 3610 1852 3776 
Q 1670 3942 1344 3942 
Q 768 3942 390 3264 
z
" transform="scale(0.015625)"/>
       </defs>
       <use xlink:href="#STIXGeneral-Regular-33"/>
       <use xlink:href="#STIXGeneral-Regular-30" x="49.999985"/>
       <use xlink:href="#STIXGeneral-Regular-30" x="99.999969"/>
      </g>
     </g>
    </g>
    <g id="ytick_5">
     <g id="line2d_9">
      <g>
       <use xlink:href="#m8c16a34715" x="36" y="41.04" style="stroke: #000000; stroke-width: 0.8"/>
      </g>
     </g>
     <g id="text_10">
      <!-- 400 -->
      <g transform="translate(11 45.137812) scale(0.12 -0.12)">
       <use xlink:href="#STIXGeneral-Regular-34"/>
       <use xlink:href="#STIXGeneral-Regular-30" x="49.999985"/>
       <use xlink:href="#STIXGeneral-Regular-30" x="99.999969"/>
      </g>
     </g>
    </g>
    <g id="text_11">
     <!-- Concentration $C$ [µmol/mol] -->
     <g transform="translate(3.92 188.81) rotate(-90) scale(0.14 -0.14)">
      <defs>
       <path id="STIXGeneral-Regular-43" d="M 3930 838 
L 4051 723 
Q 3482 -90 2304 -90 
Q 1376 -90 794 480 
Q 179 1082 179 2080 
Q 179 3014 755 3661 
Q 1357 4326 2310 4326 
Q 2720 4326 3072 4230 
Q 3475 4115 3514 4115 
Q 3725 4115 3782 4326 
L 3910 4326 
L 3968 2874 
L 3821 2874 
Q 3718 3334 3488 3584 
Q 3034 4070 2458 4070 
Q 1747 4070 1334 3548 
Q 922 3027 922 2182 
Q 922 1152 1382 653 
Q 1811 192 2522 192 
Q 2944 192 3251 339 
Q 3558 486 3930 838 
z
" transform="scale(0.015625)"/>
       <path id="STIXGeneral-Regular-6f" d="M 3008 1478 
Q 3008 806 2608 371 
Q 2208 -64 1568 -64 
Q 979 -64 582 368 
Q 186 800 186 1459 
Q 186 2125 582 2534 
Q 979 2944 1626 2944 
Q 2221 2944 2614 2537 
Q 3008 2131 3008 1478 
z
M 2432 1306 
Q 2432 2035 2112 2445 
Q 1856 2765 1504 2765 
Q 1171 2765 966 2493 
Q 762 2221 762 1747 
Q 762 928 1101 435 
Q 1318 115 1677 115 
Q 2029 115 2230 432 
Q 2432 749 2432 1306 
z
" transform="scale(0.015625)"/>
       <path id="STIXGeneral-Regular-6e" d="M 3104 0 
L 1773 0 
L 1779 96 
Q 2016 115 2096 233 
Q 2176 352 2176 672 
L 2176 1946 
Q 2176 2592 1709 2592 
Q 1549 2592 1408 2515 
Q 1267 2438 1050 2227 
L 1050 461 
Q 1050 269 1136 192 
Q 1222 115 1466 96 
L 1466 0 
L 115 0 
L 115 96 
Q 358 115 435 214 
Q 512 314 512 602 
L 512 2157 
Q 512 2394 467 2483 
Q 422 2573 288 2573 
Q 160 2573 102 2547 
L 102 2656 
Q 550 2784 979 2944 
L 1030 2925 
L 1030 2426 
L 1037 2426 
Q 1491 2944 1958 2944 
Q 2323 2944 2518 2688 
Q 2714 2432 2714 1958 
L 2714 544 
Q 2714 288 2790 205 
Q 2867 122 3104 96 
L 3104 0 
z
" transform="scale(0.015625)"/>
       <path id="STIXGeneral-Regular-63" d="M 2547 998 
L 2637 941 
Q 2362 403 2112 205 
Q 1786 -64 1376 -64 
Q 845 -64 502 336 
Q 160 736 160 1357 
Q 160 2170 698 2618 
Q 1094 2944 1562 2944 
Q 1965 2944 2256 2749 
Q 2547 2554 2547 2285 
Q 2547 2176 2457 2096 
Q 2368 2016 2246 2016 
Q 2022 2016 1939 2310 
L 1901 2451 
Q 1850 2630 1773 2694 
Q 1696 2758 1523 2758 
Q 1133 2758 893 2451 
Q 653 2144 653 1645 
Q 653 1094 928 745 
Q 1203 397 1645 397 
Q 1920 397 2118 528 
Q 2317 659 2547 998 
z
" transform="scale(0.015625)"/>
       <path id="STIXGeneral-Regular-72" d="M 1024 2931 
L 1024 2342 
Q 1267 2688 1430 2816 
Q 1594 2944 1792 2944 
Q 1958 2944 2051 2854 
Q 2144 2765 2144 2605 
Q 2144 2470 2077 2393 
Q 2010 2317 1894 2317 
Q 1773 2317 1638 2445 
Q 1536 2541 1472 2541 
Q 1338 2541 1181 2355 
Q 1024 2170 1024 2016 
L 1024 576 
Q 1024 301 1133 205 
Q 1242 109 1568 96 
L 1568 0 
L 32 0 
L 32 96 
Q 339 154 412 224 
Q 486 294 486 538 
L 486 2138 
Q 486 2349 438 2435 
Q 390 2522 269 2522 
Q 166 2522 45 2496 
L 45 2598 
Q 448 2726 992 2944 
L 1024 2931 
z
" transform="scale(0.015625)"/>
       <path id="STIXGeneral-Regular-61" d="M 2829 422 
L 2829 243 
Q 2586 -64 2253 -64 
Q 1888 -64 1843 403 
L 1837 403 
Q 1427 -64 909 -64 
Q 608 -64 422 112 
Q 237 288 237 602 
Q 237 1050 685 1350 
Q 992 1555 1837 1869 
L 1837 2214 
Q 1837 2502 1699 2646 
Q 1562 2790 1338 2790 
Q 1146 2790 1018 2697 
Q 890 2605 890 2477 
Q 890 2419 909 2348 
Q 928 2278 928 2208 
Q 928 2112 841 2029 
Q 755 1946 634 1946 
Q 525 1946 441 2029 
Q 358 2112 358 2240 
Q 358 2547 685 2752 
Q 986 2944 1421 2944 
Q 1939 2944 2176 2656 
Q 2291 2522 2323 2384 
Q 2355 2246 2355 1946 
L 2355 723 
Q 2355 301 2554 301 
Q 2682 301 2829 422 
z
M 1837 813 
L 1837 1715 
Q 1248 1510 1018 1293 
Q 800 1094 800 800 
Q 800 557 921 432 
Q 1043 307 1242 307 
Q 1453 307 1613 410 
Q 1747 506 1792 589 
Q 1837 672 1837 813 
z
" transform="scale(0.015625)"/>
       <path id="STIXGeneral-Regular-69" d="M 1152 4045 
Q 1152 3904 1056 3811 
Q 960 3718 819 3718 
Q 685 3718 592 3811 
Q 499 3904 499 4045 
Q 499 4179 595 4275 
Q 691 4371 826 4371 
Q 966 4371 1059 4275 
Q 1152 4179 1152 4045 
z
M 1619 0 
L 102 0 
L 102 96 
Q 435 115 521 211 
Q 608 307 608 666 
L 608 2118 
Q 608 2342 563 2432 
Q 518 2522 397 2522 
Q 243 2522 128 2490 
L 128 2592 
L 1120 2944 
L 1146 2918 
L 1146 672 
Q 1146 314 1226 218 
Q 1306 122 1619 96 
L 1619 0 
z
" transform="scale(0.015625)"/>
       <path id="STIXGeneral-Italic-43" d="M 4410 4250 
L 4173 2970 
L 4058 2989 
Q 3942 4032 3104 4032 
Q 2406 4032 1830 3411 
Q 1491 3053 1315 2541 
Q 1139 2029 1139 1485 
Q 1139 173 2259 173 
Q 2656 173 2985 339 
Q 3315 506 3725 934 
L 3840 838 
Q 3411 333 2998 109 
Q 2586 -115 2093 -115 
Q 1344 -115 883 329 
Q 422 774 422 1555 
Q 422 2214 748 2812 
Q 1075 3411 1619 3795 
Q 2272 4262 3021 4262 
Q 3462 4262 3770 4154 
Q 3898 4109 4032 4109 
Q 4205 4109 4275 4250 
L 4410 4250 
z
" transform="scale(0.015625)"/>
       <path id="STIXGeneral-Regular-6c" d="M 1645 0 
L 134 0 
L 134 96 
Q 435 122 531 221 
Q 627 320 627 589 
L 627 3590 
Q 627 3821 569 3910 
Q 512 4000 358 4000 
Q 224 4000 122 3987 
L 122 4090 
Q 730 4237 1133 4371 
L 1165 4346 
L 1165 557 
Q 1165 288 1254 201 
Q 1344 115 1645 96 
L 1645 0 
z
" transform="scale(0.015625)"/>
       <path id="STIXGeneral-Regular-2f" d="M 1837 4326 
L 378 -90 
L -58 -90 
L 1408 4326 
L 1837 4326 
z
" transform="scale(0.015625)"/>
      </defs>
      <use xlink:href="#STIXGeneral-Regular-43" transform="translate(0 0.703125)"/>
      <use xlink:href="#STIXGeneral-Regular-6f" transform="translate(66.699997 0.703125)"/>
      <use xlink:href="#STIXGeneral-Regular-6e" transform="translate(116.699982 0.703125)"/>
      <use xlink:href="#STIXGeneral-Regular-63" transform="translate(166.699966 0.703125)"/>
      <use xlink:href="#STIXGeneral-Regular-65" transform="translate(211.09996 0.703125)"/>
      <use xlink:href="#STIXGeneral-Regular-6e" transform="translate(255.499954 0.703125)"/>
      <use xlink:href="#STIXGeneral-Regular-74" transform="translate(305.499939 0.703125)"/>
      <use xlink:href="#STIXGeneral-Regular-72" transform="translate(333.299927 0.703125)"/>
      <use xlink:href="#STIXGeneral-Regular-61" transform="translate(366.599915 0.703125)"/>
      <use xlink:href="#STIXGeneral-Regular-74" transform="translate(410.999908 0.703125)"/>
      <use xlink:href="#STIXGeneral-Regular-69" transform="translate(438.799896 0.703125)"/>
      <use xlink:href="#STIXGeneral-Regular-6f" transform="translate(466.599884 0.703125)"/>
      <use xlink:href="#STIXGeneral-Regular-6e" transform="translate(516.599869 0.703125)"/>
      <use xlink:href="#STIXGeneral-Regular-20" transform="translate(566.599854 0.703125)"/>
      <use xlink:href="#STIXGeneral-Italic-43" transform="translate(591.599838 0.703125)"/>
      <use xlink:href="#STIXGeneral-Regular-20" transform="translate(658.299835 0.703125)"/>
      <use xlink:href="#STIXGeneral-Regular-5b" transform="translate(683.29982 0.703125)"/>
      <use xlink:href="#STIXGeneral-Regular-b5" transform="translate(716.599808 0.703125)"/>
      <use xlink:href="#STIXGeneral-Regular-6d" transform="translate(766.599792 0.703125)"/>
      <use xlink:href="#STIXGeneral-Regular-6f" transform="translate(844.39978 0.703125)"/>
      <use xlink:href="#STIXGeneral-Regular-6c" transform="translate(894.399765 0.703125)"/>
      <use xlink:href="#STIXGeneral-Regular-2f" transform="translate(922.199753 0.703125)"/>
      <use xlink:href="#STIXGeneral-Regular-6d" transform="translate(949.999741 0.703125)"/>
      <use xlink:href="#STIXGeneral-Regular-6f" transform="translate(1027.799728 0.703125)"/>
      <use xlink:href="#STIXGeneral-Regular-6c" transform="translate(1077.799713 0.703125)"/>
      <use xlink:href="#STIXGeneral-Regular-5d" transform="translate(1105.599701 0.703125)"/>
     </g>
    </g>
   </g>
   <g id="patch_3">
    <path d="M 36 192.24 
L 36 25.92 
" style="fill: none; stroke: #000000; stroke-width: 0.8; stroke-linejoin: miter; stroke-linecap: square"/>
   </g>
   <g id="patch_4">
    <path d="M 259.2 192.24 
L 259.2 25.92 
" style="fill: none; stroke: #000000; stroke-width: 0.8; stroke-linejoin: miter; stroke-linecap: square"/>
   </g>
   <g id="patch_5">
    <path d="M 36 192.24 
L 259.2 192.24 
" style="fill: none; stroke: #000000; stroke-width: 0.8; stroke-linejoin: miter; stroke-linecap: square"/>
   </g>
   <g id="patch_6">
    <path d="M 36 25.92 
L 259.2 25.92 
" style="fill: none; stroke: #000000; stroke-width: 0.8; stroke-linejoin: miter; stroke-linecap: square"/>
   </g>
   <g id="line2d_10">
    <path d="M 53.169231 107.568 
L 54.903497 107.57527 
L 56.637762 107.582465 
L 58.372028 107.589587 
L 60.106294 107.596634 
L 61.840559 107.603607 
L 63.574825 107.610507 
L 65.309091 107.617332 
L 67.043357 107.624084 
L 68.777622 107.630761 
L 70.511888 107.637364 
L 72.246154 107.643894 
L 73.98042 107.650349 
L 75.714685 107.656731 
L 77.448951 107.663038 
L 79.183217 107.669272 
L 80.917483 107.675432 
L 82.651748 107.681517 
L 84.386014 107.687529 
L 86.12028 107.693467 
L 87.854545 107.699331 
L 89.588811 107.705121 
L 91.323077 107.710837 
L 93.057343 107.716479 
L 94.791608 107.722048 
L 96.525874 107.727542 
L 98.26014 107.732962 
L 99.994406 107.738309 
L 101.728671 107.743582 
L 103.462937 107.748781 
L 105.197203 107.753906 
L 106.931469 107.758957 
L 108.665734 107.763934 
L 110.4 107.768838 
L 112.134266 107.773667 
L 113.868531 107.778423 
L 115.602797 107.783105 
L 117.337063 107.787713 
L 119.071329 107.792247 
L 120.805594 107.796708 
L 122.53986 107.801095 
L 124.274126 107.805407 
L 126.008392 107.809646 
L 127.742657 107.813812 
L 129.476923 107.817903 
L 131.211189 107.821921 
L 132.945455 107.825865 
L 134.67972 107.829735 
L 136.413986 107.833531 
L 138.148252 107.837253 
L 139.882517 107.840902 
L 141.616783 107.844477 
L 143.351049 107.847978 
L 145.085315 107.851406 
L 146.81958 107.854759 
L 148.553846 107.858039 
L 150.288112 107.861245 
L 152.022378 107.864378 
L 153.756643 107.867436 
L 155.490909 107.870421 
L 157.225175 107.873333 
L 158.959441 107.87617 
L 160.693706 107.878934 
L 162.427972 107.881624 
L 164.162238 107.88424 
L 165.896503 107.886782 
L 167.630769 107.889251 
L 169.365035 107.891646 
L 171.099301 107.893968 
L 172.833566 107.896215 
L 174.567832 107.898389 
L 176.302098 107.900489 
L 178.036364 107.902516 
L 179.770629 107.904469 
L 181.504895 107.906348 
L 183.239161 107.908153 
L 184.973427 107.909885 
L 186.707692 107.911543 
L 188.441958 107.913127 
L 190.176224 107.914637 
L 191.91049 107.916074 
L 193.644755 107.917437 
L 195.379021 107.918727 
L 197.113287 107.919943 
L 198.847552 107.921085 
L 200.581818 107.922153 
L 202.316084 107.923148 
L 204.05035 107.924069 
L 205.784615 107.924916 
L 207.518881 107.92569 
L 209.253147 107.92639 
L 210.987413 107.927016 
L 212.721678 107.927569 
L 214.455944 107.928048 
L 216.19021 107.928453 
L 217.924476 107.928785 
L 219.658741 107.929043 
L 221.393007 107.929227 
L 223.127273 107.929337 
L 224.861538 107.929374 
" clip-path="url(#p1abbc20668)" style="fill: none; stroke: #71a8c4; stroke-width: 2; stroke-linecap: square"/>
   </g>
   <g id="line2d_11">
    <path d="M 36 71.28 
L 37.907692 75.312 
L 39.815385 79.344 
L 41.723077 83.376 
L 43.630769 87.408 
L 45.538462 91.44 
L 47.446154 95.472 
L 49.353846 99.504 
L 51.261538 103.536 
L 53.169231 107.568 
" clip-path="url(#p1abbc20668)" style="fill: none; stroke: #71a8c4; stroke-width: 2; stroke-linecap: square"/>
   </g>
   <g id="line2d_12">
    <path d="M 224.861538 192.24 
L 224.861538 107.929374 
" clip-path="url(#p1abbc20668)" style="fill: none; stroke-dasharray: 5.55,2.4; stroke-dashoffset: 0; stroke: #71a8c4; stroke-width: 1.5"/>
   </g>
   <g id="line2d_13">
    <path d="M 53.169231 112.86 
L 53.862937 113.017933 
L 54.556643 113.174135 
L 55.25035 113.328609 
L 55.944056 113.481359 
L 56.637762 113.63239 
L 57.331469 113.781705 
L 58.025175 113.929308 
L 58.718881 114.075203 
L 59.412587 114.219393 
L 60.106294 114.361882 
L 60.8 114.502675 
L 61.493706 114.641773 
L 62.187413 114.779181 
L 62.881119 114.914903 
L 63.574825 115.048942 
L 64.268531 115.181301 
L 64.962238 115.311983 
L 65.655944 115.440993 
L 66.34965 115.568333 
L 67.043357 115.694006 
L 67.737063 115.818016 
L 68.430769 115.940366 
L 69.124476 116.061059 
L 69.818182 116.180099 
L 70.511888 116.297487 
L 71.205594 116.413228 
L 71.899301 116.527323 
L 72.593007 116.639777 
L 73.286713 116.750591 
L 73.98042 116.85977 
L 74.674126 116.967314 
L 75.367832 117.073228 
L 76.061538 117.177514 
L 76.755245 117.280174 
L 77.448951 117.381212 
L 78.142657 117.480629 
L 78.836364 117.578429 
L 79.53007 117.674614 
L 80.223776 117.769185 
L 80.917483 117.862147 
L 81.611189 117.9535 
L 82.304895 118.043248 
L 82.998601 118.131393 
L 83.692308 118.217937 
L 84.386014 118.302881 
L 85.07972 118.386229 
L 85.773427 118.467982 
L 86.467133 118.548143 
L 87.160839 118.626714 
L 87.854545 118.703696 
L 88.548252 118.779091 
L 89.241958 118.852902 
L 89.935664 118.92513 
L 90.629371 118.995778 
L 91.323077 119.064846 
L 92.016783 119.132337 
L 92.71049 119.198253 
L 93.404196 119.262595 
L 94.097902 119.325364 
L 94.791608 119.386563 
L 95.485315 119.446193 
L 96.179021 119.504255 
L 96.872727 119.560751 
L 97.566434 119.615683 
L 98.26014 119.669051 
L 98.953846 119.720858 
L 99.647552 119.771104 
L 100.341259 119.81979 
L 101.034965 119.866919 
L 101.728671 119.912491 
L 102.422378 119.956507 
L 103.116084 119.998969 
L 103.80979 120.039877 
L 104.503497 120.079233 
L 105.197203 120.117037 
L 105.890909 120.153291 
L 106.584615 120.187996 
L 107.278322 120.221152 
L 107.972028 120.25276 
L 108.665734 120.282821 
L 109.359441 120.311336 
L 110.053147 120.338305 
L 110.746853 120.36373 
L 111.440559 120.387611 
L 112.134266 120.409948 
L 112.827972 120.430742 
L 113.521678 120.449993 
L 114.215385 120.467703 
L 114.909091 120.483871 
L 115.602797 120.498499 
L 116.296503 120.511585 
L 116.99021 120.523131 
L 117.683916 120.533137 
L 118.377622 120.541603 
L 119.071329 120.54853 
L 119.765035 120.553917 
L 120.458741 120.557765 
L 121.152448 120.560074 
L 121.846154 120.560843 
" clip-path="url(#p1abbc20668)" style="fill: none; stroke: #307da6; stroke-width: 2; stroke-linecap: square"/>
   </g>
   <g id="line2d_14">
    <path d="M 36 78.84 
L 37.907692 82.62 
L 39.815385 86.4 
L 41.723077 90.18 
L 43.630769 93.96 
L 45.538462 97.74 
L 47.446154 101.52 
L 49.353846 105.3 
L 51.261538 109.08 
L 53.169231 112.86 
" clip-path="url(#p1abbc20668)" style="fill: none; stroke: #307da6; stroke-width: 2; stroke-linecap: square"/>
   </g>
   <g id="line2d_15">
    <path d="M 121.846154 192.24 
L 121.846154 120.560843 
" clip-path="url(#p1abbc20668)" style="fill: none; stroke-dasharray: 5.55,2.4; stroke-dashoffset: 0; stroke: #307da6; stroke-width: 1.5"/>
   </g>
   <g id="line2d_16">
    <path d="M 53.169231 126.09 
L 54.20979 126.523301 
L 55.25035 126.95086 
L 56.290909 127.372722 
L 57.331469 127.78893 
L 58.372028 128.199527 
L 59.412587 128.604553 
L 60.453147 129.00405 
L 61.493706 129.39806 
L 62.534266 129.786622 
L 63.574825 130.169776 
L 64.615385 130.547562 
L 65.655944 130.920016 
L 66.696503 131.287179 
L 67.737063 131.649086 
L 68.777622 132.005776 
L 69.818182 132.357284 
L 70.858741 132.703646 
L 71.899301 133.044898 
L 72.93986 133.381075 
L 73.98042 133.71221 
L 75.020979 134.038337 
L 76.061538 134.359491 
L 77.102098 134.675703 
L 78.142657 134.987006 
L 79.183217 135.293431 
L 80.223776 135.595011 
L 81.264336 135.891775 
L 82.304895 136.183753 
L 83.345455 136.470977 
L 84.386014 136.753475 
L 85.426573 137.031275 
L 86.467133 137.304407 
L 87.507692 137.572897 
L 88.548252 137.836775 
L 89.588811 138.096065 
L 90.629371 138.350795 
L 91.66993 138.600991 
L 92.71049 138.846679 
L 93.751049 139.087883 
L 94.791608 139.324628 
L 95.832168 139.556938 
L 96.872727 139.784836 
L 97.913287 140.008347 
L 98.953846 140.227493 
L 99.994406 140.442297 
L 101.034965 140.652779 
L 102.075524 140.858962 
L 103.116084 141.060867 
L 104.156643 141.258514 
L 105.197203 141.451924 
L 106.237762 141.641116 
L 107.278322 141.82611 
L 108.318881 142.006923 
L 109.359441 142.183576 
L 110.4 142.356086 
L 111.440559 142.52447 
L 112.481119 142.688745 
L 113.521678 142.84893 
L 114.562238 143.005038 
L 115.602797 143.157088 
L 116.643357 143.305094 
L 117.683916 143.449071 
L 118.724476 143.589034 
L 119.765035 143.724997 
L 120.805594 143.856975 
L 121.846154 143.98498 
L 122.886713 144.109026 
L 123.927273 144.229125 
L 124.967832 144.34529 
L 126.008392 144.457532 
L 127.048951 144.565863 
L 128.08951 144.670294 
L 129.13007 144.770835 
L 130.170629 144.867498 
L 131.211189 144.960291 
L 132.251748 145.049224 
L 133.292308 145.134307 
L 134.332867 145.215547 
L 135.373427 145.292954 
L 136.413986 145.366535 
L 137.454545 145.436298 
L 138.495105 145.502249 
L 139.535664 145.564396 
L 140.576224 145.622744 
L 141.616783 145.677301 
L 142.657343 145.72807 
L 143.697902 145.775059 
L 144.738462 145.81827 
L 145.779021 145.85771 
L 146.81958 145.893381 
L 147.86014 145.925287 
L 148.900699 145.953432 
L 149.941259 145.977819 
L 150.981818 145.998449 
L 152.022378 146.015326 
L 153.062937 146.028451 
L 154.103497 146.037824 
L 155.144056 146.043448 
L 156.184615 146.045323 
" clip-path="url(#p1abbc20668)" style="fill: none; stroke: #06568c; stroke-width: 2; stroke-linecap: square"/>
   </g>
   <g id="line2d_17">
    <path d="M 36 97.74 
L 37.907692 100.89 
L 39.815385 104.04 
L 41.723077 107.19 
L 43.630769 110.34 
L 45.538462 113.49 
L 47.446154 116.64 
L 49.353846 119.79 
L 51.261538 122.94 
L 53.169231 126.09 
" clip-path="url(#p1abbc20668)" style="fill: none; stroke: #06568c; stroke-width: 2; stroke-linecap: square"/>
   </g>
   <g id="line2d_18">
    <path d="M 156.184615 192.24 
L 156.184615 146.045323 
" clip-path="url(#p1abbc20668)" style="fill: none; stroke-dasharray: 5.55,2.4; stroke-dashoffset: 0; stroke: #06568c; stroke-width: 1.5"/>
   </g>
   <g id="line2d_19">
    <path d="M 53.169231 91.692 
L 54.556643 93.352986 
L 55.944056 94.979476 
L 57.331469 96.572133 
L 58.718881 98.131606 
L 60.106294 99.658533 
L 61.493706 101.153537 
L 62.881119 102.617228 
L 64.268531 104.050203 
L 65.655944 105.453046 
L 67.043357 106.826332 
L 68.430769 108.17062 
L 69.818182 109.486458 
L 71.205594 110.774384 
L 72.593007 112.034924 
L 73.98042 113.268591 
L 75.367832 114.47589 
L 76.755245 115.657313 
L 78.142657 116.813343 
L 79.53007 117.944451 
L 80.917483 119.051098 
L 82.304895 120.133737 
L 83.692308 121.192809 
L 85.07972 122.228747 
L 86.467133 123.241973 
L 87.854545 124.232901 
L 89.241958 125.201936 
L 90.629371 126.149472 
L 92.016783 127.075897 
L 93.404196 127.981589 
L 94.791608 128.866916 
L 96.179021 129.732242 
L 97.566434 130.577918 
L 98.953846 131.404291 
L 100.341259 132.211696 
L 101.728671 133.000465 
L 103.116084 133.770918 
L 104.503497 134.52337 
L 105.890909 135.258128 
L 107.278322 135.975493 
L 108.665734 136.675756 
L 110.053147 137.359205 
L 111.440559 138.026116 
L 112.827972 138.676764 
L 114.215385 139.311413 
L 115.602797 139.930323 
L 116.99021 140.533745 
L 118.377622 141.121927 
L 119.765035 141.695108 
L 121.152448 142.253523 
L 122.53986 142.797399 
L 123.927273 143.326958 
L 125.314685 143.842416 
L 126.702098 144.343984 
L 128.08951 144.831866 
L 129.476923 145.306262 
L 130.864336 145.767365 
L 132.251748 146.215363 
L 133.639161 146.65044 
L 135.026573 147.072772 
L 136.413986 147.482532 
L 137.801399 147.879888 
L 139.188811 148.265001 
L 140.576224 148.638029 
L 141.963636 148.999123 
L 143.351049 149.348433 
L 144.738462 149.686099 
L 146.125874 150.012259 
L 147.513287 150.327048 
L 148.900699 150.630593 
L 150.288112 150.923018 
L 151.675524 151.204442 
L 153.062937 151.474981 
L 154.45035 151.734745 
L 155.837762 151.983839 
L 157.225175 152.222366 
L 158.612587 152.450423 
L 160 152.668103 
L 161.387413 152.875495 
L 162.774825 153.072683 
L 164.162238 153.259748 
L 165.54965 153.436766 
L 166.937063 153.603809 
L 168.324476 153.760946 
L 169.711888 153.908241 
L 171.099301 154.045754 
L 172.486713 154.173541 
L 173.874126 154.291655 
L 175.261538 154.400142 
L 176.648951 154.499048 
L 178.036364 154.588414 
L 179.423776 154.668274 
L 180.811189 154.738663 
L 182.198601 154.799609 
L 183.586014 154.851136 
L 184.973427 154.893266 
L 186.360839 154.926016 
L 187.748252 154.9494 
L 189.135664 154.963426 
L 190.523077 154.968101 
" clip-path="url(#p1abbc20668)" style="fill: none; stroke: #023376; stroke-width: 2; stroke-linecap: square"/>
   </g>
   <g id="line2d_20">
    <path d="M 36 48.6 
L 37.907692 53.388 
L 39.815385 58.176 
L 41.723077 62.964 
L 43.630769 67.752 
L 45.538462 72.54 
L 47.446154 77.328 
L 49.353846 82.116 
L 51.261538 86.904 
L 53.169231 91.692 
" clip-path="url(#p1abbc20668)" style="fill: none; stroke: #023376; stroke-width: 2; stroke-linecap: square"/>
   </g>
   <g id="line2d_21">
    <path d="M 190.523077 192.24 
L 190.523077 154.968101 
" clip-path="url(#p1abbc20668)" style="fill: none; stroke-dasharray: 5.55,2.4; stroke-dashoffset: 0; stroke: #023376; stroke-width: 1.5"/>
   </g>
   <g id="line2d_22">
    <path d="M 53.169231 99.63 
L 54.73007 107.256521 
L 56.290909 114.150315 
L 57.851748 120.38178 
L 59.412587 126.014551 
L 60.973427 131.106147 
L 62.534266 135.708562 
L 64.095105 139.868795 
L 65.655944 143.629329 
L 67.216783 147.028566 
L 68.777622 150.101217 
L 70.338462 152.87866 
L 71.899301 155.389257 
L 73.46014 157.658646 
L 75.020979 159.710001 
L 76.581818 161.564269 
L 78.142657 163.240387 
L 79.703497 164.755469 
L 81.264336 166.124989 
L 82.825175 167.36293 
L 84.386014 168.481935 
L 85.946853 169.49343 
L 87.507692 170.407745 
L 89.068531 171.234216 
L 90.629371 171.981282 
L 92.19021 172.656574 
L 93.751049 173.266986 
L 95.311888 173.818752 
L 96.872727 174.317506 
L 98.433566 174.768342 
L 99.994406 175.175863 
L 101.555245 175.544232 
L 103.116084 175.877208 
L 104.676923 176.178194 
L 106.237762 176.450262 
L 107.798601 176.69619 
L 109.359441 176.918491 
L 110.92028 177.119434 
L 112.481119 177.301071 
L 114.041958 177.465256 
L 115.602797 177.613668 
L 117.163636 177.74782 
L 118.724476 177.869083 
L 120.285315 177.978696 
L 121.846154 178.077777 
L 123.406993 178.167338 
L 124.967832 178.248295 
L 126.528671 178.321473 
L 128.08951 178.38762 
L 129.65035 178.447412 
L 131.211189 178.501458 
L 132.772028 178.550312 
L 134.332867 178.594471 
L 135.893706 178.634387 
L 137.454545 178.670468 
L 139.015385 178.703081 
L 140.576224 178.73256 
L 142.137063 178.759206 
L 143.697902 178.783291 
L 145.258741 178.80506 
L 146.81958 178.824737 
L 148.38042 178.842523 
L 149.941259 178.858597 
L 151.502098 178.873126 
L 153.062937 178.886257 
L 154.623776 178.898125 
L 156.184615 178.90885 
L 157.745455 178.918542 
L 159.306294 178.9273 
L 160.867133 178.935214 
L 162.427972 178.942364 
L 163.988811 178.948823 
L 165.54965 178.954657 
L 167.11049 178.959927 
L 168.671329 178.964685 
L 170.232168 178.96898 
L 171.793007 178.972857 
L 173.353846 178.976354 
L 174.914685 178.979507 
L 176.475524 178.98235 
L 178.036364 178.984909 
L 179.597203 178.987213 
L 181.158042 178.989284 
L 182.718881 178.991143 
L 184.27972 178.99281 
L 185.840559 178.994301 
L 187.401399 178.995632 
L 188.962238 178.996817 
L 190.523077 178.997866 
L 192.083916 178.998792 
L 193.644755 178.999603 
L 195.205594 179.000308 
L 196.766434 179.000914 
L 198.327273 179.001428 
L 199.888112 179.001853 
L 201.448951 179.002196 
L 203.00979 179.002459 
L 204.570629 179.002645 
L 206.131469 179.002756 
L 207.692308 179.002792 
" clip-path="url(#p1abbc20668)" style="fill: none; stroke: #001261; stroke-width: 2; stroke-linecap: square"/>
   </g>
   <g id="line2d_23">
    <path d="M 36 59.94 
L 37.907692 64.35 
L 39.815385 68.76 
L 41.723077 73.17 
L 43.630769 77.58 
L 45.538462 81.99 
L 47.446154 86.4 
L 49.353846 90.81 
L 51.261538 95.22 
L 53.169231 99.63 
" clip-path="url(#p1abbc20668)" style="fill: none; stroke: #001261; stroke-width: 2; stroke-linecap: square"/>
   </g>
   <g id="line2d_24">
    <path d="M 207.692308 192.24 
L 207.692308 179.002792 
" clip-path="url(#p1abbc20668)" style="fill: none; stroke-dasharray: 5.55,2.4; stroke-dashoffset: 0; stroke: #001261; stroke-width: 1.5"/>
   </g>
   <g id="legend_1">
    <g id="patch_7">
     <path d="M 162.395625 69.54 
L 250.8 69.54 
Q 253.2 69.54 253.2 67.14 
L 253.2 34.32 
Q 253.2 31.92 250.8 31.92 
L 162.395625 31.92 
Q 159.995625 31.92 159.995625 34.32 
L 159.995625 67.14 
Q 159.995625 69.54 162.395625 69.54 
z
" style="fill: #ffffff; opacity: 0.8; stroke: #cccccc; stroke-linejoin: miter"/>
    </g>
    <g id="patch_8">
     <path d="M 164.795625 45.12 
L 188.795625 45.12 
L 188.795625 36.72 
L 164.795625 36.72 
z
" style="fill: #ffffff; fill-opacity: 0.7; stroke: #ffffff; stroke-opacity: 0.7; stroke-linejoin: miter"/>
    </g>
    <g id="text_12">
     <!-- stomata -->
     <g transform="translate(198.395625 45.12) scale(0.12 -0.12)">
      <defs>
       <path id="STIXGeneral-Regular-73" d="M 998 1926 
L 1664 1523 
Q 1984 1331 2105 1164 
Q 2227 998 2227 736 
Q 2227 416 1961 176 
Q 1696 -64 1331 -64 
Q 1030 -64 864 -6 
Q 691 51 570 51 
Q 461 51 416 -26 
L 333 -26 
L 333 979 
L 435 979 
Q 538 512 730 294 
Q 922 77 1248 77 
Q 1485 77 1632 211 
Q 1779 346 1779 550 
Q 1779 845 1440 1030 
L 1094 1222 
Q 326 1651 326 2150 
Q 326 2522 566 2730 
Q 806 2938 1210 2938 
Q 1491 2938 1638 2867 
Q 1754 2816 1818 2816 
Q 1862 2816 1920 2880 
L 1990 2880 
L 2022 2010 
L 1926 2010 
Q 1818 2445 1654 2621 
Q 1491 2797 1203 2797 
Q 986 2797 854 2688 
Q 723 2579 723 2362 
Q 723 2253 796 2128 
Q 870 2003 998 1926 
z
" transform="scale(0.015625)"/>
      </defs>
      <use xlink:href="#STIXGeneral-Regular-73"/>
      <use xlink:href="#STIXGeneral-Regular-74" x="38.899994"/>
      <use xlink:href="#STIXGeneral-Regular-6f" x="66.699982"/>
      <use xlink:href="#STIXGeneral-Regular-6d" x="116.699966"/>
      <use xlink:href="#STIXGeneral-Regular-61" x="194.499954"/>
      <use xlink:href="#STIXGeneral-Regular-74" x="238.899948"/>
      <use xlink:href="#STIXGeneral-Regular-61" x="266.699936"/>
     </g>
    </g>
    <g id="patch_9">
     <path d="M 164.795625 62.124375 
L 188.795625 62.124375 
L 188.795625 53.724375 
L 164.795625 53.724375 
z
" style="fill: #808080; fill-opacity: 0.4; stroke: #808080; stroke-opacity: 0.4; stroke-linejoin: miter"/>
    </g>
    <g id="text_13">
     <!-- mesophyll -->
     <g transform="translate(198.395625 62.124375) scale(0.12 -0.12)">
      <defs>
       <path id="STIXGeneral-Regular-79" d="M 3040 2880 
L 3040 2784 
Q 2925 2771 2854 2700 
Q 2784 2630 2720 2458 
L 1760 -160 
Q 1510 -838 1257 -1116 
Q 1005 -1395 640 -1395 
Q 435 -1395 313 -1289 
Q 192 -1184 192 -1024 
Q 192 -902 272 -816 
Q 352 -730 467 -730 
Q 653 -730 800 -813 
Q 883 -858 966 -858 
Q 1101 -858 1286 -576 
Q 1376 -448 1459 -211 
Q 1542 26 1542 115 
Q 1542 198 1274 762 
L 429 2566 
Q 346 2752 90 2790 
L 90 2880 
L 1402 2880 
L 1402 2784 
Q 1197 2778 1117 2739 
Q 1037 2701 1037 2611 
Q 1037 2541 1120 2349 
L 1837 749 
L 2458 2515 
Q 2483 2573 2483 2630 
Q 2483 2784 2189 2784 
L 2189 2880 
L 3040 2880 
z
" transform="scale(0.015625)"/>
      </defs>
      <use xlink:href="#STIXGeneral-Regular-6d"/>
      <use xlink:href="#STIXGeneral-Regular-65" x="77.799988"/>
      <use xlink:href="#STIXGeneral-Regular-73" x="122.199982"/>
      <use xlink:href="#STIXGeneral-Regular-6f" x="161.099976"/>
      <use xlink:href="#STIXGeneral-Regular-70" x="211.09996"/>
      <use xlink:href="#STIXGeneral-Regular-68" x="261.099945"/>
      <use xlink:href="#STIXGeneral-Regular-79" x="311.09993"/>
      <use xlink:href="#STIXGeneral-Regular-6c" x="361.099915"/>
      <use xlink:href="#STIXGeneral-Regular-6c" x="388.899902"/>
     </g>
    </g>
   </g>
  </g>
 </g>
 <defs>
  <clipPath id="p1abbc20668">
   <rect x="36" y="25.92" width="223.2" height="166.32"/>
  </clipPath>
 </defs>
</svg>
