<?xml version="1.0" encoding="utf-8" standalone="no"?>
<!DOCTYPE svg PUBLIC "-//W3C//DTD SVG 1.1//EN"
  "http://www.w3.org/Graphics/SVG/1.1/DTD/svg11.dtd">
<svg xmlns:xlink="http://www.w3.org/1999/xlink" width="360pt" height="216pt" viewBox="0 0 360 216" xmlns="http://www.w3.org/2000/svg" version="1.1">
 <metadata>
  <rdf:RDF xmlns:dc="http://purl.org/dc/elements/1.1/" xmlns:cc="http://creativecommons.org/ns#" xmlns:rdf="http://www.w3.org/1999/02/22-rdf-syntax-ns#">
   <cc:Work>
    <dc:type rdf:resource="http://purl.org/dc/dcmitype/StillImage"/>
    <dc:date>2025-05-15T13:43:06.430645</dc:date>
    <dc:format>image/svg+xml</dc:format>
    <dc:creator>
     <cc:Agent>
      <dc:title>Matplotlib v3.9.3, https://matplotlib.org/</dc:title>
     </cc:Agent>
    </dc:creator>
   </cc:Work>
  </rdf:RDF>
 </metadata>
 <defs>
  <style type="text/css">*{stroke-linejoin: round; stroke-linecap: butt}</style>
 </defs>
 <g id="figure_1">
  <g id="patch_1">
   <path d="M 0 216 
L 360 216 
L 360 0 
L 0 0 
z
" style="fill: #ffffff"/>
  </g>
  <g id="axes_1">
   <g id="patch_2">
    <path d="M 45 192.24 
L 276.57 192.24 
L 276.57 25.92 
L 45 25.92 
z
" style="fill: #ffffff"/>
   </g>
   <g id="PolyCollection_1">
    <defs>
     <path id="m1b54a46ac0" d="M 64.2975 -23.76 
L 45 -23.76 
L 45 -190.08 
L 64.2975 -190.08 
L 64.2975 -190.08 
L 64.2975 -23.76 
z
" style="stroke: #ffffff; stroke-opacity: 0.4"/>
    </defs>
    <g clip-path="url(#pa7213d7455)">
     <use xlink:href="#m1b54a46ac0" x="0" y="216" style="fill: #ffffff; fill-opacity: 0.4; stroke: #ffffff; stroke-opacity: 0.4"/>
    </g>
   </g>
   <g id="PolyCollection_2">
    <defs>
     <path id="mf4e420cdf9" d="M 276.57 -23.76 
L 64.2975 -23.76 
L 64.2975 -190.08 
L 276.57 -190.08 
L 276.57 -190.08 
L 276.57 -23.76 
z
" style="stroke: #808080; stroke-opacity: 0.4"/>
    </defs>
    <g clip-path="url(#pa7213d7455)">
     <use xlink:href="#mf4e420cdf9" x="0" y="216" style="fill: #808080; fill-opacity: 0.4; stroke: #808080; stroke-opacity: 0.4"/>
    </g>
   </g>
   <g id="matplotlib.axis_1">
    <g id="xtick_1">
     <g id="line2d_1">
      <defs>
       <path id="mf6b75b6845" d="M 0 0 
L 0 3.5 
" style="stroke: #000000; stroke-width: 0.8"/>
      </defs>
      <g>
       <use xlink:href="#mf6b75b6845" x="64.2975" y="192.24" style="stroke: #000000; stroke-width: 0.8"/>
      </g>
     </g>
     <g id="text_1">
      <!-- 0.00 -->
      <g transform="translate(53.7975 207.435625) scale(0.12 -0.12)">
       <defs>
        <path id="STIXGeneral-Regular-30" d="M 3046 2112 
Q 3046 1683 2963 1302 
Q 2880 922 2717 602 
Q 2554 282 2266 96 
Q 1978 -90 1600 -90 
Q 1210 -90 915 108 
Q 621 307 461 640 
Q 301 973 227 1350 
Q 154 1728 154 2150 
Q 154 2746 301 3222 
Q 448 3699 790 4012 
Q 1133 4326 1626 4326 
Q 2253 4326 2649 3712 
Q 3046 3098 3046 2112 
z
M 2432 2080 
Q 2432 3091 2217 3625 
Q 2003 4160 1587 4160 
Q 1190 4160 979 3622 
Q 768 3085 768 2106 
Q 768 1120 979 598 
Q 1190 77 1600 77 
Q 2003 77 2217 598 
Q 2432 1120 2432 2080 
z
" transform="scale(0.015625)"/>
        <path id="STIXGeneral-Regular-2e" d="M 1158 275 
Q 1158 134 1052 32 
Q 947 -70 800 -70 
Q 653 -70 550 32 
Q 448 134 448 281 
Q 448 429 553 534 
Q 659 640 806 640 
Q 947 640 1052 531 
Q 1158 422 1158 275 
z
" transform="scale(0.015625)"/>
       </defs>
       <use xlink:href="#STIXGeneral-Regular-30"/>
       <use xlink:href="#STIXGeneral-Regular-2e" x="49.999985"/>
       <use xlink:href="#STIXGeneral-Regular-30" x="74.999969"/>
       <use xlink:href="#STIXGeneral-Regular-30" x="124.999954"/>
      </g>
     </g>
    </g>
    <g id="xtick_2">
     <g id="line2d_2">
      <g>
       <use xlink:href="#mf6b75b6845" x="112.54125" y="192.24" style="stroke: #000000; stroke-width: 0.8"/>
      </g>
     </g>
     <g id="text_2">
      <!-- 0.25 -->
      <g transform="translate(102.04125 207.435625) scale(0.12 -0.12)">
       <defs>
        <path id="STIXGeneral-Regular-32" d="M 3034 877 
L 2688 0 
L 186 0 
L 186 77 
L 1325 1286 
Q 1773 1754 1965 2144 
Q 2157 2534 2157 2950 
Q 2157 3379 1920 3616 
Q 1683 3853 1267 3853 
Q 922 3853 720 3673 
Q 518 3494 326 3021 
L 192 3053 
Q 301 3648 630 3987 
Q 960 4326 1523 4326 
Q 2054 4326 2380 4006 
Q 2707 3686 2707 3200 
Q 2707 2477 1888 1613 
L 832 486 
L 2330 486 
Q 2541 486 2665 569 
Q 2790 653 2944 915 
L 3034 877 
z
" transform="scale(0.015625)"/>
        <path id="STIXGeneral-Regular-35" d="M 2803 4358 
L 2573 3814 
Q 2534 3731 2400 3731 
L 1158 3731 
L 902 3187 
Q 1606 3053 1920 2896 
Q 2234 2739 2502 2368 
Q 2726 2061 2726 1555 
Q 2726 1094 2576 780 
Q 2426 467 2099 224 
Q 1664 -90 1011 -90 
Q 646 -90 422 19 
Q 198 128 198 307 
Q 198 550 486 550 
Q 717 550 960 352 
Q 1210 147 1414 147 
Q 1747 147 2012 480 
Q 2278 813 2278 1229 
Q 2278 1843 1850 2189 
Q 1293 2637 486 2637 
Q 410 2637 410 2688 
L 416 2720 
L 1114 4237 
L 2438 4237 
Q 2547 4237 2608 4269 
Q 2669 4301 2746 4403 
L 2803 4358 
z
" transform="scale(0.015625)"/>
       </defs>
       <use xlink:href="#STIXGeneral-Regular-30"/>
       <use xlink:href="#STIXGeneral-Regular-2e" x="49.999985"/>
       <use xlink:href="#STIXGeneral-Regular-32" x="74.999969"/>
       <use xlink:href="#STIXGeneral-Regular-35" x="124.999954"/>
      </g>
     </g>
    </g>
    <g id="xtick_3">
     <g id="line2d_3">
      <g>
       <use xlink:href="#mf6b75b6845" x="160.785" y="192.24" style="stroke: #000000; stroke-width: 0.8"/>
      </g>
     </g>
     <g id="text_3">
      <!-- 0.50 -->
      <g transform="translate(150.285 207.435625) scale(0.12 -0.12)">
       <use xlink:href="#STIXGeneral-Regular-30"/>
       <use xlink:href="#STIXGeneral-Regular-2e" x="49.999985"/>
       <use xlink:href="#STIXGeneral-Regular-35" x="74.999969"/>
       <use xlink:href="#STIXGeneral-Regular-30" x="124.999954"/>
      </g>
     </g>
    </g>
    <g id="xtick_4">
     <g id="line2d_4">
      <g>
       <use xlink:href="#mf6b75b6845" x="209.02875" y="192.24" style="stroke: #000000; stroke-width: 0.8"/>
      </g>
     </g>
     <g id="text_4">
      <!-- 0.75 -->
      <g transform="translate(198.52875 207.435625) scale(0.12 -0.12)">
       <defs>
        <path id="STIXGeneral-Regular-37" d="M 2874 4134 
L 1517 -51 
L 1101 -51 
L 2368 3763 
L 992 3763 
Q 717 3763 582 3667 
Q 448 3571 243 3238 
L 128 3296 
L 512 4237 
L 2874 4237 
L 2874 4134 
z
" transform="scale(0.015625)"/>
       </defs>
       <use xlink:href="#STIXGeneral-Regular-30"/>
       <use xlink:href="#STIXGeneral-Regular-2e" x="49.999985"/>
       <use xlink:href="#STIXGeneral-Regular-37" x="74.999969"/>
       <use xlink:href="#STIXGeneral-Regular-35" x="124.999954"/>
      </g>
     </g>
    </g>
    <g id="xtick_5">
     <g id="line2d_5">
      <g>
       <use xlink:href="#mf6b75b6845" x="257.2725" y="192.24" style="stroke: #000000; stroke-width: 0.8"/>
      </g>
     </g>
     <g id="text_5">
      <!-- 1.00 -->
      <g transform="translate(246.7725 207.435625) scale(0.12 -0.12)">
       <defs>
        <path id="STIXGeneral-Regular-31" d="M 2522 0 
L 755 0 
L 755 96 
Q 1107 115 1235 227 
Q 1363 339 1363 608 
L 1363 3482 
Q 1363 3795 1171 3795 
Q 1082 3795 883 3718 
L 710 3654 
L 710 3744 
L 1856 4326 
L 1914 4307 
L 1914 486 
Q 1914 275 2042 185 
Q 2170 96 2522 96 
L 2522 0 
z
" transform="scale(0.015625)"/>
       </defs>
       <use xlink:href="#STIXGeneral-Regular-31"/>
       <use xlink:href="#STIXGeneral-Regular-2e" x="49.999985"/>
       <use xlink:href="#STIXGeneral-Regular-30" x="74.999969"/>
       <use xlink:href="#STIXGeneral-Regular-30" x="124.999954"/>
      </g>
     </g>
    </g>
    <g id="text_6">
     <!-- Relative depth $\lambda$ [] -->
     <g transform="translate(108.775 223.7) scale(0.14 -0.14)">
      <defs>
       <path id="STIXGeneral-Regular-52" d="M 4224 0 
L 3187 0 
L 1664 1971 
L 1306 1958 
L 1306 717 
Q 1306 352 1405 249 
Q 1504 147 1875 122 
L 1875 0 
L 109 0 
L 109 122 
Q 474 154 563 262 
Q 653 371 653 794 
L 653 3526 
Q 653 3885 563 3987 
Q 474 4090 109 4115 
L 109 4237 
L 1850 4237 
Q 2726 4237 3187 3859 
Q 3501 3603 3501 3091 
Q 3501 2221 2342 2042 
L 3622 422 
Q 3757 256 3878 198 
Q 4000 141 4224 122 
L 4224 0 
z
M 1306 3731 
L 1306 2195 
Q 1766 2202 1990 2246 
Q 2214 2291 2438 2413 
Q 2803 2618 2803 3142 
Q 2803 4000 1632 4000 
Q 1459 4000 1382 3945 
Q 1306 3891 1306 3731 
z
" transform="scale(0.015625)"/>
       <path id="STIXGeneral-Regular-65" d="M 2611 1050 
L 2714 1005 
Q 2330 -64 1376 -64 
Q 813 -64 486 329 
Q 160 723 160 1389 
Q 160 2074 525 2509 
Q 890 2944 1485 2944 
Q 2061 2944 2374 2502 
Q 2560 2246 2592 1773 
L 621 1773 
Q 646 1370 700 1158 
Q 755 947 915 730 
Q 1184 378 1626 378 
Q 1939 378 2153 531 
Q 2368 685 2611 1050 
z
M 634 1978 
L 1939 1978 
Q 1882 2381 1750 2547 
Q 1619 2714 1312 2714 
Q 1043 2714 864 2525 
Q 685 2336 634 1978 
z
" transform="scale(0.015625)"/>
       <path id="STIXGeneral-Regular-6c" d="M 1645 0 
L 134 0 
L 134 96 
Q 435 122 531 221 
Q 627 320 627 589 
L 627 3590 
Q 627 3821 569 3910 
Q 512 4000 358 4000 
Q 224 4000 122 3987 
L 122 4090 
Q 730 4237 1133 4371 
L 1165 4346 
L 1165 557 
Q 1165 288 1254 201 
Q 1344 115 1645 96 
L 1645 0 
z
" transform="scale(0.015625)"/>
       <path id="STIXGeneral-Regular-61" d="M 2829 422 
L 2829 243 
Q 2586 -64 2253 -64 
Q 1888 -64 1843 403 
L 1837 403 
Q 1427 -64 909 -64 
Q 608 -64 422 112 
Q 237 288 237 602 
Q 237 1050 685 1350 
Q 992 1555 1837 1869 
L 1837 2214 
Q 1837 2502 1699 2646 
Q 1562 2790 1338 2790 
Q 1146 2790 1018 2697 
Q 890 2605 890 2477 
Q 890 2419 909 2348 
Q 928 2278 928 2208 
Q 928 2112 841 2029 
Q 755 1946 634 1946 
Q 525 1946 441 2029 
Q 358 2112 358 2240 
Q 358 2547 685 2752 
Q 986 2944 1421 2944 
Q 1939 2944 2176 2656 
Q 2291 2522 2323 2384 
Q 2355 2246 2355 1946 
L 2355 723 
Q 2355 301 2554 301 
Q 2682 301 2829 422 
z
M 1837 813 
L 1837 1715 
Q 1248 1510 1018 1293 
Q 800 1094 800 800 
Q 800 557 921 432 
Q 1043 307 1242 307 
Q 1453 307 1613 410 
Q 1747 506 1792 589 
Q 1837 672 1837 813 
z
" transform="scale(0.015625)"/>
       <path id="STIXGeneral-Regular-74" d="M 1702 493 
L 1786 422 
Q 1478 -64 1011 -64 
Q 448 -64 448 749 
L 448 2675 
L 109 2675 
Q 83 2694 83 2720 
Q 83 2771 192 2842 
Q 435 2982 813 3526 
Q 826 3546 874 3606 
Q 922 3667 941 3706 
Q 986 3706 986 3622 
L 986 2880 
L 1632 2880 
L 1632 2675 
L 986 2675 
L 986 845 
Q 986 538 1062 403 
Q 1139 269 1318 269 
Q 1510 269 1702 493 
z
" transform="scale(0.015625)"/>
       <path id="STIXGeneral-Regular-69" d="M 1152 4045 
Q 1152 3904 1056 3811 
Q 960 3718 819 3718 
Q 685 3718 592 3811 
Q 499 3904 499 4045 
Q 499 4179 595 4275 
Q 691 4371 826 4371 
Q 966 4371 1059 4275 
Q 1152 4179 1152 4045 
z
M 1619 0 
L 102 0 
L 102 96 
Q 435 115 521 211 
Q 608 307 608 666 
L 608 2118 
Q 608 2342 563 2432 
Q 518 2522 397 2522 
Q 243 2522 128 2490 
L 128 2592 
L 1120 2944 
L 1146 2918 
L 1146 672 
Q 1146 314 1226 218 
Q 1306 122 1619 96 
L 1619 0 
z
" transform="scale(0.015625)"/>
       <path id="STIXGeneral-Regular-76" d="M 3053 2880 
L 3053 2784 
Q 2906 2771 2835 2688 
Q 2765 2605 2637 2285 
L 1818 230 
Q 1690 -90 1638 -90 
Q 1587 -90 1523 77 
Q 1510 96 1497 141 
Q 1485 186 1472 211 
L 704 2048 
Q 499 2534 403 2652 
Q 307 2771 122 2784 
L 122 2880 
L 1376 2880 
L 1376 2784 
Q 1210 2771 1146 2732 
Q 1082 2694 1082 2611 
Q 1082 2509 1139 2368 
L 1792 730 
L 2426 2387 
Q 2464 2483 2464 2579 
Q 2464 2758 2163 2784 
L 2163 2880 
L 3053 2880 
z
" transform="scale(0.015625)"/>
       <path id="STIXGeneral-Regular-20" transform="scale(0.015625)"/>
       <path id="STIXGeneral-Regular-64" d="M 3142 269 
L 2202 -64 
L 2176 -45 
L 2176 365 
Q 1869 -64 1357 -64 
Q 826 -64 499 317 
Q 173 698 173 1312 
Q 173 1990 563 2467 
Q 954 2944 1504 2944 
Q 1850 2944 2176 2669 
L 2176 3667 
Q 2176 3866 2118 3930 
Q 2061 3994 1882 3994 
Q 1792 3994 1741 3987 
L 1741 4090 
Q 2323 4243 2682 4371 
L 2714 4358 
L 2714 730 
Q 2714 506 2768 435 
Q 2822 365 2995 365 
Q 3034 365 3142 371 
L 3142 269 
z
M 2176 653 
L 2176 2125 
Q 2176 2381 1981 2573 
Q 1786 2765 1523 2765 
Q 1158 2765 940 2438 
Q 723 2112 723 1568 
Q 723 979 963 624 
Q 1203 269 1606 269 
Q 1907 269 2080 474 
Q 2176 582 2176 653 
z
" transform="scale(0.015625)"/>
       <path id="STIXGeneral-Regular-70" d="M 1018 2931 
L 1018 2438 
Q 1421 2944 1939 2944 
Q 2406 2944 2707 2560 
Q 3008 2176 3008 1581 
Q 3008 883 2621 409 
Q 2234 -64 1664 -64 
Q 1466 -64 1328 -6 
Q 1190 51 1018 211 
L 1018 -794 
Q 1018 -1094 1120 -1180 
Q 1222 -1267 1581 -1274 
L 1581 -1389 
L 32 -1389 
L 32 -1280 
Q 314 -1254 397 -1171 
Q 480 -1088 480 -838 
L 480 2157 
Q 480 2381 429 2451 
Q 378 2522 218 2522 
Q 115 2522 58 2515 
L 58 2618 
Q 506 2752 979 2944 
L 1018 2931 
z
M 1018 2138 
L 1018 563 
Q 1018 422 1238 281 
Q 1459 141 1683 141 
Q 2029 141 2243 467 
Q 2458 794 2458 1325 
Q 2458 1888 2243 2224 
Q 2029 2560 1670 2560 
Q 1446 2560 1232 2419 
Q 1018 2278 1018 2138 
z
" transform="scale(0.015625)"/>
       <path id="STIXGeneral-Regular-68" d="M 3117 0 
L 1760 0 
L 1760 96 
Q 2042 128 2118 224 
Q 2195 320 2195 653 
L 2195 1920 
Q 2195 2598 1722 2598 
Q 1530 2598 1370 2508 
Q 1210 2419 1005 2195 
L 1005 653 
Q 1005 320 1081 224 
Q 1158 128 1440 96 
L 1440 0 
L 58 0 
L 58 96 
Q 333 134 400 224 
Q 467 314 467 653 
L 467 3667 
Q 467 3872 406 3933 
Q 346 3994 141 3994 
Q 83 3994 64 3987 
L 64 4090 
L 237 4141 
Q 730 4288 973 4371 
L 1005 4352 
L 1005 2406 
Q 1229 2694 1446 2819 
Q 1664 2944 1946 2944 
Q 2733 2944 2733 1926 
L 2733 653 
Q 2733 320 2793 233 
Q 2854 147 3117 96 
L 3117 0 
z
" transform="scale(0.015625)"/>
       <path id="STIXGeneral-Italic-3bb" d="M 2656 787 
L 2758 787 
Q 2560 -102 2112 -102 
Q 1965 -102 1869 48 
Q 1773 198 1773 499 
Q 1773 672 1789 889 
Q 1805 1107 1833 1446 
Q 1862 1786 1875 2016 
L 538 0 
L -77 0 
L 1907 2739 
Q 1933 2970 1933 3245 
Q 1933 3936 1619 3936 
Q 1530 3936 1408 3821 
Q 1286 3706 1203 3462 
L 1101 3462 
Q 1312 4339 1747 4339 
Q 1926 4339 2041 4115 
Q 2157 3891 2157 3475 
Q 2157 3040 2093 2192 
Q 2029 1344 2029 941 
Q 2029 602 2089 451 
Q 2150 301 2291 301 
Q 2483 301 2656 787 
z
" transform="scale(0.015625)"/>
       <path id="STIXGeneral-Regular-5b" d="M 1914 -998 
L 563 -998 
L 563 4237 
L 1914 4237 
L 1914 4077 
L 1382 4077 
Q 1216 4077 1133 4006 
Q 1050 3936 1050 3770 
L 1050 -493 
Q 1050 -838 1382 -838 
L 1914 -838 
L 1914 -998 
z
" transform="scale(0.015625)"/>
       <path id="STIXGeneral-Regular-5d" d="M 1568 -998 
L 218 -998 
L 218 -838 
L 781 -838 
Q 947 -838 1014 -768 
Q 1082 -698 1082 -544 
L 1082 3731 
Q 1082 4077 755 4077 
L 218 4077 
L 218 4237 
L 1568 4237 
L 1568 -998 
z
" transform="scale(0.015625)"/>
      </defs>
      <use xlink:href="#STIXGeneral-Regular-52" transform="translate(0 0.703125)"/>
      <use xlink:href="#STIXGeneral-Regular-65" transform="translate(66.699997 0.703125)"/>
      <use xlink:href="#STIXGeneral-Regular-6c" transform="translate(111.099991 0.703125)"/>
      <use xlink:href="#STIXGeneral-Regular-61" transform="translate(138.899979 0.703125)"/>
      <use xlink:href="#STIXGeneral-Regular-74" transform="translate(183.299973 0.703125)"/>
      <use xlink:href="#STIXGeneral-Regular-69" transform="translate(211.09996 0.703125)"/>
      <use xlink:href="#STIXGeneral-Regular-76" transform="translate(238.899948 0.703125)"/>
      <use xlink:href="#STIXGeneral-Regular-65" transform="translate(288.899933 0.703125)"/>
      <use xlink:href="#STIXGeneral-Regular-20" transform="translate(333.299927 0.703125)"/>
      <use xlink:href="#STIXGeneral-Regular-64" transform="translate(358.299911 0.703125)"/>
      <use xlink:href="#STIXGeneral-Regular-65" transform="translate(408.299896 0.703125)"/>
      <use xlink:href="#STIXGeneral-Regular-70" transform="translate(452.69989 0.703125)"/>
      <use xlink:href="#STIXGeneral-Regular-74" transform="translate(502.699875 0.703125)"/>
      <use xlink:href="#STIXGeneral-Regular-68" transform="translate(530.499863 0.703125)"/>
      <use xlink:href="#STIXGeneral-Regular-20" transform="translate(580.499847 0.703125)"/>
      <use xlink:href="#STIXGeneral-Italic-3bb" transform="translate(605.499832 0.703125)"/>
      <use xlink:href="#STIXGeneral-Regular-20" transform="translate(651.29982 0.703125)"/>
      <use xlink:href="#STIXGeneral-Regular-5b" transform="translate(676.299805 0.703125)"/>
      <use xlink:href="#STIXGeneral-Regular-5d" transform="translate(709.599792 0.703125)"/>
     </g>
    </g>
   </g>
   <g id="matplotlib.axis_2">
    <g id="ytick_1">
     <g id="line2d_6">
      <defs>
       <path id="m901c87eea7" d="M 0 0 
L -3.5 0 
" style="stroke: #000000; stroke-width: 0.8"/>
      </defs>
      <g>
       <use xlink:href="#m901c87eea7" x="45" y="192.24" style="stroke: #000000; stroke-width: 0.8"/>
      </g>
     </g>
     <g id="text_7">
      <!-- 0.0 -->
      <g transform="translate(23 196.337813) scale(0.12 -0.12)">
       <use xlink:href="#STIXGeneral-Regular-30"/>
       <use xlink:href="#STIXGeneral-Regular-2e" x="49.999985"/>
       <use xlink:href="#STIXGeneral-Regular-30" x="74.999969"/>
      </g>
     </g>
    </g>
    <g id="ytick_2">
     <g id="line2d_7">
      <g>
       <use xlink:href="#m901c87eea7" x="45" y="162" style="stroke: #000000; stroke-width: 0.8"/>
      </g>
     </g>
     <g id="text_8">
      <!-- 0.2 -->
      <g transform="translate(23 166.097813) scale(0.12 -0.12)">
       <use xlink:href="#STIXGeneral-Regular-30"/>
       <use xlink:href="#STIXGeneral-Regular-2e" x="49.999985"/>
       <use xlink:href="#STIXGeneral-Regular-32" x="74.999969"/>
      </g>
     </g>
    </g>
    <g id="ytick_3">
     <g id="line2d_8">
      <g>
       <use xlink:href="#m901c87eea7" x="45" y="131.76" style="stroke: #000000; stroke-width: 0.8"/>
      </g>
     </g>
     <g id="text_9">
      <!-- 0.4 -->
      <g transform="translate(23 135.857812) scale(0.12 -0.12)">
       <defs>
        <path id="STIXGeneral-Regular-34" d="M 3027 1069 
L 2368 1069 
L 2368 0 
L 1869 0 
L 1869 1069 
L 77 1069 
L 77 1478 
L 2086 4326 
L 2368 4326 
L 2368 1478 
L 3027 1478 
L 3027 1069 
z
M 1869 1478 
L 1869 3674 
L 333 1478 
L 1869 1478 
z
" transform="scale(0.015625)"/>
       </defs>
       <use xlink:href="#STIXGeneral-Regular-30"/>
       <use xlink:href="#STIXGeneral-Regular-2e" x="49.999985"/>
       <use xlink:href="#STIXGeneral-Regular-34" x="74.999969"/>
      </g>
     </g>
    </g>
    <g id="ytick_4">
     <g id="line2d_9">
      <g>
       <use xlink:href="#m901c87eea7" x="45" y="101.52" style="stroke: #000000; stroke-width: 0.8"/>
      </g>
     </g>
     <g id="text_10">
      <!-- 0.6 -->
      <g transform="translate(23 105.617812) scale(0.12 -0.12)">
       <defs>
        <path id="STIXGeneral-Regular-36" d="M 2854 4378 
L 2867 4275 
Q 2112 4154 1606 3664 
Q 1101 3174 973 2451 
Q 1344 2739 1786 2739 
Q 2349 2739 2672 2380 
Q 2995 2022 2995 1402 
Q 2995 774 2669 378 
Q 2291 -90 1651 -90 
Q 870 -90 518 557 
Q 218 1107 218 1786 
Q 218 2835 915 3552 
Q 1312 3962 1731 4131 
Q 2150 4301 2854 4378 
z
M 2419 1203 
Q 2419 2445 1555 2445 
Q 1235 2445 1024 2275 
Q 813 2106 813 1702 
Q 813 954 1046 522 
Q 1280 90 1722 90 
Q 2061 90 2240 394 
Q 2419 698 2419 1203 
z
" transform="scale(0.015625)"/>
       </defs>
       <use xlink:href="#STIXGeneral-Regular-30"/>
       <use xlink:href="#STIXGeneral-Regular-2e" x="49.999985"/>
       <use xlink:href="#STIXGeneral-Regular-36" x="74.999969"/>
      </g>
     </g>
    </g>
    <g id="ytick_5">
     <g id="line2d_10">
      <g>
       <use xlink:href="#m901c87eea7" x="45" y="71.28" style="stroke: #000000; stroke-width: 0.8"/>
      </g>
     </g>
     <g id="text_11">
      <!-- 0.8 -->
      <g transform="translate(23 75.377812) scale(0.12 -0.12)">
       <defs>
        <path id="STIXGeneral-Regular-38" d="M 2848 992 
Q 2848 499 2505 204 
Q 2163 -90 1587 -90 
Q 1050 -90 704 204 
Q 358 499 358 954 
Q 358 1293 524 1533 
Q 691 1773 1190 2125 
Q 710 2522 553 2765 
Q 397 3008 397 3328 
Q 397 3782 745 4054 
Q 1094 4326 1638 4326 
Q 2106 4326 2410 4060 
Q 2714 3795 2714 3411 
Q 2714 3059 2531 2848 
Q 2349 2637 1856 2374 
Q 2432 1990 2640 1689 
Q 2848 1389 2848 992 
z
M 2272 3411 
Q 2272 3744 2086 3945 
Q 1901 4147 1574 4147 
Q 1248 4147 1059 3977 
Q 870 3808 870 3513 
Q 870 3219 1059 2979 
Q 1248 2739 1670 2490 
Q 1997 2682 2134 2896 
Q 2272 3110 2272 3411 
z
M 1734 1741 
L 1357 1997 
Q 1075 1766 960 1545 
Q 845 1325 845 1011 
Q 845 576 1065 333 
Q 1286 90 1658 90 
Q 1971 90 2166 285 
Q 2362 480 2362 794 
Q 2362 1082 2214 1299 
Q 2067 1517 1734 1741 
z
" transform="scale(0.015625)"/>
       </defs>
       <use xlink:href="#STIXGeneral-Regular-30"/>
       <use xlink:href="#STIXGeneral-Regular-2e" x="49.999985"/>
       <use xlink:href="#STIXGeneral-Regular-38" x="74.999969"/>
      </g>
     </g>
    </g>
    <g id="ytick_6">
     <g id="line2d_11">
      <g>
       <use xlink:href="#m901c87eea7" x="45" y="41.04" style="stroke: #000000; stroke-width: 0.8"/>
      </g>
     </g>
     <g id="text_12">
      <!-- 1.0 -->
      <g transform="translate(23 45.137812) scale(0.12 -0.12)">
       <use xlink:href="#STIXGeneral-Regular-31"/>
       <use xlink:href="#STIXGeneral-Regular-2e" x="49.999985"/>
       <use xlink:href="#STIXGeneral-Regular-30" x="74.999969"/>
      </g>
     </g>
    </g>
    <g id="text_13">
     <!-- Relative concentration $\chi$ [] -->
     <g transform="translate(15.961562 183.63) rotate(-90) scale(0.14 -0.14)">
      <defs>
       <path id="STIXGeneral-Regular-63" d="M 2547 998 
L 2637 941 
Q 2362 403 2112 205 
Q 1786 -64 1376 -64 
Q 845 -64 502 336 
Q 160 736 160 1357 
Q 160 2170 698 2618 
Q 1094 2944 1562 2944 
Q 1965 2944 2256 2749 
Q 2547 2554 2547 2285 
Q 2547 2176 2457 2096 
Q 2368 2016 2246 2016 
Q 2022 2016 1939 2310 
L 1901 2451 
Q 1850 2630 1773 2694 
Q 1696 2758 1523 2758 
Q 1133 2758 893 2451 
Q 653 2144 653 1645 
Q 653 1094 928 745 
Q 1203 397 1645 397 
Q 1920 397 2118 528 
Q 2317 659 2547 998 
z
" transform="scale(0.015625)"/>
       <path id="STIXGeneral-Regular-6f" d="M 3008 1478 
Q 3008 806 2608 371 
Q 2208 -64 1568 -64 
Q 979 -64 582 368 
Q 186 800 186 1459 
Q 186 2125 582 2534 
Q 979 2944 1626 2944 
Q 2221 2944 2614 2537 
Q 3008 2131 3008 1478 
z
M 2432 1306 
Q 2432 2035 2112 2445 
Q 1856 2765 1504 2765 
Q 1171 2765 966 2493 
Q 762 2221 762 1747 
Q 762 928 1101 435 
Q 1318 115 1677 115 
Q 2029 115 2230 432 
Q 2432 749 2432 1306 
z
" transform="scale(0.015625)"/>
       <path id="STIXGeneral-Regular-6e" d="M 3104 0 
L 1773 0 
L 1779 96 
Q 2016 115 2096 233 
Q 2176 352 2176 672 
L 2176 1946 
Q 2176 2592 1709 2592 
Q 1549 2592 1408 2515 
Q 1267 2438 1050 2227 
L 1050 461 
Q 1050 269 1136 192 
Q 1222 115 1466 96 
L 1466 0 
L 115 0 
L 115 96 
Q 358 115 435 214 
Q 512 314 512 602 
L 512 2157 
Q 512 2394 467 2483 
Q 422 2573 288 2573 
Q 160 2573 102 2547 
L 102 2656 
Q 550 2784 979 2944 
L 1030 2925 
L 1030 2426 
L 1037 2426 
Q 1491 2944 1958 2944 
Q 2323 2944 2518 2688 
Q 2714 2432 2714 1958 
L 2714 544 
Q 2714 288 2790 205 
Q 2867 122 3104 96 
L 3104 0 
z
" transform="scale(0.015625)"/>
       <path id="STIXGeneral-Regular-72" d="M 1024 2931 
L 1024 2342 
Q 1267 2688 1430 2816 
Q 1594 2944 1792 2944 
Q 1958 2944 2051 2854 
Q 2144 2765 2144 2605 
Q 2144 2470 2077 2393 
Q 2010 2317 1894 2317 
Q 1773 2317 1638 2445 
Q 1536 2541 1472 2541 
Q 1338 2541 1181 2355 
Q 1024 2170 1024 2016 
L 1024 576 
Q 1024 301 1133 205 
Q 1242 109 1568 96 
L 1568 0 
L 32 0 
L 32 96 
Q 339 154 412 224 
Q 486 294 486 538 
L 486 2138 
Q 486 2349 438 2435 
Q 390 2522 269 2522 
Q 166 2522 45 2496 
L 45 2598 
Q 448 2726 992 2944 
L 1024 2931 
z
" transform="scale(0.015625)"/>
       <path id="STIXGeneral-Italic-3c7" d="M 3187 2739 
L 1363 480 
Q 1357 314 1357 38 
Q 1357 -531 1424 -726 
Q 1491 -922 1645 -922 
Q 1722 -922 1824 -803 
Q 1926 -685 2010 -448 
L 2112 -448 
Q 1939 -1325 1517 -1325 
Q 1312 -1325 1213 -1091 
Q 1114 -858 1114 -506 
Q 1114 -32 1165 288 
L -96 -1274 
L -691 -1274 
L 1146 934 
L 1146 1504 
Q 1146 1990 1085 2204 
Q 1024 2419 858 2419 
Q 774 2419 662 2307 
Q 550 2195 467 1952 
L 365 1952 
Q 416 2144 461 2272 
Q 506 2400 579 2541 
Q 653 2682 755 2752 
Q 858 2822 992 2822 
Q 1178 2822 1270 2617 
Q 1363 2413 1363 1901 
Q 1363 1882 1360 1818 
Q 1357 1754 1350 1571 
Q 1344 1389 1338 1114 
L 2592 2739 
L 3187 2739 
z
" transform="scale(0.015625)"/>
      </defs>
      <use xlink:href="#STIXGeneral-Regular-52" transform="translate(0 0.703125)"/>
      <use xlink:href="#STIXGeneral-Regular-65" transform="translate(66.699997 0.703125)"/>
      <use xlink:href="#STIXGeneral-Regular-6c" transform="translate(111.099991 0.703125)"/>
      <use xlink:href="#STIXGeneral-Regular-61" transform="translate(138.899979 0.703125)"/>
      <use xlink:href="#STIXGeneral-Regular-74" transform="translate(183.299973 0.703125)"/>
      <use xlink:href="#STIXGeneral-Regular-69" transform="translate(211.09996 0.703125)"/>
      <use xlink:href="#STIXGeneral-Regular-76" transform="translate(238.899948 0.703125)"/>
      <use xlink:href="#STIXGeneral-Regular-65" transform="translate(288.899933 0.703125)"/>
      <use xlink:href="#STIXGeneral-Regular-20" transform="translate(333.299927 0.703125)"/>
      <use xlink:href="#STIXGeneral-Regular-63" transform="translate(358.299911 0.703125)"/>
      <use xlink:href="#STIXGeneral-Regular-6f" transform="translate(402.699905 0.703125)"/>
      <use xlink:href="#STIXGeneral-Regular-6e" transform="translate(452.69989 0.703125)"/>
      <use xlink:href="#STIXGeneral-Regular-63" transform="translate(502.699875 0.703125)"/>
      <use xlink:href="#STIXGeneral-Regular-65" transform="translate(547.099869 0.703125)"/>
      <use xlink:href="#STIXGeneral-Regular-6e" transform="translate(591.499863 0.703125)"/>
      <use xlink:href="#STIXGeneral-Regular-74" transform="translate(641.499847 0.703125)"/>
      <use xlink:href="#STIXGeneral-Regular-72" transform="translate(669.299835 0.703125)"/>
      <use xlink:href="#STIXGeneral-Regular-61" transform="translate(702.599823 0.703125)"/>
      <use xlink:href="#STIXGeneral-Regular-74" transform="translate(746.999817 0.703125)"/>
      <use xlink:href="#STIXGeneral-Regular-69" transform="translate(774.799805 0.703125)"/>
      <use xlink:href="#STIXGeneral-Regular-6f" transform="translate(802.599792 0.703125)"/>
      <use xlink:href="#STIXGeneral-Regular-6e" transform="translate(852.599777 0.703125)"/>
      <use xlink:href="#STIXGeneral-Regular-20" transform="translate(902.599762 0.703125)"/>
      <use xlink:href="#STIXGeneral-Italic-3c7" transform="translate(927.599747 0.703125)"/>
      <use xlink:href="#STIXGeneral-Regular-20" transform="translate(973.299744 0.703125)"/>
      <use xlink:href="#STIXGeneral-Regular-5b" transform="translate(998.299728 0.703125)"/>
      <use xlink:href="#STIXGeneral-Regular-5d" transform="translate(1031.599716 0.703125)"/>
     </g>
    </g>
   </g>
   <g id="line2d_12">
    <path d="M 257.2725 192.24 
L 257.2725 84.306622 
" clip-path="url(#pa7213d7455)" style="fill: none; stroke-dasharray: 5.55,2.4; stroke-dashoffset: 0; stroke: #71a8c4; stroke-width: 1.5"/>
   </g>
   <g id="line2d_13">
    <path d="M 257.2725 192.24 
L 257.2725 93.577358 
" clip-path="url(#pa7213d7455)" style="fill: none; stroke-dasharray: 5.55,2.4; stroke-dashoffset: 0; stroke: #307da6; stroke-width: 1.5"/>
   </g>
   <g id="line2d_14">
    <path d="M 257.2725 192.24 
L 257.2725 114.03471 
" clip-path="url(#pa7213d7455)" style="fill: none; stroke-dasharray: 5.55,2.4; stroke-dashoffset: 0; stroke: #06568c; stroke-width: 1.5"/>
   </g>
   <g id="line2d_15">
    <path d="M 257.2725 192.24 
L 257.2725 146.786065 
" clip-path="url(#pa7213d7455)" style="fill: none; stroke-dasharray: 5.55,2.4; stroke-dashoffset: 0; stroke: #023376; stroke-width: 1.5"/>
   </g>
   <g id="line2d_16">
    <path d="M 257.2725 192.24 
L 257.2725 169.55222 
" clip-path="url(#pa7213d7455)" style="fill: none; stroke-dasharray: 5.55,2.4; stroke-dashoffset: 0; stroke: #001261; stroke-width: 1.5"/>
   </g>
   <g id="patch_3">
    <path d="M 45 192.24 
L 45 25.92 
" style="fill: none; stroke: #000000; stroke-width: 0.8; stroke-linejoin: miter; stroke-linecap: square"/>
   </g>
   <g id="patch_4">
    <path d="M 276.57 192.24 
L 276.57 25.92 
" style="fill: none; stroke: #000000; stroke-width: 0.8; stroke-linejoin: miter; stroke-linecap: square"/>
   </g>
   <g id="patch_5">
    <path d="M 45 192.24 
L 276.57 192.24 
" style="fill: none; stroke: #000000; stroke-width: 0.8; stroke-linejoin: miter; stroke-linecap: square"/>
   </g>
   <g id="patch_6">
    <path d="M 45 25.92 
L 276.57 25.92 
" style="fill: none; stroke: #000000; stroke-width: 0.8; stroke-linejoin: miter; stroke-linecap: square"/>
   </g>
   <g id="line2d_17">
    <path d="M 45 41.04 
L 47.144167 45.8 
L 49.288333 50.56 
L 51.4325 55.32 
L 53.576667 60.08 
L 55.720833 64.84 
L 57.865 69.6 
L 60.009167 74.36 
L 62.153333 79.12 
L 64.2975 83.88 
" clip-path="url(#pa7213d7455)" style="fill: none; stroke: #71a8c4; stroke-width: 2; stroke-linecap: square"/>
   </g>
   <g id="line2d_18">
    <path d="M 64.2975 83.88 
L 66.246742 83.888582 
L 68.195985 83.897077 
L 70.145227 83.905484 
L 72.09447 83.913804 
L 74.043712 83.922036 
L 75.992955 83.930182 
L 77.942197 83.938239 
L 79.891439 83.94621 
L 81.840682 83.954093 
L 83.789924 83.961889 
L 85.739167 83.969597 
L 87.688409 83.977218 
L 89.637652 83.984752 
L 91.586894 83.992198 
L 93.536136 83.999557 
L 95.485379 84.006829 
L 97.434621 84.014014 
L 99.383864 84.021111 
L 101.333106 84.028121 
L 103.282348 84.035043 
L 105.231591 84.041879 
L 107.180833 84.048627 
L 109.130076 84.055288 
L 111.079318 84.061862 
L 113.028561 84.068348 
L 114.977803 84.074747 
L 116.927045 84.081059 
L 118.876288 84.087284 
L 120.82553 84.093422 
L 122.774773 84.099472 
L 124.724015 84.105435 
L 126.673258 84.111311 
L 128.6225 84.1171 
L 130.571742 84.122802 
L 132.520985 84.128416 
L 134.470227 84.133943 
L 136.41947 84.139384 
L 138.368712 84.144737 
L 140.317955 84.150002 
L 142.267197 84.155181 
L 144.216439 84.160273 
L 146.165682 84.165277 
L 148.114924 84.170194 
L 150.064167 84.175025 
L 152.013409 84.179768 
L 153.962652 84.184424 
L 155.911894 84.188992 
L 157.861136 84.193474 
L 159.810379 84.197869 
L 161.759621 84.202176 
L 163.708864 84.206397 
L 165.658106 84.21053 
L 167.607348 84.214576 
L 169.556591 84.218535 
L 171.505833 84.222408 
L 173.455076 84.226193 
L 175.404318 84.229891 
L 177.353561 84.233501 
L 179.302803 84.237025 
L 181.252045 84.240462 
L 183.201288 84.243812 
L 185.15053 84.247074 
L 187.099773 84.25025 
L 189.049015 84.253339 
L 190.998258 84.25634 
L 192.9475 84.259255 
L 194.896742 84.262082 
L 196.845985 84.264823 
L 198.795227 84.267476 
L 200.74447 84.270043 
L 202.693712 84.272522 
L 204.642955 84.274914 
L 206.592197 84.27722 
L 208.541439 84.279438 
L 210.490682 84.28157 
L 212.439924 84.283614 
L 214.389167 84.285571 
L 216.338409 84.287441 
L 218.287652 84.289225 
L 220.236894 84.290921 
L 222.186136 84.29253 
L 224.135379 84.294053 
L 226.084621 84.295488 
L 228.033864 84.296836 
L 229.983106 84.298098 
L 231.932348 84.299272 
L 233.881591 84.300359 
L 235.830833 84.30136 
L 237.780076 84.302273 
L 239.729318 84.303099 
L 241.678561 84.303839 
L 243.627803 84.304491 
L 245.577045 84.305057 
L 247.526288 84.305535 
L 249.47553 84.305926 
L 251.424773 84.306231 
L 253.374015 84.306448 
L 255.323258 84.306579 
L 257.2725 84.306622 
" clip-path="url(#pa7213d7455)" style="fill: none; stroke: #71a8c4; stroke-width: 2; stroke-linecap: square"/>
   </g>
   <g id="line2d_19">
    <path d="M 45 41.04 
L 47.144167 45.8 
L 49.288333 50.56 
L 51.4325 55.32 
L 53.576667 60.08 
L 55.720833 64.84 
L 57.865 69.6 
L 60.009167 74.36 
L 62.153333 79.12 
L 64.2975 83.88 
" clip-path="url(#pa7213d7455)" style="fill: none; stroke: #307da6; stroke-width: 2; stroke-linecap: square"/>
   </g>
   <g id="line2d_20">
    <path d="M 64.2975 83.88 
L 66.246742 84.078879 
L 68.195985 84.275577 
L 70.145227 84.4701 
L 72.09447 84.662453 
L 74.043712 84.85264 
L 75.992955 85.040666 
L 77.942197 85.226536 
L 79.891439 85.410256 
L 81.840682 85.591828 
L 83.789924 85.771259 
L 85.739167 85.948553 
L 87.688409 86.123714 
L 89.637652 86.296747 
L 91.586894 86.467656 
L 93.536136 86.636445 
L 95.485379 86.803119 
L 97.434621 86.967683 
L 99.383864 87.130139 
L 101.333106 87.290493 
L 103.282348 87.448748 
L 105.231591 87.604909 
L 107.180833 87.75898 
L 109.130076 87.910964 
L 111.079318 88.060865 
L 113.028561 88.208687 
L 114.977803 88.354435 
L 116.927045 88.498111 
L 118.876288 88.639719 
L 120.82553 88.779263 
L 122.774773 88.916747 
L 124.724015 89.052173 
L 126.673258 89.185546 
L 128.6225 89.316869 
L 130.571742 89.446145 
L 132.520985 89.573378 
L 134.470227 89.69857 
L 136.41947 89.821726 
L 138.368712 89.942847 
L 140.317955 90.061937 
L 142.267197 90.179 
L 144.216439 90.294038 
L 146.165682 90.407054 
L 148.114924 90.51805 
L 150.064167 90.627031 
L 152.013409 90.733999 
L 153.962652 90.838955 
L 155.911894 90.941904 
L 157.861136 91.042847 
L 159.810379 91.141788 
L 161.759621 91.238728 
L 163.708864 91.33367 
L 165.658106 91.426618 
L 167.607348 91.517572 
L 169.556591 91.606535 
L 171.505833 91.69351 
L 173.455076 91.778499 
L 175.404318 91.861504 
L 177.353561 91.942527 
L 179.302803 92.02157 
L 181.252045 92.098635 
L 183.201288 92.173724 
L 185.15053 92.24684 
L 187.099773 92.317983 
L 189.049015 92.387156 
L 190.998258 92.454361 
L 192.9475 92.519598 
L 194.896742 92.582871 
L 196.845985 92.64418 
L 198.795227 92.703528 
L 200.74447 92.760914 
L 202.693712 92.816342 
L 204.642955 92.869812 
L 206.592197 92.921327 
L 208.541439 92.970886 
L 210.490682 93.018491 
L 212.439924 93.064145 
L 214.389167 93.107847 
L 216.338409 93.149599 
L 218.287652 93.189401 
L 220.236894 93.227256 
L 222.186136 93.263164 
L 224.135379 93.297125 
L 226.084621 93.329142 
L 228.033864 93.359214 
L 229.983106 93.387342 
L 231.932348 93.413527 
L 233.881591 93.43777 
L 235.830833 93.460071 
L 237.780076 93.480431 
L 239.729318 93.49885 
L 241.678561 93.515329 
L 243.627803 93.529869 
L 245.577045 93.542469 
L 247.526288 93.55313 
L 249.47553 93.561852 
L 251.424773 93.568636 
L 253.374015 93.573482 
L 255.323258 93.576389 
L 257.2725 93.577358 
" clip-path="url(#pa7213d7455)" style="fill: none; stroke: #307da6; stroke-width: 2; stroke-linecap: square"/>
   </g>
   <g id="line2d_21">
    <path d="M 45 41.04 
L 47.144167 45.8 
L 49.288333 50.56 
L 51.4325 55.32 
L 53.576667 60.08 
L 55.720833 64.84 
L 57.865 69.6 
L 60.009167 74.36 
L 62.153333 79.12 
L 64.2975 83.88 
" clip-path="url(#pa7213d7455)" style="fill: none; stroke: #06568c; stroke-width: 2; stroke-linecap: square"/>
   </g>
   <g id="line2d_22">
    <path d="M 64.2975 83.88 
L 66.246742 84.534765 
L 68.195985 85.180855 
L 70.145227 85.818336 
L 72.09447 86.447273 
L 74.043712 87.067729 
L 75.992955 87.679769 
L 77.942197 88.283454 
L 79.891439 88.878846 
L 81.840682 89.466007 
L 83.789924 90.044995 
L 85.739167 90.615871 
L 87.688409 91.178691 
L 89.637652 91.733515 
L 91.586894 92.280397 
L 93.536136 92.819395 
L 95.485379 93.350563 
L 97.434621 93.873955 
L 99.383864 94.389624 
L 101.333106 94.897624 
L 103.282348 95.398006 
L 105.231591 95.890821 
L 107.180833 96.37612 
L 109.130076 96.853951 
L 111.079318 97.324364 
L 113.028561 97.787407 
L 114.977803 98.243127 
L 116.927045 98.691571 
L 118.876288 99.132783 
L 120.82553 99.56681 
L 122.774773 99.993695 
L 124.724015 100.413482 
L 126.673258 100.826215 
L 128.6225 101.231934 
L 130.571742 101.630681 
L 132.520985 102.022498 
L 134.470227 102.407424 
L 136.41947 102.785498 
L 138.368712 103.156759 
L 140.317955 103.521245 
L 142.267197 103.878993 
L 144.216439 104.230039 
L 146.165682 104.57442 
L 148.114924 104.91217 
L 150.064167 105.243323 
L 152.013409 105.567915 
L 153.962652 105.885977 
L 155.911894 106.197543 
L 157.861136 106.502644 
L 159.810379 106.801311 
L 161.759621 107.093574 
L 163.708864 107.379464 
L 165.658106 107.65901 
L 167.607348 107.93224 
L 169.556591 108.199182 
L 171.505833 108.459863 
L 173.455076 108.71431 
L 175.404318 108.962549 
L 177.353561 109.204605 
L 179.302803 109.440503 
L 181.252045 109.670266 
L 183.201288 109.89392 
L 185.15053 110.111485 
L 187.099773 110.322985 
L 189.049015 110.52844 
L 190.998258 110.727873 
L 192.9475 110.921303 
L 194.896742 111.10875 
L 196.845985 111.290233 
L 198.795227 111.465771 
L 200.74447 111.635381 
L 202.693712 111.799082 
L 204.642955 111.956888 
L 206.592197 112.108818 
L 208.541439 112.254886 
L 210.490682 112.395106 
L 212.439924 112.529495 
L 214.389167 112.658064 
L 216.338409 112.780827 
L 218.287652 112.897797 
L 220.236894 113.008986 
L 222.186136 113.114405 
L 224.135379 113.214065 
L 226.084621 113.307976 
L 228.033864 113.396147 
L 229.983106 113.478588 
L 231.932348 113.555306 
L 233.881591 113.626311 
L 235.830833 113.691608 
L 237.780076 113.751206 
L 239.729318 113.805108 
L 241.678561 113.853323 
L 243.627803 113.895853 
L 245.577045 113.932704 
L 247.526288 113.963879 
L 249.47553 113.989382 
L 251.424773 114.009214 
L 253.374015 114.023379 
L 255.323258 114.031877 
L 257.2725 114.03471 
" clip-path="url(#pa7213d7455)" style="fill: none; stroke: #06568c; stroke-width: 2; stroke-linecap: square"/>
   </g>
   <g id="line2d_23">
    <path d="M 45 41.04 
L 47.144167 45.8 
L 49.288333 50.56 
L 51.4325 55.32 
L 53.576667 60.08 
L 55.720833 64.84 
L 57.865 69.6 
L 60.009167 74.36 
L 62.153333 79.12 
L 64.2975 83.88 
" clip-path="url(#pa7213d7455)" style="fill: none; stroke: #023376; stroke-width: 2; stroke-linecap: square"/>
   </g>
   <g id="line2d_24">
    <path d="M 64.2975 83.88 
L 66.246742 85.531273 
L 68.195985 87.148251 
L 70.145227 88.731594 
L 72.09447 90.281948 
L 74.043712 91.799945 
L 75.992955 93.286206 
L 77.942197 94.741337 
L 79.891439 96.165932 
L 81.840682 97.560572 
L 83.789924 98.925827 
L 85.739167 100.262253 
L 87.688409 101.570397 
L 89.637652 102.850791 
L 91.586894 104.103959 
L 93.536136 105.330412 
L 95.485379 106.530651 
L 97.434621 107.705165 
L 99.383864 108.854434 
L 101.333106 109.978927 
L 103.282348 111.079103 
L 105.231591 112.155411 
L 107.180833 113.20829 
L 109.130076 114.23817 
L 111.079318 115.24547 
L 113.028561 116.230604 
L 114.977803 117.193971 
L 116.927045 118.135966 
L 118.876288 119.056974 
L 120.82553 119.957369 
L 122.774773 120.837519 
L 124.724015 121.697784 
L 126.673258 122.538515 
L 128.6225 123.360055 
L 130.571742 124.162739 
L 132.520985 124.946895 
L 134.470227 125.712842 
L 136.41947 126.460894 
L 138.368712 127.191356 
L 140.317955 127.904525 
L 142.267197 128.600693 
L 144.216439 129.280145 
L 146.165682 129.943157 
L 148.114924 130.589999 
L 150.064167 131.220937 
L 152.013409 131.836227 
L 153.962652 132.436121 
L 155.911894 133.020863 
L 157.861136 133.590693 
L 159.810379 134.145842 
L 161.759621 134.686537 
L 163.708864 135.212999 
L 165.658106 135.725443 
L 167.607348 136.224077 
L 169.556591 136.709107 
L 171.505833 137.180728 
L 173.455076 137.639135 
L 175.404318 138.084513 
L 177.353561 138.517045 
L 179.302803 138.936908 
L 181.252045 139.344272 
L 183.201288 139.739303 
L 185.15053 140.122164 
L 187.099773 140.493011 
L 189.049015 140.851994 
L 190.998258 141.19926 
L 192.9475 141.534952 
L 194.896742 141.859205 
L 196.845985 142.172153 
L 198.795227 142.473922 
L 200.74447 142.764637 
L 202.693712 143.044416 
L 204.642955 143.313373 
L 206.592197 143.571618 
L 208.541439 143.819256 
L 210.490682 144.056388 
L 212.439924 144.283111 
L 214.389167 144.499518 
L 216.338409 144.705696 
L 218.287652 144.901731 
L 220.236894 145.087702 
L 222.186136 145.263685 
L 224.135379 145.429752 
L 226.084621 145.58597 
L 228.033864 145.732404 
L 229.983106 145.869113 
L 231.932348 145.996152 
L 233.881591 146.113575 
L 235.830833 146.221428 
L 237.780076 146.319756 
L 239.729318 146.408598 
L 241.678561 146.487992 
L 243.627803 146.557969 
L 245.577045 146.618558 
L 247.526288 146.669785 
L 249.47553 146.711668 
L 251.424773 146.744227 
L 253.374015 146.767473 
L 255.323258 146.781418 
L 257.2725 146.786065 
" clip-path="url(#pa7213d7455)" style="fill: none; stroke: #023376; stroke-width: 2; stroke-linecap: square"/>
   </g>
   <g id="line2d_25">
    <path d="M 45 41.04 
L 47.144167 45.8 
L 49.288333 50.56 
L 51.4325 55.32 
L 53.576667 60.08 
L 55.720833 64.84 
L 57.865 69.6 
L 60.009167 74.36 
L 62.153333 79.12 
L 64.2975 83.88 
" clip-path="url(#pa7213d7455)" style="fill: none; stroke: #001261; stroke-width: 2; stroke-linecap: square"/>
   </g>
   <g id="line2d_26">
    <path d="M 64.2975 83.88 
L 66.246742 92.1118 
L 68.195985 99.552721 
L 70.145227 106.278747 
L 72.09447 112.358563 
L 74.043712 117.854254 
L 75.992955 122.82194 
L 77.942197 127.31235 
L 79.891439 131.371339 
L 81.840682 135.040357 
L 83.789924 138.356869 
L 85.739167 141.354744 
L 87.688409 144.064595 
L 89.637652 146.514094 
L 91.586894 148.728255 
L 93.536136 150.729687 
L 95.485379 152.53883 
L 97.434621 154.174157 
L 99.383864 155.652369 
L 101.333106 156.98856 
L 103.282348 158.196374 
L 105.231591 159.288147 
L 107.180833 160.275026 
L 109.130076 161.16709 
L 111.079318 161.973448 
L 113.028561 162.702334 
L 114.977803 163.361191 
L 116.927045 163.956748 
L 118.876288 164.495086 
L 120.82553 164.981702 
L 122.774773 165.421567 
L 124.724015 165.819171 
L 126.673258 166.178574 
L 128.6225 166.503447 
L 130.571742 166.797108 
L 132.520985 167.062555 
L 134.470227 167.302498 
L 136.41947 167.519389 
L 138.368712 167.715441 
L 140.317955 167.892658 
L 142.267197 168.052848 
L 144.216439 168.197647 
L 146.165682 168.328534 
L 148.114924 168.446846 
L 150.064167 168.553791 
L 152.013409 168.65046 
L 153.962652 168.737842 
L 155.911894 168.816828 
L 157.861136 168.888225 
L 159.810379 168.952762 
L 161.759621 169.011098 
L 163.708864 169.063829 
L 165.658106 169.111493 
L 167.607348 169.154577 
L 169.556591 169.193521 
L 171.505833 169.228722 
L 173.455076 169.260541 
L 175.404318 169.289302 
L 177.353561 169.315298 
L 179.302803 169.338795 
L 181.252045 169.360034 
L 183.201288 169.379231 
L 185.15053 169.396581 
L 187.099773 169.412263 
L 189.049015 169.426436 
L 190.998258 169.439246 
L 192.9475 169.450822 
L 194.896742 169.461283 
L 196.845985 169.470737 
L 198.795227 169.479278 
L 200.74447 169.486996 
L 202.693712 169.493968 
L 204.642955 169.500265 
L 206.592197 169.505953 
L 208.541439 169.511088 
L 210.490682 169.515725 
L 212.439924 169.519909 
L 214.389167 169.523684 
L 216.338409 169.527087 
L 218.287652 169.530155 
L 220.236894 169.532918 
L 222.186136 169.535405 
L 224.135379 169.53764 
L 226.084621 169.539647 
L 228.033864 169.541446 
L 229.983106 169.543055 
L 231.932348 169.544492 
L 233.881591 169.54577 
L 235.830833 169.546903 
L 237.780076 169.547902 
L 239.729318 169.548778 
L 241.678561 169.549539 
L 243.627803 169.550193 
L 245.577045 169.550747 
L 247.526288 169.551207 
L 249.47553 169.551577 
L 251.424773 169.55186 
L 253.374015 169.552061 
L 255.323258 169.552181 
L 257.2725 169.55222 
" clip-path="url(#pa7213d7455)" style="fill: none; stroke: #001261; stroke-width: 2; stroke-linecap: square"/>
   </g>
   <g id="text_14">
    <!-- $\chi_i \;\; \rightarrow \;\; A_N = g_s C_a(1-\chi_i) $ -->
    <g transform="translate(68.157 77.328) scale(0.14 -0.14)">
     <defs>
      <path id="STIXGeneral-Italic-69" d="M 1690 3834 
Q 1690 3699 1597 3603 
Q 1504 3507 1376 3507 
Q 1235 3507 1152 3600 
Q 1069 3693 1069 3846 
Q 1069 3994 1155 4090 
Q 1242 4186 1370 4186 
Q 1498 4186 1594 4080 
Q 1690 3974 1690 3834 
z
M 1421 730 
L 1504 659 
Q 1235 243 1049 86 
Q 864 -70 627 -70 
Q 314 -70 314 282 
Q 314 467 454 992 
L 762 2125 
Q 819 2330 819 2406 
Q 819 2502 745 2528 
Q 672 2554 410 2560 
L 410 2662 
Q 704 2688 1434 2822 
L 1459 2803 
L 858 608 
Q 794 390 794 326 
Q 794 230 883 230 
Q 1043 230 1421 730 
z
" transform="scale(0.015625)"/>
      <path id="STIXGeneral-Regular-2192" d="M 5478 1651 
L 5478 1587 
Q 4742 1274 3955 365 
L 3827 486 
Q 4006 742 4352 1101 
Q 4442 1190 4442 1280 
Q 4442 1408 4275 1408 
L 448 1408 
L 448 1830 
L 4282 1830 
Q 4333 1830 4390 1878 
Q 4448 1926 4448 1971 
Q 4448 2042 4358 2131 
Q 4032 2445 3834 2746 
L 3962 2867 
Q 4755 1952 5478 1651 
z
" transform="scale(0.015625)"/>
      <path id="STIXGeneral-Italic-41" d="M 3610 0 
L 2042 0 
L 2042 102 
Q 2330 115 2432 192 
Q 2534 269 2534 442 
Q 2534 493 2522 608 
L 2394 1446 
L 986 1446 
L 608 736 
Q 467 474 467 314 
Q 467 122 864 102 
L 864 0 
L -326 0 
L -326 102 
Q -109 147 28 307 
Q 166 467 531 1101 
L 2355 4275 
L 2522 4275 
L 3110 736 
Q 3174 339 3264 230 
Q 3354 122 3610 102 
L 3610 0 
z
M 2362 1677 
L 2074 3360 
L 1120 1677 
L 2362 1677 
z
" transform="scale(0.015625)"/>
      <path id="STIXGeneral-Italic-4e" d="M 4653 4179 
L 4653 4077 
Q 4480 4038 4413 4016 
Q 4346 3994 4266 3882 
Q 4186 3770 4144 3635 
Q 4102 3501 4000 3149 
L 3066 -96 
L 2950 -96 
L 1478 3424 
L 749 723 
Q 691 525 691 378 
Q 691 243 790 182 
Q 890 122 1139 102 
L 1139 0 
L -128 0 
L -128 102 
Q 147 141 262 304 
Q 378 467 550 1075 
L 1299 3731 
Q 1152 4077 749 4077 
L 749 4179 
L 1773 4179 
L 3098 986 
L 3776 3469 
Q 3827 3648 3827 3750 
Q 3827 3923 3740 3987 
Q 3654 4051 3386 4077 
L 3386 4179 
L 4653 4179 
z
" transform="scale(0.015625)"/>
      <path id="STIXGeneral-Regular-3d" d="M 4077 2048 
L 307 2048 
L 307 2470 
L 4077 2470 
L 4077 2048 
z
M 4077 768 
L 307 768 
L 307 1190 
L 4077 1190 
L 4077 768 
z
" transform="scale(0.015625)"/>
      <path id="STIXGeneral-Italic-67" d="M 3014 2342 
L 2701 2342 
Q 2758 2227 2758 2016 
Q 2758 1613 2390 1289 
Q 2022 966 1574 966 
Q 1459 966 1376 986 
Q 1357 992 1331 992 
Q 1248 992 1174 909 
Q 1101 826 1101 730 
Q 1101 576 1555 461 
Q 2464 243 2464 -352 
Q 2464 -781 2105 -1049 
Q 1747 -1318 1120 -1318 
Q 621 -1318 336 -1142 
Q 51 -966 51 -627 
Q 51 -378 195 -202 
Q 339 -26 800 250 
Q 627 352 627 499 
Q 627 806 1120 1037 
Q 614 1216 614 1728 
Q 614 2202 1004 2512 
Q 1395 2822 1901 2822 
Q 2272 2822 2528 2643 
Q 2598 2592 2630 2592 
L 3014 2592 
L 3014 2342 
z
M 2253 2227 
Q 2253 2477 2166 2579 
Q 2080 2682 1894 2682 
Q 1587 2682 1350 2362 
Q 1114 2042 1114 1581 
Q 1114 1357 1216 1229 
Q 1318 1101 1498 1101 
Q 1818 1101 2042 1478 
Q 2253 1837 2253 2227 
z
M 2080 -576 
Q 2080 -352 1878 -201 
Q 1677 -51 1165 109 
Q 1011 154 947 179 
Q 902 179 752 57 
Q 602 -64 531 -154 
Q 403 -314 403 -525 
Q 403 -1178 1216 -1178 
Q 1594 -1178 1837 -1002 
Q 2080 -826 2080 -576 
z
" transform="scale(0.015625)"/>
      <path id="STIXGeneral-Italic-73" d="M 2342 2829 
L 2214 1933 
L 2112 1933 
Q 2022 2675 1542 2675 
Q 1370 2675 1267 2579 
Q 1165 2483 1165 2310 
Q 1165 2067 1510 1658 
Q 1946 1152 1946 787 
Q 1946 397 1686 163 
Q 1427 -70 1024 -70 
Q 838 -70 672 -6 
Q 538 51 390 51 
Q 262 51 205 -83 
L 102 -83 
L 230 934 
L 333 934 
Q 461 64 973 64 
Q 1203 64 1331 192 
Q 1459 320 1459 557 
Q 1459 845 1101 1293 
Q 698 1798 698 2131 
Q 698 2451 909 2636 
Q 1120 2822 1472 2822 
Q 1600 2822 1830 2758 
Q 1971 2714 2061 2714 
Q 2189 2714 2253 2829 
L 2342 2829 
z
" transform="scale(0.015625)"/>
      <path id="STIXGeneral-Italic-43" d="M 4410 4250 
L 4173 2970 
L 4058 2989 
Q 3942 4032 3104 4032 
Q 2406 4032 1830 3411 
Q 1491 3053 1315 2541 
Q 1139 2029 1139 1485 
Q 1139 173 2259 173 
Q 2656 173 2985 339 
Q 3315 506 3725 934 
L 3840 838 
Q 3411 333 2998 109 
Q 2586 -115 2093 -115 
Q 1344 -115 883 329 
Q 422 774 422 1555 
Q 422 2214 748 2812 
Q 1075 3411 1619 3795 
Q 2272 4262 3021 4262 
Q 3462 4262 3770 4154 
Q 3898 4109 4032 4109 
Q 4205 4109 4275 4250 
L 4410 4250 
z
" transform="scale(0.015625)"/>
      <path id="STIXGeneral-Italic-61" d="M 2963 710 
L 3046 640 
Q 2688 205 2518 70 
Q 2349 -64 2157 -64 
Q 1901 -64 1901 198 
Q 1901 358 2048 934 
Q 1690 397 1389 163 
Q 1088 -70 749 -70 
Q 467 -70 288 125 
Q 109 320 109 672 
Q 109 1158 387 1664 
Q 666 2170 1094 2496 
Q 1523 2822 1939 2822 
Q 2368 2822 2451 2451 
L 2522 2758 
L 2541 2778 
L 2931 2822 
L 2976 2803 
Q 2970 2778 2938 2669 
Q 2368 595 2368 346 
Q 2368 262 2458 262 
Q 2554 262 2790 525 
L 2963 710 
z
M 2336 2310 
Q 2336 2477 2240 2579 
Q 2144 2682 1978 2682 
Q 1542 2682 1139 2093 
Q 928 1779 787 1395 
Q 646 1011 646 717 
Q 646 243 1030 243 
Q 1408 243 1843 870 
Q 2336 1581 2336 2310 
z
" transform="scale(0.015625)"/>
      <path id="STIXGeneral-Regular-28" d="M 1946 -1030 
L 1869 -1133 
Q 1126 -710 716 32 
Q 307 774 307 1613 
Q 307 3386 1888 4326 
L 1946 4224 
Q 1293 3667 1075 3126 
Q 858 2586 858 1632 
Q 858 685 1082 96 
Q 1306 -493 1946 -1030 
z
" transform="scale(0.015625)"/>
      <path id="STIXGeneral-Regular-2212" d="M 3974 1408 
L 410 1408 
L 410 1830 
L 3974 1830 
L 3974 1408 
z
" transform="scale(0.015625)"/>
      <path id="STIXGeneral-Regular-29" d="M 186 4224 
L 262 4326 
Q 992 3891 1408 3148 
Q 1824 2406 1824 1581 
Q 1824 -166 243 -1133 
L 186 -1030 
Q 845 -486 1059 54 
Q 1274 595 1274 1562 
Q 1274 2534 1059 3120 
Q 845 3706 186 4224 
z
" transform="scale(0.015625)"/>
     </defs>
     <use xlink:href="#STIXGeneral-Italic-3c7" transform="translate(0 0.40625)"/>
     <use xlink:href="#STIXGeneral-Italic-69" transform="translate(45.699997 -12.821875) scale(0.7)"/>
     <use xlink:href="#STIXGeneral-Regular-2192" transform="translate(124.120782 0.40625)"/>
     <use xlink:href="#STIXGeneral-Italic-41" transform="translate(271.272191 0.40625)"/>
     <use xlink:href="#STIXGeneral-Italic-4e" transform="translate(332.372181 -12.821875) scale(0.7)"/>
     <use xlink:href="#STIXGeneral-Regular-3d" transform="translate(397.911551 0.40625)"/>
     <use xlink:href="#STIXGeneral-Italic-67" transform="translate(480.851532 0.40625)"/>
     <use xlink:href="#STIXGeneral-Italic-73" transform="translate(530.851516 -12.821875) scale(0.7)"/>
     <use xlink:href="#STIXGeneral-Italic-43" transform="translate(562.490887 0.40625)"/>
     <use xlink:href="#STIXGeneral-Italic-61" transform="translate(629.190884 -12.821875) scale(0.7)"/>
     <use xlink:href="#STIXGeneral-Regular-28" transform="translate(668.670253 0.40625)"/>
     <use xlink:href="#STIXGeneral-Regular-31" transform="translate(701.970241 0.40625)"/>
     <use xlink:href="#STIXGeneral-Regular-2212" transform="translate(766.410222 0.40625)"/>
     <use xlink:href="#STIXGeneral-Italic-3c7" transform="translate(849.350203 0.40625)"/>
     <use xlink:href="#STIXGeneral-Italic-69" transform="translate(895.0502 -12.821875) scale(0.7)"/>
     <use xlink:href="#STIXGeneral-Regular-29" transform="translate(918.919566 0.40625)"/>
    </g>
   </g>
   <g id="line2d_27">
    <defs>
     <path id="mdf54086dfb" d="M 0 3 
C 0.795609 3 1.55874 2.683901 2.12132 2.12132 
C 2.683901 1.55874 3 0.795609 3 0 
C 3 -0.795609 2.683901 -1.55874 2.12132 -2.12132 
C 1.55874 -2.683901 0.795609 -3 0 -3 
C -0.795609 -3 -1.55874 -2.683901 -2.12132 -2.12132 
C -2.683901 -1.55874 -3 -0.795609 -3 0 
C -3 0.795609 -2.683901 1.55874 -2.12132 2.12132 
C -1.55874 2.683901 -0.795609 3 0 3 
z
" style="stroke: #000000"/>
    </defs>
    <g clip-path="url(#pa7213d7455)">
     <use xlink:href="#mdf54086dfb" x="64.2975" y="83.376" style="stroke: #000000"/>
    </g>
   </g>
  </g>
  <g id="axes_2">
   <g id="patch_7">
    <path d="M 282.15 192.24 
L 290.466 192.24 
L 290.466 25.92 
L 282.15 25.92 
z
" style="fill: #ffffff"/>
   </g>
   <g id="QuadMesh_1">
    <path d="M 282.15 192.24 
L 290.466 192.24 
L 290.466 158.976 
L 282.15 158.976 
L 282.15 192.24 
" clip-path="url(#p97bcafc0a2)" style="fill: #71a8c4"/>
    <path d="M 282.15 158.976 
L 290.466 158.976 
L 290.466 125.712 
L 282.15 125.712 
L 282.15 158.976 
" clip-path="url(#p97bcafc0a2)" style="fill: #307da6"/>
    <path d="M 282.15 125.712 
L 290.466 125.712 
L 290.466 92.448 
L 282.15 92.448 
L 282.15 125.712 
" clip-path="url(#p97bcafc0a2)" style="fill: #06568c"/>
    <path d="M 282.15 92.448 
L 290.466 92.448 
L 290.466 59.184 
L 282.15 59.184 
L 282.15 92.448 
" clip-path="url(#p97bcafc0a2)" style="fill: #023376"/>
    <path d="M 282.15 59.184 
L 290.466 59.184 
L 290.466 25.92 
L 282.15 25.92 
L 282.15 59.184 
" clip-path="url(#p97bcafc0a2)" style="fill: #001261"/>
   </g>
   <g id="matplotlib.axis_3"/>
   <g id="matplotlib.axis_4">
    <g id="ytick_7">
     <g id="line2d_28">
      <defs>
       <path id="m94b480b6f6" d="M 0 0 
L 3.5 0 
" style="stroke: #000000; stroke-width: 0.8"/>
      </defs>
      <g>
       <use xlink:href="#m94b480b6f6" x="290.466" y="192.24" style="stroke: #000000; stroke-width: 0.8"/>
      </g>
     </g>
     <g id="text_15">
      <!-- 0.1 -->
      <g transform="translate(297.466 195.654844) scale(0.1 -0.1)">
       <use xlink:href="#STIXGeneral-Regular-30"/>
       <use xlink:href="#STIXGeneral-Regular-2e" x="49.999985"/>
       <use xlink:href="#STIXGeneral-Regular-31" x="74.999969"/>
      </g>
     </g>
    </g>
    <g id="ytick_8">
     <g id="line2d_29">
      <g>
       <use xlink:href="#m94b480b6f6" x="290.466" y="158.976" style="stroke: #000000; stroke-width: 0.8"/>
      </g>
     </g>
     <g id="text_16">
      <!-- 0.5 -->
      <g transform="translate(297.466 162.390844) scale(0.1 -0.1)">
       <use xlink:href="#STIXGeneral-Regular-30"/>
       <use xlink:href="#STIXGeneral-Regular-2e" x="49.999985"/>
       <use xlink:href="#STIXGeneral-Regular-35" x="74.999969"/>
      </g>
     </g>
    </g>
    <g id="ytick_9">
     <g id="line2d_30">
      <g>
       <use xlink:href="#m94b480b6f6" x="290.466" y="125.712" style="stroke: #000000; stroke-width: 0.8"/>
      </g>
     </g>
     <g id="text_17">
      <!-- 1.0 -->
      <g transform="translate(297.466 129.126844) scale(0.1 -0.1)">
       <use xlink:href="#STIXGeneral-Regular-31"/>
       <use xlink:href="#STIXGeneral-Regular-2e" x="49.999985"/>
       <use xlink:href="#STIXGeneral-Regular-30" x="74.999969"/>
      </g>
     </g>
    </g>
    <g id="ytick_10">
     <g id="line2d_31">
      <g>
       <use xlink:href="#m94b480b6f6" x="290.466" y="92.448" style="stroke: #000000; stroke-width: 0.8"/>
      </g>
     </g>
     <g id="text_18">
      <!-- 2.0 -->
      <g transform="translate(297.466 95.862844) scale(0.1 -0.1)">
       <use xlink:href="#STIXGeneral-Regular-32"/>
       <use xlink:href="#STIXGeneral-Regular-2e" x="49.999985"/>
       <use xlink:href="#STIXGeneral-Regular-30" x="74.999969"/>
      </g>
     </g>
    </g>
    <g id="ytick_11">
     <g id="line2d_32">
      <g>
       <use xlink:href="#m94b480b6f6" x="290.466" y="59.184" style="stroke: #000000; stroke-width: 0.8"/>
      </g>
     </g>
     <g id="text_19">
      <!-- 10.0 -->
      <g transform="translate(297.466 62.598844) scale(0.1 -0.1)">
       <use xlink:href="#STIXGeneral-Regular-31"/>
       <use xlink:href="#STIXGeneral-Regular-30" x="49.999985"/>
       <use xlink:href="#STIXGeneral-Regular-2e" x="99.999969"/>
       <use xlink:href="#STIXGeneral-Regular-30" x="124.999954"/>
      </g>
     </g>
    </g>
    <g id="ytick_12">
     <g id="line2d_33">
      <defs>
       <path id="ma7e7ad44f3" d="M 0 0 
L 2 0 
" style="stroke: #000000; stroke-width: 0.6"/>
      </defs>
      <g>
       <use xlink:href="#ma7e7ad44f3" x="290.466" y="25.92" style="stroke: #000000; stroke-width: 0.6"/>
      </g>
     </g>
    </g>
    <g id="text_20">
     <!-- $\tau$ values -->
     <g transform="translate(325.527562 131.62) rotate(-90) scale(0.14 -0.14)">
      <defs>
       <path id="STIXGeneral-Italic-3c4" d="M 2726 2739 
L 2592 2266 
L 1741 2266 
Q 1293 1248 1293 742 
Q 1293 416 1523 416 
Q 1638 416 1779 547 
Q 1920 678 2003 858 
L 2106 858 
Q 1990 467 1731 198 
Q 1472 -70 1178 -70 
Q 768 -70 768 384 
Q 768 890 1395 2266 
L 1005 2266 
Q 493 2266 179 1702 
L 77 1702 
Q 237 2093 569 2416 
Q 902 2739 1331 2739 
L 2726 2739 
z
" transform="scale(0.015625)"/>
       <path id="STIXGeneral-Regular-75" d="M 3072 320 
L 3072 230 
Q 2573 96 2195 -58 
L 2163 -38 
L 2163 486 
L 2150 486 
Q 1747 -64 1235 -64 
Q 870 -64 662 160 
Q 454 384 454 755 
L 454 2362 
Q 454 2598 371 2688 
Q 288 2778 58 2790 
L 58 2880 
L 992 2880 
L 992 813 
Q 992 595 1123 451 
Q 1254 307 1446 307 
Q 1760 307 1984 506 
Q 2067 582 2099 649 
Q 2131 717 2131 877 
L 2131 2355 
Q 2131 2605 2041 2678 
Q 1952 2752 1658 2771 
L 1658 2880 
L 2669 2880 
L 2669 685 
Q 2669 461 2742 390 
Q 2816 320 3034 320 
L 3072 320 
z
" transform="scale(0.015625)"/>
       <path id="STIXGeneral-Regular-73" d="M 998 1926 
L 1664 1523 
Q 1984 1331 2105 1164 
Q 2227 998 2227 736 
Q 2227 416 1961 176 
Q 1696 -64 1331 -64 
Q 1030 -64 864 -6 
Q 691 51 570 51 
Q 461 51 416 -26 
L 333 -26 
L 333 979 
L 435 979 
Q 538 512 730 294 
Q 922 77 1248 77 
Q 1485 77 1632 211 
Q 1779 346 1779 550 
Q 1779 845 1440 1030 
L 1094 1222 
Q 326 1651 326 2150 
Q 326 2522 566 2730 
Q 806 2938 1210 2938 
Q 1491 2938 1638 2867 
Q 1754 2816 1818 2816 
Q 1862 2816 1920 2880 
L 1990 2880 
L 2022 2010 
L 1926 2010 
Q 1818 2445 1654 2621 
Q 1491 2797 1203 2797 
Q 986 2797 854 2688 
Q 723 2579 723 2362 
Q 723 2253 796 2128 
Q 870 2003 998 1926 
z
" transform="scale(0.015625)"/>
      </defs>
      <use xlink:href="#STIXGeneral-Italic-3c4" transform="translate(0 0.703125)"/>
      <use xlink:href="#STIXGeneral-Regular-20" transform="translate(40.999985 0.703125)"/>
      <use xlink:href="#STIXGeneral-Regular-76" transform="translate(65.999969 0.703125)"/>
      <use xlink:href="#STIXGeneral-Regular-61" transform="translate(115.999954 0.703125)"/>
      <use xlink:href="#STIXGeneral-Regular-6c" transform="translate(160.399948 0.703125)"/>
      <use xlink:href="#STIXGeneral-Regular-75" transform="translate(188.199936 0.703125)"/>
      <use xlink:href="#STIXGeneral-Regular-65" transform="translate(238.199921 0.703125)"/>
      <use xlink:href="#STIXGeneral-Regular-73" transform="translate(282.599915 0.703125)"/>
     </g>
    </g>
   </g>
   <g id="LineCollection_1"/>
   <g id="patch_8">
    <path d="M 282.15 192.24 
L 286.308 192.24 
L 290.466 192.24 
L 290.466 25.92 
L 286.308 25.92 
L 282.15 25.92 
L 282.15 192.24 
z
" style="fill: none; stroke: #000000; stroke-width: 0.8; stroke-linejoin: miter; stroke-linecap: square"/>
   </g>
  </g>
 </g>
 <defs>
  <clipPath id="pa7213d7455">
   <rect x="45" y="25.92" width="231.57" height="166.32"/>
  </clipPath>
  <clipPath id="p97bcafc0a2">
   <rect x="282.15" y="25.92" width="8.316" height="166.32"/>
  </clipPath>
 </defs>
</svg>
