<?xml version="1.0" encoding="utf-8" standalone="no"?>
<!DOCTYPE svg PUBLIC "-//W3C//DTD SVG 1.1//EN"
  "http://www.w3.org/Graphics/SVG/1.1/DTD/svg11.dtd">
<svg xmlns:xlink="http://www.w3.org/1999/xlink" width="288pt" height="432pt" viewBox="0 0 288 432" xmlns="http://www.w3.org/2000/svg" version="1.1">
 <metadata>
  <rdf:RDF xmlns:dc="http://purl.org/dc/elements/1.1/" xmlns:cc="http://creativecommons.org/ns#" xmlns:rdf="http://www.w3.org/1999/02/22-rdf-syntax-ns#">
   <cc:Work>
    <dc:type rdf:resource="http://purl.org/dc/dcmitype/StillImage"/>
    <dc:date>2025-05-15T11:21:11.477415</dc:date>
    <dc:format>image/svg+xml</dc:format>
    <dc:creator>
     <cc:Agent>
      <dc:title>Matplotlib v3.9.3, https://matplotlib.org/</dc:title>
     </cc:Agent>
    </dc:creator>
   </cc:Work>
  </rdf:RDF>
 </metadata>
 <defs>
  <style type="text/css">*{stroke-linejoin: round; stroke-linecap: butt}</style>
 </defs>
 <g id="figure_1">
  <g id="patch_1">
   <path d="M 0 432 
L 288 432 
L 288 0 
L 0 0 
z
" style="fill: #ffffff"/>
  </g>
  <g id="axes_1">
   <g id="patch_2">
    <path d="M 36 203.04 
L 259.2 203.04 
L 259.2 51.84 
L 36 51.84 
z
" style="fill: #ffffff"/>
   </g>
   <g id="matplotlib.axis_1">
    <g id="xtick_1">
     <g id="line2d_1">
      <defs>
       <path id="mc69b7c6aa1" d="M 0 0 
L 0 3.5 
" style="stroke: #000000; stroke-width: 0.8"/>
      </defs>
      <g>
       <use xlink:href="#mc69b7c6aa1" x="56.290909" y="203.04" style="stroke: #000000; stroke-width: 0.8"/>
      </g>
     </g>
    </g>
    <g id="xtick_2">
     <g id="line2d_2">
      <g>
       <use xlink:href="#mc69b7c6aa1" x="96.872727" y="203.04" style="stroke: #000000; stroke-width: 0.8"/>
      </g>
     </g>
    </g>
    <g id="xtick_3">
     <g id="line2d_3">
      <g>
       <use xlink:href="#mc69b7c6aa1" x="137.454545" y="203.04" style="stroke: #000000; stroke-width: 0.8"/>
      </g>
     </g>
    </g>
    <g id="xtick_4">
     <g id="line2d_4">
      <g>
       <use xlink:href="#mc69b7c6aa1" x="178.036364" y="203.04" style="stroke: #000000; stroke-width: 0.8"/>
      </g>
     </g>
    </g>
    <g id="xtick_5">
     <g id="line2d_5">
      <g>
       <use xlink:href="#mc69b7c6aa1" x="218.618182" y="203.04" style="stroke: #000000; stroke-width: 0.8"/>
      </g>
     </g>
    </g>
    <g id="xtick_6">
     <g id="line2d_6">
      <g>
       <use xlink:href="#mc69b7c6aa1" x="259.2" y="203.04" style="stroke: #000000; stroke-width: 0.8"/>
      </g>
     </g>
    </g>
   </g>
   <g id="matplotlib.axis_2">
    <g id="ytick_1">
     <g id="line2d_7">
      <defs>
       <path id="m0a829a0b84" d="M 0 0 
L -3.5 0 
" style="stroke: #000000; stroke-width: 0.8"/>
      </defs>
      <g>
       <use xlink:href="#m0a829a0b84" x="36" y="203.04" style="stroke: #000000; stroke-width: 0.8"/>
      </g>
     </g>
     <g id="text_1">
      <!-- 0.0 -->
      <g transform="translate(14 207.137812) scale(0.12 -0.12)">
       <defs>
        <path id="STIXGeneral-Regular-30" d="M 3046 2112 
Q 3046 1683 2963 1302 
Q 2880 922 2717 602 
Q 2554 282 2266 96 
Q 1978 -90 1600 -90 
Q 1210 -90 915 108 
Q 621 307 461 640 
Q 301 973 227 1350 
Q 154 1728 154 2150 
Q 154 2746 301 3222 
Q 448 3699 790 4012 
Q 1133 4326 1626 4326 
Q 2253 4326 2649 3712 
Q 3046 3098 3046 2112 
z
M 2432 2080 
Q 2432 3091 2217 3625 
Q 2003 4160 1587 4160 
Q 1190 4160 979 3622 
Q 768 3085 768 2106 
Q 768 1120 979 598 
Q 1190 77 1600 77 
Q 2003 77 2217 598 
Q 2432 1120 2432 2080 
z
" transform="scale(0.015625)"/>
        <path id="STIXGeneral-Regular-2e" d="M 1158 275 
Q 1158 134 1052 32 
Q 947 -70 800 -70 
Q 653 -70 550 32 
Q 448 134 448 281 
Q 448 429 553 534 
Q 659 640 806 640 
Q 947 640 1052 531 
Q 1158 422 1158 275 
z
" transform="scale(0.015625)"/>
       </defs>
       <use xlink:href="#STIXGeneral-Regular-30"/>
       <use xlink:href="#STIXGeneral-Regular-2e" x="49.999985"/>
       <use xlink:href="#STIXGeneral-Regular-30" x="74.999969"/>
      </g>
     </g>
    </g>
    <g id="ytick_2">
     <g id="line2d_8">
      <g>
       <use xlink:href="#m0a829a0b84" x="36" y="172.8" style="stroke: #000000; stroke-width: 0.8"/>
      </g>
     </g>
     <g id="text_2">
      <!-- 0.2 -->
      <g transform="translate(14 176.897813) scale(0.12 -0.12)">
       <defs>
        <path id="STIXGeneral-Regular-32" d="M 3034 877 
L 2688 0 
L 186 0 
L 186 77 
L 1325 1286 
Q 1773 1754 1965 2144 
Q 2157 2534 2157 2950 
Q 2157 3379 1920 3616 
Q 1683 3853 1267 3853 
Q 922 3853 720 3673 
Q 518 3494 326 3021 
L 192 3053 
Q 301 3648 630 3987 
Q 960 4326 1523 4326 
Q 2054 4326 2380 4006 
Q 2707 3686 2707 3200 
Q 2707 2477 1888 1613 
L 832 486 
L 2330 486 
Q 2541 486 2665 569 
Q 2790 653 2944 915 
L 3034 877 
z
" transform="scale(0.015625)"/>
       </defs>
       <use xlink:href="#STIXGeneral-Regular-30"/>
       <use xlink:href="#STIXGeneral-Regular-2e" x="49.999985"/>
       <use xlink:href="#STIXGeneral-Regular-32" x="74.999969"/>
      </g>
     </g>
    </g>
    <g id="ytick_3">
     <g id="line2d_9">
      <g>
       <use xlink:href="#m0a829a0b84" x="36" y="142.56" style="stroke: #000000; stroke-width: 0.8"/>
      </g>
     </g>
     <g id="text_3">
      <!-- 0.4 -->
      <g transform="translate(14 146.657812) scale(0.12 -0.12)">
       <defs>
        <path id="STIXGeneral-Regular-34" d="M 3027 1069 
L 2368 1069 
L 2368 0 
L 1869 0 
L 1869 1069 
L 77 1069 
L 77 1478 
L 2086 4326 
L 2368 4326 
L 2368 1478 
L 3027 1478 
L 3027 1069 
z
M 1869 1478 
L 1869 3674 
L 333 1478 
L 1869 1478 
z
" transform="scale(0.015625)"/>
       </defs>
       <use xlink:href="#STIXGeneral-Regular-30"/>
       <use xlink:href="#STIXGeneral-Regular-2e" x="49.999985"/>
       <use xlink:href="#STIXGeneral-Regular-34" x="74.999969"/>
      </g>
     </g>
    </g>
    <g id="ytick_4">
     <g id="line2d_10">
      <g>
       <use xlink:href="#m0a829a0b84" x="36" y="112.32" style="stroke: #000000; stroke-width: 0.8"/>
      </g>
     </g>
     <g id="text_4">
      <!-- 0.6 -->
      <g transform="translate(14 116.417812) scale(0.12 -0.12)">
       <defs>
        <path id="STIXGeneral-Regular-36" d="M 2854 4378 
L 2867 4275 
Q 2112 4154 1606 3664 
Q 1101 3174 973 2451 
Q 1344 2739 1786 2739 
Q 2349 2739 2672 2380 
Q 2995 2022 2995 1402 
Q 2995 774 2669 378 
Q 2291 -90 1651 -90 
Q 870 -90 518 557 
Q 218 1107 218 1786 
Q 218 2835 915 3552 
Q 1312 3962 1731 4131 
Q 2150 4301 2854 4378 
z
M 2419 1203 
Q 2419 2445 1555 2445 
Q 1235 2445 1024 2275 
Q 813 2106 813 1702 
Q 813 954 1046 522 
Q 1280 90 1722 90 
Q 2061 90 2240 394 
Q 2419 698 2419 1203 
z
" transform="scale(0.015625)"/>
       </defs>
       <use xlink:href="#STIXGeneral-Regular-30"/>
       <use xlink:href="#STIXGeneral-Regular-2e" x="49.999985"/>
       <use xlink:href="#STIXGeneral-Regular-36" x="74.999969"/>
      </g>
     </g>
    </g>
    <g id="ytick_5">
     <g id="line2d_11">
      <g>
       <use xlink:href="#m0a829a0b84" x="36" y="82.08" style="stroke: #000000; stroke-width: 0.8"/>
      </g>
     </g>
     <g id="text_5">
      <!-- 0.8 -->
      <g transform="translate(14 86.177812) scale(0.12 -0.12)">
       <defs>
        <path id="STIXGeneral-Regular-38" d="M 2848 992 
Q 2848 499 2505 204 
Q 2163 -90 1587 -90 
Q 1050 -90 704 204 
Q 358 499 358 954 
Q 358 1293 524 1533 
Q 691 1773 1190 2125 
Q 710 2522 553 2765 
Q 397 3008 397 3328 
Q 397 3782 745 4054 
Q 1094 4326 1638 4326 
Q 2106 4326 2410 4060 
Q 2714 3795 2714 3411 
Q 2714 3059 2531 2848 
Q 2349 2637 1856 2374 
Q 2432 1990 2640 1689 
Q 2848 1389 2848 992 
z
M 2272 3411 
Q 2272 3744 2086 3945 
Q 1901 4147 1574 4147 
Q 1248 4147 1059 3977 
Q 870 3808 870 3513 
Q 870 3219 1059 2979 
Q 1248 2739 1670 2490 
Q 1997 2682 2134 2896 
Q 2272 3110 2272 3411 
z
M 1734 1741 
L 1357 1997 
Q 1075 1766 960 1545 
Q 845 1325 845 1011 
Q 845 576 1065 333 
Q 1286 90 1658 90 
Q 1971 90 2166 285 
Q 2362 480 2362 794 
Q 2362 1082 2214 1299 
Q 2067 1517 1734 1741 
z
" transform="scale(0.015625)"/>
       </defs>
       <use xlink:href="#STIXGeneral-Regular-30"/>
       <use xlink:href="#STIXGeneral-Regular-2e" x="49.999985"/>
       <use xlink:href="#STIXGeneral-Regular-38" x="74.999969"/>
      </g>
     </g>
    </g>
    <g id="ytick_6">
     <g id="line2d_12">
      <g>
       <use xlink:href="#m0a829a0b84" x="36" y="51.84" style="stroke: #000000; stroke-width: 0.8"/>
      </g>
     </g>
     <g id="text_6">
      <!-- 1.0 -->
      <g transform="translate(14 55.937812) scale(0.12 -0.12)">
       <defs>
        <path id="STIXGeneral-Regular-31" d="M 2522 0 
L 755 0 
L 755 96 
Q 1107 115 1235 227 
Q 1363 339 1363 608 
L 1363 3482 
Q 1363 3795 1171 3795 
Q 1082 3795 883 3718 
L 710 3654 
L 710 3744 
L 1856 4326 
L 1914 4307 
L 1914 486 
Q 1914 275 2042 185 
Q 2170 96 2522 96 
L 2522 0 
z
" transform="scale(0.015625)"/>
       </defs>
       <use xlink:href="#STIXGeneral-Regular-31"/>
       <use xlink:href="#STIXGeneral-Regular-2e" x="49.999985"/>
       <use xlink:href="#STIXGeneral-Regular-30" x="74.999969"/>
      </g>
     </g>
    </g>
   </g>
   <g id="line2d_13">
    <path d="M 56.290909 176.194257 
L 58.340496 176.317974 
L 60.390083 176.437979 
L 62.439669 176.554382 
L 64.489256 176.66729 
L 66.538843 176.776807 
L 68.58843 176.883034 
L 70.638017 176.986067 
L 72.687603 177.086002 
L 74.73719 177.18293 
L 76.786777 177.276941 
L 78.836364 177.36812 
L 80.88595 177.456552 
L 82.935537 177.542317 
L 84.985124 177.625495 
L 87.034711 177.706162 
L 89.084298 177.784391 
L 91.133884 177.860255 
L 93.183471 177.933824 
L 95.233058 178.005164 
L 97.282645 178.074342 
L 99.332231 178.141421 
L 101.381818 178.206463 
L 103.431405 178.269526 
L 105.480992 178.33067 
L 107.530579 178.389951 
L 109.580165 178.447422 
L 111.629752 178.503137 
L 113.679339 178.557146 
L 115.728926 178.6095 
L 117.778512 178.660247 
L 119.828099 178.709432 
L 121.877686 178.757101 
L 123.927273 178.803299 
L 125.97686 178.848067 
L 128.026446 178.891447 
L 130.076033 178.933478 
L 132.12562 178.974198 
L 134.175207 179.013647 
L 136.224793 179.051858 
L 138.27438 179.088869 
L 140.323967 179.124712 
L 142.373554 179.159421 
L 144.42314 179.193027 
L 146.472727 179.225561 
L 148.522314 179.257054 
L 150.571901 179.287534 
L 152.621488 179.317029 
L 154.671074 179.345566 
L 156.720661 179.373171 
L 158.770248 179.399871 
L 160.819835 179.425688 
L 162.869421 179.450648 
L 164.919008 179.474772 
L 166.968595 179.498084 
L 169.018182 179.520603 
L 171.067769 179.542353 
L 173.117355 179.563351 
L 175.166942 179.583617 
L 177.216529 179.603171 
L 179.266116 179.622029 
L 181.315702 179.64021 
L 183.365289 179.65773 
L 185.414876 179.674605 
L 187.464463 179.690851 
L 189.51405 179.706482 
L 191.563636 179.721512 
L 193.613223 179.735957 
L 195.66281 179.749828 
L 197.712397 179.763139 
L 199.761983 179.775902 
L 201.81157 179.788129 
L 203.861157 179.79983 
L 205.910744 179.811017 
L 207.960331 179.8217 
L 210.009917 179.831888 
L 212.059504 179.841592 
L 214.109091 179.850819 
L 216.158678 179.859579 
L 218.208264 179.867879 
L 220.257851 179.875727 
L 222.307438 179.883131 
L 224.357025 179.890096 
L 226.406612 179.896631 
L 228.456198 179.902739 
L 230.505785 179.908428 
L 232.555372 179.913702 
L 234.604959 179.918566 
L 236.654545 179.923024 
L 238.704132 179.927082 
L 240.753719 179.930741 
L 242.803306 179.934007 
L 244.852893 179.936881 
L 246.902479 179.939367 
L 248.952066 179.941467 
L 251.001653 179.943182 
L 253.05124 179.944514 
L 255.100826 179.945465 
L 257.150413 179.946035 
L 259.2 179.946225 
" clip-path="url(#p07ab544525)" style="fill: none; stroke: #71a8c4; stroke-opacity: 0.7; stroke-width: 3; stroke-linecap: square"/>
   </g>
   <g id="line2d_14">
    <path d="M 36 51.84 
L 56.290909 176.194257 
" clip-path="url(#p07ab544525)" style="fill: none; stroke: #71a8c4; stroke-opacity: 0.7; stroke-width: 3; stroke-linecap: square"/>
   </g>
   <g id="line2d_15">
    <path d="M 56.290909 148.110388 
L 58.340496 149.068157 
L 60.390083 149.997189 
L 62.439669 150.898338 
L 64.489256 151.772431 
L 66.538843 152.62027 
L 68.58843 153.442635 
L 70.638017 154.240281 
L 72.687603 155.01394 
L 74.73719 155.764322 
L 76.786777 156.492117 
L 78.836364 157.197993 
L 80.88595 157.882598 
L 82.935537 158.546561 
L 84.985124 159.190493 
L 87.034711 159.814983 
L 89.084298 160.420606 
L 91.133884 161.007917 
L 93.183471 161.577457 
L 95.233058 162.129748 
L 97.282645 162.665297 
L 99.332231 163.184597 
L 101.381818 163.688123 
L 103.431405 164.176339 
L 105.480992 164.649693 
L 107.530579 165.108619 
L 109.580165 165.55354 
L 111.629752 165.984863 
L 113.679339 166.402984 
L 115.728926 166.808289 
L 117.778512 167.201148 
L 119.828099 167.581923 
L 121.877686 167.950963 
L 123.927273 168.308607 
L 125.97686 168.655184 
L 128.026446 168.991012 
L 130.076033 169.3164 
L 132.12562 169.631645 
L 134.175207 169.937038 
L 136.224793 170.23286 
L 138.27438 170.519381 
L 140.323967 170.796865 
L 142.373554 171.065567 
L 144.42314 171.325733 
L 146.472727 171.577603 
L 148.522314 171.821407 
L 150.571901 172.05737 
L 152.621488 172.285709 
L 154.671074 172.506632 
L 156.720661 172.720344 
L 158.770248 172.927039 
L 160.819835 173.126909 
L 162.869421 173.320136 
L 164.919008 173.506898 
L 166.968595 173.687367 
L 169.018182 173.861708 
L 171.067769 174.030081 
L 173.117355 174.192641 
L 175.166942 174.349537 
L 177.216529 174.500914 
L 179.266116 174.64691 
L 181.315702 174.787659 
L 183.365289 174.923291 
L 185.414876 175.053931 
L 187.464463 175.179697 
L 189.51405 175.300707 
L 191.563636 175.41707 
L 193.613223 175.528893 
L 195.66281 175.636281 
L 197.712397 175.73933 
L 199.761983 175.838136 
L 201.81157 175.932789 
L 203.861157 176.023376 
L 205.910744 176.109981 
L 207.960331 176.192683 
L 210.009917 176.271558 
L 212.059504 176.346678 
L 214.109091 176.418113 
L 216.158678 176.485928 
L 218.208264 176.550185 
L 220.257851 176.610943 
L 222.307438 176.668258 
L 224.357025 176.722184 
L 226.406612 176.772768 
L 228.456198 176.820058 
L 230.505785 176.864097 
L 232.555372 176.904926 
L 234.604959 176.942581 
L 236.654545 176.977099 
L 238.704132 177.008509 
L 240.753719 177.036842 
L 242.803306 177.062123 
L 244.852893 177.084376 
L 246.902479 177.10362 
L 248.952066 177.119874 
L 251.001653 177.133152 
L 253.05124 177.143467 
L 255.100826 177.150828 
L 257.150413 177.155242 
L 259.2 177.156713 
" clip-path="url(#p07ab544525)" style="fill: none; stroke: #71a8c4; stroke-opacity: 0.8; stroke-width: 3; stroke-linecap: square"/>
   </g>
   <g id="line2d_16">
    <path d="M 36 51.84 
L 56.290909 148.110388 
" clip-path="url(#p07ab544525)" style="fill: none; stroke: #71a8c4; stroke-opacity: 0.8; stroke-width: 3; stroke-linecap: square"/>
   </g>
   <g id="line2d_17">
    <path d="M 56.290909 128.799011 
L 58.340496 130.330301 
L 60.390083 131.815647 
L 62.439669 133.256412 
L 64.489256 134.65392 
L 66.538843 136.009454 
L 68.58843 137.324259 
L 70.638017 138.599542 
L 72.687603 139.836475 
L 74.73719 141.036193 
L 76.786777 142.199799 
L 78.836364 143.32836 
L 80.88595 144.422914 
L 82.935537 145.484465 
L 84.985124 146.513988 
L 87.034711 147.512429 
L 89.084298 148.480705 
L 91.133884 149.419704 
L 93.183471 150.33029 
L 95.233058 151.213298 
L 97.282645 152.069539 
L 99.332231 152.8998 
L 101.381818 153.704843 
L 103.431405 154.485408 
L 105.480992 155.24221 
L 107.530579 155.975946 
L 109.580165 156.687289 
L 111.629752 157.376892 
L 113.679339 158.045389 
L 115.728926 158.693394 
L 117.778512 159.321501 
L 119.828099 159.930287 
L 121.877686 160.520312 
L 123.927273 161.092117 
L 125.97686 161.646228 
L 128.026446 162.183153 
L 130.076033 162.703385 
L 132.12562 163.207403 
L 134.175207 163.695669 
L 136.224793 164.168631 
L 138.27438 164.626723 
L 140.323967 165.070368 
L 142.373554 165.499971 
L 144.42314 165.915927 
L 146.472727 166.318619 
L 148.522314 166.708416 
L 150.571901 167.085676 
L 152.621488 167.450746 
L 154.671074 167.803961 
L 156.720661 168.145644 
L 158.770248 168.476111 
L 160.819835 168.795665 
L 162.869421 169.104598 
L 164.919008 169.403195 
L 166.968595 169.69173 
L 169.018182 169.970468 
L 171.067769 170.239664 
L 173.117355 170.499567 
L 175.166942 170.750414 
L 177.216529 170.992437 
L 179.266116 171.225857 
L 181.315702 171.450888 
L 183.365289 171.667738 
L 185.414876 171.876606 
L 187.464463 172.077682 
L 189.51405 172.271153 
L 191.563636 172.457196 
L 193.613223 172.63598 
L 195.66281 172.807672 
L 197.712397 172.972428 
L 199.761983 173.1304 
L 201.81157 173.281732 
L 203.861157 173.426564 
L 205.910744 173.565029 
L 207.960331 173.697254 
L 210.009917 173.82336 
L 212.059504 173.943463 
L 214.109091 174.057673 
L 216.158678 174.166096 
L 218.208264 174.268831 
L 220.257851 174.365972 
L 222.307438 174.457608 
L 224.357025 174.543824 
L 226.406612 174.624699 
L 228.456198 174.700306 
L 230.505785 174.770717 
L 232.555372 174.835994 
L 234.604959 174.896198 
L 236.654545 174.951385 
L 238.704132 175.001604 
L 240.753719 175.046903 
L 242.803306 175.087323 
L 244.852893 175.1229 
L 246.902479 175.153668 
L 248.952066 175.179655 
L 251.001653 175.200885 
L 253.05124 175.217376 
L 255.100826 175.229145 
L 257.150413 175.236202 
L 259.2 175.238554 
" clip-path="url(#p07ab544525)" style="fill: none; stroke: #71a8c4; stroke-opacity: 0.9; stroke-width: 3; stroke-linecap: square"/>
   </g>
   <g id="line2d_18">
    <path d="M 36 51.84 
L 56.290909 128.799011 
" clip-path="url(#p07ab544525)" style="fill: none; stroke: #71a8c4; stroke-opacity: 0.9; stroke-width: 3; stroke-linecap: square"/>
   </g>
   <g id="line2d_19">
    <path d="M 56.290909 115.940715 
L 58.340496 117.853879 
L 60.390083 119.709641 
L 62.439669 121.509704 
L 64.489256 123.255723 
L 66.538843 124.949301 
L 68.58843 126.591992 
L 70.638017 128.185306 
L 72.687603 129.730706 
L 74.73719 131.22961 
L 76.786777 132.683396 
L 78.836364 134.093398 
L 80.88595 135.460912 
L 82.935537 136.787193 
L 84.985124 138.073459 
L 87.034711 139.320892 
L 89.084298 140.530636 
L 91.133884 141.703804 
L 93.183471 142.841471 
L 95.233058 143.944684 
L 97.282645 145.014455 
L 99.332231 146.051767 
L 101.381818 147.057572 
L 103.431405 148.032794 
L 105.480992 148.978328 
L 107.530579 149.895043 
L 109.580165 150.783781 
L 111.629752 151.645358 
L 113.679339 152.480565 
L 115.728926 153.290169 
L 117.778512 154.074913 
L 119.828099 154.835519 
L 121.877686 155.572684 
L 123.927273 156.287087 
L 125.97686 156.979382 
L 128.026446 157.650205 
L 130.076033 158.300173 
L 132.12562 158.929883 
L 134.175207 159.539912 
L 136.224793 160.130822 
L 138.27438 160.703154 
L 140.323967 161.257434 
L 142.373554 161.794172 
L 144.42314 162.31386 
L 146.472727 162.816975 
L 148.522314 163.30398 
L 150.571901 163.775321 
L 152.621488 164.231432 
L 154.671074 164.672731 
L 156.720661 165.099625 
L 158.770248 165.512503 
L 160.819835 165.911747 
L 162.869421 166.297722 
L 164.919008 166.670784 
L 166.968595 167.031273 
L 169.018182 167.379523 
L 171.067769 167.715852 
L 173.117355 168.040569 
L 175.166942 168.353973 
L 177.216529 168.656351 
L 179.266116 168.947981 
L 181.315702 169.229131 
L 183.365289 169.500059 
L 185.414876 169.761014 
L 187.464463 170.012235 
L 189.51405 170.253954 
L 191.563636 170.486392 
L 193.613223 170.709762 
L 195.66281 170.92427 
L 197.712397 171.130113 
L 199.761983 171.32748 
L 201.81157 171.516551 
L 203.861157 171.697502 
L 205.910744 171.870497 
L 207.960331 172.035696 
L 210.009917 172.19325 
L 212.059504 172.343305 
L 214.109091 172.485997 
L 216.158678 172.621459 
L 218.208264 172.749813 
L 220.257851 172.871179 
L 222.307438 172.985668 
L 224.357025 173.093384 
L 226.406612 173.194428 
L 228.456198 173.28889 
L 230.505785 173.376859 
L 232.555372 173.458415 
L 234.604959 173.533633 
L 236.654545 173.602583 
L 238.704132 173.665326 
L 240.753719 173.721922 
L 242.803306 173.772421 
L 244.852893 173.816871 
L 246.902479 173.855312 
L 248.952066 173.887779 
L 251.001653 173.914303 
L 253.05124 173.934907 
L 255.100826 173.949611 
L 257.150413 173.958428 
L 259.2 173.961366 
" clip-path="url(#p07ab544525)" style="fill: none; stroke: #71a8c4; stroke-width: 3; stroke-linecap: square"/>
   </g>
   <g id="line2d_20">
    <path d="M 36 51.84 
L 56.290909 115.940715 
" clip-path="url(#p07ab544525)" style="fill: none; stroke: #71a8c4; stroke-width: 3; stroke-linecap: square"/>
   </g>
   <g id="patch_3">
    <path d="M 36 203.04 
L 36 51.84 
" style="fill: none; stroke: #000000; stroke-width: 0.8; stroke-linejoin: miter; stroke-linecap: square"/>
   </g>
   <g id="patch_4">
    <path d="M 259.2 203.04 
L 259.2 51.84 
" style="fill: none; stroke: #000000; stroke-width: 0.8; stroke-linejoin: miter; stroke-linecap: square"/>
   </g>
   <g id="patch_5">
    <path d="M 36 203.04 
L 259.2 203.04 
" style="fill: none; stroke: #000000; stroke-width: 0.8; stroke-linejoin: miter; stroke-linecap: square"/>
   </g>
   <g id="patch_6">
    <path d="M 36 51.84 
L 259.2 51.84 
" style="fill: none; stroke: #000000; stroke-width: 0.8; stroke-linejoin: miter; stroke-linecap: square"/>
   </g>
   <g id="text_7">
    <!-- Increasing $\gamma$ -->
    <g transform="translate(137.454545 139.536) scale(0.18 -0.18)">
     <defs>
      <path id="STIXGeneral-Regular-49" d="M 2016 0 
L 115 0 
L 115 122 
Q 518 134 627 240 
Q 736 346 736 717 
L 736 3526 
Q 736 3898 633 3994 
Q 531 4090 115 4115 
L 115 4237 
L 2016 4237 
L 2016 4115 
Q 1613 4096 1501 3993 
Q 1389 3891 1389 3526 
L 1389 717 
Q 1389 358 1504 246 
Q 1619 134 2016 122 
L 2016 0 
z
" transform="scale(0.015625)"/>
      <path id="STIXGeneral-Regular-6e" d="M 3104 0 
L 1773 0 
L 1779 96 
Q 2016 115 2096 233 
Q 2176 352 2176 672 
L 2176 1946 
Q 2176 2592 1709 2592 
Q 1549 2592 1408 2515 
Q 1267 2438 1050 2227 
L 1050 461 
Q 1050 269 1136 192 
Q 1222 115 1466 96 
L 1466 0 
L 115 0 
L 115 96 
Q 358 115 435 214 
Q 512 314 512 602 
L 512 2157 
Q 512 2394 467 2483 
Q 422 2573 288 2573 
Q 160 2573 102 2547 
L 102 2656 
Q 550 2784 979 2944 
L 1030 2925 
L 1030 2426 
L 1037 2426 
Q 1491 2944 1958 2944 
Q 2323 2944 2518 2688 
Q 2714 2432 2714 1958 
L 2714 544 
Q 2714 288 2790 205 
Q 2867 122 3104 96 
L 3104 0 
z
" transform="scale(0.015625)"/>
      <path id="STIXGeneral-Regular-63" d="M 2547 998 
L 2637 941 
Q 2362 403 2112 205 
Q 1786 -64 1376 -64 
Q 845 -64 502 336 
Q 160 736 160 1357 
Q 160 2170 698 2618 
Q 1094 2944 1562 2944 
Q 1965 2944 2256 2749 
Q 2547 2554 2547 2285 
Q 2547 2176 2457 2096 
Q 2368 2016 2246 2016 
Q 2022 2016 1939 2310 
L 1901 2451 
Q 1850 2630 1773 2694 
Q 1696 2758 1523 2758 
Q 1133 2758 893 2451 
Q 653 2144 653 1645 
Q 653 1094 928 745 
Q 1203 397 1645 397 
Q 1920 397 2118 528 
Q 2317 659 2547 998 
z
" transform="scale(0.015625)"/>
      <path id="STIXGeneral-Regular-72" d="M 1024 2931 
L 1024 2342 
Q 1267 2688 1430 2816 
Q 1594 2944 1792 2944 
Q 1958 2944 2051 2854 
Q 2144 2765 2144 2605 
Q 2144 2470 2077 2393 
Q 2010 2317 1894 2317 
Q 1773 2317 1638 2445 
Q 1536 2541 1472 2541 
Q 1338 2541 1181 2355 
Q 1024 2170 1024 2016 
L 1024 576 
Q 1024 301 1133 205 
Q 1242 109 1568 96 
L 1568 0 
L 32 0 
L 32 96 
Q 339 154 412 224 
Q 486 294 486 538 
L 486 2138 
Q 486 2349 438 2435 
Q 390 2522 269 2522 
Q 166 2522 45 2496 
L 45 2598 
Q 448 2726 992 2944 
L 1024 2931 
z
" transform="scale(0.015625)"/>
      <path id="STIXGeneral-Regular-65" d="M 2611 1050 
L 2714 1005 
Q 2330 -64 1376 -64 
Q 813 -64 486 329 
Q 160 723 160 1389 
Q 160 2074 525 2509 
Q 890 2944 1485 2944 
Q 2061 2944 2374 2502 
Q 2560 2246 2592 1773 
L 621 1773 
Q 646 1370 700 1158 
Q 755 947 915 730 
Q 1184 378 1626 378 
Q 1939 378 2153 531 
Q 2368 685 2611 1050 
z
M 634 1978 
L 1939 1978 
Q 1882 2381 1750 2547 
Q 1619 2714 1312 2714 
Q 1043 2714 864 2525 
Q 685 2336 634 1978 
z
" transform="scale(0.015625)"/>
      <path id="STIXGeneral-Regular-61" d="M 2829 422 
L 2829 243 
Q 2586 -64 2253 -64 
Q 1888 -64 1843 403 
L 1837 403 
Q 1427 -64 909 -64 
Q 608 -64 422 112 
Q 237 288 237 602 
Q 237 1050 685 1350 
Q 992 1555 1837 1869 
L 1837 2214 
Q 1837 2502 1699 2646 
Q 1562 2790 1338 2790 
Q 1146 2790 1018 2697 
Q 890 2605 890 2477 
Q 890 2419 909 2348 
Q 928 2278 928 2208 
Q 928 2112 841 2029 
Q 755 1946 634 1946 
Q 525 1946 441 2029 
Q 358 2112 358 2240 
Q 358 2547 685 2752 
Q 986 2944 1421 2944 
Q 1939 2944 2176 2656 
Q 2291 2522 2323 2384 
Q 2355 2246 2355 1946 
L 2355 723 
Q 2355 301 2554 301 
Q 2682 301 2829 422 
z
M 1837 813 
L 1837 1715 
Q 1248 1510 1018 1293 
Q 800 1094 800 800 
Q 800 557 921 432 
Q 1043 307 1242 307 
Q 1453 307 1613 410 
Q 1747 506 1792 589 
Q 1837 672 1837 813 
z
" transform="scale(0.015625)"/>
      <path id="STIXGeneral-Regular-73" d="M 998 1926 
L 1664 1523 
Q 1984 1331 2105 1164 
Q 2227 998 2227 736 
Q 2227 416 1961 176 
Q 1696 -64 1331 -64 
Q 1030 -64 864 -6 
Q 691 51 570 51 
Q 461 51 416 -26 
L 333 -26 
L 333 979 
L 435 979 
Q 538 512 730 294 
Q 922 77 1248 77 
Q 1485 77 1632 211 
Q 1779 346 1779 550 
Q 1779 845 1440 1030 
L 1094 1222 
Q 326 1651 326 2150 
Q 326 2522 566 2730 
Q 806 2938 1210 2938 
Q 1491 2938 1638 2867 
Q 1754 2816 1818 2816 
Q 1862 2816 1920 2880 
L 1990 2880 
L 2022 2010 
L 1926 2010 
Q 1818 2445 1654 2621 
Q 1491 2797 1203 2797 
Q 986 2797 854 2688 
Q 723 2579 723 2362 
Q 723 2253 796 2128 
Q 870 2003 998 1926 
z
" transform="scale(0.015625)"/>
      <path id="STIXGeneral-Regular-69" d="M 1152 4045 
Q 1152 3904 1056 3811 
Q 960 3718 819 3718 
Q 685 3718 592 3811 
Q 499 3904 499 4045 
Q 499 4179 595 4275 
Q 691 4371 826 4371 
Q 966 4371 1059 4275 
Q 1152 4179 1152 4045 
z
M 1619 0 
L 102 0 
L 102 96 
Q 435 115 521 211 
Q 608 307 608 666 
L 608 2118 
Q 608 2342 563 2432 
Q 518 2522 397 2522 
Q 243 2522 128 2490 
L 128 2592 
L 1120 2944 
L 1146 2918 
L 1146 672 
Q 1146 314 1226 218 
Q 1306 122 1619 96 
L 1619 0 
z
" transform="scale(0.015625)"/>
      <path id="STIXGeneral-Regular-67" d="M 3008 2483 
L 2477 2483 
Q 2598 2208 2598 1946 
Q 2598 1453 2265 1203 
Q 1933 954 1600 954 
Q 1530 954 1357 973 
L 1235 986 
Q 1107 947 979 812 
Q 851 678 851 582 
Q 851 435 1350 410 
L 2176 371 
Q 2528 358 2739 172 
Q 2950 -13 2950 -314 
Q 2950 -685 2566 -986 
Q 2035 -1395 1286 -1395 
Q 826 -1395 502 -1212 
Q 179 -1030 179 -774 
Q 179 -595 320 -419 
Q 461 -243 806 6 
Q 602 102 534 172 
Q 467 243 467 346 
Q 467 531 762 787 
Q 909 915 1037 1043 
Q 717 1203 579 1401 
Q 442 1600 442 1901 
Q 442 2336 752 2640 
Q 1062 2944 1510 2944 
Q 1766 2944 2022 2848 
L 2163 2797 
Q 2349 2733 2515 2733 
L 3008 2733 
L 3008 2483 
z
M 973 2163 
L 973 2144 
Q 973 1683 1155 1398 
Q 1338 1114 1632 1114 
Q 1850 1114 1978 1270 
Q 2106 1427 2106 1690 
Q 2106 2112 1914 2464 
Q 1754 2765 1446 2765 
Q 1222 2765 1097 2605 
Q 973 2445 973 2163 
z
M 2771 -410 
Q 2771 -230 2595 -163 
Q 2419 -96 1978 -96 
Q 1344 -96 941 -13 
Q 749 -243 688 -348 
Q 627 -454 627 -563 
Q 627 -774 880 -902 
Q 1133 -1030 1555 -1030 
Q 2099 -1030 2435 -860 
Q 2771 -691 2771 -410 
z
" transform="scale(0.015625)"/>
      <path id="STIXGeneral-Regular-20" transform="scale(0.015625)"/>
      <path id="STIXGeneral-Italic-3b3" d="M 2803 2739 
L 1050 250 
Q 1037 32 1030 -73 
Q 1024 -179 998 -406 
Q 973 -634 934 -758 
Q 896 -883 835 -1033 
Q 774 -1184 681 -1251 
Q 589 -1318 467 -1318 
Q 224 -1318 224 -998 
Q 224 -845 329 -608 
Q 435 -371 608 -57 
Q 781 256 845 397 
Q 941 1293 941 1555 
Q 941 2381 634 2381 
Q 538 2381 422 2259 
Q 307 2138 224 1894 
L 122 1894 
Q 358 2784 755 2784 
Q 986 2784 1075 2589 
Q 1165 2394 1165 2029 
Q 1165 1850 1145 1632 
Q 1126 1414 1091 1148 
Q 1056 883 1050 813 
L 2189 2739 
L 2803 2739 
z
" transform="scale(0.015625)"/>
     </defs>
     <use xlink:href="#STIXGeneral-Regular-49" transform="translate(0 0.703125)"/>
     <use xlink:href="#STIXGeneral-Regular-6e" transform="translate(33.299988 0.703125)"/>
     <use xlink:href="#STIXGeneral-Regular-63" transform="translate(83.299973 0.703125)"/>
     <use xlink:href="#STIXGeneral-Regular-72" transform="translate(127.699966 0.703125)"/>
     <use xlink:href="#STIXGeneral-Regular-65" transform="translate(160.999954 0.703125)"/>
     <use xlink:href="#STIXGeneral-Regular-61" transform="translate(205.399948 0.703125)"/>
     <use xlink:href="#STIXGeneral-Regular-73" transform="translate(249.799942 0.703125)"/>
     <use xlink:href="#STIXGeneral-Regular-69" transform="translate(288.699936 0.703125)"/>
     <use xlink:href="#STIXGeneral-Regular-6e" transform="translate(316.499924 0.703125)"/>
     <use xlink:href="#STIXGeneral-Regular-67" transform="translate(366.499908 0.703125)"/>
     <use xlink:href="#STIXGeneral-Regular-20" transform="translate(416.499893 0.703125)"/>
     <use xlink:href="#STIXGeneral-Italic-3b3" transform="translate(441.499878 0.703125)"/>
    </g>
   </g>
   <g id="patch_7">
    <path d="M 125.309091 141.050215 
Q 125.309091 133.439824 125.309091 125.829433 
L 121.309091 125.829433 
Q 124.309091 119.830498 127.309091 113.831563 
Q 130.309091 119.830498 133.309091 125.829433 
L 129.309091 125.829433 
Q 129.309091 133.439824 129.309091 141.050215 
L 125.309091 141.050215 
z
" style="fill: #71a8c4; stroke: #000000; stroke-linecap: round"/>
   </g>
   <g id="text_8">
    <!-- Stomata limited -->
    <g transform="translate(93.1625 45.84) scale(0.16 -0.16)">
     <defs>
      <path id="STIXGeneral-Bold-53" d="M 3098 3034 
L 2918 3034 
Q 2752 3578 2470 3866 
Q 2125 4224 1683 4224 
Q 1357 4224 1168 4048 
Q 979 3872 979 3590 
Q 979 3360 1113 3213 
Q 1248 3066 1638 2861 
Q 1754 2797 2077 2633 
Q 2400 2470 2586 2368 
Q 2899 2195 3091 1897 
Q 3283 1600 3283 1242 
Q 3283 634 2844 256 
Q 2406 -122 1696 -122 
Q 1306 -122 864 32 
Q 666 96 602 96 
Q 525 96 480 48 
Q 435 0 410 -122 
L 224 -122 
L 224 1466 
L 410 1466 
Q 557 851 794 550 
Q 1158 90 1715 90 
Q 2086 90 2304 285 
Q 2522 480 2522 813 
Q 2522 1120 2157 1376 
Q 1997 1491 1376 1792 
Q 806 2067 544 2368 
Q 282 2669 282 3136 
Q 282 3744 656 4083 
Q 1030 4422 1683 4422 
Q 2035 4422 2432 4275 
Q 2624 4211 2701 4211 
Q 2790 4211 2832 4256 
Q 2874 4301 2906 4429 
L 3098 4429 
L 3098 3034 
z
" transform="scale(0.015625)"/>
      <path id="STIXGeneral-Bold-74" d="M 1965 717 
L 2125 646 
Q 1926 250 1712 86 
Q 1498 -77 1178 -77 
Q 845 -77 653 105 
Q 461 288 461 608 
L 461 2669 
L 122 2669 
L 122 2842 
Q 435 3053 646 3299 
Q 858 3546 1190 4032 
L 1350 4032 
L 1350 2950 
L 1958 2950 
L 1958 2669 
L 1350 2669 
L 1350 762 
Q 1350 378 1600 378 
Q 1786 378 1965 717 
z
" transform="scale(0.015625)"/>
      <path id="STIXGeneral-Bold-6f" d="M 3046 1466 
Q 3046 794 2633 352 
Q 2221 -90 1600 -90 
Q 992 -90 576 348 
Q 160 787 160 1459 
Q 160 2157 573 2592 
Q 986 3027 1626 3027 
Q 2234 3027 2640 2585 
Q 3046 2144 3046 1466 
z
M 2106 1395 
Q 2106 2214 1997 2521 
Q 1888 2829 1606 2829 
Q 1312 2829 1206 2525 
Q 1101 2221 1101 1395 
Q 1101 698 1216 403 
Q 1331 109 1606 109 
Q 1882 109 1994 393 
Q 2106 678 2106 1395 
z
" transform="scale(0.015625)"/>
      <path id="STIXGeneral-Bold-6d" d="M 5210 0 
L 3693 0 
L 3693 154 
Q 3872 166 3936 246 
Q 4000 326 4000 531 
L 4000 1990 
Q 4000 2598 3661 2598 
Q 3475 2598 3290 2438 
Q 3232 2394 3174 2323 
Q 3117 2253 3117 2227 
L 3117 531 
Q 3117 346 3181 259 
Q 3245 173 3411 154 
L 3411 0 
L 1926 0 
L 1926 154 
Q 2099 166 2163 249 
Q 2227 333 2227 531 
L 2227 2067 
Q 2227 2355 2147 2476 
Q 2067 2598 1882 2598 
Q 1760 2598 1552 2454 
Q 1344 2310 1344 2202 
L 1344 531 
Q 1344 346 1405 262 
Q 1466 179 1632 154 
L 1632 0 
L 102 0 
L 102 154 
Q 314 192 384 272 
Q 454 352 454 550 
L 454 2387 
Q 454 2611 384 2688 
Q 314 2765 96 2797 
L 96 2950 
L 1325 2950 
L 1325 2470 
L 1344 2470 
Q 1530 2765 1744 2896 
Q 1958 3027 2266 3027 
Q 2566 3027 2752 2899 
Q 2938 2771 3085 2470 
Q 3334 2778 3542 2902 
Q 3750 3027 4026 3027 
Q 4422 3027 4656 2784 
Q 4890 2541 4890 2118 
L 4890 531 
Q 4890 326 4957 243 
Q 5024 160 5210 154 
L 5210 0 
z
" transform="scale(0.015625)"/>
      <path id="STIXGeneral-Bold-61" d="M 3027 410 
L 3123 275 
Q 2784 -90 2406 -90 
Q 2170 -90 2051 9 
Q 1933 109 1882 352 
Q 1395 -90 864 -90 
Q 544 -90 352 80 
Q 160 250 160 589 
Q 160 1018 589 1306 
Q 909 1517 1875 1792 
L 1875 2227 
Q 1875 2541 1756 2681 
Q 1638 2822 1357 2822 
Q 1178 2822 1059 2758 
Q 941 2694 941 2586 
Q 941 2515 1011 2438 
Q 1133 2291 1133 2170 
Q 1133 2003 1011 1894 
Q 890 1786 698 1786 
Q 499 1786 390 1901 
Q 282 2016 282 2221 
Q 282 2598 618 2812 
Q 954 3027 1504 3027 
Q 2093 3027 2425 2803 
Q 2758 2579 2758 2170 
L 2758 499 
Q 2758 320 2893 320 
Q 2938 320 2963 346 
L 3027 410 
z
M 1875 621 
L 1875 1568 
Q 1094 1350 1094 794 
Q 1094 589 1187 477 
Q 1280 365 1427 365 
Q 1696 365 1875 621 
z
" transform="scale(0.015625)"/>
      <path id="STIXGeneral-Bold-20" transform="scale(0.015625)"/>
      <path id="STIXGeneral-Bold-6c" d="M 1638 0 
L 102 0 
L 102 154 
Q 429 179 429 557 
L 429 3757 
Q 429 4147 96 4173 
L 96 4326 
L 1318 4326 
L 1318 557 
Q 1318 346 1395 253 
Q 1472 160 1638 154 
L 1638 0 
z
" transform="scale(0.015625)"/>
      <path id="STIXGeneral-Bold-69" d="M 1376 3923 
Q 1376 3712 1232 3571 
Q 1088 3430 877 3430 
Q 666 3430 525 3571 
Q 384 3712 384 3923 
Q 384 4134 528 4278 
Q 672 4422 890 4422 
Q 1088 4422 1232 4275 
Q 1376 4128 1376 3923 
z
M 1638 0 
L 102 0 
L 102 154 
Q 326 205 384 275 
Q 442 346 442 563 
L 442 2387 
Q 442 2598 374 2675 
Q 307 2752 96 2797 
L 96 2950 
L 1331 2950 
L 1331 544 
Q 1331 339 1398 259 
Q 1466 179 1638 154 
L 1638 0 
z
" transform="scale(0.015625)"/>
      <path id="STIXGeneral-Bold-65" d="M 2579 806 
L 2733 717 
Q 2451 269 2166 89 
Q 1882 -90 1466 -90 
Q 890 -90 525 342 
Q 160 774 160 1434 
Q 160 2150 528 2588 
Q 896 3027 1498 3027 
Q 2029 3027 2317 2707 
Q 2656 2336 2694 1568 
L 1082 1568 
Q 1101 1299 1133 1116 
Q 1165 934 1241 748 
Q 1318 563 1468 467 
Q 1619 371 1843 371 
Q 2048 371 2214 470 
Q 2381 570 2579 806 
z
M 1907 1805 
L 1907 1939 
Q 1907 2406 1850 2528 
Q 1773 2688 1699 2758 
Q 1626 2829 1498 2829 
Q 1267 2829 1158 2595 
Q 1050 2362 1050 1805 
L 1907 1805 
z
" transform="scale(0.015625)"/>
      <path id="STIXGeneral-Bold-64" d="M 3418 128 
L 3021 77 
Q 2496 6 2170 -83 
L 2170 333 
Q 1946 96 1760 3 
Q 1574 -90 1318 -90 
Q 813 -90 486 332 
Q 160 755 160 1414 
Q 160 2112 509 2569 
Q 858 3027 1389 3027 
Q 1606 3027 1776 2940 
Q 1946 2854 2150 2630 
L 2150 3802 
Q 2150 4026 2067 4086 
Q 1984 4147 1664 4173 
L 1664 4326 
L 3040 4326 
L 3040 646 
Q 3040 442 3120 365 
Q 3200 288 3418 275 
L 3418 128 
z
M 2150 717 
L 2150 2272 
Q 2080 2458 1945 2563 
Q 1811 2669 1651 2669 
Q 1107 2669 1107 1466 
Q 1107 269 1606 269 
Q 1837 269 2029 506 
Q 2150 666 2150 717 
z
" transform="scale(0.015625)"/>
     </defs>
     <use xlink:href="#STIXGeneral-Bold-53"/>
     <use xlink:href="#STIXGeneral-Bold-74" x="55.599991"/>
     <use xlink:href="#STIXGeneral-Bold-6f" x="88.899979"/>
     <use xlink:href="#STIXGeneral-Bold-6d" x="138.899963"/>
     <use xlink:href="#STIXGeneral-Bold-61" x="222.199951"/>
     <use xlink:href="#STIXGeneral-Bold-74" x="272.199936"/>
     <use xlink:href="#STIXGeneral-Bold-61" x="305.499924"/>
     <use xlink:href="#STIXGeneral-Bold-20" x="355.499908"/>
     <use xlink:href="#STIXGeneral-Bold-6c" x="380.499893"/>
     <use xlink:href="#STIXGeneral-Bold-69" x="408.299881"/>
     <use xlink:href="#STIXGeneral-Bold-6d" x="436.099869"/>
     <use xlink:href="#STIXGeneral-Bold-69" x="519.399857"/>
     <use xlink:href="#STIXGeneral-Bold-74" x="547.199844"/>
     <use xlink:href="#STIXGeneral-Bold-65" x="580.499832"/>
     <use xlink:href="#STIXGeneral-Bold-64" x="624.899826"/>
    </g>
   </g>
  </g>
  <g id="axes_2">
   <g id="patch_8">
    <path d="M 36 384.48 
L 259.2 384.48 
L 259.2 233.28 
L 36 233.28 
z
" style="fill: #ffffff"/>
   </g>
   <g id="matplotlib.axis_3">
    <g id="xtick_7">
     <g id="line2d_21">
      <g>
       <use xlink:href="#mc69b7c6aa1" x="56.290909" y="384.48" style="stroke: #000000; stroke-width: 0.8"/>
      </g>
     </g>
     <g id="text_9">
      <!-- 0.0 -->
      <g transform="translate(48.790909 399.675625) scale(0.12 -0.12)">
       <use xlink:href="#STIXGeneral-Regular-30"/>
       <use xlink:href="#STIXGeneral-Regular-2e" x="49.999985"/>
       <use xlink:href="#STIXGeneral-Regular-30" x="74.999969"/>
      </g>
     </g>
    </g>
    <g id="xtick_8">
     <g id="line2d_22">
      <g>
       <use xlink:href="#mc69b7c6aa1" x="96.872727" y="384.48" style="stroke: #000000; stroke-width: 0.8"/>
      </g>
     </g>
     <g id="text_10">
      <!-- 0.2 -->
      <g transform="translate(89.372727 399.675625) scale(0.12 -0.12)">
       <use xlink:href="#STIXGeneral-Regular-30"/>
       <use xlink:href="#STIXGeneral-Regular-2e" x="49.999985"/>
       <use xlink:href="#STIXGeneral-Regular-32" x="74.999969"/>
      </g>
     </g>
    </g>
    <g id="xtick_9">
     <g id="line2d_23">
      <g>
       <use xlink:href="#mc69b7c6aa1" x="137.454545" y="384.48" style="stroke: #000000; stroke-width: 0.8"/>
      </g>
     </g>
     <g id="text_11">
      <!-- 0.4 -->
      <g transform="translate(129.954545 399.675625) scale(0.12 -0.12)">
       <use xlink:href="#STIXGeneral-Regular-30"/>
       <use xlink:href="#STIXGeneral-Regular-2e" x="49.999985"/>
       <use xlink:href="#STIXGeneral-Regular-34" x="74.999969"/>
      </g>
     </g>
    </g>
    <g id="xtick_10">
     <g id="line2d_24">
      <g>
       <use xlink:href="#mc69b7c6aa1" x="178.036364" y="384.48" style="stroke: #000000; stroke-width: 0.8"/>
      </g>
     </g>
     <g id="text_12">
      <!-- 0.6 -->
      <g transform="translate(170.536364 399.675625) scale(0.12 -0.12)">
       <use xlink:href="#STIXGeneral-Regular-30"/>
       <use xlink:href="#STIXGeneral-Regular-2e" x="49.999985"/>
       <use xlink:href="#STIXGeneral-Regular-36" x="74.999969"/>
      </g>
     </g>
    </g>
    <g id="xtick_11">
     <g id="line2d_25">
      <g>
       <use xlink:href="#mc69b7c6aa1" x="218.618182" y="384.48" style="stroke: #000000; stroke-width: 0.8"/>
      </g>
     </g>
     <g id="text_13">
      <!-- 0.8 -->
      <g transform="translate(211.118182 399.675625) scale(0.12 -0.12)">
       <use xlink:href="#STIXGeneral-Regular-30"/>
       <use xlink:href="#STIXGeneral-Regular-2e" x="49.999985"/>
       <use xlink:href="#STIXGeneral-Regular-38" x="74.999969"/>
      </g>
     </g>
    </g>
    <g id="xtick_12">
     <g id="line2d_26">
      <g>
       <use xlink:href="#mc69b7c6aa1" x="259.2" y="384.48" style="stroke: #000000; stroke-width: 0.8"/>
      </g>
     </g>
     <g id="text_14">
      <!-- 1.0 -->
      <g transform="translate(251.7 399.675625) scale(0.12 -0.12)">
       <use xlink:href="#STIXGeneral-Regular-31"/>
       <use xlink:href="#STIXGeneral-Regular-2e" x="49.999985"/>
       <use xlink:href="#STIXGeneral-Regular-30" x="74.999969"/>
      </g>
     </g>
    </g>
    <g id="text_15">
     <!-- Relative depth $\lambda$ -->
     <g transform="translate(95.44 417.32) scale(0.16 -0.16)">
      <defs>
       <path id="STIXGeneral-Regular-52" d="M 4224 0 
L 3187 0 
L 1664 1971 
L 1306 1958 
L 1306 717 
Q 1306 352 1405 249 
Q 1504 147 1875 122 
L 1875 0 
L 109 0 
L 109 122 
Q 474 154 563 262 
Q 653 371 653 794 
L 653 3526 
Q 653 3885 563 3987 
Q 474 4090 109 4115 
L 109 4237 
L 1850 4237 
Q 2726 4237 3187 3859 
Q 3501 3603 3501 3091 
Q 3501 2221 2342 2042 
L 3622 422 
Q 3757 256 3878 198 
Q 4000 141 4224 122 
L 4224 0 
z
M 1306 3731 
L 1306 2195 
Q 1766 2202 1990 2246 
Q 2214 2291 2438 2413 
Q 2803 2618 2803 3142 
Q 2803 4000 1632 4000 
Q 1459 4000 1382 3945 
Q 1306 3891 1306 3731 
z
" transform="scale(0.015625)"/>
       <path id="STIXGeneral-Regular-6c" d="M 1645 0 
L 134 0 
L 134 96 
Q 435 122 531 221 
Q 627 320 627 589 
L 627 3590 
Q 627 3821 569 3910 
Q 512 4000 358 4000 
Q 224 4000 122 3987 
L 122 4090 
Q 730 4237 1133 4371 
L 1165 4346 
L 1165 557 
Q 1165 288 1254 201 
Q 1344 115 1645 96 
L 1645 0 
z
" transform="scale(0.015625)"/>
       <path id="STIXGeneral-Regular-74" d="M 1702 493 
L 1786 422 
Q 1478 -64 1011 -64 
Q 448 -64 448 749 
L 448 2675 
L 109 2675 
Q 83 2694 83 2720 
Q 83 2771 192 2842 
Q 435 2982 813 3526 
Q 826 3546 874 3606 
Q 922 3667 941 3706 
Q 986 3706 986 3622 
L 986 2880 
L 1632 2880 
L 1632 2675 
L 986 2675 
L 986 845 
Q 986 538 1062 403 
Q 1139 269 1318 269 
Q 1510 269 1702 493 
z
" transform="scale(0.015625)"/>
       <path id="STIXGeneral-Regular-76" d="M 3053 2880 
L 3053 2784 
Q 2906 2771 2835 2688 
Q 2765 2605 2637 2285 
L 1818 230 
Q 1690 -90 1638 -90 
Q 1587 -90 1523 77 
Q 1510 96 1497 141 
Q 1485 186 1472 211 
L 704 2048 
Q 499 2534 403 2652 
Q 307 2771 122 2784 
L 122 2880 
L 1376 2880 
L 1376 2784 
Q 1210 2771 1146 2732 
Q 1082 2694 1082 2611 
Q 1082 2509 1139 2368 
L 1792 730 
L 2426 2387 
Q 2464 2483 2464 2579 
Q 2464 2758 2163 2784 
L 2163 2880 
L 3053 2880 
z
" transform="scale(0.015625)"/>
       <path id="STIXGeneral-Regular-64" d="M 3142 269 
L 2202 -64 
L 2176 -45 
L 2176 365 
Q 1869 -64 1357 -64 
Q 826 -64 499 317 
Q 173 698 173 1312 
Q 173 1990 563 2467 
Q 954 2944 1504 2944 
Q 1850 2944 2176 2669 
L 2176 3667 
Q 2176 3866 2118 3930 
Q 2061 3994 1882 3994 
Q 1792 3994 1741 3987 
L 1741 4090 
Q 2323 4243 2682 4371 
L 2714 4358 
L 2714 730 
Q 2714 506 2768 435 
Q 2822 365 2995 365 
Q 3034 365 3142 371 
L 3142 269 
z
M 2176 653 
L 2176 2125 
Q 2176 2381 1981 2573 
Q 1786 2765 1523 2765 
Q 1158 2765 940 2438 
Q 723 2112 723 1568 
Q 723 979 963 624 
Q 1203 269 1606 269 
Q 1907 269 2080 474 
Q 2176 582 2176 653 
z
" transform="scale(0.015625)"/>
       <path id="STIXGeneral-Regular-70" d="M 1018 2931 
L 1018 2438 
Q 1421 2944 1939 2944 
Q 2406 2944 2707 2560 
Q 3008 2176 3008 1581 
Q 3008 883 2621 409 
Q 2234 -64 1664 -64 
Q 1466 -64 1328 -6 
Q 1190 51 1018 211 
L 1018 -794 
Q 1018 -1094 1120 -1180 
Q 1222 -1267 1581 -1274 
L 1581 -1389 
L 32 -1389 
L 32 -1280 
Q 314 -1254 397 -1171 
Q 480 -1088 480 -838 
L 480 2157 
Q 480 2381 429 2451 
Q 378 2522 218 2522 
Q 115 2522 58 2515 
L 58 2618 
Q 506 2752 979 2944 
L 1018 2931 
z
M 1018 2138 
L 1018 563 
Q 1018 422 1238 281 
Q 1459 141 1683 141 
Q 2029 141 2243 467 
Q 2458 794 2458 1325 
Q 2458 1888 2243 2224 
Q 2029 2560 1670 2560 
Q 1446 2560 1232 2419 
Q 1018 2278 1018 2138 
z
" transform="scale(0.015625)"/>
       <path id="STIXGeneral-Regular-68" d="M 3117 0 
L 1760 0 
L 1760 96 
Q 2042 128 2118 224 
Q 2195 320 2195 653 
L 2195 1920 
Q 2195 2598 1722 2598 
Q 1530 2598 1370 2508 
Q 1210 2419 1005 2195 
L 1005 653 
Q 1005 320 1081 224 
Q 1158 128 1440 96 
L 1440 0 
L 58 0 
L 58 96 
Q 333 134 400 224 
Q 467 314 467 653 
L 467 3667 
Q 467 3872 406 3933 
Q 346 3994 141 3994 
Q 83 3994 64 3987 
L 64 4090 
L 237 4141 
Q 730 4288 973 4371 
L 1005 4352 
L 1005 2406 
Q 1229 2694 1446 2819 
Q 1664 2944 1946 2944 
Q 2733 2944 2733 1926 
L 2733 653 
Q 2733 320 2793 233 
Q 2854 147 3117 96 
L 3117 0 
z
" transform="scale(0.015625)"/>
       <path id="STIXGeneral-Italic-3bb" d="M 2656 787 
L 2758 787 
Q 2560 -102 2112 -102 
Q 1965 -102 1869 48 
Q 1773 198 1773 499 
Q 1773 672 1789 889 
Q 1805 1107 1833 1446 
Q 1862 1786 1875 2016 
L 538 0 
L -77 0 
L 1907 2739 
Q 1933 2970 1933 3245 
Q 1933 3936 1619 3936 
Q 1530 3936 1408 3821 
Q 1286 3706 1203 3462 
L 1101 3462 
Q 1312 4339 1747 4339 
Q 1926 4339 2041 4115 
Q 2157 3891 2157 3475 
Q 2157 3040 2093 2192 
Q 2029 1344 2029 941 
Q 2029 602 2089 451 
Q 2150 301 2291 301 
Q 2483 301 2656 787 
z
" transform="scale(0.015625)"/>
      </defs>
      <use xlink:href="#STIXGeneral-Regular-52" transform="translate(0 0.703125)"/>
      <use xlink:href="#STIXGeneral-Regular-65" transform="translate(66.699997 0.703125)"/>
      <use xlink:href="#STIXGeneral-Regular-6c" transform="translate(111.099991 0.703125)"/>
      <use xlink:href="#STIXGeneral-Regular-61" transform="translate(138.899979 0.703125)"/>
      <use xlink:href="#STIXGeneral-Regular-74" transform="translate(183.299973 0.703125)"/>
      <use xlink:href="#STIXGeneral-Regular-69" transform="translate(211.09996 0.703125)"/>
      <use xlink:href="#STIXGeneral-Regular-76" transform="translate(238.899948 0.703125)"/>
      <use xlink:href="#STIXGeneral-Regular-65" transform="translate(288.899933 0.703125)"/>
      <use xlink:href="#STIXGeneral-Regular-20" transform="translate(333.299927 0.703125)"/>
      <use xlink:href="#STIXGeneral-Regular-64" transform="translate(358.299911 0.703125)"/>
      <use xlink:href="#STIXGeneral-Regular-65" transform="translate(408.299896 0.703125)"/>
      <use xlink:href="#STIXGeneral-Regular-70" transform="translate(452.69989 0.703125)"/>
      <use xlink:href="#STIXGeneral-Regular-74" transform="translate(502.699875 0.703125)"/>
      <use xlink:href="#STIXGeneral-Regular-68" transform="translate(530.499863 0.703125)"/>
      <use xlink:href="#STIXGeneral-Regular-20" transform="translate(580.499847 0.703125)"/>
      <use xlink:href="#STIXGeneral-Italic-3bb" transform="translate(605.499832 0.703125)"/>
     </g>
    </g>
   </g>
   <g id="matplotlib.axis_4">
    <g id="ytick_7">
     <g id="line2d_27">
      <g>
       <use xlink:href="#m0a829a0b84" x="36" y="384.48" style="stroke: #000000; stroke-width: 0.8"/>
      </g>
     </g>
     <g id="text_16">
      <!-- 0.0 -->
      <g transform="translate(14 388.577812) scale(0.12 -0.12)">
       <use xlink:href="#STIXGeneral-Regular-30"/>
       <use xlink:href="#STIXGeneral-Regular-2e" x="49.999985"/>
       <use xlink:href="#STIXGeneral-Regular-30" x="74.999969"/>
      </g>
     </g>
    </g>
    <g id="ytick_8">
     <g id="line2d_28">
      <g>
       <use xlink:href="#m0a829a0b84" x="36" y="354.24" style="stroke: #000000; stroke-width: 0.8"/>
      </g>
     </g>
     <g id="text_17">
      <!-- 0.2 -->
      <g transform="translate(14 358.337813) scale(0.12 -0.12)">
       <use xlink:href="#STIXGeneral-Regular-30"/>
       <use xlink:href="#STIXGeneral-Regular-2e" x="49.999985"/>
       <use xlink:href="#STIXGeneral-Regular-32" x="74.999969"/>
      </g>
     </g>
    </g>
    <g id="ytick_9">
     <g id="line2d_29">
      <g>
       <use xlink:href="#m0a829a0b84" x="36" y="324" style="stroke: #000000; stroke-width: 0.8"/>
      </g>
     </g>
     <g id="text_18">
      <!-- 0.4 -->
      <g transform="translate(14 328.097813) scale(0.12 -0.12)">
       <use xlink:href="#STIXGeneral-Regular-30"/>
       <use xlink:href="#STIXGeneral-Regular-2e" x="49.999985"/>
       <use xlink:href="#STIXGeneral-Regular-34" x="74.999969"/>
      </g>
     </g>
    </g>
    <g id="ytick_10">
     <g id="line2d_30">
      <g>
       <use xlink:href="#m0a829a0b84" x="36" y="293.76" style="stroke: #000000; stroke-width: 0.8"/>
      </g>
     </g>
     <g id="text_19">
      <!-- 0.6 -->
      <g transform="translate(14 297.857813) scale(0.12 -0.12)">
       <use xlink:href="#STIXGeneral-Regular-30"/>
       <use xlink:href="#STIXGeneral-Regular-2e" x="49.999985"/>
       <use xlink:href="#STIXGeneral-Regular-36" x="74.999969"/>
      </g>
     </g>
    </g>
    <g id="ytick_11">
     <g id="line2d_31">
      <g>
       <use xlink:href="#m0a829a0b84" x="36" y="263.52" style="stroke: #000000; stroke-width: 0.8"/>
      </g>
     </g>
     <g id="text_20">
      <!-- 0.8 -->
      <g transform="translate(14 267.617813) scale(0.12 -0.12)">
       <use xlink:href="#STIXGeneral-Regular-30"/>
       <use xlink:href="#STIXGeneral-Regular-2e" x="49.999985"/>
       <use xlink:href="#STIXGeneral-Regular-38" x="74.999969"/>
      </g>
     </g>
    </g>
    <g id="ytick_12">
     <g id="line2d_32">
      <g>
       <use xlink:href="#m0a829a0b84" x="36" y="233.28" style="stroke: #000000; stroke-width: 0.8"/>
      </g>
     </g>
     <g id="text_21">
      <!-- 1.0 -->
      <g transform="translate(14 237.377813) scale(0.12 -0.12)">
       <use xlink:href="#STIXGeneral-Regular-31"/>
       <use xlink:href="#STIXGeneral-Regular-2e" x="49.999985"/>
       <use xlink:href="#STIXGeneral-Regular-30" x="74.999969"/>
      </g>
     </g>
    </g>
   </g>
   <g id="line2d_33">
    <path d="M 56.290909 248.224648 
L 58.340496 248.269703 
L 60.390083 248.314295 
L 62.439669 248.358423 
L 64.489256 248.402089 
L 66.538843 248.445291 
L 68.58843 248.488032 
L 70.638017 248.530309 
L 72.687603 248.572125 
L 74.73719 248.613478 
L 76.786777 248.65437 
L 78.836364 248.694799 
L 80.88595 248.734767 
L 82.935537 248.774274 
L 84.985124 248.813319 
L 87.034711 248.851903 
L 89.084298 248.890026 
L 91.133884 248.927689 
L 93.183471 248.964891 
L 95.233058 249.001632 
L 97.282645 249.037913 
L 99.332231 249.073733 
L 101.381818 249.109094 
L 103.431405 249.143995 
L 105.480992 249.178436 
L 107.530579 249.212417 
L 109.580165 249.245939 
L 111.629752 249.279001 
L 113.679339 249.311604 
L 115.728926 249.343748 
L 117.778512 249.375434 
L 119.828099 249.40666 
L 121.877686 249.437427 
L 123.927273 249.467737 
L 125.97686 249.497587 
L 128.026446 249.526979 
L 130.076033 249.555913 
L 132.12562 249.584389 
L 134.175207 249.612407 
L 136.224793 249.639968 
L 138.27438 249.66707 
L 140.323967 249.693715 
L 142.373554 249.719902 
L 144.42314 249.745632 
L 146.472727 249.770904 
L 148.522314 249.795719 
L 150.571901 249.820078 
L 152.621488 249.843979 
L 154.671074 249.867423 
L 156.720661 249.89041 
L 158.770248 249.912941 
L 160.819835 249.935015 
L 162.869421 249.956632 
L 164.919008 249.977794 
L 166.968595 249.998498 
L 169.018182 250.018747 
L 171.067769 250.038539 
L 173.117355 250.057875 
L 175.166942 250.076755 
L 177.216529 250.095179 
L 179.266116 250.113147 
L 181.315702 250.130659 
L 183.365289 250.147716 
L 185.414876 250.164317 
L 187.464463 250.180462 
L 189.51405 250.196152 
L 191.563636 250.211386 
L 193.613223 250.226165 
L 195.66281 250.240488 
L 197.712397 250.254356 
L 199.761983 250.267769 
L 201.81157 250.280727 
L 203.861157 250.29323 
L 205.910744 250.305277 
L 207.960331 250.31687 
L 210.009917 250.328007 
L 212.059504 250.33869 
L 214.109091 250.348918 
L 216.158678 250.35869 
L 218.208264 250.368009 
L 220.257851 250.376872 
L 222.307438 250.38528 
L 224.357025 250.393234 
L 226.406612 250.400733 
L 228.456198 250.407778 
L 230.505785 250.414367 
L 232.555372 250.420503 
L 234.604959 250.426183 
L 236.654545 250.43141 
L 238.704132 250.436181 
L 240.753719 250.440498 
L 242.803306 250.444361 
L 244.852893 250.447769 
L 246.902479 250.450723 
L 248.952066 250.453222 
L 251.001653 250.455267 
L 253.05124 250.456857 
L 255.100826 250.457993 
L 257.150413 250.458675 
L 259.2 250.458902 
" clip-path="url(#p1011ca644b)" style="fill: none; stroke: #f8a17b; stroke-opacity: 0.7; stroke-width: 3; stroke-linecap: square"/>
   </g>
   <g id="line2d_34">
    <path d="M 36 233.28 
L 56.290909 248.224648 
" clip-path="url(#p1011ca644b)" style="fill: none; stroke: #f8a17b; stroke-opacity: 0.7; stroke-width: 3; stroke-linecap: square"/>
   </g>
   <g id="line2d_35">
    <path d="M 56.290909 269.501465 
L 58.340496 269.61065 
L 60.390083 269.718684 
L 62.439669 269.825566 
L 64.489256 269.931299 
L 66.538843 270.035883 
L 68.58843 270.139321 
L 70.638017 270.241613 
L 72.687603 270.34276 
L 74.73719 270.442764 
L 76.786777 270.541627 
L 78.836364 270.639349 
L 80.88595 270.735932 
L 82.935537 270.831376 
L 84.985124 270.925683 
L 87.034711 271.018855 
L 89.084298 271.110892 
L 91.133884 271.201795 
L 93.183471 271.291566 
L 95.233058 271.380206 
L 97.282645 271.467716 
L 99.332231 271.554097 
L 101.381818 271.639349 
L 103.431405 271.723475 
L 105.480992 271.806475 
L 107.530579 271.88835 
L 109.580165 271.969102 
L 111.629752 272.04873 
L 113.679339 272.127237 
L 115.728926 272.204623 
L 117.778512 272.280889 
L 119.828099 272.356037 
L 121.877686 272.430066 
L 123.927273 272.502978 
L 125.97686 272.574775 
L 128.026446 272.645456 
L 130.076033 272.715022 
L 132.12562 272.783476 
L 134.175207 272.850816 
L 136.224793 272.917045 
L 138.27438 272.982163 
L 140.323967 273.046171 
L 142.373554 273.10907 
L 144.42314 273.17086 
L 146.472727 273.231542 
L 148.522314 273.291118 
L 150.571901 273.349587 
L 152.621488 273.40695 
L 154.671074 273.463209 
L 156.720661 273.518364 
L 158.770248 273.572415 
L 160.819835 273.625364 
L 162.869421 273.67721 
L 164.919008 273.727955 
L 166.968595 273.777599 
L 169.018182 273.826143 
L 171.067769 273.873588 
L 173.117355 273.919933 
L 175.166942 273.965181 
L 177.216529 274.00933 
L 179.266116 274.052382 
L 181.315702 274.094337 
L 183.365289 274.135196 
L 185.414876 274.17496 
L 187.464463 274.213628 
L 189.51405 274.251202 
L 191.563636 274.287681 
L 193.613223 274.323066 
L 195.66281 274.357358 
L 197.712397 274.390558 
L 199.761983 274.422664 
L 201.81157 274.453679 
L 203.861157 274.483602 
L 205.910744 274.512433 
L 207.960331 274.540174 
L 210.009917 274.566823 
L 212.059504 274.592383 
L 214.109091 274.616853 
L 216.158678 274.640233 
L 218.208264 274.662523 
L 220.257851 274.683724 
L 222.307438 274.703837 
L 224.357025 274.722861 
L 226.406612 274.740797 
L 228.456198 274.757644 
L 230.505785 274.773404 
L 232.555372 274.788076 
L 234.604959 274.80166 
L 236.654545 274.814157 
L 238.704132 274.825567 
L 240.753719 274.835889 
L 242.803306 274.845125 
L 244.852893 274.853274 
L 246.902479 274.860336 
L 248.952066 274.866311 
L 251.001653 274.8712 
L 253.05124 274.875003 
L 255.100826 274.877719 
L 257.150413 274.879349 
L 259.2 274.879892 
" clip-path="url(#p1011ca644b)" style="fill: none; stroke: #f8a17b; stroke-opacity: 0.8; stroke-width: 3; stroke-linecap: square"/>
   </g>
   <g id="line2d_36">
    <path d="M 36 233.28 
L 56.290909 269.501465 
" clip-path="url(#p1011ca644b)" style="fill: none; stroke: #f8a17b; stroke-opacity: 0.8; stroke-width: 3; stroke-linecap: square"/>
   </g>
   <g id="line2d_37">
    <path d="M 56.290909 283.090922 
L 58.340496 283.241052 
L 60.390083 283.389558 
L 62.439669 283.536445 
L 64.489256 283.681714 
L 66.538843 283.82537 
L 68.58843 283.967414 
L 70.638017 284.10785 
L 72.687603 284.246681 
L 74.73719 284.38391 
L 76.786777 284.519539 
L 78.836364 284.653571 
L 80.88595 284.78601 
L 82.935537 284.916857 
L 84.985124 285.046116 
L 87.034711 285.173789 
L 89.084298 285.299879 
L 91.133884 285.424388 
L 93.183471 285.547319 
L 95.233058 285.668675 
L 97.282645 285.788458 
L 99.332231 285.90667 
L 101.381818 286.023314 
L 103.431405 286.138393 
L 105.480992 286.251908 
L 107.530579 286.363863 
L 109.580165 286.474259 
L 111.629752 286.583098 
L 113.679339 286.690383 
L 115.728926 286.796117 
L 117.778512 286.900301 
L 119.828099 287.002937 
L 121.877686 287.104028 
L 123.927273 287.203576 
L 125.97686 287.301583 
L 128.026446 287.39805 
L 130.076033 287.49298 
L 132.12562 287.586374 
L 134.175207 287.678236 
L 136.224793 287.768566 
L 138.27438 287.857366 
L 140.323967 287.944639 
L 142.373554 288.030385 
L 144.42314 288.114608 
L 146.472727 288.197308 
L 148.522314 288.278487 
L 150.571901 288.358147 
L 152.621488 288.43629 
L 154.671074 288.512918 
L 156.720661 288.58803 
L 158.770248 288.661631 
L 160.819835 288.73372 
L 162.869421 288.804299 
L 164.919008 288.873371 
L 166.968595 288.940935 
L 169.018182 289.006995 
L 171.067769 289.07155 
L 173.117355 289.134602 
L 175.166942 289.196154 
L 177.216529 289.256205 
L 179.266116 289.314757 
L 181.315702 289.371812 
L 183.365289 289.42737 
L 185.414876 289.481433 
L 187.464463 289.534002 
L 189.51405 289.585077 
L 191.563636 289.634661 
L 193.613223 289.682753 
L 195.66281 289.729356 
L 197.712397 289.774469 
L 199.761983 289.818095 
L 201.81157 289.860233 
L 203.861157 289.900885 
L 205.910744 289.940051 
L 207.960331 289.977732 
L 210.009917 290.01393 
L 212.059504 290.048644 
L 214.109091 290.081876 
L 216.158678 290.113626 
L 218.208264 290.143895 
L 220.257851 290.172684 
L 222.307438 290.199992 
L 224.357025 290.225822 
L 226.406612 290.250172 
L 228.456198 290.273044 
L 230.505785 290.294439 
L 232.555372 290.314356 
L 234.604959 290.332796 
L 236.654545 290.349759 
L 238.704132 290.365246 
L 240.753719 290.379257 
L 242.803306 290.391793 
L 244.852893 290.402853 
L 246.902479 290.412438 
L 248.952066 290.420548 
L 251.001653 290.427183 
L 253.05124 290.432344 
L 255.100826 290.43603 
L 257.150413 290.438242 
L 259.2 290.438979 
" clip-path="url(#p1011ca644b)" style="fill: none; stroke: #f8a17b; stroke-opacity: 0.9; stroke-width: 3; stroke-linecap: square"/>
   </g>
   <g id="line2d_38">
    <path d="M 36 233.28 
L 56.290909 283.090922 
" clip-path="url(#p1011ca644b)" style="fill: none; stroke: #f8a17b; stroke-opacity: 0.9; stroke-width: 3; stroke-linecap: square"/>
   </g>
   <g id="line2d_39">
    <path d="M 56.290909 289.19784 
L 58.340496 289.366363 
L 60.390083 289.533038 
L 62.439669 289.69787 
L 64.489256 289.860862 
L 66.538843 290.02202 
L 68.58843 290.181347 
L 70.638017 290.338846 
L 72.687603 290.494524 
L 74.73719 290.648382 
L 76.786777 290.800425 
L 78.836364 290.950658 
L 80.88595 291.099083 
L 82.935537 291.245704 
L 84.985124 291.390526 
L 87.034711 291.533553 
L 89.084298 291.674786 
L 91.133884 291.814231 
L 93.183471 291.951891 
L 95.233058 292.087769 
L 97.282645 292.221869 
L 99.332231 292.354194 
L 101.381818 292.484748 
L 103.431405 292.613534 
L 105.480992 292.740555 
L 107.530579 292.865814 
L 109.580165 292.989315 
L 111.629752 293.111061 
L 113.679339 293.231055 
L 115.728926 293.3493 
L 117.778512 293.465798 
L 119.828099 293.580554 
L 121.877686 293.69357 
L 123.927273 293.804848 
L 125.97686 293.914392 
L 128.026446 294.022204 
L 130.076033 294.128288 
L 132.12562 294.232645 
L 134.175207 294.335279 
L 136.224793 294.436192 
L 138.27438 294.535386 
L 140.323967 294.632865 
L 142.373554 294.728631 
L 144.42314 294.822686 
L 146.472727 294.915032 
L 148.522314 295.005672 
L 150.571901 295.094609 
L 152.621488 295.181844 
L 154.671074 295.26738 
L 156.720661 295.351218 
L 158.770248 295.433362 
L 160.819835 295.513813 
L 162.869421 295.592573 
L 164.919008 295.669644 
L 166.968595 295.745029 
L 169.018182 295.818728 
L 171.067769 295.890745 
L 173.117355 295.96108 
L 175.166942 296.029736 
L 177.216529 296.096714 
L 179.266116 296.162016 
L 181.315702 296.225644 
L 183.365289 296.2876 
L 185.414876 296.347884 
L 187.464463 296.406499 
L 189.51405 296.463446 
L 191.563636 296.518726 
L 193.613223 296.572341 
L 195.66281 296.624292 
L 197.712397 296.674581 
L 199.761983 296.723208 
L 201.81157 296.770176 
L 203.861157 296.815485 
L 205.910744 296.859136 
L 207.960331 296.90113 
L 210.009917 296.94147 
L 212.059504 296.980155 
L 214.109091 297.017186 
L 216.158678 297.052565 
L 218.208264 297.086293 
L 220.257851 297.11837 
L 222.307438 297.148796 
L 224.357025 297.177574 
L 226.406612 297.204704 
L 228.456198 297.230186 
L 230.505785 297.25402 
L 232.555372 297.276209 
L 234.604959 297.296751 
L 236.654545 297.315648 
L 238.704132 297.332901 
L 240.753719 297.348508 
L 242.803306 297.362472 
L 244.852893 297.374793 
L 246.902479 297.38547 
L 248.952066 297.394503 
L 251.001653 297.401894 
L 253.05124 297.407643 
L 255.100826 297.411749 
L 257.150413 297.414212 
L 259.2 297.415033 
" clip-path="url(#p1011ca644b)" style="fill: none; stroke: #f8a17b; stroke-width: 3; stroke-linecap: square"/>
   </g>
   <g id="line2d_40">
    <path d="M 36 233.28 
L 56.290909 289.19784 
" clip-path="url(#p1011ca644b)" style="fill: none; stroke: #f8a17b; stroke-width: 3; stroke-linecap: square"/>
   </g>
   <g id="patch_9">
    <path d="M 36 384.48 
L 36 233.28 
" style="fill: none; stroke: #000000; stroke-width: 0.8; stroke-linejoin: miter; stroke-linecap: square"/>
   </g>
   <g id="patch_10">
    <path d="M 259.2 384.48 
L 259.2 233.28 
" style="fill: none; stroke: #000000; stroke-width: 0.8; stroke-linejoin: miter; stroke-linecap: square"/>
   </g>
   <g id="patch_11">
    <path d="M 36 384.48 
L 259.2 384.48 
" style="fill: none; stroke: #000000; stroke-width: 0.8; stroke-linejoin: miter; stroke-linecap: square"/>
   </g>
   <g id="patch_12">
    <path d="M 36 233.28 
L 259.2 233.28 
" style="fill: none; stroke: #000000; stroke-width: 0.8; stroke-linejoin: miter; stroke-linecap: square"/>
   </g>
   <g id="text_22">
    <!-- Increasing $\tau$ -->
    <g transform="translate(137.454545 331.56) scale(0.18 -0.18)">
     <defs>
      <path id="STIXGeneral-Italic-3c4" d="M 2726 2739 
L 2592 2266 
L 1741 2266 
Q 1293 1248 1293 742 
Q 1293 416 1523 416 
Q 1638 416 1779 547 
Q 1920 678 2003 858 
L 2106 858 
Q 1990 467 1731 198 
Q 1472 -70 1178 -70 
Q 768 -70 768 384 
Q 768 890 1395 2266 
L 1005 2266 
Q 493 2266 179 1702 
L 77 1702 
Q 237 2093 569 2416 
Q 902 2739 1331 2739 
L 2726 2739 
z
" transform="scale(0.015625)"/>
     </defs>
     <use xlink:href="#STIXGeneral-Regular-49" transform="translate(0 0.703125)"/>
     <use xlink:href="#STIXGeneral-Regular-6e" transform="translate(33.299988 0.703125)"/>
     <use xlink:href="#STIXGeneral-Regular-63" transform="translate(83.299973 0.703125)"/>
     <use xlink:href="#STIXGeneral-Regular-72" transform="translate(127.699966 0.703125)"/>
     <use xlink:href="#STIXGeneral-Regular-65" transform="translate(160.999954 0.703125)"/>
     <use xlink:href="#STIXGeneral-Regular-61" transform="translate(205.399948 0.703125)"/>
     <use xlink:href="#STIXGeneral-Regular-73" transform="translate(249.799942 0.703125)"/>
     <use xlink:href="#STIXGeneral-Regular-69" transform="translate(288.699936 0.703125)"/>
     <use xlink:href="#STIXGeneral-Regular-6e" transform="translate(316.499924 0.703125)"/>
     <use xlink:href="#STIXGeneral-Regular-67" transform="translate(366.499908 0.703125)"/>
     <use xlink:href="#STIXGeneral-Regular-20" transform="translate(416.499893 0.703125)"/>
     <use xlink:href="#STIXGeneral-Italic-3c4" transform="translate(441.499878 0.703125)"/>
    </g>
   </g>
   <g id="patch_13">
    <path d="M 129.309091 322.636764 
Q 129.309091 331.607589 129.309091 340.578414 
L 133.309091 340.578414 
Q 130.309091 346.577847 127.309091 352.577281 
Q 124.309091 346.577847 121.309091 340.578414 
L 125.309091 340.578414 
Q 125.309091 331.607589 125.309091 322.636764 
L 129.309091 322.636764 
z
" style="fill: #eacebd; stroke: #000000; stroke-linecap: round"/>
   </g>
   <g id="text_23">
    <!-- Absorption limited -->
    <g transform="translate(82.93 227.28) scale(0.16 -0.16)">
     <defs>
      <path id="STIXGeneral-Bold-41" d="M 4410 0 
L 2349 0 
L 2349 160 
L 2554 179 
Q 2714 192 2781 240 
Q 2848 288 2848 390 
Q 2848 576 2554 1261 
L 1114 1261 
L 1030 1043 
Q 832 531 832 422 
Q 832 301 950 240 
Q 1069 179 1350 160 
L 1350 0 
L 58 0 
L 58 160 
Q 282 198 397 339 
Q 512 480 691 928 
L 2106 4416 
L 2285 4416 
L 3706 1075 
Q 3949 499 4080 329 
Q 4211 160 4410 160 
L 4410 0 
z
M 2458 1510 
L 1811 3066 
L 1210 1510 
L 2458 1510 
z
" transform="scale(0.015625)"/>
      <path id="STIXGeneral-Bold-62" d="M 1350 4326 
L 1350 2669 
Q 1690 3027 2131 3027 
Q 2662 3027 2998 2611 
Q 3334 2195 3334 1530 
Q 3334 806 2931 358 
Q 2528 -90 1888 -90 
Q 1440 -90 1043 275 
L 538 -83 
L 461 -83 
L 461 3802 
Q 461 3994 397 4061 
Q 333 4128 109 4173 
L 109 4326 
L 1350 4326 
z
M 1350 2304 
L 1350 621 
Q 1350 390 1472 252 
Q 1594 115 1792 115 
Q 2394 115 2394 1414 
Q 2394 2682 1798 2682 
Q 1638 2682 1536 2595 
Q 1434 2509 1350 2304 
z
" transform="scale(0.015625)"/>
      <path id="STIXGeneral-Bold-73" d="M 2176 2086 
L 2016 2086 
Q 1894 2445 1715 2611 
Q 1498 2816 1235 2816 
Q 1056 2816 934 2710 
Q 813 2605 813 2445 
Q 813 2278 957 2147 
Q 1101 2016 1427 1882 
Q 1907 1683 2108 1452 
Q 2310 1222 2310 883 
Q 2310 454 2035 182 
Q 1760 -90 1325 -90 
Q 992 -90 634 58 
Q 538 96 486 96 
Q 416 96 320 -83 
L 160 -83 
L 160 973 
L 339 973 
Q 544 128 1216 128 
Q 1434 128 1565 243 
Q 1696 358 1696 544 
Q 1696 698 1555 829 
Q 1414 960 1082 1101 
Q 602 1306 387 1539 
Q 173 1773 173 2093 
Q 173 2496 457 2761 
Q 742 3027 1178 3027 
Q 1395 3027 1677 2931 
Q 1818 2886 1875 2886 
Q 1984 2886 2035 3014 
L 2176 3014 
L 2176 2086 
z
" transform="scale(0.015625)"/>
      <path id="STIXGeneral-Bold-72" d="M 1395 2950 
L 1395 2426 
Q 1619 2752 1817 2889 
Q 2016 3027 2259 3027 
Q 2483 3027 2630 2883 
Q 2778 2739 2778 2522 
Q 2778 2330 2666 2208 
Q 2554 2086 2374 2086 
Q 2138 2086 1990 2330 
Q 1901 2477 1811 2477 
Q 1645 2477 1533 2285 
Q 1421 2093 1421 1811 
L 1421 678 
Q 1421 371 1507 272 
Q 1594 173 1882 154 
L 1882 0 
L 186 0 
L 186 154 
Q 397 192 464 265 
Q 531 339 531 538 
L 531 2387 
Q 531 2611 460 2688 
Q 390 2765 179 2797 
L 179 2950 
L 1395 2950 
z
" transform="scale(0.015625)"/>
      <path id="STIXGeneral-Bold-70" d="M 1357 2950 
L 1357 2509 
Q 1517 2790 1712 2908 
Q 1907 3027 2195 3027 
Q 2739 3027 3046 2659 
Q 3354 2291 3354 1594 
Q 3354 838 3024 377 
Q 2694 -83 2125 -83 
Q 1907 -83 1753 -3 
Q 1600 77 1370 301 
L 1370 -506 
Q 1370 -838 1475 -992 
Q 1581 -1146 1862 -1158 
L 1862 -1312 
L 122 -1312 
L 122 -1158 
Q 346 -1120 413 -1040 
Q 480 -960 480 -755 
L 480 2381 
Q 480 2592 409 2678 
Q 339 2765 128 2797 
L 128 2950 
L 1357 2950 
z
M 1370 2214 
L 1370 685 
Q 1446 499 1577 384 
Q 1709 269 1862 269 
Q 2406 269 2406 1498 
Q 2406 2662 1920 2662 
Q 1683 2662 1485 2426 
Q 1370 2291 1370 2214 
z
" transform="scale(0.015625)"/>
      <path id="STIXGeneral-Bold-6e" d="M 3450 0 
L 1952 0 
L 1952 154 
Q 2112 173 2179 259 
Q 2246 346 2246 538 
L 2246 2054 
Q 2246 2598 1920 2598 
Q 1690 2598 1472 2381 
Q 1363 2272 1363 2227 
L 1363 538 
Q 1363 352 1430 265 
Q 1498 179 1670 154 
L 1670 0 
L 134 0 
L 134 154 
Q 346 198 410 275 
Q 474 352 474 557 
L 474 2406 
Q 474 2611 410 2688 
Q 346 2765 134 2797 
L 134 2950 
L 1357 2950 
L 1357 2470 
L 1363 2470 
Q 1677 3027 2272 3027 
Q 2669 3027 2902 2780 
Q 3136 2534 3136 2118 
L 3136 538 
Q 3136 320 3200 243 
Q 3264 166 3450 154 
L 3450 0 
z
" transform="scale(0.015625)"/>
     </defs>
     <use xlink:href="#STIXGeneral-Bold-41"/>
     <use xlink:href="#STIXGeneral-Bold-62" x="72.199982"/>
     <use xlink:href="#STIXGeneral-Bold-73" x="127.799973"/>
     <use xlink:href="#STIXGeneral-Bold-6f" x="166.699966"/>
     <use xlink:href="#STIXGeneral-Bold-72" x="216.699951"/>
     <use xlink:href="#STIXGeneral-Bold-70" x="261.099945"/>
     <use xlink:href="#STIXGeneral-Bold-74" x="316.699936"/>
     <use xlink:href="#STIXGeneral-Bold-69" x="349.999924"/>
     <use xlink:href="#STIXGeneral-Bold-6f" x="377.799911"/>
     <use xlink:href="#STIXGeneral-Bold-6e" x="427.799896"/>
     <use xlink:href="#STIXGeneral-Bold-20" x="483.399887"/>
     <use xlink:href="#STIXGeneral-Bold-6c" x="508.399872"/>
     <use xlink:href="#STIXGeneral-Bold-69" x="536.19986"/>
     <use xlink:href="#STIXGeneral-Bold-6d" x="563.999847"/>
     <use xlink:href="#STIXGeneral-Bold-69" x="647.299835"/>
     <use xlink:href="#STIXGeneral-Bold-74" x="675.099823"/>
     <use xlink:href="#STIXGeneral-Bold-65" x="708.399811"/>
     <use xlink:href="#STIXGeneral-Bold-64" x="752.799805"/>
    </g>
   </g>
  </g>
  <g id="text_24">
   <!-- Relative concentration $\chi(\lambda)$ -->
   <g transform="translate(0.773438 313.74) rotate(-90) scale(0.18 -0.18)">
    <defs>
     <path id="STIXGeneral-Regular-6f" d="M 3008 1478 
Q 3008 806 2608 371 
Q 2208 -64 1568 -64 
Q 979 -64 582 368 
Q 186 800 186 1459 
Q 186 2125 582 2534 
Q 979 2944 1626 2944 
Q 2221 2944 2614 2537 
Q 3008 2131 3008 1478 
z
M 2432 1306 
Q 2432 2035 2112 2445 
Q 1856 2765 1504 2765 
Q 1171 2765 966 2493 
Q 762 2221 762 1747 
Q 762 928 1101 435 
Q 1318 115 1677 115 
Q 2029 115 2230 432 
Q 2432 749 2432 1306 
z
" transform="scale(0.015625)"/>
     <path id="STIXGeneral-Italic-3c7" d="M 3187 2739 
L 1363 480 
Q 1357 314 1357 38 
Q 1357 -531 1424 -726 
Q 1491 -922 1645 -922 
Q 1722 -922 1824 -803 
Q 1926 -685 2010 -448 
L 2112 -448 
Q 1939 -1325 1517 -1325 
Q 1312 -1325 1213 -1091 
Q 1114 -858 1114 -506 
Q 1114 -32 1165 288 
L -96 -1274 
L -691 -1274 
L 1146 934 
L 1146 1504 
Q 1146 1990 1085 2204 
Q 1024 2419 858 2419 
Q 774 2419 662 2307 
Q 550 2195 467 1952 
L 365 1952 
Q 416 2144 461 2272 
Q 506 2400 579 2541 
Q 653 2682 755 2752 
Q 858 2822 992 2822 
Q 1178 2822 1270 2617 
Q 1363 2413 1363 1901 
Q 1363 1882 1360 1818 
Q 1357 1754 1350 1571 
Q 1344 1389 1338 1114 
L 2592 2739 
L 3187 2739 
z
" transform="scale(0.015625)"/>
     <path id="STIXGeneral-Regular-28" d="M 1946 -1030 
L 1869 -1133 
Q 1126 -710 716 32 
Q 307 774 307 1613 
Q 307 3386 1888 4326 
L 1946 4224 
Q 1293 3667 1075 3126 
Q 858 2586 858 1632 
Q 858 685 1082 96 
Q 1306 -493 1946 -1030 
z
" transform="scale(0.015625)"/>
     <path id="STIXGeneral-Regular-29" d="M 186 4224 
L 262 4326 
Q 992 3891 1408 3148 
Q 1824 2406 1824 1581 
Q 1824 -166 243 -1133 
L 186 -1030 
Q 845 -486 1059 54 
Q 1274 595 1274 1562 
Q 1274 2534 1059 3120 
Q 845 3706 186 4224 
z
" transform="scale(0.015625)"/>
    </defs>
    <use xlink:href="#STIXGeneral-Regular-52" transform="translate(0 0.703125)"/>
    <use xlink:href="#STIXGeneral-Regular-65" transform="translate(66.699997 0.703125)"/>
    <use xlink:href="#STIXGeneral-Regular-6c" transform="translate(111.099991 0.703125)"/>
    <use xlink:href="#STIXGeneral-Regular-61" transform="translate(138.899979 0.703125)"/>
    <use xlink:href="#STIXGeneral-Regular-74" transform="translate(183.299973 0.703125)"/>
    <use xlink:href="#STIXGeneral-Regular-69" transform="translate(211.09996 0.703125)"/>
    <use xlink:href="#STIXGeneral-Regular-76" transform="translate(238.899948 0.703125)"/>
    <use xlink:href="#STIXGeneral-Regular-65" transform="translate(288.899933 0.703125)"/>
    <use xlink:href="#STIXGeneral-Regular-20" transform="translate(333.299927 0.703125)"/>
    <use xlink:href="#STIXGeneral-Regular-63" transform="translate(358.299911 0.703125)"/>
    <use xlink:href="#STIXGeneral-Regular-6f" transform="translate(402.699905 0.703125)"/>
    <use xlink:href="#STIXGeneral-Regular-6e" transform="translate(452.69989 0.703125)"/>
    <use xlink:href="#STIXGeneral-Regular-63" transform="translate(502.699875 0.703125)"/>
    <use xlink:href="#STIXGeneral-Regular-65" transform="translate(547.099869 0.703125)"/>
    <use xlink:href="#STIXGeneral-Regular-6e" transform="translate(591.499863 0.703125)"/>
    <use xlink:href="#STIXGeneral-Regular-74" transform="translate(641.499847 0.703125)"/>
    <use xlink:href="#STIXGeneral-Regular-72" transform="translate(669.299835 0.703125)"/>
    <use xlink:href="#STIXGeneral-Regular-61" transform="translate(702.599823 0.703125)"/>
    <use xlink:href="#STIXGeneral-Regular-74" transform="translate(746.999817 0.703125)"/>
    <use xlink:href="#STIXGeneral-Regular-69" transform="translate(774.799805 0.703125)"/>
    <use xlink:href="#STIXGeneral-Regular-6f" transform="translate(802.599792 0.703125)"/>
    <use xlink:href="#STIXGeneral-Regular-6e" transform="translate(852.599777 0.703125)"/>
    <use xlink:href="#STIXGeneral-Regular-20" transform="translate(902.599762 0.703125)"/>
    <use xlink:href="#STIXGeneral-Italic-3c7" transform="translate(927.599747 0.703125)"/>
    <use xlink:href="#STIXGeneral-Regular-28" transform="translate(973.299744 0.703125)"/>
    <use xlink:href="#STIXGeneral-Italic-3bb" transform="translate(1006.599731 0.703125)"/>
    <use xlink:href="#STIXGeneral-Regular-29" transform="translate(1052.399719 0.703125)"/>
   </g>
  </g>
 </g>
 <defs>
  <clipPath id="p07ab544525">
   <rect x="36" y="51.84" width="223.2" height="151.2"/>
  </clipPath>
  <clipPath id="p1011ca644b">
   <rect x="36" y="233.28" width="223.2" height="151.2"/>
  </clipPath>
 </defs>
</svg>
