<?xml version="1.0" encoding="utf-8" standalone="no"?>
<!DOCTYPE svg PUBLIC "-//W3C//DTD SVG 1.1//EN"
  "http://www.w3.org/Graphics/SVG/1.1/DTD/svg11.dtd">
<svg xmlns:xlink="http://www.w3.org/1999/xlink" width="720pt" height="576pt" viewBox="0 0 720 576" xmlns="http://www.w3.org/2000/svg" version="1.1">
 <metadata>
  <rdf:RDF xmlns:dc="http://purl.org/dc/elements/1.1/" xmlns:cc="http://creativecommons.org/ns#" xmlns:rdf="http://www.w3.org/1999/02/22-rdf-syntax-ns#">
   <cc:Work>
    <dc:type rdf:resource="http://purl.org/dc/dcmitype/StillImage"/>
    <dc:date>2026-03-10T14:55:31.207713</dc:date>
    <dc:format>image/svg+xml</dc:format>
    <dc:creator>
     <cc:Agent>
      <dc:title>Matplotlib v3.10.7, https://matplotlib.org/</dc:title>
     </cc:Agent>
    </dc:creator>
   </cc:Work>
  </rdf:RDF>
 </metadata>
 <defs>
  <style type="text/css">*{stroke-linejoin: round; stroke-linecap: butt}</style>
 </defs>
 <g id="figure_1">
  <g id="patch_1">
   <path d="M 0 576 
L 720 576 
L 720 0 
L 0 0 
z
" style="fill: #ffffff"/>
  </g>
  <g id="axes_1">
   <g id="patch_2">
    <path d="M 90 512.64 
L 648 512.64 
L 648 69.12 
L 90 69.12 
z
" style="fill: #ffffff"/>
   </g>
   <g id="FillBetweenPolyCollection_1">
    <path d="M 90 512.64 
L 90 734.401605 
L 91.398496 732.178523 
L 92.796992 729.955445 
L 94.195489 727.73237 
L 95.593985 725.509299 
L 96.992481 723.286232 
L 98.390977 721.06317 
L 99.789474 718.840112 
L 101.18797 716.617059 
L 102.586466 714.394011 
L 103.984962 712.170968 
L 105.383459 709.94793 
L 106.781955 707.724898 
L 108.180451 705.501873 
L 109.578947 703.278853 
L 110.977444 701.05584 
L 112.37594 698.832833 
L 113.774436 696.609834 
L 115.172932 694.386843 
L 116.571429 692.163859 
L 117.969925 689.940883 
L 119.368421 687.717916 
L 120.766917 685.494958 
L 122.165414 683.27201 
L 123.56391 681.049071 
L 124.962406 678.826143 
L 126.360902 676.603225 
L 127.759398 674.380319 
L 129.157895 672.157425 
L 130.556391 669.934544 
L 131.954887 667.711675 
L 133.353383 665.48882 
L 134.75188 663.265979 
L 136.150376 661.043154 
L 137.548872 658.820344 
L 138.947368 656.59755 
L 140.345865 654.374774 
L 141.744361 652.152015 
L 143.142857 649.929276 
L 144.541353 647.706556 
L 145.93985 645.483857 
L 147.338346 643.26118 
L 148.736842 641.038526 
L 150.135338 638.815895 
L 151.533835 636.593289 
L 152.932331 634.370709 
L 154.330827 632.148156 
L 155.729323 629.925632 
L 157.12782 627.703138 
L 158.526316 625.480676 
L 159.924812 623.258246 
L 161.323308 621.03585 
L 162.721805 618.813491 
L 164.120301 616.591169 
L 165.518797 614.368887 
L 166.917293 612.146646 
L 168.315789 609.924449 
L 169.714286 607.702296 
L 171.112782 605.480192 
L 172.511278 603.258136 
L 173.909774 601.036134 
L 175.308271 598.814185 
L 176.706767 596.592294 
L 178.105263 594.370462 
L 179.503759 592.148693 
L 180.902256 589.92699 
L 182.300752 587.705355 
L 183.699248 585.483792 
L 185.097744 583.262305 
L 186.496241 581.040896 
L 187.894737 578.81957 
L 189.293233 576.59833 
L 190.691729 574.377181 
L 192.090226 572.156127 
L 193.488722 569.935172 
L 194.887218 567.71432 
L 196.285714 565.493578 
L 197.684211 563.27295 
L 199.082707 561.052441 
L 200.481203 558.832056 
L 201.879699 556.611803 
L 203.278195 554.391687 
L 204.676692 552.171714 
L 206.075188 549.951891 
L 207.473684 547.732225 
L 208.87218 545.512724 
L 210.270677 543.293396 
L 211.669173 541.074248 
L 213.067669 538.855289 
L 214.466165 536.636527 
L 215.864662 534.417973 
L 217.263158 532.199636 
L 218.661654 529.981526 
L 220.06015 527.763653 
L 221.458647 525.54603 
L 222.857143 523.328666 
L 224.255639 521.111576 
L 225.654135 518.894771 
L 227.052632 516.678265 
L 228.451128 514.462072 
L 229.849624 512.246207 
L 231.24812 510.030684 
L 232.646617 507.815521 
L 234.045113 505.600733 
L 235.443609 503.386338 
L 236.842105 501.172356 
L 238.240602 498.958804 
L 239.639098 496.745703 
L 241.037594 494.533074 
L 242.43609 492.320939 
L 243.834586 490.109321 
L 245.233083 487.898244 
L 246.631579 485.687734 
L 248.030075 483.477816 
L 249.428571 481.268518 
L 250.827068 479.059869 
L 252.225564 476.851899 
L 253.62406 474.644639 
L 255.022556 472.438123 
L 256.421053 470.232385 
L 257.819549 468.02746 
L 259.218045 465.823386 
L 260.616541 463.620202 
L 262.015038 461.41795 
L 263.413534 459.216672 
L 264.81203 457.016413 
L 266.210526 454.817219 
L 267.609023 452.61914 
L 269.007519 450.422226 
L 270.406015 448.22653 
L 271.804511 446.032109 
L 273.203008 443.839019 
L 274.601504 441.647322 
L 276 439.45708 
L 277.398496 437.26836 
L 278.796992 435.08123 
L 280.195489 432.895762 
L 281.593985 430.71203 
L 282.992481 428.530112 
L 284.390977 426.35009 
L 285.789474 424.172047 
L 287.18797 421.996073 
L 288.586466 419.822258 
L 289.984962 417.650698 
L 291.383459 415.481493 
L 292.781955 413.314746 
L 294.180451 411.150565 
L 295.578947 408.989061 
L 296.977444 406.830352 
L 298.37594 404.674557 
L 299.774436 402.521802 
L 301.172932 400.372219 
L 302.571429 398.225942 
L 303.969925 396.083112 
L 305.368421 393.943874 
L 306.766917 391.808381 
L 308.165414 389.676788 
L 309.56391 387.549258 
L 310.962406 385.425958 
L 312.360902 383.307063 
L 313.759398 381.192752 
L 315.157895 379.08321 
L 316.556391 376.97863 
L 317.954887 374.879209 
L 319.353383 372.785152 
L 320.75188 370.696668 
L 322.150376 368.613974 
L 323.548872 366.537294 
L 324.947368 364.466856 
L 326.345865 362.402895 
L 327.744361 360.345653 
L 329.142857 358.295378 
L 330.541353 356.252324 
L 331.93985 354.216749 
L 333.338346 352.188919 
L 334.736842 350.169104 
L 336.135338 348.157581 
L 337.533835 346.15463 
L 338.932331 344.160536 
L 340.330827 342.17559 
L 341.729323 340.200085 
L 343.12782 338.234317 
L 344.526316 336.278588 
L 345.924812 334.3332 
L 347.323308 332.398457 
L 348.721805 330.474665 
L 350.120301 328.562129 
L 351.518797 326.661156 
L 352.917293 324.772051 
L 354.315789 322.895117 
L 355.714286 321.030655 
L 357.112782 319.17896 
L 358.511278 317.340326 
L 359.909774 315.515038 
L 361.308271 313.703378 
L 362.706767 311.905615 
L 364.105263 310.122015 
L 365.503759 308.35283 
L 366.902256 306.598301 
L 368.300752 304.858658 
L 369.699248 303.134117 
L 371.097744 301.424879 
L 372.496241 299.731129 
L 373.894737 298.053034 
L 375.293233 296.390744 
L 376.691729 294.74439 
L 378.090226 293.11408 
L 379.488722 291.499904 
L 380.887218 289.901927 
L 382.285714 288.320192 
L 383.684211 286.754717 
L 385.082707 285.205498 
L 386.481203 283.672502 
L 387.879699 282.155674 
L 389.278195 280.65493 
L 390.676692 279.170163 
L 392.075188 277.701236 
L 393.473684 276.24799 
L 394.87218 274.810238 
L 396.270677 273.387767 
L 397.669173 271.98034 
L 399.067669 270.587696 
L 400.466165 269.20955 
L 401.864662 267.845594 
L 403.263158 266.495502 
L 404.661654 265.158922 
L 406.06015 263.83549 
L 407.458647 262.524819 
L 408.857143 261.226511 
L 410.255639 259.94015 
L 411.654135 258.66531 
L 413.052632 257.401555 
L 414.451128 256.148441 
L 415.849624 254.905514 
L 417.24812 253.672319 
L 418.646617 252.448397 
L 420.045113 251.233288 
L 421.443609 250.026533 
L 422.842105 248.827677 
L 424.240602 247.636268 
L 425.639098 246.451862 
L 427.037594 245.274023 
L 428.43609 244.102324 
L 429.834586 242.936348 
L 431.233083 241.775692 
L 432.631579 240.619965 
L 434.030075 239.468793 
L 435.428571 238.321813 
L 436.827068 237.178683 
L 438.225564 236.039073 
L 439.62406 234.902674 
L 441.022556 233.769191 
L 442.421053 232.638348 
L 443.819549 231.509888 
L 445.218045 230.383568 
L 446.616541 229.259166 
L 448.015038 228.136474 
L 449.413534 227.0153 
L 450.81203 225.895472 
L 452.210526 224.776827 
L 453.609023 223.659223 
L 455.007519 222.542527 
L 456.406015 221.426622 
L 457.804511 220.311401 
L 459.203008 219.19677 
L 460.601504 218.082646 
L 462 216.968954 
L 463.398496 215.85563 
L 464.796992 214.742617 
L 466.195489 213.629865 
L 467.593985 212.517332 
L 468.992481 211.404981 
L 470.390977 210.292781 
L 471.789474 209.180705 
L 473.18797 208.068731 
L 474.586466 206.956839 
L 475.984962 205.845014 
L 477.383459 204.733243 
L 478.781955 203.621515 
L 480.180451 202.509821 
L 481.578947 201.398154 
L 482.977444 200.286508 
L 484.37594 199.174878 
L 485.774436 198.063261 
L 487.172932 196.951654 
L 488.571429 195.840054 
L 489.969925 194.72846 
L 491.368421 193.616869 
L 492.766917 192.505282 
L 494.165414 191.393698 
L 495.56391 190.282115 
L 496.962406 189.170533 
L 498.360902 188.058952 
L 499.759398 186.947371 
L 501.157895 185.835791 
L 502.556391 184.724212 
L 503.954887 183.612632 
L 505.353383 182.501053 
L 506.75188 181.389474 
L 508.150376 180.277895 
L 509.548872 179.166316 
L 510.947368 178.054737 
L 512.345865 176.943158 
L 513.744361 175.831579 
L 515.142857 174.72 
L 516.541353 173.608421 
L 517.93985 172.496842 
L 519.338346 171.385263 
L 520.736842 170.273684 
L 522.135338 169.162105 
L 523.533835 168.050526 
L 524.932331 166.938947 
L 526.330827 165.827368 
L 527.729323 164.715789 
L 529.12782 163.604211 
L 530.526316 162.492632 
L 531.924812 161.381053 
L 533.323308 160.269474 
L 534.721805 159.157895 
L 536.120301 158.046316 
L 537.518797 156.934737 
L 538.917293 155.823158 
L 540.315789 154.711579 
L 541.714286 153.6 
L 543.112782 152.488421 
L 544.511278 151.376842 
L 545.909774 150.265263 
L 547.308271 149.153684 
L 548.706767 148.042105 
L 550.105263 146.930526 
L 551.503759 145.818947 
L 552.902256 144.707368 
L 554.300752 143.595789 
L 555.699248 142.484211 
L 557.097744 141.372632 
L 558.496241 140.261053 
L 559.894737 139.149474 
L 561.293233 138.037895 
L 562.691729 136.926316 
L 564.090226 135.814737 
L 565.488722 134.703158 
L 566.887218 133.591579 
L 568.285714 132.48 
L 569.684211 131.368421 
L 571.082707 130.256842 
L 572.481203 129.145263 
L 573.879699 128.033684 
L 575.278195 126.922105 
L 576.676692 125.810526 
L 578.075188 124.698947 
L 579.473684 123.587368 
L 580.87218 122.475789 
L 582.270677 121.364211 
L 583.669173 120.252632 
L 585.067669 119.141053 
L 586.466165 118.029474 
L 587.864662 116.917895 
L 589.263158 115.806316 
L 590.661654 114.694737 
L 592.06015 113.583158 
L 593.458647 112.471579 
L 594.857143 111.36 
L 596.255639 110.248421 
L 597.654135 109.136842 
L 599.052632 108.025263 
L 600.451128 106.913684 
L 601.849624 105.802105 
L 603.24812 104.690526 
L 604.646617 103.578947 
L 606.045113 102.467368 
L 607.443609 101.355789 
L 608.842105 100.244211 
L 610.240602 99.132632 
L 611.639098 98.021053 
L 613.037594 96.909474 
L 614.43609 95.797895 
L 615.834586 94.686316 
L 617.233083 93.574737 
L 618.631579 92.463158 
L 620.030075 91.351579 
L 621.428571 90.24 
L 622.827068 89.128421 
L 624.225564 88.016842 
L 625.62406 86.905263 
L 627.022556 85.793684 
L 628.421053 84.682105 
L 629.819549 83.570526 
L 631.218045 82.458947 
L 632.616541 81.347368 
L 634.015038 80.235789 
L 635.413534 79.124211 
L 636.81203 78.012632 
L 638.210526 76.901053 
L 639.609023 75.789474 
L 641.007519 74.677895 
L 642.406015 73.566316 
L 643.804511 72.454737 
L 645.203008 71.343158 
L 646.601504 70.231579 
L 648 69.12 
L 648 512.64 
L 648 512.64 
L 646.601504 512.64 
L 645.203008 512.64 
L 643.804511 512.64 
L 642.406015 512.64 
L 641.007519 512.64 
L 639.609023 512.64 
L 638.210526 512.64 
L 636.81203 512.64 
L 635.413534 512.64 
L 634.015038 512.64 
L 632.616541 512.64 
L 631.218045 512.64 
L 629.819549 512.64 
L 628.421053 512.64 
L 627.022556 512.64 
L 625.62406 512.64 
L 624.225564 512.64 
L 622.827068 512.64 
L 621.428571 512.64 
L 620.030075 512.64 
L 618.631579 512.64 
L 617.233083 512.64 
L 615.834586 512.64 
L 614.43609 512.64 
L 613.037594 512.64 
L 611.639098 512.64 
L 610.240602 512.64 
L 608.842105 512.64 
L 607.443609 512.64 
L 606.045113 512.64 
L 604.646617 512.64 
L 603.24812 512.64 
L 601.849624 512.64 
L 600.451128 512.64 
L 599.052632 512.64 
L 597.654135 512.64 
L 596.255639 512.64 
L 594.857143 512.64 
L 593.458647 512.64 
L 592.06015 512.64 
L 590.661654 512.64 
L 589.263158 512.64 
L 587.864662 512.64 
L 586.466165 512.64 
L 585.067669 512.64 
L 583.669173 512.64 
L 582.270677 512.64 
L 580.87218 512.64 
L 579.473684 512.64 
L 578.075188 512.64 
L 576.676692 512.64 
L 575.278195 512.64 
L 573.879699 512.64 
L 572.481203 512.64 
L 571.082707 512.64 
L 569.684211 512.64 
L 568.285714 512.64 
L 566.887218 512.64 
L 565.488722 512.64 
L 564.090226 512.64 
L 562.691729 512.64 
L 561.293233 512.64 
L 559.894737 512.64 
L 558.496241 512.64 
L 557.097744 512.64 
L 555.699248 512.64 
L 554.300752 512.64 
L 552.902256 512.64 
L 551.503759 512.64 
L 550.105263 512.64 
L 548.706767 512.64 
L 547.308271 512.64 
L 545.909774 512.64 
L 544.511278 512.64 
L 543.112782 512.64 
L 541.714286 512.64 
L 540.315789 512.64 
L 538.917293 512.64 
L 537.518797 512.64 
L 536.120301 512.64 
L 534.721805 512.64 
L 533.323308 512.64 
L 531.924812 512.64 
L 530.526316 512.64 
L 529.12782 512.64 
L 527.729323 512.64 
L 526.330827 512.64 
L 524.932331 512.64 
L 523.533835 512.64 
L 522.135338 512.64 
L 520.736842 512.64 
L 519.338346 512.64 
L 517.93985 512.64 
L 516.541353 512.64 
L 515.142857 512.64 
L 513.744361 512.64 
L 512.345865 512.64 
L 510.947368 512.64 
L 509.548872 512.64 
L 508.150376 512.64 
L 506.75188 512.64 
L 505.353383 512.64 
L 503.954887 512.64 
L 502.556391 512.64 
L 501.157895 512.64 
L 499.759398 512.64 
L 498.360902 512.64 
L 496.962406 512.64 
L 495.56391 512.64 
L 494.165414 512.64 
L 492.766917 512.64 
L 491.368421 512.64 
L 489.969925 512.64 
L 488.571429 512.64 
L 487.172932 512.64 
L 485.774436 512.64 
L 484.37594 512.64 
L 482.977444 512.64 
L 481.578947 512.64 
L 480.180451 512.64 
L 478.781955 512.64 
L 477.383459 512.64 
L 475.984962 512.64 
L 474.586466 512.64 
L 473.18797 512.64 
L 471.789474 512.64 
L 470.390977 512.64 
L 468.992481 512.64 
L 467.593985 512.64 
L 466.195489 512.64 
L 464.796992 512.64 
L 463.398496 512.64 
L 462 512.64 
L 460.601504 512.64 
L 459.203008 512.64 
L 457.804511 512.64 
L 456.406015 512.64 
L 455.007519 512.64 
L 453.609023 512.64 
L 452.210526 512.64 
L 450.81203 512.64 
L 449.413534 512.64 
L 448.015038 512.64 
L 446.616541 512.64 
L 445.218045 512.64 
L 443.819549 512.64 
L 442.421053 512.64 
L 441.022556 512.64 
L 439.62406 512.64 
L 438.225564 512.64 
L 436.827068 512.64 
L 435.428571 512.64 
L 434.030075 512.64 
L 432.631579 512.64 
L 431.233083 512.64 
L 429.834586 512.64 
L 428.43609 512.64 
L 427.037594 512.64 
L 425.639098 512.64 
L 424.240602 512.64 
L 422.842105 512.64 
L 421.443609 512.64 
L 420.045113 512.64 
L 418.646617 512.64 
L 417.24812 512.64 
L 415.849624 512.64 
L 414.451128 512.64 
L 413.052632 512.64 
L 411.654135 512.64 
L 410.255639 512.64 
L 408.857143 512.64 
L 407.458647 512.64 
L 406.06015 512.64 
L 404.661654 512.64 
L 403.263158 512.64 
L 401.864662 512.64 
L 400.466165 512.64 
L 399.067669 512.64 
L 397.669173 512.64 
L 396.270677 512.64 
L 394.87218 512.64 
L 393.473684 512.64 
L 392.075188 512.64 
L 390.676692 512.64 
L 389.278195 512.64 
L 387.879699 512.64 
L 386.481203 512.64 
L 385.082707 512.64 
L 383.684211 512.64 
L 382.285714 512.64 
L 380.887218 512.64 
L 379.488722 512.64 
L 378.090226 512.64 
L 376.691729 512.64 
L 375.293233 512.64 
L 373.894737 512.64 
L 372.496241 512.64 
L 371.097744 512.64 
L 369.699248 512.64 
L 368.300752 512.64 
L 366.902256 512.64 
L 365.503759 512.64 
L 364.105263 512.64 
L 362.706767 512.64 
L 361.308271 512.64 
L 359.909774 512.64 
L 358.511278 512.64 
L 357.112782 512.64 
L 355.714286 512.64 
L 354.315789 512.64 
L 352.917293 512.64 
L 351.518797 512.64 
L 350.120301 512.64 
L 348.721805 512.64 
L 347.323308 512.64 
L 345.924812 512.64 
L 344.526316 512.64 
L 343.12782 512.64 
L 341.729323 512.64 
L 340.330827 512.64 
L 338.932331 512.64 
L 337.533835 512.64 
L 336.135338 512.64 
L 334.736842 512.64 
L 333.338346 512.64 
L 331.93985 512.64 
L 330.541353 512.64 
L 329.142857 512.64 
L 327.744361 512.64 
L 326.345865 512.64 
L 324.947368 512.64 
L 323.548872 512.64 
L 322.150376 512.64 
L 320.75188 512.64 
L 319.353383 512.64 
L 317.954887 512.64 
L 316.556391 512.64 
L 315.157895 512.64 
L 313.759398 512.64 
L 312.360902 512.64 
L 310.962406 512.64 
L 309.56391 512.64 
L 308.165414 512.64 
L 306.766917 512.64 
L 305.368421 512.64 
L 303.969925 512.64 
L 302.571429 512.64 
L 301.172932 512.64 
L 299.774436 512.64 
L 298.37594 512.64 
L 296.977444 512.64 
L 295.578947 512.64 
L 294.180451 512.64 
L 292.781955 512.64 
L 291.383459 512.64 
L 289.984962 512.64 
L 288.586466 512.64 
L 287.18797 512.64 
L 285.789474 512.64 
L 284.390977 512.64 
L 282.992481 512.64 
L 281.593985 512.64 
L 280.195489 512.64 
L 278.796992 512.64 
L 277.398496 512.64 
L 276 512.64 
L 274.601504 512.64 
L 273.203008 512.64 
L 271.804511 512.64 
L 270.406015 512.64 
L 269.007519 512.64 
L 267.609023 512.64 
L 266.210526 512.64 
L 264.81203 512.64 
L 263.413534 512.64 
L 262.015038 512.64 
L 260.616541 512.64 
L 259.218045 512.64 
L 257.819549 512.64 
L 256.421053 512.64 
L 255.022556 512.64 
L 253.62406 512.64 
L 252.225564 512.64 
L 250.827068 512.64 
L 249.428571 512.64 
L 248.030075 512.64 
L 246.631579 512.64 
L 245.233083 512.64 
L 243.834586 512.64 
L 242.43609 512.64 
L 241.037594 512.64 
L 239.639098 512.64 
L 238.240602 512.64 
L 236.842105 512.64 
L 235.443609 512.64 
L 234.045113 512.64 
L 232.646617 512.64 
L 231.24812 512.64 
L 229.849624 512.64 
L 228.451128 512.64 
L 227.052632 512.64 
L 225.654135 512.64 
L 224.255639 512.64 
L 222.857143 512.64 
L 221.458647 512.64 
L 220.06015 512.64 
L 218.661654 512.64 
L 217.263158 512.64 
L 215.864662 512.64 
L 214.466165 512.64 
L 213.067669 512.64 
L 211.669173 512.64 
L 210.270677 512.64 
L 208.87218 512.64 
L 207.473684 512.64 
L 206.075188 512.64 
L 204.676692 512.64 
L 203.278195 512.64 
L 201.879699 512.64 
L 200.481203 512.64 
L 199.082707 512.64 
L 197.684211 512.64 
L 196.285714 512.64 
L 194.887218 512.64 
L 193.488722 512.64 
L 192.090226 512.64 
L 190.691729 512.64 
L 189.293233 512.64 
L 187.894737 512.64 
L 186.496241 512.64 
L 185.097744 512.64 
L 183.699248 512.64 
L 182.300752 512.64 
L 180.902256 512.64 
L 179.503759 512.64 
L 178.105263 512.64 
L 176.706767 512.64 
L 175.308271 512.64 
L 173.909774 512.64 
L 172.511278 512.64 
L 171.112782 512.64 
L 169.714286 512.64 
L 168.315789 512.64 
L 166.917293 512.64 
L 165.518797 512.64 
L 164.120301 512.64 
L 162.721805 512.64 
L 161.323308 512.64 
L 159.924812 512.64 
L 158.526316 512.64 
L 157.12782 512.64 
L 155.729323 512.64 
L 154.330827 512.64 
L 152.932331 512.64 
L 151.533835 512.64 
L 150.135338 512.64 
L 148.736842 512.64 
L 147.338346 512.64 
L 145.93985 512.64 
L 144.541353 512.64 
L 143.142857 512.64 
L 141.744361 512.64 
L 140.345865 512.64 
L 138.947368 512.64 
L 137.548872 512.64 
L 136.150376 512.64 
L 134.75188 512.64 
L 133.353383 512.64 
L 131.954887 512.64 
L 130.556391 512.64 
L 129.157895 512.64 
L 127.759398 512.64 
L 126.360902 512.64 
L 124.962406 512.64 
L 123.56391 512.64 
L 122.165414 512.64 
L 120.766917 512.64 
L 119.368421 512.64 
L 117.969925 512.64 
L 116.571429 512.64 
L 115.172932 512.64 
L 113.774436 512.64 
L 112.37594 512.64 
L 110.977444 512.64 
L 109.578947 512.64 
L 108.180451 512.64 
L 106.781955 512.64 
L 105.383459 512.64 
L 103.984962 512.64 
L 102.586466 512.64 
L 101.18797 512.64 
L 99.789474 512.64 
L 98.390977 512.64 
L 96.992481 512.64 
L 95.593985 512.64 
L 94.195489 512.64 
L 92.796992 512.64 
L 91.398496 512.64 
L 90 512.64 
z
" clip-path="url(#p7c1895894c)" style="fill: #71a8c4; stroke: #71a8c4"/>
   </g>
   <g id="FillBetweenPolyCollection_2">
    <path d="M 90 734.401605 
L 90 69.12 
L 91.398496 69.12 
L 92.796992 69.12 
L 94.195489 69.12 
L 95.593985 69.12 
L 96.992481 69.12 
L 98.390977 69.12 
L 99.789474 69.12 
L 101.18797 69.12 
L 102.586466 69.12 
L 103.984962 69.12 
L 105.383459 69.12 
L 106.781955 69.12 
L 108.180451 69.12 
L 109.578947 69.12 
L 110.977444 69.12 
L 112.37594 69.12 
L 113.774436 69.12 
L 115.172932 69.12 
L 116.571429 69.12 
L 117.969925 69.12 
L 119.368421 69.12 
L 120.766917 69.12 
L 122.165414 69.12 
L 123.56391 69.12 
L 124.962406 69.12 
L 126.360902 69.12 
L 127.759398 69.12 
L 129.157895 69.12 
L 130.556391 69.12 
L 131.954887 69.12 
L 133.353383 69.12 
L 134.75188 69.12 
L 136.150376 69.12 
L 137.548872 69.12 
L 138.947368 69.12 
L 140.345865 69.12 
L 141.744361 69.12 
L 143.142857 69.12 
L 144.541353 69.12 
L 145.93985 69.12 
L 147.338346 69.12 
L 148.736842 69.12 
L 150.135338 69.12 
L 151.533835 69.12 
L 152.932331 69.12 
L 154.330827 69.12 
L 155.729323 69.12 
L 157.12782 69.12 
L 158.526316 69.12 
L 159.924812 69.12 
L 161.323308 69.12 
L 162.721805 69.12 
L 164.120301 69.12 
L 165.518797 69.12 
L 166.917293 69.12 
L 168.315789 69.12 
L 169.714286 69.12 
L 171.112782 69.12 
L 172.511278 69.12 
L 173.909774 69.12 
L 175.308271 69.12 
L 176.706767 69.12 
L 178.105263 69.12 
L 179.503759 69.12 
L 180.902256 69.12 
L 182.300752 69.12 
L 183.699248 69.12 
L 185.097744 69.12 
L 186.496241 69.12 
L 187.894737 69.12 
L 189.293233 69.12 
L 190.691729 69.12 
L 192.090226 69.12 
L 193.488722 69.12 
L 194.887218 69.12 
L 196.285714 69.12 
L 197.684211 69.12 
L 199.082707 69.12 
L 200.481203 69.12 
L 201.879699 69.12 
L 203.278195 69.12 
L 204.676692 69.12 
L 206.075188 69.12 
L 207.473684 69.12 
L 208.87218 69.12 
L 210.270677 69.12 
L 211.669173 69.12 
L 213.067669 69.12 
L 214.466165 69.12 
L 215.864662 69.12 
L 217.263158 69.12 
L 218.661654 69.12 
L 220.06015 69.12 
L 221.458647 69.12 
L 222.857143 69.12 
L 224.255639 69.12 
L 225.654135 69.12 
L 227.052632 69.12 
L 228.451128 69.12 
L 229.849624 69.12 
L 231.24812 69.12 
L 232.646617 69.12 
L 234.045113 69.12 
L 235.443609 69.12 
L 236.842105 69.12 
L 238.240602 69.12 
L 239.639098 69.12 
L 241.037594 69.12 
L 242.43609 69.12 
L 243.834586 69.12 
L 245.233083 69.12 
L 246.631579 69.12 
L 248.030075 69.12 
L 249.428571 69.12 
L 250.827068 69.12 
L 252.225564 69.12 
L 253.62406 69.12 
L 255.022556 69.12 
L 256.421053 69.12 
L 257.819549 69.12 
L 259.218045 69.12 
L 260.616541 69.12 
L 262.015038 69.12 
L 263.413534 69.12 
L 264.81203 69.12 
L 266.210526 69.12 
L 267.609023 69.12 
L 269.007519 69.12 
L 270.406015 69.12 
L 271.804511 69.12 
L 273.203008 69.12 
L 274.601504 69.12 
L 276 69.12 
L 277.398496 69.12 
L 278.796992 69.12 
L 280.195489 69.12 
L 281.593985 69.12 
L 282.992481 69.12 
L 284.390977 69.12 
L 285.789474 69.12 
L 287.18797 69.12 
L 288.586466 69.12 
L 289.984962 69.12 
L 291.383459 69.12 
L 292.781955 69.12 
L 294.180451 69.12 
L 295.578947 69.12 
L 296.977444 69.12 
L 298.37594 69.12 
L 299.774436 69.12 
L 301.172932 69.12 
L 302.571429 69.12 
L 303.969925 69.12 
L 305.368421 69.12 
L 306.766917 69.12 
L 308.165414 69.12 
L 309.56391 69.12 
L 310.962406 69.12 
L 312.360902 69.12 
L 313.759398 69.12 
L 315.157895 69.12 
L 316.556391 69.12 
L 317.954887 69.12 
L 319.353383 69.12 
L 320.75188 69.12 
L 322.150376 69.12 
L 323.548872 69.12 
L 324.947368 69.12 
L 326.345865 69.12 
L 327.744361 69.12 
L 329.142857 69.12 
L 330.541353 69.12 
L 331.93985 69.12 
L 333.338346 69.12 
L 334.736842 69.12 
L 336.135338 69.12 
L 337.533835 69.12 
L 338.932331 69.12 
L 340.330827 69.12 
L 341.729323 69.12 
L 343.12782 69.12 
L 344.526316 69.12 
L 345.924812 69.12 
L 347.323308 69.12 
L 348.721805 69.12 
L 350.120301 69.12 
L 351.518797 69.12 
L 352.917293 69.12 
L 354.315789 69.12 
L 355.714286 69.12 
L 357.112782 69.12 
L 358.511278 69.12 
L 359.909774 69.12 
L 361.308271 69.12 
L 362.706767 69.12 
L 364.105263 69.12 
L 365.503759 69.12 
L 366.902256 69.12 
L 368.300752 69.12 
L 368.300752 304.858658 
L 368.300752 304.858658 
L 366.902256 306.598301 
L 365.503759 308.35283 
L 364.105263 310.122015 
L 362.706767 311.905615 
L 361.308271 313.703378 
L 359.909774 315.515038 
L 358.511278 317.340326 
L 357.112782 319.17896 
L 355.714286 321.030655 
L 354.315789 322.895117 
L 352.917293 324.772051 
L 351.518797 326.661156 
L 350.120301 328.562129 
L 348.721805 330.474665 
L 347.323308 332.398457 
L 345.924812 334.3332 
L 344.526316 336.278588 
L 343.12782 338.234317 
L 341.729323 340.200085 
L 340.330827 342.17559 
L 338.932331 344.160536 
L 337.533835 346.15463 
L 336.135338 348.157581 
L 334.736842 350.169104 
L 333.338346 352.188919 
L 331.93985 354.216749 
L 330.541353 356.252324 
L 329.142857 358.295378 
L 327.744361 360.345653 
L 326.345865 362.402895 
L 324.947368 364.466856 
L 323.548872 366.537294 
L 322.150376 368.613974 
L 320.75188 370.696668 
L 319.353383 372.785152 
L 317.954887 374.879209 
L 316.556391 376.97863 
L 315.157895 379.08321 
L 313.759398 381.192752 
L 312.360902 383.307063 
L 310.962406 385.425958 
L 309.56391 387.549258 
L 308.165414 389.676788 
L 306.766917 391.808381 
L 305.368421 393.943874 
L 303.969925 396.083112 
L 302.571429 398.225942 
L 301.172932 400.372219 
L 299.774436 402.521802 
L 298.37594 404.674557 
L 296.977444 406.830352 
L 295.578947 408.989061 
L 294.180451 411.150565 
L 292.781955 413.314746 
L 291.383459 415.481493 
L 289.984962 417.650698 
L 288.586466 419.822258 
L 287.18797 421.996073 
L 285.789474 424.172047 
L 284.390977 426.35009 
L 282.992481 428.530112 
L 281.593985 430.71203 
L 280.195489 432.895762 
L 278.796992 435.08123 
L 277.398496 437.26836 
L 276 439.45708 
L 274.601504 441.647322 
L 273.203008 443.839019 
L 271.804511 446.032109 
L 270.406015 448.22653 
L 269.007519 450.422226 
L 267.609023 452.61914 
L 266.210526 454.817219 
L 264.81203 457.016413 
L 263.413534 459.216672 
L 262.015038 461.41795 
L 260.616541 463.620202 
L 259.218045 465.823386 
L 257.819549 468.02746 
L 256.421053 470.232385 
L 255.022556 472.438123 
L 253.62406 474.644639 
L 252.225564 476.851899 
L 250.827068 479.059869 
L 249.428571 481.268518 
L 248.030075 483.477816 
L 246.631579 485.687734 
L 245.233083 487.898244 
L 243.834586 490.109321 
L 242.43609 492.320939 
L 241.037594 494.533074 
L 239.639098 496.745703 
L 238.240602 498.958804 
L 236.842105 501.172356 
L 235.443609 503.386338 
L 234.045113 505.600733 
L 232.646617 507.815521 
L 231.24812 510.030684 
L 229.849624 512.246207 
L 228.451128 514.462072 
L 227.052632 516.678265 
L 225.654135 518.894771 
L 224.255639 521.111576 
L 222.857143 523.328666 
L 221.458647 525.54603 
L 220.06015 527.763653 
L 218.661654 529.981526 
L 217.263158 532.199636 
L 215.864662 534.417973 
L 214.466165 536.636527 
L 213.067669 538.855289 
L 211.669173 541.074248 
L 210.270677 543.293396 
L 208.87218 545.512724 
L 207.473684 547.732225 
L 206.075188 549.951891 
L 204.676692 552.171714 
L 203.278195 554.391687 
L 201.879699 556.611803 
L 200.481203 558.832056 
L 199.082707 561.052441 
L 197.684211 563.27295 
L 196.285714 565.493578 
L 194.887218 567.71432 
L 193.488722 569.935172 
L 192.090226 572.156127 
L 190.691729 574.377181 
L 189.293233 576.59833 
L 187.894737 578.81957 
L 186.496241 581.040896 
L 185.097744 583.262305 
L 183.699248 585.483792 
L 182.300752 587.705355 
L 180.902256 589.92699 
L 179.503759 592.148693 
L 178.105263 594.370462 
L 176.706767 596.592294 
L 175.308271 598.814185 
L 173.909774 601.036134 
L 172.511278 603.258136 
L 171.112782 605.480192 
L 169.714286 607.702296 
L 168.315789 609.924449 
L 166.917293 612.146646 
L 165.518797 614.368887 
L 164.120301 616.591169 
L 162.721805 618.813491 
L 161.323308 621.03585 
L 159.924812 623.258246 
L 158.526316 625.480676 
L 157.12782 627.703138 
L 155.729323 629.925632 
L 154.330827 632.148156 
L 152.932331 634.370709 
L 151.533835 636.593289 
L 150.135338 638.815895 
L 148.736842 641.038526 
L 147.338346 643.26118 
L 145.93985 645.483857 
L 144.541353 647.706556 
L 143.142857 649.929276 
L 141.744361 652.152015 
L 140.345865 654.374774 
L 138.947368 656.59755 
L 137.548872 658.820344 
L 136.150376 661.043154 
L 134.75188 663.265979 
L 133.353383 665.48882 
L 131.954887 667.711675 
L 130.556391 669.934544 
L 129.157895 672.157425 
L 127.759398 674.380319 
L 126.360902 676.603225 
L 124.962406 678.826143 
L 123.56391 681.049071 
L 122.165414 683.27201 
L 120.766917 685.494958 
L 119.368421 687.717916 
L 117.969925 689.940883 
L 116.571429 692.163859 
L 115.172932 694.386843 
L 113.774436 696.609834 
L 112.37594 698.832833 
L 110.977444 701.05584 
L 109.578947 703.278853 
L 108.180451 705.501873 
L 106.781955 707.724898 
L 105.383459 709.94793 
L 103.984962 712.170968 
L 102.586466 714.394011 
L 101.18797 716.617059 
L 99.789474 718.840112 
L 98.390977 721.06317 
L 96.992481 723.286232 
L 95.593985 725.509299 
L 94.195489 727.73237 
L 92.796992 729.955445 
L 91.398496 732.178523 
L 90 734.401605 
z
" clip-path="url(#p7c1895894c)" style="fill: #eacebd; stroke: #eacebd"/>
   </g>
   <g id="FillBetweenPolyCollection_3">
    <defs>
     <path id="m614932c9b7" d="M 369.699248 -272.865883 
L 369.699248 -506.88 
L 371.097744 -506.88 
L 372.496241 -506.88 
L 373.894737 -506.88 
L 375.293233 -506.88 
L 376.691729 -506.88 
L 378.090226 -506.88 
L 379.488722 -506.88 
L 380.887218 -506.88 
L 382.285714 -506.88 
L 383.684211 -506.88 
L 385.082707 -506.88 
L 386.481203 -506.88 
L 387.879699 -506.88 
L 389.278195 -506.88 
L 390.676692 -506.88 
L 392.075188 -506.88 
L 393.473684 -506.88 
L 394.87218 -506.88 
L 396.270677 -506.88 
L 397.669173 -506.88 
L 399.067669 -506.88 
L 400.466165 -506.88 
L 401.864662 -506.88 
L 403.263158 -506.88 
L 404.661654 -506.88 
L 406.06015 -506.88 
L 407.458647 -506.88 
L 408.857143 -506.88 
L 410.255639 -506.88 
L 411.654135 -506.88 
L 413.052632 -506.88 
L 414.451128 -506.88 
L 415.849624 -506.88 
L 417.24812 -506.88 
L 418.646617 -506.88 
L 420.045113 -506.88 
L 421.443609 -506.88 
L 422.842105 -506.88 
L 424.240602 -506.88 
L 425.639098 -506.88 
L 427.037594 -506.88 
L 428.43609 -506.88 
L 429.834586 -506.88 
L 431.233083 -506.88 
L 432.631579 -506.88 
L 434.030075 -506.88 
L 435.428571 -506.88 
L 436.827068 -506.88 
L 438.225564 -506.88 
L 439.62406 -506.88 
L 441.022556 -506.88 
L 442.421053 -506.88 
L 443.819549 -506.88 
L 445.218045 -506.88 
L 446.616541 -506.88 
L 448.015038 -506.88 
L 449.413534 -506.88 
L 450.81203 -506.88 
L 452.210526 -506.88 
L 453.609023 -506.88 
L 455.007519 -506.88 
L 456.406015 -506.88 
L 457.804511 -506.88 
L 459.203008 -506.88 
L 460.601504 -506.88 
L 462 -506.88 
L 463.398496 -506.88 
L 464.796992 -506.88 
L 466.195489 -506.88 
L 467.593985 -506.88 
L 468.992481 -506.88 
L 470.390977 -506.88 
L 471.789474 -506.88 
L 473.18797 -506.88 
L 474.586466 -506.88 
L 475.984962 -506.88 
L 477.383459 -506.88 
L 478.781955 -506.88 
L 480.180451 -506.88 
L 481.578947 -506.88 
L 482.977444 -506.88 
L 484.37594 -506.88 
L 485.774436 -506.88 
L 487.172932 -506.88 
L 488.571429 -506.88 
L 489.969925 -506.88 
L 491.368421 -506.88 
L 492.766917 -506.88 
L 494.165414 -506.88 
L 495.56391 -506.88 
L 496.962406 -506.88 
L 498.360902 -506.88 
L 499.759398 -506.88 
L 501.157895 -506.88 
L 502.556391 -506.88 
L 503.954887 -506.88 
L 505.353383 -506.88 
L 506.75188 -506.88 
L 508.150376 -506.88 
L 509.548872 -506.88 
L 510.947368 -506.88 
L 512.345865 -506.88 
L 513.744361 -506.88 
L 515.142857 -506.88 
L 516.541353 -506.88 
L 517.93985 -506.88 
L 519.338346 -506.88 
L 520.736842 -506.88 
L 522.135338 -506.88 
L 523.533835 -506.88 
L 524.932331 -506.88 
L 526.330827 -506.88 
L 527.729323 -506.88 
L 529.12782 -506.88 
L 530.526316 -506.88 
L 531.924812 -506.88 
L 533.323308 -506.88 
L 534.721805 -506.88 
L 536.120301 -506.88 
L 537.518797 -506.88 
L 538.917293 -506.88 
L 540.315789 -506.88 
L 541.714286 -506.88 
L 543.112782 -506.88 
L 544.511278 -506.88 
L 545.909774 -506.88 
L 547.308271 -506.88 
L 548.706767 -506.88 
L 550.105263 -506.88 
L 551.503759 -506.88 
L 552.902256 -506.88 
L 554.300752 -506.88 
L 555.699248 -506.88 
L 557.097744 -506.88 
L 558.496241 -506.88 
L 559.894737 -506.88 
L 561.293233 -506.88 
L 562.691729 -506.88 
L 564.090226 -506.88 
L 565.488722 -506.88 
L 566.887218 -506.88 
L 568.285714 -506.88 
L 569.684211 -506.88 
L 571.082707 -506.88 
L 572.481203 -506.88 
L 573.879699 -506.88 
L 575.278195 -506.88 
L 576.676692 -506.88 
L 578.075188 -506.88 
L 579.473684 -506.88 
L 580.87218 -506.88 
L 582.270677 -506.88 
L 583.669173 -506.88 
L 585.067669 -506.88 
L 586.466165 -506.88 
L 587.864662 -506.88 
L 589.263158 -506.88 
L 590.661654 -506.88 
L 592.06015 -506.88 
L 593.458647 -506.88 
L 594.857143 -506.88 
L 596.255639 -506.88 
L 597.654135 -506.88 
L 599.052632 -506.88 
L 600.451128 -506.88 
L 601.849624 -506.88 
L 603.24812 -506.88 
L 604.646617 -506.88 
L 606.045113 -506.88 
L 607.443609 -506.88 
L 608.842105 -506.88 
L 610.240602 -506.88 
L 611.639098 -506.88 
L 613.037594 -506.88 
L 614.43609 -506.88 
L 615.834586 -506.88 
L 617.233083 -506.88 
L 618.631579 -506.88 
L 620.030075 -506.88 
L 621.428571 -506.88 
L 622.827068 -506.88 
L 624.225564 -506.88 
L 625.62406 -506.88 
L 627.022556 -506.88 
L 628.421053 -506.88 
L 629.819549 -506.88 
L 631.218045 -506.88 
L 632.616541 -506.88 
L 634.015038 -506.88 
L 635.413534 -506.88 
L 636.81203 -506.88 
L 638.210526 -506.88 
L 639.609023 -506.88 
L 641.007519 -506.88 
L 642.406015 -506.88 
L 643.804511 -506.88 
L 645.203008 -506.88 
L 646.601504 -506.88 
L 648 -506.88 
L 648 -506.88 
L 648 -506.88 
L 646.601504 -505.768421 
L 645.203008 -504.656842 
L 643.804511 -503.545263 
L 642.406015 -502.433684 
L 641.007519 -501.322105 
L 639.609023 -500.210526 
L 638.210526 -499.098947 
L 636.81203 -497.987368 
L 635.413534 -496.875789 
L 634.015038 -495.764211 
L 632.616541 -494.652632 
L 631.218045 -493.541053 
L 629.819549 -492.429474 
L 628.421053 -491.317895 
L 627.022556 -490.206316 
L 625.62406 -489.094737 
L 624.225564 -487.983158 
L 622.827068 -486.871579 
L 621.428571 -485.76 
L 620.030075 -484.648421 
L 618.631579 -483.536842 
L 617.233083 -482.425263 
L 615.834586 -481.313684 
L 614.43609 -480.202105 
L 613.037594 -479.090526 
L 611.639098 -477.978947 
L 610.240602 -476.867368 
L 608.842105 -475.755789 
L 607.443609 -474.644211 
L 606.045113 -473.532632 
L 604.646617 -472.421053 
L 603.24812 -471.309474 
L 601.849624 -470.197895 
L 600.451128 -469.086316 
L 599.052632 -467.974737 
L 597.654135 -466.863158 
L 596.255639 -465.751579 
L 594.857143 -464.64 
L 593.458647 -463.528421 
L 592.06015 -462.416842 
L 590.661654 -461.305263 
L 589.263158 -460.193684 
L 587.864662 -459.082105 
L 586.466165 -457.970526 
L 585.067669 -456.858947 
L 583.669173 -455.747368 
L 582.270677 -454.635789 
L 580.87218 -453.524211 
L 579.473684 -452.412632 
L 578.075188 -451.301053 
L 576.676692 -450.189474 
L 575.278195 -449.077895 
L 573.879699 -447.966316 
L 572.481203 -446.854737 
L 571.082707 -445.743158 
L 569.684211 -444.631579 
L 568.285714 -443.52 
L 566.887218 -442.408421 
L 565.488722 -441.296842 
L 564.090226 -440.185263 
L 562.691729 -439.073684 
L 561.293233 -437.962105 
L 559.894737 -436.850526 
L 558.496241 -435.738947 
L 557.097744 -434.627368 
L 555.699248 -433.515789 
L 554.300752 -432.404211 
L 552.902256 -431.292632 
L 551.503759 -430.181053 
L 550.105263 -429.069474 
L 548.706767 -427.957895 
L 547.308271 -426.846316 
L 545.909774 -425.734737 
L 544.511278 -424.623158 
L 543.112782 -423.511579 
L 541.714286 -422.4 
L 540.315789 -421.288421 
L 538.917293 -420.176842 
L 537.518797 -419.065263 
L 536.120301 -417.953684 
L 534.721805 -416.842105 
L 533.323308 -415.730526 
L 531.924812 -414.618947 
L 530.526316 -413.507368 
L 529.12782 -412.395789 
L 527.729323 -411.284211 
L 526.330827 -410.172632 
L 524.932331 -409.061053 
L 523.533835 -407.949474 
L 522.135338 -406.837895 
L 520.736842 -405.726316 
L 519.338346 -404.614737 
L 517.93985 -403.503158 
L 516.541353 -402.391579 
L 515.142857 -401.28 
L 513.744361 -400.168421 
L 512.345865 -399.056842 
L 510.947368 -397.945263 
L 509.548872 -396.833684 
L 508.150376 -395.722105 
L 506.75188 -394.610526 
L 505.353383 -393.498947 
L 503.954887 -392.387368 
L 502.556391 -391.275788 
L 501.157895 -390.164209 
L 499.759398 -389.052629 
L 498.360902 -387.941048 
L 496.962406 -386.829467 
L 495.56391 -385.717885 
L 494.165414 -384.606302 
L 492.766917 -383.494718 
L 491.368421 -382.383131 
L 489.969925 -381.27154 
L 488.571429 -380.159946 
L 487.172932 -379.048346 
L 485.774436 -377.936739 
L 484.37594 -376.825122 
L 482.977444 -375.713492 
L 481.578947 -374.601846 
L 480.180451 -373.490179 
L 478.781955 -372.378485 
L 477.383459 -371.266757 
L 475.984962 -370.154986 
L 474.586466 -369.043161 
L 473.18797 -367.931269 
L 471.789474 -366.819295 
L 470.390977 -365.707219 
L 468.992481 -364.595019 
L 467.593985 -363.482668 
L 466.195489 -362.370135 
L 464.796992 -361.257383 
L 463.398496 -360.14437 
L 462 -359.031046 
L 460.601504 -357.917354 
L 459.203008 -356.80323 
L 457.804511 -355.688599 
L 456.406015 -354.573378 
L 455.007519 -353.457473 
L 453.609023 -352.340777 
L 452.210526 -351.223173 
L 450.81203 -350.104528 
L 449.413534 -348.9847 
L 448.015038 -347.863526 
L 446.616541 -346.740834 
L 445.218045 -345.616432 
L 443.819549 -344.490112 
L 442.421053 -343.361652 
L 441.022556 -342.230809 
L 439.62406 -341.097326 
L 438.225564 -339.960927 
L 436.827068 -338.821317 
L 435.428571 -337.678187 
L 434.030075 -336.531207 
L 432.631579 -335.380035 
L 431.233083 -334.224308 
L 429.834586 -333.063652 
L 428.43609 -331.897676 
L 427.037594 -330.725977 
L 425.639098 -329.548138 
L 424.240602 -328.363732 
L 422.842105 -327.172323 
L 421.443609 -325.973467 
L 420.045113 -324.766712 
L 418.646617 -323.551603 
L 417.24812 -322.327681 
L 415.849624 -321.094486 
L 414.451128 -319.851559 
L 413.052632 -318.598445 
L 411.654135 -317.33469 
L 410.255639 -316.05985 
L 408.857143 -314.773489 
L 407.458647 -313.475181 
L 406.06015 -312.16451 
L 404.661654 -310.841078 
L 403.263158 -309.504498 
L 401.864662 -308.154406 
L 400.466165 -306.79045 
L 399.067669 -305.412304 
L 397.669173 -304.01966 
L 396.270677 -302.612233 
L 394.87218 -301.189762 
L 393.473684 -299.75201 
L 392.075188 -298.298764 
L 390.676692 -296.829837 
L 389.278195 -295.34507 
L 387.879699 -293.844326 
L 386.481203 -292.327498 
L 385.082707 -290.794502 
L 383.684211 -289.245283 
L 382.285714 -287.679808 
L 380.887218 -286.098073 
L 379.488722 -284.500096 
L 378.090226 -282.88592 
L 376.691729 -281.25561 
L 375.293233 -279.609256 
L 373.894737 -277.946966 
L 372.496241 -276.268871 
L 371.097744 -274.575121 
L 369.699248 -272.865883 
z
" style="stroke: #f8a17b"/>
    </defs>
    <g clip-path="url(#p7c1895894c)">
     <use xlink:href="#m614932c9b7" x="0" y="576" style="fill: #f8a17b; stroke: #f8a17b"/>
    </g>
   </g>
   <g id="matplotlib.axis_1">
    <g id="xtick_1">
     <g id="line2d_1">
      <defs>
       <path id="mf6d7153b86" d="M 0 0 
L 0 3.5 
" style="stroke: #000000; stroke-width: 0.8"/>
      </defs>
      <g>
       <use xlink:href="#mf6d7153b86" x="90" y="512.64" style="stroke: #000000; stroke-width: 0.8"/>
      </g>
     </g>
     <g id="text_1">
      <!-- $\mathdefault{10^{-2}}$ -->
      <g transform="translate(72.9 531.933437) scale(0.18 -0.18)">
       <defs>
        <path id="STIXGeneral-Regular-31" d="M 2522 0 
L 755 0 
L 755 96 
Q 1107 115 1235 227 
Q 1363 339 1363 608 
L 1363 3482 
Q 1363 3795 1171 3795 
Q 1082 3795 883 3718 
L 710 3654 
L 710 3744 
L 1856 4326 
L 1914 4307 
L 1914 486 
Q 1914 275 2042 185 
Q 2170 96 2522 96 
L 2522 0 
z
" transform="scale(0.015625)"/>
        <path id="STIXGeneral-Regular-30" d="M 3046 2112 
Q 3046 1683 2963 1302 
Q 2880 922 2717 602 
Q 2554 282 2266 96 
Q 1978 -90 1600 -90 
Q 1210 -90 915 108 
Q 621 307 461 640 
Q 301 973 227 1350 
Q 154 1728 154 2150 
Q 154 2746 301 3222 
Q 448 3699 790 4012 
Q 1133 4326 1626 4326 
Q 2253 4326 2649 3712 
Q 3046 3098 3046 2112 
z
M 2432 2080 
Q 2432 3091 2217 3625 
Q 2003 4160 1587 4160 
Q 1190 4160 979 3622 
Q 768 3085 768 2106 
Q 768 1120 979 598 
Q 1190 77 1600 77 
Q 2003 77 2217 598 
Q 2432 1120 2432 2080 
z
" transform="scale(0.015625)"/>
        <path id="STIXGeneral-Regular-2212" d="M 3974 1408 
L 410 1408 
L 410 1830 
L 3974 1830 
L 3974 1408 
z
" transform="scale(0.015625)"/>
        <path id="STIXGeneral-Regular-32" d="M 3034 877 
L 2688 0 
L 186 0 
L 186 77 
L 1325 1286 
Q 1773 1754 1965 2144 
Q 2157 2534 2157 2950 
Q 2157 3379 1920 3616 
Q 1683 3853 1267 3853 
Q 922 3853 720 3673 
Q 518 3494 326 3021 
L 192 3053 
Q 301 3648 630 3987 
Q 960 4326 1523 4326 
Q 2054 4326 2380 4006 
Q 2707 3686 2707 3200 
Q 2707 2477 1888 1613 
L 832 486 
L 2330 486 
Q 2541 486 2665 569 
Q 2790 653 2944 915 
L 3034 877 
z
" transform="scale(0.015625)"/>
       </defs>
       <use xlink:href="#STIXGeneral-Regular-31" transform="translate(0 0.684375)"/>
       <use xlink:href="#STIXGeneral-Regular-30" transform="translate(49.999985 0.684375)"/>
       <use xlink:href="#STIXGeneral-Regular-2212" transform="translate(101.574969 36.684375) scale(0.7)"/>
       <use xlink:href="#STIXGeneral-Regular-32" transform="translate(149.524959 36.684375) scale(0.7)"/>
      </g>
     </g>
    </g>
    <g id="xtick_2">
     <g id="line2d_2">
      <g>
       <use xlink:href="#mf6d7153b86" x="229.5" y="512.64" style="stroke: #000000; stroke-width: 0.8"/>
      </g>
     </g>
     <g id="text_2">
      <!-- $\mathdefault{10^{-1}}$ -->
      <g transform="translate(212.4 531.933437) scale(0.18 -0.18)">
       <use xlink:href="#STIXGeneral-Regular-31" transform="translate(0 0.684375)"/>
       <use xlink:href="#STIXGeneral-Regular-30" transform="translate(49.999985 0.684375)"/>
       <use xlink:href="#STIXGeneral-Regular-2212" transform="translate(101.574969 36.684375) scale(0.7)"/>
       <use xlink:href="#STIXGeneral-Regular-31" transform="translate(149.524959 36.684375) scale(0.7)"/>
      </g>
     </g>
    </g>
    <g id="xtick_3">
     <g id="line2d_3">
      <g>
       <use xlink:href="#mf6d7153b86" x="369" y="512.64" style="stroke: #000000; stroke-width: 0.8"/>
      </g>
     </g>
     <g id="text_3">
      <!-- $\mathdefault{10^{0}}$ -->
      <g transform="translate(356.22 531.933437) scale(0.18 -0.18)">
       <use xlink:href="#STIXGeneral-Regular-31" transform="translate(0 0.684375)"/>
       <use xlink:href="#STIXGeneral-Regular-30" transform="translate(49.999985 0.684375)"/>
       <use xlink:href="#STIXGeneral-Regular-30" transform="translate(101.574969 36.684375) scale(0.7)"/>
      </g>
     </g>
    </g>
    <g id="xtick_4">
     <g id="line2d_4">
      <g>
       <use xlink:href="#mf6d7153b86" x="508.5" y="512.64" style="stroke: #000000; stroke-width: 0.8"/>
      </g>
     </g>
     <g id="text_4">
      <!-- $\mathdefault{10^{1}}$ -->
      <g transform="translate(495.72 531.933437) scale(0.18 -0.18)">
       <use xlink:href="#STIXGeneral-Regular-31" transform="translate(0 0.684375)"/>
       <use xlink:href="#STIXGeneral-Regular-30" transform="translate(49.999985 0.684375)"/>
       <use xlink:href="#STIXGeneral-Regular-31" transform="translate(101.574969 36.684375) scale(0.7)"/>
      </g>
     </g>
    </g>
    <g id="xtick_5">
     <g id="line2d_5">
      <g>
       <use xlink:href="#mf6d7153b86" x="648" y="512.64" style="stroke: #000000; stroke-width: 0.8"/>
      </g>
     </g>
     <g id="text_5">
      <!-- $\mathdefault{10^{2}}$ -->
      <g transform="translate(635.22 531.933437) scale(0.18 -0.18)">
       <use xlink:href="#STIXGeneral-Regular-31" transform="translate(0 0.684375)"/>
       <use xlink:href="#STIXGeneral-Regular-30" transform="translate(49.999985 0.684375)"/>
       <use xlink:href="#STIXGeneral-Regular-32" transform="translate(101.574969 36.684375) scale(0.7)"/>
      </g>
     </g>
    </g>
    <g id="xtick_6">
     <g id="line2d_6">
      <defs>
       <path id="m71a780b64a" d="M 0 0 
L 0 2 
" style="stroke: #000000; stroke-width: 0.6"/>
      </defs>
      <g>
       <use xlink:href="#m71a780b64a" x="131.993684" y="512.64" style="stroke: #000000; stroke-width: 0.6"/>
      </g>
     </g>
    </g>
    <g id="xtick_7">
     <g id="line2d_7">
      <g>
       <use xlink:href="#m71a780b64a" x="156.558415" y="512.64" style="stroke: #000000; stroke-width: 0.6"/>
      </g>
     </g>
    </g>
    <g id="xtick_8">
     <g id="line2d_8">
      <g>
       <use xlink:href="#m71a780b64a" x="173.987369" y="512.64" style="stroke: #000000; stroke-width: 0.6"/>
      </g>
     </g>
    </g>
    <g id="xtick_9">
     <g id="line2d_9">
      <g>
       <use xlink:href="#m71a780b64a" x="187.506316" y="512.64" style="stroke: #000000; stroke-width: 0.6"/>
      </g>
     </g>
    </g>
    <g id="xtick_10">
     <g id="line2d_10">
      <g>
       <use xlink:href="#m71a780b64a" x="198.552099" y="512.64" style="stroke: #000000; stroke-width: 0.6"/>
      </g>
     </g>
    </g>
    <g id="xtick_11">
     <g id="line2d_11">
      <g>
       <use xlink:href="#m71a780b64a" x="207.891177" y="512.64" style="stroke: #000000; stroke-width: 0.6"/>
      </g>
     </g>
    </g>
    <g id="xtick_12">
     <g id="line2d_12">
      <g>
       <use xlink:href="#m71a780b64a" x="215.981053" y="512.64" style="stroke: #000000; stroke-width: 0.6"/>
      </g>
     </g>
    </g>
    <g id="xtick_13">
     <g id="line2d_13">
      <g>
       <use xlink:href="#m71a780b64a" x="223.11683" y="512.64" style="stroke: #000000; stroke-width: 0.6"/>
      </g>
     </g>
    </g>
    <g id="xtick_14">
     <g id="line2d_14">
      <g>
       <use xlink:href="#m71a780b64a" x="271.493684" y="512.64" style="stroke: #000000; stroke-width: 0.6"/>
      </g>
     </g>
    </g>
    <g id="xtick_15">
     <g id="line2d_15">
      <g>
       <use xlink:href="#m71a780b64a" x="296.058415" y="512.64" style="stroke: #000000; stroke-width: 0.6"/>
      </g>
     </g>
    </g>
    <g id="xtick_16">
     <g id="line2d_16">
      <g>
       <use xlink:href="#m71a780b64a" x="313.487369" y="512.64" style="stroke: #000000; stroke-width: 0.6"/>
      </g>
     </g>
    </g>
    <g id="xtick_17">
     <g id="line2d_17">
      <g>
       <use xlink:href="#m71a780b64a" x="327.006316" y="512.64" style="stroke: #000000; stroke-width: 0.6"/>
      </g>
     </g>
    </g>
    <g id="xtick_18">
     <g id="line2d_18">
      <g>
       <use xlink:href="#m71a780b64a" x="338.052099" y="512.64" style="stroke: #000000; stroke-width: 0.6"/>
      </g>
     </g>
    </g>
    <g id="xtick_19">
     <g id="line2d_19">
      <g>
       <use xlink:href="#m71a780b64a" x="347.391177" y="512.64" style="stroke: #000000; stroke-width: 0.6"/>
      </g>
     </g>
    </g>
    <g id="xtick_20">
     <g id="line2d_20">
      <g>
       <use xlink:href="#m71a780b64a" x="355.481053" y="512.64" style="stroke: #000000; stroke-width: 0.6"/>
      </g>
     </g>
    </g>
    <g id="xtick_21">
     <g id="line2d_21">
      <g>
       <use xlink:href="#m71a780b64a" x="362.61683" y="512.64" style="stroke: #000000; stroke-width: 0.6"/>
      </g>
     </g>
    </g>
    <g id="xtick_22">
     <g id="line2d_22">
      <g>
       <use xlink:href="#m71a780b64a" x="410.993684" y="512.64" style="stroke: #000000; stroke-width: 0.6"/>
      </g>
     </g>
    </g>
    <g id="xtick_23">
     <g id="line2d_23">
      <g>
       <use xlink:href="#m71a780b64a" x="435.558415" y="512.64" style="stroke: #000000; stroke-width: 0.6"/>
      </g>
     </g>
    </g>
    <g id="xtick_24">
     <g id="line2d_24">
      <g>
       <use xlink:href="#m71a780b64a" x="452.987369" y="512.64" style="stroke: #000000; stroke-width: 0.6"/>
      </g>
     </g>
    </g>
    <g id="xtick_25">
     <g id="line2d_25">
      <g>
       <use xlink:href="#m71a780b64a" x="466.506316" y="512.64" style="stroke: #000000; stroke-width: 0.6"/>
      </g>
     </g>
    </g>
    <g id="xtick_26">
     <g id="line2d_26">
      <g>
       <use xlink:href="#m71a780b64a" x="477.552099" y="512.64" style="stroke: #000000; stroke-width: 0.6"/>
      </g>
     </g>
    </g>
    <g id="xtick_27">
     <g id="line2d_27">
      <g>
       <use xlink:href="#m71a780b64a" x="486.891177" y="512.64" style="stroke: #000000; stroke-width: 0.6"/>
      </g>
     </g>
    </g>
    <g id="xtick_28">
     <g id="line2d_28">
      <g>
       <use xlink:href="#m71a780b64a" x="494.981053" y="512.64" style="stroke: #000000; stroke-width: 0.6"/>
      </g>
     </g>
    </g>
    <g id="xtick_29">
     <g id="line2d_29">
      <g>
       <use xlink:href="#m71a780b64a" x="502.11683" y="512.64" style="stroke: #000000; stroke-width: 0.6"/>
      </g>
     </g>
    </g>
    <g id="xtick_30">
     <g id="line2d_30">
      <g>
       <use xlink:href="#m71a780b64a" x="550.493684" y="512.64" style="stroke: #000000; stroke-width: 0.6"/>
      </g>
     </g>
    </g>
    <g id="xtick_31">
     <g id="line2d_31">
      <g>
       <use xlink:href="#m71a780b64a" x="575.058415" y="512.64" style="stroke: #000000; stroke-width: 0.6"/>
      </g>
     </g>
    </g>
    <g id="xtick_32">
     <g id="line2d_32">
      <g>
       <use xlink:href="#m71a780b64a" x="592.487369" y="512.64" style="stroke: #000000; stroke-width: 0.6"/>
      </g>
     </g>
    </g>
    <g id="xtick_33">
     <g id="line2d_33">
      <g>
       <use xlink:href="#m71a780b64a" x="606.006316" y="512.64" style="stroke: #000000; stroke-width: 0.6"/>
      </g>
     </g>
    </g>
    <g id="xtick_34">
     <g id="line2d_34">
      <g>
       <use xlink:href="#m71a780b64a" x="617.052099" y="512.64" style="stroke: #000000; stroke-width: 0.6"/>
      </g>
     </g>
    </g>
    <g id="xtick_35">
     <g id="line2d_35">
      <g>
       <use xlink:href="#m71a780b64a" x="626.391177" y="512.64" style="stroke: #000000; stroke-width: 0.6"/>
      </g>
     </g>
    </g>
    <g id="xtick_36">
     <g id="line2d_36">
      <g>
       <use xlink:href="#m71a780b64a" x="634.481053" y="512.64" style="stroke: #000000; stroke-width: 0.6"/>
      </g>
     </g>
    </g>
    <g id="xtick_37">
     <g id="line2d_37">
      <g>
       <use xlink:href="#m71a780b64a" x="641.61683" y="512.64" style="stroke: #000000; stroke-width: 0.6"/>
      </g>
     </g>
    </g>
    <g id="text_6">
     <!-- Absorption balance $\tau$ [] -->
     <g transform="translate(265.82 555.02) scale(0.22 -0.22)">
      <defs>
       <path id="STIXGeneral-Regular-41" d="M 4525 0 
L 2893 0 
L 2893 122 
Q 3149 122 3245 179 
Q 3334 224 3334 333 
Q 3334 499 3213 781 
L 2950 1382 
L 1274 1382 
L 979 653 
Q 922 506 922 384 
Q 922 237 1027 179 
Q 1133 122 1370 122 
L 1370 0 
L 96 0 
L 96 122 
Q 365 147 486 316 
Q 608 486 902 1190 
L 2221 4314 
L 2349 4314 
L 3923 710 
Q 4064 378 4176 262 
Q 4288 147 4525 122 
L 4525 0 
z
M 2861 1645 
L 2118 3405 
L 1382 1645 
L 2861 1645 
z
" transform="scale(0.015625)"/>
       <path id="STIXGeneral-Regular-62" d="M 979 4358 
L 979 2406 
Q 1082 2650 1315 2797 
Q 1549 2944 1843 2944 
Q 2349 2944 2672 2541 
Q 2995 2138 2995 1536 
Q 2995 832 2566 384 
Q 2138 -64 1498 -64 
Q 1107 -64 774 67 
Q 442 198 442 358 
L 442 3622 
Q 442 3859 384 3926 
Q 326 3994 128 3994 
Q 83 3994 19 3981 
L 19 4090 
L 211 4147 
Q 864 4346 947 4371 
L 979 4358 
z
M 979 2035 
L 979 474 
Q 979 326 1161 233 
Q 1344 141 1600 141 
Q 1978 141 2195 416 
Q 2432 710 2432 1261 
Q 2432 1888 2182 2240 
Q 1971 2541 1613 2541 
Q 1357 2541 1168 2390 
Q 979 2240 979 2035 
z
" transform="scale(0.015625)"/>
       <path id="STIXGeneral-Regular-73" d="M 998 1926 
L 1664 1523 
Q 1984 1331 2105 1164 
Q 2227 998 2227 736 
Q 2227 416 1961 176 
Q 1696 -64 1331 -64 
Q 1030 -64 864 -6 
Q 691 51 570 51 
Q 461 51 416 -26 
L 333 -26 
L 333 979 
L 435 979 
Q 538 512 730 294 
Q 922 77 1248 77 
Q 1485 77 1632 211 
Q 1779 346 1779 550 
Q 1779 845 1440 1030 
L 1094 1222 
Q 326 1651 326 2150 
Q 326 2522 566 2730 
Q 806 2938 1210 2938 
Q 1491 2938 1638 2867 
Q 1754 2816 1818 2816 
Q 1862 2816 1920 2880 
L 1990 2880 
L 2022 2010 
L 1926 2010 
Q 1818 2445 1654 2621 
Q 1491 2797 1203 2797 
Q 986 2797 854 2688 
Q 723 2579 723 2362 
Q 723 2253 796 2128 
Q 870 2003 998 1926 
z
" transform="scale(0.015625)"/>
       <path id="STIXGeneral-Regular-6f" d="M 3008 1478 
Q 3008 806 2608 371 
Q 2208 -64 1568 -64 
Q 979 -64 582 368 
Q 186 800 186 1459 
Q 186 2125 582 2534 
Q 979 2944 1626 2944 
Q 2221 2944 2614 2537 
Q 3008 2131 3008 1478 
z
M 2432 1306 
Q 2432 2035 2112 2445 
Q 1856 2765 1504 2765 
Q 1171 2765 966 2493 
Q 762 2221 762 1747 
Q 762 928 1101 435 
Q 1318 115 1677 115 
Q 2029 115 2230 432 
Q 2432 749 2432 1306 
z
" transform="scale(0.015625)"/>
       <path id="STIXGeneral-Regular-72" d="M 1024 2931 
L 1024 2342 
Q 1267 2688 1430 2816 
Q 1594 2944 1792 2944 
Q 1958 2944 2051 2854 
Q 2144 2765 2144 2605 
Q 2144 2470 2077 2393 
Q 2010 2317 1894 2317 
Q 1773 2317 1638 2445 
Q 1536 2541 1472 2541 
Q 1338 2541 1181 2355 
Q 1024 2170 1024 2016 
L 1024 576 
Q 1024 301 1133 205 
Q 1242 109 1568 96 
L 1568 0 
L 32 0 
L 32 96 
Q 339 154 412 224 
Q 486 294 486 538 
L 486 2138 
Q 486 2349 438 2435 
Q 390 2522 269 2522 
Q 166 2522 45 2496 
L 45 2598 
Q 448 2726 992 2944 
L 1024 2931 
z
" transform="scale(0.015625)"/>
       <path id="STIXGeneral-Regular-70" d="M 1018 2931 
L 1018 2438 
Q 1421 2944 1939 2944 
Q 2406 2944 2707 2560 
Q 3008 2176 3008 1581 
Q 3008 883 2621 409 
Q 2234 -64 1664 -64 
Q 1466 -64 1328 -6 
Q 1190 51 1018 211 
L 1018 -794 
Q 1018 -1094 1120 -1180 
Q 1222 -1267 1581 -1274 
L 1581 -1389 
L 32 -1389 
L 32 -1280 
Q 314 -1254 397 -1171 
Q 480 -1088 480 -838 
L 480 2157 
Q 480 2381 429 2451 
Q 378 2522 218 2522 
Q 115 2522 58 2515 
L 58 2618 
Q 506 2752 979 2944 
L 1018 2931 
z
M 1018 2138 
L 1018 563 
Q 1018 422 1238 281 
Q 1459 141 1683 141 
Q 2029 141 2243 467 
Q 2458 794 2458 1325 
Q 2458 1888 2243 2224 
Q 2029 2560 1670 2560 
Q 1446 2560 1232 2419 
Q 1018 2278 1018 2138 
z
" transform="scale(0.015625)"/>
       <path id="STIXGeneral-Regular-74" d="M 1702 493 
L 1786 422 
Q 1478 -64 1011 -64 
Q 448 -64 448 749 
L 448 2675 
L 109 2675 
Q 83 2694 83 2720 
Q 83 2771 192 2842 
Q 435 2982 813 3526 
Q 826 3546 874 3606 
Q 922 3667 941 3706 
Q 986 3706 986 3622 
L 986 2880 
L 1632 2880 
L 1632 2675 
L 986 2675 
L 986 845 
Q 986 538 1062 403 
Q 1139 269 1318 269 
Q 1510 269 1702 493 
z
" transform="scale(0.015625)"/>
       <path id="STIXGeneral-Regular-69" d="M 1152 4045 
Q 1152 3904 1056 3811 
Q 960 3718 819 3718 
Q 685 3718 592 3811 
Q 499 3904 499 4045 
Q 499 4179 595 4275 
Q 691 4371 826 4371 
Q 966 4371 1059 4275 
Q 1152 4179 1152 4045 
z
M 1619 0 
L 102 0 
L 102 96 
Q 435 115 521 211 
Q 608 307 608 666 
L 608 2118 
Q 608 2342 563 2432 
Q 518 2522 397 2522 
Q 243 2522 128 2490 
L 128 2592 
L 1120 2944 
L 1146 2918 
L 1146 672 
Q 1146 314 1226 218 
Q 1306 122 1619 96 
L 1619 0 
z
" transform="scale(0.015625)"/>
       <path id="STIXGeneral-Regular-6e" d="M 3104 0 
L 1773 0 
L 1779 96 
Q 2016 115 2096 233 
Q 2176 352 2176 672 
L 2176 1946 
Q 2176 2592 1709 2592 
Q 1549 2592 1408 2515 
Q 1267 2438 1050 2227 
L 1050 461 
Q 1050 269 1136 192 
Q 1222 115 1466 96 
L 1466 0 
L 115 0 
L 115 96 
Q 358 115 435 214 
Q 512 314 512 602 
L 512 2157 
Q 512 2394 467 2483 
Q 422 2573 288 2573 
Q 160 2573 102 2547 
L 102 2656 
Q 550 2784 979 2944 
L 1030 2925 
L 1030 2426 
L 1037 2426 
Q 1491 2944 1958 2944 
Q 2323 2944 2518 2688 
Q 2714 2432 2714 1958 
L 2714 544 
Q 2714 288 2790 205 
Q 2867 122 3104 96 
L 3104 0 
z
" transform="scale(0.015625)"/>
       <path id="STIXGeneral-Regular-20" transform="scale(0.015625)"/>
       <path id="STIXGeneral-Regular-61" d="M 2829 422 
L 2829 243 
Q 2586 -64 2253 -64 
Q 1888 -64 1843 403 
L 1837 403 
Q 1427 -64 909 -64 
Q 608 -64 422 112 
Q 237 288 237 602 
Q 237 1050 685 1350 
Q 992 1555 1837 1869 
L 1837 2214 
Q 1837 2502 1699 2646 
Q 1562 2790 1338 2790 
Q 1146 2790 1018 2697 
Q 890 2605 890 2477 
Q 890 2419 909 2348 
Q 928 2278 928 2208 
Q 928 2112 841 2029 
Q 755 1946 634 1946 
Q 525 1946 441 2029 
Q 358 2112 358 2240 
Q 358 2547 685 2752 
Q 986 2944 1421 2944 
Q 1939 2944 2176 2656 
Q 2291 2522 2323 2384 
Q 2355 2246 2355 1946 
L 2355 723 
Q 2355 301 2554 301 
Q 2682 301 2829 422 
z
M 1837 813 
L 1837 1715 
Q 1248 1510 1018 1293 
Q 800 1094 800 800 
Q 800 557 921 432 
Q 1043 307 1242 307 
Q 1453 307 1613 410 
Q 1747 506 1792 589 
Q 1837 672 1837 813 
z
" transform="scale(0.015625)"/>
       <path id="STIXGeneral-Regular-6c" d="M 1645 0 
L 134 0 
L 134 96 
Q 435 122 531 221 
Q 627 320 627 589 
L 627 3590 
Q 627 3821 569 3910 
Q 512 4000 358 4000 
Q 224 4000 122 3987 
L 122 4090 
Q 730 4237 1133 4371 
L 1165 4346 
L 1165 557 
Q 1165 288 1254 201 
Q 1344 115 1645 96 
L 1645 0 
z
" transform="scale(0.015625)"/>
       <path id="STIXGeneral-Regular-63" d="M 2547 998 
L 2637 941 
Q 2362 403 2112 205 
Q 1786 -64 1376 -64 
Q 845 -64 502 336 
Q 160 736 160 1357 
Q 160 2170 698 2618 
Q 1094 2944 1562 2944 
Q 1965 2944 2256 2749 
Q 2547 2554 2547 2285 
Q 2547 2176 2457 2096 
Q 2368 2016 2246 2016 
Q 2022 2016 1939 2310 
L 1901 2451 
Q 1850 2630 1773 2694 
Q 1696 2758 1523 2758 
Q 1133 2758 893 2451 
Q 653 2144 653 1645 
Q 653 1094 928 745 
Q 1203 397 1645 397 
Q 1920 397 2118 528 
Q 2317 659 2547 998 
z
" transform="scale(0.015625)"/>
       <path id="STIXGeneral-Regular-65" d="M 2611 1050 
L 2714 1005 
Q 2330 -64 1376 -64 
Q 813 -64 486 329 
Q 160 723 160 1389 
Q 160 2074 525 2509 
Q 890 2944 1485 2944 
Q 2061 2944 2374 2502 
Q 2560 2246 2592 1773 
L 621 1773 
Q 646 1370 700 1158 
Q 755 947 915 730 
Q 1184 378 1626 378 
Q 1939 378 2153 531 
Q 2368 685 2611 1050 
z
M 634 1978 
L 1939 1978 
Q 1882 2381 1750 2547 
Q 1619 2714 1312 2714 
Q 1043 2714 864 2525 
Q 685 2336 634 1978 
z
" transform="scale(0.015625)"/>
       <path id="STIXGeneral-Italic-3c4" d="M 2726 2739 
L 2592 2266 
L 1741 2266 
Q 1293 1248 1293 742 
Q 1293 416 1523 416 
Q 1638 416 1779 547 
Q 1920 678 2003 858 
L 2106 858 
Q 1990 467 1731 198 
Q 1472 -70 1178 -70 
Q 768 -70 768 384 
Q 768 890 1395 2266 
L 1005 2266 
Q 493 2266 179 1702 
L 77 1702 
Q 237 2093 569 2416 
Q 902 2739 1331 2739 
L 2726 2739 
z
" transform="scale(0.015625)"/>
       <path id="STIXGeneral-Regular-5b" d="M 1914 -998 
L 563 -998 
L 563 4237 
L 1914 4237 
L 1914 4077 
L 1382 4077 
Q 1216 4077 1133 4006 
Q 1050 3936 1050 3770 
L 1050 -493 
Q 1050 -838 1382 -838 
L 1914 -838 
L 1914 -998 
z
" transform="scale(0.015625)"/>
       <path id="STIXGeneral-Regular-5d" d="M 1568 -998 
L 218 -998 
L 218 -838 
L 781 -838 
Q 947 -838 1014 -768 
Q 1082 -698 1082 -544 
L 1082 3731 
Q 1082 4077 755 4077 
L 218 4077 
L 218 4237 
L 1568 4237 
L 1568 -998 
z
" transform="scale(0.015625)"/>
      </defs>
      <use xlink:href="#STIXGeneral-Regular-41" transform="translate(0 0.703125)"/>
      <use xlink:href="#STIXGeneral-Regular-62" transform="translate(72.199982 0.703125)"/>
      <use xlink:href="#STIXGeneral-Regular-73" transform="translate(122.199966 0.703125)"/>
      <use xlink:href="#STIXGeneral-Regular-6f" transform="translate(161.09996 0.703125)"/>
      <use xlink:href="#STIXGeneral-Regular-72" transform="translate(211.099945 0.703125)"/>
      <use xlink:href="#STIXGeneral-Regular-70" transform="translate(244.399933 0.703125)"/>
      <use xlink:href="#STIXGeneral-Regular-74" transform="translate(294.399918 0.703125)"/>
      <use xlink:href="#STIXGeneral-Regular-69" transform="translate(322.199905 0.703125)"/>
      <use xlink:href="#STIXGeneral-Regular-6f" transform="translate(349.999893 0.703125)"/>
      <use xlink:href="#STIXGeneral-Regular-6e" transform="translate(399.999878 0.703125)"/>
      <use xlink:href="#STIXGeneral-Regular-20" transform="translate(449.999863 0.703125)"/>
      <use xlink:href="#STIXGeneral-Regular-62" transform="translate(474.999847 0.703125)"/>
      <use xlink:href="#STIXGeneral-Regular-61" transform="translate(524.999832 0.703125)"/>
      <use xlink:href="#STIXGeneral-Regular-6c" transform="translate(569.399826 0.703125)"/>
      <use xlink:href="#STIXGeneral-Regular-61" transform="translate(597.199814 0.703125)"/>
      <use xlink:href="#STIXGeneral-Regular-6e" transform="translate(641.599808 0.703125)"/>
      <use xlink:href="#STIXGeneral-Regular-63" transform="translate(691.599792 0.703125)"/>
      <use xlink:href="#STIXGeneral-Regular-65" transform="translate(735.999786 0.703125)"/>
      <use xlink:href="#STIXGeneral-Regular-20" transform="translate(780.39978 0.703125)"/>
      <use xlink:href="#STIXGeneral-Italic-3c4" transform="translate(805.399765 0.703125)"/>
      <use xlink:href="#STIXGeneral-Regular-20" transform="translate(846.39975 0.703125)"/>
      <use xlink:href="#STIXGeneral-Regular-5b" transform="translate(871.399734 0.703125)"/>
      <use xlink:href="#STIXGeneral-Regular-5d" transform="translate(904.699722 0.703125)"/>
     </g>
    </g>
   </g>
   <g id="matplotlib.axis_2">
    <g id="ytick_1">
     <g id="line2d_38">
      <defs>
       <path id="md84d72db10" d="M 0 0 
L -3.5 0 
" style="stroke: #000000; stroke-width: 0.8"/>
      </defs>
      <g>
       <use xlink:href="#md84d72db10" x="90" y="512.64" style="stroke: #000000; stroke-width: 0.8"/>
      </g>
     </g>
     <g id="text_7">
      <!-- $\mathdefault{10^{-2}}$ -->
      <g transform="translate(48.8 518.786719) scale(0.18 -0.18)">
       <use xlink:href="#STIXGeneral-Regular-31" transform="translate(0 0.684375)"/>
       <use xlink:href="#STIXGeneral-Regular-30" transform="translate(49.999985 0.684375)"/>
       <use xlink:href="#STIXGeneral-Regular-2212" transform="translate(101.574969 36.684375) scale(0.7)"/>
       <use xlink:href="#STIXGeneral-Regular-32" transform="translate(149.524959 36.684375) scale(0.7)"/>
      </g>
     </g>
    </g>
    <g id="ytick_2">
     <g id="line2d_39">
      <g>
       <use xlink:href="#md84d72db10" x="90" y="401.76" style="stroke: #000000; stroke-width: 0.8"/>
      </g>
     </g>
     <g id="text_8">
      <!-- $\mathdefault{10^{-1}}$ -->
      <g transform="translate(48.8 407.906719) scale(0.18 -0.18)">
       <use xlink:href="#STIXGeneral-Regular-31" transform="translate(0 0.684375)"/>
       <use xlink:href="#STIXGeneral-Regular-30" transform="translate(49.999985 0.684375)"/>
       <use xlink:href="#STIXGeneral-Regular-2212" transform="translate(101.574969 36.684375) scale(0.7)"/>
       <use xlink:href="#STIXGeneral-Regular-31" transform="translate(149.524959 36.684375) scale(0.7)"/>
      </g>
     </g>
    </g>
    <g id="ytick_3">
     <g id="line2d_40">
      <g>
       <use xlink:href="#md84d72db10" x="90" y="290.88" style="stroke: #000000; stroke-width: 0.8"/>
      </g>
     </g>
     <g id="text_9">
      <!-- $\mathdefault{10^{0}}$ -->
      <g transform="translate(57.44 297.026719) scale(0.18 -0.18)">
       <use xlink:href="#STIXGeneral-Regular-31" transform="translate(0 0.684375)"/>
       <use xlink:href="#STIXGeneral-Regular-30" transform="translate(49.999985 0.684375)"/>
       <use xlink:href="#STIXGeneral-Regular-30" transform="translate(101.574969 36.684375) scale(0.7)"/>
      </g>
     </g>
    </g>
    <g id="ytick_4">
     <g id="line2d_41">
      <g>
       <use xlink:href="#md84d72db10" x="90" y="180" style="stroke: #000000; stroke-width: 0.8"/>
      </g>
     </g>
     <g id="text_10">
      <!-- $\mathdefault{10^{1}}$ -->
      <g transform="translate(57.44 186.146719) scale(0.18 -0.18)">
       <use xlink:href="#STIXGeneral-Regular-31" transform="translate(0 0.684375)"/>
       <use xlink:href="#STIXGeneral-Regular-30" transform="translate(49.999985 0.684375)"/>
       <use xlink:href="#STIXGeneral-Regular-31" transform="translate(101.574969 36.684375) scale(0.7)"/>
      </g>
     </g>
    </g>
    <g id="ytick_5">
     <g id="line2d_42">
      <g>
       <use xlink:href="#md84d72db10" x="90" y="69.12" style="stroke: #000000; stroke-width: 0.8"/>
      </g>
     </g>
     <g id="text_11">
      <!-- $\mathdefault{10^{2}}$ -->
      <g transform="translate(57.44 75.266719) scale(0.18 -0.18)">
       <use xlink:href="#STIXGeneral-Regular-31" transform="translate(0 0.684375)"/>
       <use xlink:href="#STIXGeneral-Regular-30" transform="translate(49.999985 0.684375)"/>
       <use xlink:href="#STIXGeneral-Regular-32" transform="translate(101.574969 36.684375) scale(0.7)"/>
      </g>
     </g>
    </g>
    <g id="ytick_6">
     <g id="line2d_43">
      <defs>
       <path id="m8bf6a45241" d="M 0 0 
L -2 0 
" style="stroke: #000000; stroke-width: 0.6"/>
      </defs>
      <g>
       <use xlink:href="#m8bf6a45241" x="90" y="479.261794" style="stroke: #000000; stroke-width: 0.6"/>
      </g>
     </g>
    </g>
    <g id="ytick_7">
     <g id="line2d_44">
      <g>
       <use xlink:href="#m8bf6a45241" x="90" y="459.736795" style="stroke: #000000; stroke-width: 0.6"/>
      </g>
     </g>
    </g>
    <g id="ytick_8">
     <g id="line2d_45">
      <g>
       <use xlink:href="#m8bf6a45241" x="90" y="445.883588" style="stroke: #000000; stroke-width: 0.6"/>
      </g>
     </g>
    </g>
    <g id="ytick_9">
     <g id="line2d_46">
      <g>
       <use xlink:href="#m8bf6a45241" x="90" y="435.138206" style="stroke: #000000; stroke-width: 0.6"/>
      </g>
     </g>
    </g>
    <g id="ytick_10">
     <g id="line2d_47">
      <g>
       <use xlink:href="#m8bf6a45241" x="90" y="426.358589" style="stroke: #000000; stroke-width: 0.6"/>
      </g>
     </g>
    </g>
    <g id="ytick_11">
     <g id="line2d_48">
      <g>
       <use xlink:href="#m8bf6a45241" x="90" y="418.935529" style="stroke: #000000; stroke-width: 0.6"/>
      </g>
     </g>
    </g>
    <g id="ytick_12">
     <g id="line2d_49">
      <g>
       <use xlink:href="#m8bf6a45241" x="90" y="412.505382" style="stroke: #000000; stroke-width: 0.6"/>
      </g>
     </g>
    </g>
    <g id="ytick_13">
     <g id="line2d_50">
      <g>
       <use xlink:href="#m8bf6a45241" x="90" y="406.833591" style="stroke: #000000; stroke-width: 0.6"/>
      </g>
     </g>
    </g>
    <g id="ytick_14">
     <g id="line2d_51">
      <g>
       <use xlink:href="#m8bf6a45241" x="90" y="368.381794" style="stroke: #000000; stroke-width: 0.6"/>
      </g>
     </g>
    </g>
    <g id="ytick_15">
     <g id="line2d_52">
      <g>
       <use xlink:href="#m8bf6a45241" x="90" y="348.856795" style="stroke: #000000; stroke-width: 0.6"/>
      </g>
     </g>
    </g>
    <g id="ytick_16">
     <g id="line2d_53">
      <g>
       <use xlink:href="#m8bf6a45241" x="90" y="335.003588" style="stroke: #000000; stroke-width: 0.6"/>
      </g>
     </g>
    </g>
    <g id="ytick_17">
     <g id="line2d_54">
      <g>
       <use xlink:href="#m8bf6a45241" x="90" y="324.258206" style="stroke: #000000; stroke-width: 0.6"/>
      </g>
     </g>
    </g>
    <g id="ytick_18">
     <g id="line2d_55">
      <g>
       <use xlink:href="#m8bf6a45241" x="90" y="315.478589" style="stroke: #000000; stroke-width: 0.6"/>
      </g>
     </g>
    </g>
    <g id="ytick_19">
     <g id="line2d_56">
      <g>
       <use xlink:href="#m8bf6a45241" x="90" y="308.055529" style="stroke: #000000; stroke-width: 0.6"/>
      </g>
     </g>
    </g>
    <g id="ytick_20">
     <g id="line2d_57">
      <g>
       <use xlink:href="#m8bf6a45241" x="90" y="301.625382" style="stroke: #000000; stroke-width: 0.6"/>
      </g>
     </g>
    </g>
    <g id="ytick_21">
     <g id="line2d_58">
      <g>
       <use xlink:href="#m8bf6a45241" x="90" y="295.953591" style="stroke: #000000; stroke-width: 0.6"/>
      </g>
     </g>
    </g>
    <g id="ytick_22">
     <g id="line2d_59">
      <g>
       <use xlink:href="#m8bf6a45241" x="90" y="257.501794" style="stroke: #000000; stroke-width: 0.6"/>
      </g>
     </g>
    </g>
    <g id="ytick_23">
     <g id="line2d_60">
      <g>
       <use xlink:href="#m8bf6a45241" x="90" y="237.976795" style="stroke: #000000; stroke-width: 0.6"/>
      </g>
     </g>
    </g>
    <g id="ytick_24">
     <g id="line2d_61">
      <g>
       <use xlink:href="#m8bf6a45241" x="90" y="224.123588" style="stroke: #000000; stroke-width: 0.6"/>
      </g>
     </g>
    </g>
    <g id="ytick_25">
     <g id="line2d_62">
      <g>
       <use xlink:href="#m8bf6a45241" x="90" y="213.378206" style="stroke: #000000; stroke-width: 0.6"/>
      </g>
     </g>
    </g>
    <g id="ytick_26">
     <g id="line2d_63">
      <g>
       <use xlink:href="#m8bf6a45241" x="90" y="204.598589" style="stroke: #000000; stroke-width: 0.6"/>
      </g>
     </g>
    </g>
    <g id="ytick_27">
     <g id="line2d_64">
      <g>
       <use xlink:href="#m8bf6a45241" x="90" y="197.175529" style="stroke: #000000; stroke-width: 0.6"/>
      </g>
     </g>
    </g>
    <g id="ytick_28">
     <g id="line2d_65">
      <g>
       <use xlink:href="#m8bf6a45241" x="90" y="190.745382" style="stroke: #000000; stroke-width: 0.6"/>
      </g>
     </g>
    </g>
    <g id="ytick_29">
     <g id="line2d_66">
      <g>
       <use xlink:href="#m8bf6a45241" x="90" y="185.073591" style="stroke: #000000; stroke-width: 0.6"/>
      </g>
     </g>
    </g>
    <g id="ytick_30">
     <g id="line2d_67">
      <g>
       <use xlink:href="#m8bf6a45241" x="90" y="146.621794" style="stroke: #000000; stroke-width: 0.6"/>
      </g>
     </g>
    </g>
    <g id="ytick_31">
     <g id="line2d_68">
      <g>
       <use xlink:href="#m8bf6a45241" x="90" y="127.096795" style="stroke: #000000; stroke-width: 0.6"/>
      </g>
     </g>
    </g>
    <g id="ytick_32">
     <g id="line2d_69">
      <g>
       <use xlink:href="#m8bf6a45241" x="90" y="113.243588" style="stroke: #000000; stroke-width: 0.6"/>
      </g>
     </g>
    </g>
    <g id="ytick_33">
     <g id="line2d_70">
      <g>
       <use xlink:href="#m8bf6a45241" x="90" y="102.498206" style="stroke: #000000; stroke-width: 0.6"/>
      </g>
     </g>
    </g>
    <g id="ytick_34">
     <g id="line2d_71">
      <g>
       <use xlink:href="#m8bf6a45241" x="90" y="93.718589" style="stroke: #000000; stroke-width: 0.6"/>
      </g>
     </g>
    </g>
    <g id="ytick_35">
     <g id="line2d_72">
      <g>
       <use xlink:href="#m8bf6a45241" x="90" y="86.295529" style="stroke: #000000; stroke-width: 0.6"/>
      </g>
     </g>
    </g>
    <g id="ytick_36">
     <g id="line2d_73">
      <g>
       <use xlink:href="#m8bf6a45241" x="90" y="79.865382" style="stroke: #000000; stroke-width: 0.6"/>
      </g>
     </g>
    </g>
    <g id="ytick_37">
     <g id="line2d_74">
      <g>
       <use xlink:href="#m8bf6a45241" x="90" y="74.193591" style="stroke: #000000; stroke-width: 0.6"/>
      </g>
     </g>
    </g>
    <g id="text_12">
     <!-- Transport balance $\gamma$ [] -->
     <g transform="translate(39.96 387.35) rotate(-90) scale(0.22 -0.22)">
      <defs>
       <path id="STIXGeneral-Regular-54" d="M 3795 3149 
L 3642 3149 
Q 3539 3674 3353 3821 
Q 3168 3968 2656 3968 
L 2278 3968 
L 2278 710 
Q 2278 346 2387 243 
Q 2496 141 2893 122 
L 2893 0 
L 1024 0 
L 1024 122 
Q 1427 147 1526 256 
Q 1626 365 1626 787 
L 1626 3968 
L 1242 3968 
Q 723 3968 540 3817 
Q 358 3667 262 3149 
L 109 3149 
L 154 4237 
L 3750 4237 
L 3795 3149 
z
" transform="scale(0.015625)"/>
       <path id="STIXGeneral-Italic-3b3" d="M 2803 2739 
L 1050 250 
Q 1037 32 1030 -73 
Q 1024 -179 998 -406 
Q 973 -634 934 -758 
Q 896 -883 835 -1033 
Q 774 -1184 681 -1251 
Q 589 -1318 467 -1318 
Q 224 -1318 224 -998 
Q 224 -845 329 -608 
Q 435 -371 608 -57 
Q 781 256 845 397 
Q 941 1293 941 1555 
Q 941 2381 634 2381 
Q 538 2381 422 2259 
Q 307 2138 224 1894 
L 122 1894 
Q 358 2784 755 2784 
Q 986 2784 1075 2589 
Q 1165 2394 1165 2029 
Q 1165 1850 1145 1632 
Q 1126 1414 1091 1148 
Q 1056 883 1050 813 
L 2189 2739 
L 2803 2739 
z
" transform="scale(0.015625)"/>
      </defs>
      <use xlink:href="#STIXGeneral-Regular-54" transform="translate(0 0.703125)"/>
      <use xlink:href="#STIXGeneral-Regular-72" transform="translate(61.099991 0.703125)"/>
      <use xlink:href="#STIXGeneral-Regular-61" transform="translate(94.399979 0.703125)"/>
      <use xlink:href="#STIXGeneral-Regular-6e" transform="translate(138.799973 0.703125)"/>
      <use xlink:href="#STIXGeneral-Regular-73" transform="translate(188.799957 0.703125)"/>
      <use xlink:href="#STIXGeneral-Regular-70" transform="translate(227.699951 0.703125)"/>
      <use xlink:href="#STIXGeneral-Regular-6f" transform="translate(277.699936 0.703125)"/>
      <use xlink:href="#STIXGeneral-Regular-72" transform="translate(327.699921 0.703125)"/>
      <use xlink:href="#STIXGeneral-Regular-74" transform="translate(360.999908 0.703125)"/>
      <use xlink:href="#STIXGeneral-Regular-20" transform="translate(388.799896 0.703125)"/>
      <use xlink:href="#STIXGeneral-Regular-62" transform="translate(413.799881 0.703125)"/>
      <use xlink:href="#STIXGeneral-Regular-61" transform="translate(463.799866 0.703125)"/>
      <use xlink:href="#STIXGeneral-Regular-6c" transform="translate(508.19986 0.703125)"/>
      <use xlink:href="#STIXGeneral-Regular-61" transform="translate(535.999847 0.703125)"/>
      <use xlink:href="#STIXGeneral-Regular-6e" transform="translate(580.399841 0.703125)"/>
      <use xlink:href="#STIXGeneral-Regular-63" transform="translate(630.399826 0.703125)"/>
      <use xlink:href="#STIXGeneral-Regular-65" transform="translate(674.79982 0.703125)"/>
      <use xlink:href="#STIXGeneral-Regular-20" transform="translate(719.199814 0.703125)"/>
      <use xlink:href="#STIXGeneral-Italic-3b3" transform="translate(744.199799 0.703125)"/>
      <use xlink:href="#STIXGeneral-Regular-20" transform="translate(785.199783 0.703125)"/>
      <use xlink:href="#STIXGeneral-Regular-5b" transform="translate(810.199768 0.703125)"/>
      <use xlink:href="#STIXGeneral-Regular-5d" transform="translate(843.499756 0.703125)"/>
     </g>
    </g>
   </g>
   <g id="line2d_75">
    <path d="M 189.040341 577 
L 250.827068 479.059869 
L 280.195489 432.895762 
L 299.774436 402.521802 
L 313.759398 381.192752 
L 326.345865 362.402895 
L 336.135338 348.157581 
L 344.526316 336.278588 
L 352.917293 324.772051 
L 359.909774 315.515038 
L 366.902256 306.598301 
L 373.894737 298.053034 
L 380.887218 289.901927 
L 387.879699 282.155674 
L 394.87218 274.810238 
L 401.864662 267.845594 
L 408.857143 261.226511 
L 415.849624 254.905514 
L 424.240602 247.636268 
L 434.030075 239.468793 
L 448.015038 228.136474 
L 477.383459 204.733243 
L 648 69.12 
L 648 69.12 
" clip-path="url(#p7c1895894c)" style="fill: none; stroke: #000000; stroke-width: 2; stroke-linecap: square"/>
   </g>
   <g id="line2d_76">
    <path d="M 129.765973 577 
L 241.037594 400.342177 
L 274.601504 347.456425 
L 295.578947 314.798164 
L 310.962406 291.235061 
L 323.548872 272.346397 
L 334.736842 255.978207 
L 344.526316 242.087691 
L 352.917293 230.581154 
L 359.909774 221.324141 
L 366.902256 212.407404 
L 373.894737 203.862137 
L 380.887218 195.71103 
L 387.879699 187.964777 
L 394.87218 180.619341 
L 401.864662 173.654697 
L 408.857143 167.035614 
L 415.849624 160.714617 
L 424.240602 153.445371 
L 434.030075 145.277896 
L 448.015038 133.945577 
L 477.383459 110.542346 
L 617.715998 -1 
L 617.715998 -1 
" clip-path="url(#p7c1895894c)" style="fill: none; stroke-dasharray: 3.7,1.6; stroke-dashoffset: 0; stroke: #000000"/>
   </g>
   <g id="line2d_77">
    <path d="M 154.14719 577 
L 243.834586 434.669321 
L 276 384.01708 
L 296.977444 351.390352 
L 312.360902 327.867063 
L 324.947368 309.026856 
L 334.736842 294.729104 
L 344.526316 280.838588 
L 352.917293 269.332051 
L 359.909774 260.075038 
L 366.902256 251.158301 
L 373.894737 242.613034 
L 380.887218 234.461927 
L 387.879699 226.715674 
L 394.87218 219.370238 
L 401.864662 212.405594 
L 408.857143 205.786511 
L 415.849624 199.465514 
L 424.240602 192.196268 
L 434.030075 184.028793 
L 448.015038 172.696474 
L 477.383459 149.293243 
L 648 13.68 
L 648 13.68 
" clip-path="url(#p7c1895894c)" style="fill: none; stroke-dasharray: 3.7,1.6; stroke-dashoffset: 0; stroke: #000000"/>
   </g>
   <g id="line2d_78">
    <path d="M 223.972782 577 
L 264.81203 512.456413 
L 288.586466 475.262258 
L 305.368421 449.383874 
L 319.353383 428.225152 
L 330.541353 411.692324 
L 340.330827 397.61559 
L 348.721805 385.914665 
L 357.112782 374.61896 
L 364.105263 365.562015 
L 371.097744 356.864879 
L 378.090226 348.55408 
L 385.082707 340.645498 
L 392.075188 333.141236 
L 399.067669 326.027696 
L 406.06015 319.27549 
L 413.052632 312.841555 
L 421.443609 305.466533 
L 431.233083 297.215692 
L 443.819549 286.949888 
L 466.195489 269.069865 
L 648 124.56 
L 648 124.56 
" clip-path="url(#p7c1895894c)" style="fill: none; stroke-dasharray: 3.7,1.6; stroke-dashoffset: 0; stroke: #000000"/>
   </g>
   <g id="line2d_79">
    <path d="M 248.453374 577 
L 277.398496 531.459257 
L 296.977444 501.021249 
L 312.360902 477.49796 
L 324.947368 458.657753 
L 334.736842 444.360001 
L 344.526316 430.469485 
L 352.917293 418.962948 
L 359.909774 409.705935 
L 366.902256 400.789198 
L 373.894737 392.243931 
L 380.887218 384.092824 
L 387.879699 376.346571 
L 394.87218 369.001135 
L 401.864662 362.036491 
L 408.857143 355.417408 
L 415.849624 349.096411 
L 424.240602 341.827165 
L 434.030075 333.65969 
L 448.015038 322.327371 
L 477.383459 298.92414 
L 648 163.310897 
L 648 163.310897 
" clip-path="url(#p7c1895894c)" style="fill: none; stroke-dasharray: 3.7,1.6; stroke-dashoffset: 0; stroke: #000000"/>
   </g>
   <g id="line2d_80">
    <path d="M 369 512.64 
L 369 69.12 
" clip-path="url(#p7c1895894c)" style="fill: none; stroke-dasharray: 9.6,2.4,1.5,2.4; stroke-dashoffset: 0; stroke: #808080; stroke-width: 1.5"/>
   </g>
   <g id="line2d_81">
    <path d="M 90 290.88 
L 648 290.88 
" clip-path="url(#p7c1895894c)" style="fill: none; stroke-dasharray: 9.6,2.4,1.5,2.4; stroke-dashoffset: 0; stroke: #808080; stroke-width: 1.5"/>
   </g>
   <g id="patch_3">
    <path d="M 90 512.64 
L 90 69.12 
" style="fill: none; stroke: #000000; stroke-width: 0.8; stroke-linejoin: miter; stroke-linecap: square"/>
   </g>
   <g id="patch_4">
    <path d="M 648 512.64 
L 648 69.12 
" style="fill: none; stroke: #000000; stroke-width: 0.8; stroke-linejoin: miter; stroke-linecap: square"/>
   </g>
   <g id="patch_5">
    <path d="M 90 512.64 
L 648 512.64 
" style="fill: none; stroke: #000000; stroke-width: 0.8; stroke-linejoin: miter; stroke-linecap: square"/>
   </g>
   <g id="patch_6">
    <path d="M 90 69.12 
L 648 69.12 
" style="fill: none; stroke: #000000; stroke-width: 0.8; stroke-linejoin: miter; stroke-linecap: square"/>
   </g>
   <g id="PathCollection_1">
    <defs>
     <path id="m68c5262c35" d="M 0 5 
C 1.326016 5 2.597899 4.473168 3.535534 3.535534 
C 4.473168 2.597899 5 1.326016 5 0 
C 5 -1.326016 4.473168 -2.597899 3.535534 -3.535534 
C 2.597899 -4.473168 1.326016 -5 0 -5 
C -1.326016 -5 -2.597899 -4.473168 -3.535534 -3.535534 
C -4.473168 -2.597899 -5 -1.326016 -5 0 
C -5 1.326016 -4.473168 2.597899 -3.535534 3.535534 
C -2.597899 4.473168 -1.326016 5 0 5 
z
" style="stroke: #00008b"/>
    </defs>
    <g clip-path="url(#p7c1895894c)">
     <use xlink:href="#m68c5262c35" x="399.489489" y="268.0383" style="fill: #00008b; stroke: #00008b"/>
     <use xlink:href="#m68c5262c35" x="398.959751" y="268.168633" style="fill: #00008b; stroke: #00008b"/>
     <use xlink:href="#m68c5262c35" x="375.853581" y="292.252013" style="fill: #00008b; stroke: #00008b"/>
     <use xlink:href="#m68c5262c35" x="376.250332" y="292.393939" style="fill: #00008b; stroke: #00008b"/>
     <use xlink:href="#m68c5262c35" x="329.368865" y="308.348726" style="fill: #00008b; stroke: #00008b"/>
     <use xlink:href="#m68c5262c35" x="361.701469" y="273.762812" style="fill: #00008b; stroke: #00008b"/>
     <use xlink:href="#m68c5262c35" x="362.23167" y="272.77053" style="fill: #00008b; stroke: #00008b"/>
     <use xlink:href="#m68c5262c35" x="333.982153" y="309.721072" style="fill: #00008b; stroke: #00008b"/>
     <use xlink:href="#m68c5262c35" x="333.736779" y="310.464343" style="fill: #00008b; stroke: #00008b"/>
     <use xlink:href="#m68c5262c35" x="331.173669" y="305.638817" style="fill: #00008b; stroke: #00008b"/>
     <use xlink:href="#m68c5262c35" x="331.422925" y="306.626187" style="fill: #00008b; stroke: #00008b"/>
     <use xlink:href="#m68c5262c35" x="347.378487" y="287.342679" style="fill: #00008b; stroke: #00008b"/>
     <use xlink:href="#m68c5262c35" x="341.609653" y="295.379265" style="fill: #00008b; stroke: #00008b"/>
     <use xlink:href="#m68c5262c35" x="331.391634" y="305.092232" style="fill: #00008b; stroke: #00008b"/>
     <use xlink:href="#m68c5262c35" x="337.061904" y="278.860984" style="fill: #00008b; stroke: #00008b"/>
     <use xlink:href="#m68c5262c35" x="327.118876" y="295.617983" style="fill: #00008b; stroke: #00008b"/>
     <use xlink:href="#m68c5262c35" x="340.486223" y="304.990228" style="fill: #00008b; stroke: #00008b"/>
     <use xlink:href="#m68c5262c35" x="357.974206" y="267.296457" style="fill: #00008b; stroke: #00008b"/>
     <use xlink:href="#m68c5262c35" x="358.288767" y="257.073314" style="fill: #00008b; stroke: #00008b"/>
     <use xlink:href="#m68c5262c35" x="333.197565" y="302.126989" style="fill: #00008b; stroke: #00008b"/>
     <use xlink:href="#m68c5262c35" x="329.042566" y="286.625184" style="fill: #00008b; stroke: #00008b"/>
    </g>
   </g>
   <g id="PathCollection_2">
    <defs>
     <path id="m397653dd03" d="M 0 5 
C 1.326016 5 2.597899 4.473168 3.535534 3.535534 
C 4.473168 2.597899 5 1.326016 5 0 
C 5 -1.326016 4.473168 -2.597899 3.535534 -3.535534 
C 2.597899 -4.473168 1.326016 -5 0 -5 
C -1.326016 -5 -2.597899 -4.473168 -3.535534 -3.535534 
C -4.473168 -2.597899 -5 -1.326016 -5 0 
C -5 1.326016 -4.473168 2.597899 -3.535534 3.535534 
C -2.597899 4.473168 -1.326016 5 0 5 
z
" style="stroke: #00a6ff"/>
    </defs>
    <g clip-path="url(#p7c1895894c)">
     <use xlink:href="#m397653dd03" x="329.368865" y="308.348726" style="fill: #00a6ff; stroke: #00a6ff"/>
     <use xlink:href="#m397653dd03" x="333.982153" y="309.721072" style="fill: #00a6ff; stroke: #00a6ff"/>
     <use xlink:href="#m397653dd03" x="333.736779" y="310.464343" style="fill: #00a6ff; stroke: #00a6ff"/>
     <use xlink:href="#m397653dd03" x="331.173669" y="305.638817" style="fill: #00a6ff; stroke: #00a6ff"/>
     <use xlink:href="#m397653dd03" x="331.422925" y="306.626187" style="fill: #00a6ff; stroke: #00a6ff"/>
     <use xlink:href="#m397653dd03" x="347.378487" y="287.342679" style="fill: #00a6ff; stroke: #00a6ff"/>
     <use xlink:href="#m397653dd03" x="341.609653" y="295.379265" style="fill: #00a6ff; stroke: #00a6ff"/>
     <use xlink:href="#m397653dd03" x="331.391634" y="305.092232" style="fill: #00a6ff; stroke: #00a6ff"/>
    </g>
   </g>
   <g id="PathCollection_3">
    <defs>
     <path id="md98228f34c" d="M 0 5 
C 1.326016 5 2.597899 4.473168 3.535534 3.535534 
C 4.473168 2.597899 5 1.326016 5 0 
C 5 -1.326016 4.473168 -2.597899 3.535534 -3.535534 
C 2.597899 -4.473168 1.326016 -5 0 -5 
C -1.326016 -5 -2.597899 -4.473168 -3.535534 -3.535534 
C -4.473168 -2.597899 -5 -1.326016 -5 0 
C -5 1.326016 -4.473168 2.597899 -3.535534 3.535534 
C -2.597899 4.473168 -1.326016 5 0 5 
z
" style="stroke: #00fffb"/>
    </defs>
    <g clip-path="url(#p7c1895894c)">
     <use xlink:href="#md98228f34c" x="287.375181" y="375.105138" style="fill: #00fffb; stroke: #00fffb"/>
     <use xlink:href="#md98228f34c" x="291.988469" y="376.477484" style="fill: #00fffb; stroke: #00fffb"/>
     <use xlink:href="#md98228f34c" x="291.743094" y="377.220755" style="fill: #00fffb; stroke: #00fffb"/>
     <use xlink:href="#md98228f34c" x="289.179985" y="372.395229" style="fill: #00fffb; stroke: #00fffb"/>
     <use xlink:href="#md98228f34c" x="289.42924" y="373.382599" style="fill: #00fffb; stroke: #00fffb"/>
     <use xlink:href="#md98228f34c" x="305.384802" y="354.099091" style="fill: #00fffb; stroke: #00fffb"/>
     <use xlink:href="#md98228f34c" x="299.615968" y="362.135677" style="fill: #00fffb; stroke: #00fffb"/>
     <use xlink:href="#md98228f34c" x="289.397949" y="371.848644" style="fill: #00fffb; stroke: #00fffb"/>
    </g>
   </g>
   <g id="patch_7">
    <path d="M 325.916906 317.161353 
Q 316.199491 332.17142 307.697265 345.304437 
" style="fill: none; stroke: #000000; stroke-width: 2; stroke-linecap: round"/>
    <path d="M 316.173162 340.308523 
L 307.697265 345.304437 
L 308.786072 335.526171 
z
" style="stroke: #000000; stroke-width: 2; stroke-linecap: round"/>
   </g>
   <g id="legend_1">
    <g id="patch_8">
     <path d="M 101.2 149.9675 
L 333.2975 149.9675 
Q 336.4975 149.9675 336.4975 146.7675 
L 336.4975 80.32 
Q 336.4975 77.12 333.2975 77.12 
L 101.2 77.12 
Q 98 77.12 98 80.32 
L 98 146.7675 
Q 98 149.9675 101.2 149.9675 
z
" style="fill: #ffffff; opacity: 0.8; stroke: #cccccc; stroke-linejoin: miter"/>
    </g>
    <g id="PathCollection_4">
     <g>
      <use xlink:href="#m68c5262c35" x="120.4" y="90.52" style="fill: #00008b; stroke: #00008b"/>
     </g>
    </g>
    <g id="text_13">
     <!-- Hypostomatous -->
     <g transform="translate(149.2 94.72) scale(0.16 -0.16)">
      <defs>
       <path id="STIXGeneral-Regular-48" d="M 4499 0 
L 2714 0 
L 2714 122 
Q 3085 147 3181 265 
Q 3277 384 3277 794 
L 3277 2016 
L 1338 2016 
L 1338 723 
Q 1338 371 1440 256 
Q 1542 141 1894 122 
L 1901 0 
L 115 0 
L 115 122 
Q 493 147 589 259 
Q 685 371 685 781 
L 685 3507 
Q 685 3878 585 3980 
Q 486 4083 115 4115 
L 115 4237 
L 1907 4237 
L 1907 4115 
Q 1549 4083 1443 3977 
Q 1338 3872 1338 3507 
L 1338 2298 
L 3277 2298 
L 3277 3507 
Q 3277 3878 3177 3980 
Q 3078 4083 2707 4115 
L 2707 4237 
L 4499 4237 
L 4499 4115 
Q 4141 4083 4035 3977 
Q 3930 3872 3930 3507 
L 3930 710 
Q 3930 371 4035 259 
Q 4141 147 4499 122 
L 4499 0 
z
" transform="scale(0.015625)"/>
       <path id="STIXGeneral-Regular-79" d="M 3040 2880 
L 3040 2784 
Q 2925 2771 2854 2700 
Q 2784 2630 2720 2458 
L 1760 -160 
Q 1510 -838 1257 -1116 
Q 1005 -1395 640 -1395 
Q 435 -1395 313 -1289 
Q 192 -1184 192 -1024 
Q 192 -902 272 -816 
Q 352 -730 467 -730 
Q 653 -730 800 -813 
Q 883 -858 966 -858 
Q 1101 -858 1286 -576 
Q 1376 -448 1459 -211 
Q 1542 26 1542 115 
Q 1542 198 1274 762 
L 429 2566 
Q 346 2752 90 2790 
L 90 2880 
L 1402 2880 
L 1402 2784 
Q 1197 2778 1117 2739 
Q 1037 2701 1037 2611 
Q 1037 2541 1120 2349 
L 1837 749 
L 2458 2515 
Q 2483 2573 2483 2630 
Q 2483 2784 2189 2784 
L 2189 2880 
L 3040 2880 
z
" transform="scale(0.015625)"/>
       <path id="STIXGeneral-Regular-6d" d="M 4960 0 
L 3565 0 
L 3565 96 
Q 3834 122 3907 208 
Q 3981 294 3981 576 
L 3981 1894 
Q 3981 2278 3869 2444 
Q 3757 2611 3488 2611 
Q 3264 2611 3107 2521 
Q 2950 2432 2803 2221 
L 2803 608 
Q 2803 301 2896 201 
Q 2989 102 3264 96 
L 3264 0 
L 1830 0 
L 1830 96 
Q 2112 115 2189 188 
Q 2266 262 2266 550 
L 2266 1901 
Q 2266 2611 1850 2611 
Q 1670 2611 1468 2531 
Q 1267 2451 1171 2336 
Q 1088 2240 1088 2227 
L 1088 448 
Q 1088 243 1177 176 
Q 1267 109 1523 96 
L 1523 0 
L 102 0 
L 102 96 
Q 371 102 460 195 
Q 550 288 550 563 
L 550 2150 
Q 550 2387 499 2480 
Q 448 2573 326 2573 
Q 230 2573 122 2547 
L 122 2656 
Q 557 2778 1011 2944 
L 1062 2925 
L 1062 2451 
L 1075 2451 
Q 1363 2752 1584 2848 
Q 1805 2944 2054 2944 
Q 2560 2944 2733 2406 
Q 3232 2944 3776 2944 
Q 4518 2944 4518 1792 
L 4518 493 
Q 4518 282 4582 202 
Q 4646 122 4794 109 
L 4960 96 
L 4960 0 
z
" transform="scale(0.015625)"/>
       <path id="STIXGeneral-Regular-75" d="M 3072 320 
L 3072 230 
Q 2573 96 2195 -58 
L 2163 -38 
L 2163 486 
L 2150 486 
Q 1747 -64 1235 -64 
Q 870 -64 662 160 
Q 454 384 454 755 
L 454 2362 
Q 454 2598 371 2688 
Q 288 2778 58 2790 
L 58 2880 
L 992 2880 
L 992 813 
Q 992 595 1123 451 
Q 1254 307 1446 307 
Q 1760 307 1984 506 
Q 2067 582 2099 649 
Q 2131 717 2131 877 
L 2131 2355 
Q 2131 2605 2041 2678 
Q 1952 2752 1658 2771 
L 1658 2880 
L 2669 2880 
L 2669 685 
Q 2669 461 2742 390 
Q 2816 320 3034 320 
L 3072 320 
z
" transform="scale(0.015625)"/>
      </defs>
      <use xlink:href="#STIXGeneral-Regular-48"/>
      <use xlink:href="#STIXGeneral-Regular-79" transform="translate(72.199982 0)"/>
      <use xlink:href="#STIXGeneral-Regular-70" transform="translate(122.199966 0)"/>
      <use xlink:href="#STIXGeneral-Regular-6f" transform="translate(172.199951 0)"/>
      <use xlink:href="#STIXGeneral-Regular-73" transform="translate(222.199936 0)"/>
      <use xlink:href="#STIXGeneral-Regular-74" transform="translate(261.09993 0)"/>
      <use xlink:href="#STIXGeneral-Regular-6f" transform="translate(288.899918 0)"/>
      <use xlink:href="#STIXGeneral-Regular-6d" transform="translate(338.899902 0)"/>
      <use xlink:href="#STIXGeneral-Regular-61" transform="translate(416.69989 0)"/>
      <use xlink:href="#STIXGeneral-Regular-74" transform="translate(461.099884 0)"/>
      <use xlink:href="#STIXGeneral-Regular-6f" transform="translate(488.899872 0)"/>
      <use xlink:href="#STIXGeneral-Regular-75" transform="translate(538.899857 0)"/>
      <use xlink:href="#STIXGeneral-Regular-73" transform="translate(588.899841 0)"/>
     </g>
    </g>
    <g id="PathCollection_5">
     <g>
      <use xlink:href="#m397653dd03" x="120.4" y="113.2075" style="fill: #00a6ff; stroke: #00a6ff"/>
     </g>
    </g>
    <g id="text_14">
     <!-- Amphistomatous -->
     <g transform="translate(149.2 117.4075) scale(0.16 -0.16)">
      <defs>
       <path id="STIXGeneral-Regular-68" d="M 3117 0 
L 1760 0 
L 1760 96 
Q 2042 128 2118 224 
Q 2195 320 2195 653 
L 2195 1920 
Q 2195 2598 1722 2598 
Q 1530 2598 1370 2508 
Q 1210 2419 1005 2195 
L 1005 653 
Q 1005 320 1081 224 
Q 1158 128 1440 96 
L 1440 0 
L 58 0 
L 58 96 
Q 333 134 400 224 
Q 467 314 467 653 
L 467 3667 
Q 467 3872 406 3933 
Q 346 3994 141 3994 
Q 83 3994 64 3987 
L 64 4090 
L 237 4141 
Q 730 4288 973 4371 
L 1005 4352 
L 1005 2406 
Q 1229 2694 1446 2819 
Q 1664 2944 1946 2944 
Q 2733 2944 2733 1926 
L 2733 653 
Q 2733 320 2793 233 
Q 2854 147 3117 96 
L 3117 0 
z
" transform="scale(0.015625)"/>
      </defs>
      <use xlink:href="#STIXGeneral-Regular-41"/>
      <use xlink:href="#STIXGeneral-Regular-6d" transform="translate(72.199982 0)"/>
      <use xlink:href="#STIXGeneral-Regular-70" transform="translate(149.999969 0)"/>
      <use xlink:href="#STIXGeneral-Regular-68" transform="translate(199.999954 0)"/>
      <use xlink:href="#STIXGeneral-Regular-69" transform="translate(249.999939 0)"/>
      <use xlink:href="#STIXGeneral-Regular-73" transform="translate(277.799927 0)"/>
      <use xlink:href="#STIXGeneral-Regular-74" transform="translate(316.699921 0)"/>
      <use xlink:href="#STIXGeneral-Regular-6f" transform="translate(344.499908 0)"/>
      <use xlink:href="#STIXGeneral-Regular-6d" transform="translate(394.499893 0)"/>
      <use xlink:href="#STIXGeneral-Regular-61" transform="translate(472.299881 0)"/>
      <use xlink:href="#STIXGeneral-Regular-74" transform="translate(516.699875 0)"/>
      <use xlink:href="#STIXGeneral-Regular-6f" transform="translate(544.499863 0)"/>
      <use xlink:href="#STIXGeneral-Regular-75" transform="translate(594.499847 0)"/>
      <use xlink:href="#STIXGeneral-Regular-73" transform="translate(644.499832 0)"/>
     </g>
    </g>
    <g id="PathCollection_6">
     <g>
      <use xlink:href="#md98228f34c" x="120.4" y="135.88" style="fill: #00fffb; stroke: #00fffb"/>
     </g>
    </g>
    <g id="text_15">
     <!-- Amphistomatous symmetric -->
     <g transform="translate(149.2 140.08) scale(0.16 -0.16)">
      <use xlink:href="#STIXGeneral-Regular-41"/>
      <use xlink:href="#STIXGeneral-Regular-6d" transform="translate(72.199982 0)"/>
      <use xlink:href="#STIXGeneral-Regular-70" transform="translate(149.999969 0)"/>
      <use xlink:href="#STIXGeneral-Regular-68" transform="translate(199.999954 0)"/>
      <use xlink:href="#STIXGeneral-Regular-69" transform="translate(249.999939 0)"/>
      <use xlink:href="#STIXGeneral-Regular-73" transform="translate(277.799927 0)"/>
      <use xlink:href="#STIXGeneral-Regular-74" transform="translate(316.699921 0)"/>
      <use xlink:href="#STIXGeneral-Regular-6f" transform="translate(344.499908 0)"/>
      <use xlink:href="#STIXGeneral-Regular-6d" transform="translate(394.499893 0)"/>
      <use xlink:href="#STIXGeneral-Regular-61" transform="translate(472.299881 0)"/>
      <use xlink:href="#STIXGeneral-Regular-74" transform="translate(516.699875 0)"/>
      <use xlink:href="#STIXGeneral-Regular-6f" transform="translate(544.499863 0)"/>
      <use xlink:href="#STIXGeneral-Regular-75" transform="translate(594.499847 0)"/>
      <use xlink:href="#STIXGeneral-Regular-73" transform="translate(644.499832 0)"/>
      <use xlink:href="#STIXGeneral-Regular-20" transform="translate(683.399826 0)"/>
      <use xlink:href="#STIXGeneral-Regular-73" transform="translate(708.399811 0)"/>
      <use xlink:href="#STIXGeneral-Regular-79" transform="translate(747.299805 0)"/>
      <use xlink:href="#STIXGeneral-Regular-6d" transform="translate(797.299789 0)"/>
      <use xlink:href="#STIXGeneral-Regular-6d" transform="translate(875.099777 0)"/>
      <use xlink:href="#STIXGeneral-Regular-65" transform="translate(952.899765 0)"/>
      <use xlink:href="#STIXGeneral-Regular-74" transform="translate(997.299759 0)"/>
      <use xlink:href="#STIXGeneral-Regular-72" transform="translate(1025.099747 0)"/>
      <use xlink:href="#STIXGeneral-Regular-69" transform="translate(1058.399734 0)"/>
      <use xlink:href="#STIXGeneral-Regular-63" transform="translate(1086.199722 0)"/>
     </g>
    </g>
   </g>
  </g>
 </g>
 <defs>
  <clipPath id="p7c1895894c">
   <rect x="90" y="69.12" width="558" height="443.52"/>
  </clipPath>
 </defs>
</svg>
