<?xml version="1.0" encoding="utf-8" standalone="no"?>
<!DOCTYPE svg PUBLIC "-//W3C//DTD SVG 1.1//EN"
  "http://www.w3.org/Graphics/SVG/1.1/DTD/svg11.dtd">
<svg xmlns:xlink="http://www.w3.org/1999/xlink" width="288pt" height="432pt" viewBox="0 0 288 432" xmlns="http://www.w3.org/2000/svg" version="1.1">
 <metadata>
  <rdf:RDF xmlns:dc="http://purl.org/dc/elements/1.1/" xmlns:cc="http://creativecommons.org/ns#" xmlns:rdf="http://www.w3.org/1999/02/22-rdf-syntax-ns#">
   <cc:Work>
    <dc:type rdf:resource="http://purl.org/dc/dcmitype/StillImage"/>
    <dc:date>2026-02-22T20:45:19.972678</dc:date>
    <dc:format>image/svg+xml</dc:format>
    <dc:creator>
     <cc:Agent>
      <dc:title>Matplotlib v3.10.7, https://matplotlib.org/</dc:title>
     </cc:Agent>
    </dc:creator>
   </cc:Work>
  </rdf:RDF>
 </metadata>
 <defs>
  <style type="text/css">*{stroke-linejoin: round; stroke-linecap: butt}</style>
 </defs>
 <g id="figure_1">
  <g id="patch_1">
   <path d="M 0 432 
L 288 432 
L 288 0 
L 0 0 
z
" style="fill: #ffffff"/>
  </g>
  <g id="axes_1">
   <g id="patch_2">
    <path d="M 36 203.04 
L 259.2 203.04 
L 259.2 51.84 
L 36 51.84 
z
" style="fill: #ffffff"/>
   </g>
   <g id="matplotlib.axis_1">
    <g id="xtick_1">
     <g id="line2d_1">
      <defs>
       <path id="mce2c1da312" d="M 0 0 
L 0 3.5 
" style="stroke: #000000; stroke-width: 0.8"/>
      </defs>
      <g>
       <use xlink:href="#mce2c1da312" x="56.290909" y="203.04" style="stroke: #000000; stroke-width: 0.8"/>
      </g>
     </g>
    </g>
    <g id="xtick_2">
     <g id="line2d_2">
      <g>
       <use xlink:href="#mce2c1da312" x="96.872727" y="203.04" style="stroke: #000000; stroke-width: 0.8"/>
      </g>
     </g>
    </g>
    <g id="xtick_3">
     <g id="line2d_3">
      <g>
       <use xlink:href="#mce2c1da312" x="137.454545" y="203.04" style="stroke: #000000; stroke-width: 0.8"/>
      </g>
     </g>
    </g>
    <g id="xtick_4">
     <g id="line2d_4">
      <g>
       <use xlink:href="#mce2c1da312" x="178.036364" y="203.04" style="stroke: #000000; stroke-width: 0.8"/>
      </g>
     </g>
    </g>
    <g id="xtick_5">
     <g id="line2d_5">
      <g>
       <use xlink:href="#mce2c1da312" x="218.618182" y="203.04" style="stroke: #000000; stroke-width: 0.8"/>
      </g>
     </g>
    </g>
    <g id="xtick_6">
     <g id="line2d_6">
      <g>
       <use xlink:href="#mce2c1da312" x="259.2" y="203.04" style="stroke: #000000; stroke-width: 0.8"/>
      </g>
     </g>
    </g>
   </g>
   <g id="matplotlib.axis_2">
    <g id="ytick_1">
     <g id="line2d_7">
      <defs>
       <path id="m816773a632" d="M 0 0 
L -3.5 0 
" style="stroke: #000000; stroke-width: 0.8"/>
      </defs>
      <g>
       <use xlink:href="#m816773a632" x="36" y="203.04" style="stroke: #000000; stroke-width: 0.8"/>
      </g>
     </g>
     <g id="text_1">
      <!-- 0.0 -->
      <g transform="translate(14 207.137812) scale(0.12 -0.12)">
       <defs>
        <path id="STIXGeneral-Regular-30" d="M 3046 2112 
Q 3046 1683 2963 1302 
Q 2880 922 2717 602 
Q 2554 282 2266 96 
Q 1978 -90 1600 -90 
Q 1210 -90 915 108 
Q 621 307 461 640 
Q 301 973 227 1350 
Q 154 1728 154 2150 
Q 154 2746 301 3222 
Q 448 3699 790 4012 
Q 1133 4326 1626 4326 
Q 2253 4326 2649 3712 
Q 3046 3098 3046 2112 
z
M 2432 2080 
Q 2432 3091 2217 3625 
Q 2003 4160 1587 4160 
Q 1190 4160 979 3622 
Q 768 3085 768 2106 
Q 768 1120 979 598 
Q 1190 77 1600 77 
Q 2003 77 2217 598 
Q 2432 1120 2432 2080 
z
" transform="scale(0.015625)"/>
        <path id="STIXGeneral-Regular-2e" d="M 1158 275 
Q 1158 134 1052 32 
Q 947 -70 800 -70 
Q 653 -70 550 32 
Q 448 134 448 281 
Q 448 429 553 534 
Q 659 640 806 640 
Q 947 640 1052 531 
Q 1158 422 1158 275 
z
" transform="scale(0.015625)"/>
       </defs>
       <use xlink:href="#STIXGeneral-Regular-30"/>
       <use xlink:href="#STIXGeneral-Regular-2e" transform="translate(49.999985 0)"/>
       <use xlink:href="#STIXGeneral-Regular-30" transform="translate(74.999969 0)"/>
      </g>
     </g>
    </g>
    <g id="ytick_2">
     <g id="line2d_8">
      <g>
       <use xlink:href="#m816773a632" x="36" y="172.8" style="stroke: #000000; stroke-width: 0.8"/>
      </g>
     </g>
     <g id="text_2">
      <!-- 0.2 -->
      <g transform="translate(14 176.897813) scale(0.12 -0.12)">
       <defs>
        <path id="STIXGeneral-Regular-32" d="M 3034 877 
L 2688 0 
L 186 0 
L 186 77 
L 1325 1286 
Q 1773 1754 1965 2144 
Q 2157 2534 2157 2950 
Q 2157 3379 1920 3616 
Q 1683 3853 1267 3853 
Q 922 3853 720 3673 
Q 518 3494 326 3021 
L 192 3053 
Q 301 3648 630 3987 
Q 960 4326 1523 4326 
Q 2054 4326 2380 4006 
Q 2707 3686 2707 3200 
Q 2707 2477 1888 1613 
L 832 486 
L 2330 486 
Q 2541 486 2665 569 
Q 2790 653 2944 915 
L 3034 877 
z
" transform="scale(0.015625)"/>
       </defs>
       <use xlink:href="#STIXGeneral-Regular-30"/>
       <use xlink:href="#STIXGeneral-Regular-2e" transform="translate(49.999985 0)"/>
       <use xlink:href="#STIXGeneral-Regular-32" transform="translate(74.999969 0)"/>
      </g>
     </g>
    </g>
    <g id="ytick_3">
     <g id="line2d_9">
      <g>
       <use xlink:href="#m816773a632" x="36" y="142.56" style="stroke: #000000; stroke-width: 0.8"/>
      </g>
     </g>
     <g id="text_3">
      <!-- 0.4 -->
      <g transform="translate(14 146.657812) scale(0.12 -0.12)">
       <defs>
        <path id="STIXGeneral-Regular-34" d="M 3027 1069 
L 2368 1069 
L 2368 0 
L 1869 0 
L 1869 1069 
L 77 1069 
L 77 1478 
L 2086 4326 
L 2368 4326 
L 2368 1478 
L 3027 1478 
L 3027 1069 
z
M 1869 1478 
L 1869 3674 
L 333 1478 
L 1869 1478 
z
" transform="scale(0.015625)"/>
       </defs>
       <use xlink:href="#STIXGeneral-Regular-30"/>
       <use xlink:href="#STIXGeneral-Regular-2e" transform="translate(49.999985 0)"/>
       <use xlink:href="#STIXGeneral-Regular-34" transform="translate(74.999969 0)"/>
      </g>
     </g>
    </g>
    <g id="ytick_4">
     <g id="line2d_10">
      <g>
       <use xlink:href="#m816773a632" x="36" y="112.32" style="stroke: #000000; stroke-width: 0.8"/>
      </g>
     </g>
     <g id="text_4">
      <!-- 0.6 -->
      <g transform="translate(14 116.417812) scale(0.12 -0.12)">
       <defs>
        <path id="STIXGeneral-Regular-36" d="M 2854 4378 
L 2867 4275 
Q 2112 4154 1606 3664 
Q 1101 3174 973 2451 
Q 1344 2739 1786 2739 
Q 2349 2739 2672 2380 
Q 2995 2022 2995 1402 
Q 2995 774 2669 378 
Q 2291 -90 1651 -90 
Q 870 -90 518 557 
Q 218 1107 218 1786 
Q 218 2835 915 3552 
Q 1312 3962 1731 4131 
Q 2150 4301 2854 4378 
z
M 2419 1203 
Q 2419 2445 1555 2445 
Q 1235 2445 1024 2275 
Q 813 2106 813 1702 
Q 813 954 1046 522 
Q 1280 90 1722 90 
Q 2061 90 2240 394 
Q 2419 698 2419 1203 
z
" transform="scale(0.015625)"/>
       </defs>
       <use xlink:href="#STIXGeneral-Regular-30"/>
       <use xlink:href="#STIXGeneral-Regular-2e" transform="translate(49.999985 0)"/>
       <use xlink:href="#STIXGeneral-Regular-36" transform="translate(74.999969 0)"/>
      </g>
     </g>
    </g>
    <g id="ytick_5">
     <g id="line2d_11">
      <g>
       <use xlink:href="#m816773a632" x="36" y="82.08" style="stroke: #000000; stroke-width: 0.8"/>
      </g>
     </g>
     <g id="text_5">
      <!-- 0.8 -->
      <g transform="translate(14 86.177812) scale(0.12 -0.12)">
       <defs>
        <path id="STIXGeneral-Regular-38" d="M 2848 992 
Q 2848 499 2505 204 
Q 2163 -90 1587 -90 
Q 1050 -90 704 204 
Q 358 499 358 954 
Q 358 1293 524 1533 
Q 691 1773 1190 2125 
Q 710 2522 553 2765 
Q 397 3008 397 3328 
Q 397 3782 745 4054 
Q 1094 4326 1638 4326 
Q 2106 4326 2410 4060 
Q 2714 3795 2714 3411 
Q 2714 3059 2531 2848 
Q 2349 2637 1856 2374 
Q 2432 1990 2640 1689 
Q 2848 1389 2848 992 
z
M 2272 3411 
Q 2272 3744 2086 3945 
Q 1901 4147 1574 4147 
Q 1248 4147 1059 3977 
Q 870 3808 870 3513 
Q 870 3219 1059 2979 
Q 1248 2739 1670 2490 
Q 1997 2682 2134 2896 
Q 2272 3110 2272 3411 
z
M 1734 1741 
L 1357 1997 
Q 1075 1766 960 1545 
Q 845 1325 845 1011 
Q 845 576 1065 333 
Q 1286 90 1658 90 
Q 1971 90 2166 285 
Q 2362 480 2362 794 
Q 2362 1082 2214 1299 
Q 2067 1517 1734 1741 
z
" transform="scale(0.015625)"/>
       </defs>
       <use xlink:href="#STIXGeneral-Regular-30"/>
       <use xlink:href="#STIXGeneral-Regular-2e" transform="translate(49.999985 0)"/>
       <use xlink:href="#STIXGeneral-Regular-38" transform="translate(74.999969 0)"/>
      </g>
     </g>
    </g>
    <g id="ytick_6">
     <g id="line2d_12">
      <g>
       <use xlink:href="#m816773a632" x="36" y="51.84" style="stroke: #000000; stroke-width: 0.8"/>
      </g>
     </g>
     <g id="text_6">
      <!-- 1.0 -->
      <g transform="translate(14 55.937812) scale(0.12 -0.12)">
       <defs>
        <path id="STIXGeneral-Regular-31" d="M 2522 0 
L 755 0 
L 755 96 
Q 1107 115 1235 227 
Q 1363 339 1363 608 
L 1363 3482 
Q 1363 3795 1171 3795 
Q 1082 3795 883 3718 
L 710 3654 
L 710 3744 
L 1856 4326 
L 1914 4307 
L 1914 486 
Q 1914 275 2042 185 
Q 2170 96 2522 96 
L 2522 0 
z
" transform="scale(0.015625)"/>
       </defs>
       <use xlink:href="#STIXGeneral-Regular-31"/>
       <use xlink:href="#STIXGeneral-Regular-2e" transform="translate(49.999985 0)"/>
       <use xlink:href="#STIXGeneral-Regular-30" transform="translate(74.999969 0)"/>
      </g>
     </g>
    </g>
   </g>
   <g id="line2d_13">
    <path d="M 56.290909 183.509214 
L 58.340496 183.640208 
L 60.390083 183.767272 
L 62.439669 183.890522 
L 64.489256 184.010072 
L 66.538843 184.126031 
L 68.58843 184.238506 
L 70.638017 184.3476 
L 72.687603 184.453414 
L 74.73719 184.556044 
L 76.786777 184.655585 
L 78.836364 184.752127 
L 80.88595 184.845761 
L 82.935537 184.936571 
L 84.985124 185.024642 
L 87.034711 185.110054 
L 89.084298 185.192885 
L 91.133884 185.273212 
L 93.183471 185.351108 
L 95.233058 185.426645 
L 97.282645 185.499892 
L 99.332231 185.570916 
L 101.381818 185.639784 
L 103.431405 185.706557 
L 105.480992 185.771298 
L 107.530579 185.834065 
L 109.580165 185.894917 
L 111.629752 185.953909 
L 113.679339 186.011096 
L 115.728926 186.06653 
L 117.778512 186.120261 
L 119.828099 186.17234 
L 121.877686 186.222813 
L 123.927273 186.271728 
L 125.97686 186.31913 
L 128.026446 186.365061 
L 130.076033 186.409564 
L 132.12562 186.452681 
L 134.175207 186.494449 
L 136.224793 186.534909 
L 138.27438 186.574096 
L 140.323967 186.612048 
L 142.373554 186.648798 
L 144.42314 186.684381 
L 146.472727 186.71883 
L 148.522314 186.752175 
L 150.571901 186.784448 
L 152.621488 186.815678 
L 154.671074 186.845893 
L 156.720661 186.875123 
L 158.770248 186.903392 
L 160.819835 186.930729 
L 162.869421 186.957156 
L 164.919008 186.9827 
L 166.968595 187.007383 
L 169.018182 187.031227 
L 171.067769 187.054256 
L 173.117355 187.076489 
L 175.166942 187.097948 
L 177.216529 187.118652 
L 179.266116 187.138619 
L 181.315702 187.15787 
L 183.365289 187.17642 
L 185.414876 187.194288 
L 187.464463 187.211489 
L 189.51405 187.228039 
L 191.563636 187.243954 
L 193.613223 187.259249 
L 195.66281 187.273936 
L 197.712397 187.28803 
L 199.761983 187.301544 
L 201.81157 187.314489 
L 203.861157 187.326879 
L 205.910744 187.338724 
L 207.960331 187.350035 
L 210.009917 187.360823 
L 212.059504 187.371097 
L 214.109091 187.380867 
L 216.158678 187.390142 
L 218.208264 187.398931 
L 220.257851 187.407241 
L 222.307438 187.41508 
L 224.357025 187.422455 
L 226.406612 187.429373 
L 228.456198 187.435841 
L 230.505785 187.441865 
L 232.555372 187.447449 
L 234.604959 187.452599 
L 236.654545 187.45732 
L 238.704132 187.461616 
L 240.753719 187.465491 
L 242.803306 187.468949 
L 244.852893 187.471992 
L 246.902479 187.474624 
L 248.952066 187.476847 
L 251.001653 187.478663 
L 253.05124 187.480074 
L 255.100826 187.481081 
L 257.150413 187.481685 
L 259.2 187.481886 
" clip-path="url(#p7bf597b474)" style="fill: none; stroke: #71a8c4; stroke-opacity: 0.7; stroke-width: 3; stroke-linecap: square"/>
   </g>
   <g id="line2d_14">
    <path d="M 36 51.84 
L 56.290909 183.509214 
" clip-path="url(#p7bf597b474)" style="fill: none; stroke: #71a8c4; stroke-opacity: 0.7; stroke-width: 3; stroke-linecap: square"/>
   </g>
   <g id="line2d_15">
    <path d="M 56.290909 153.773352 
L 58.340496 154.787461 
L 60.390083 155.771142 
L 62.439669 156.725299 
L 64.489256 157.650809 
L 66.538843 158.548522 
L 68.58843 159.419261 
L 70.638017 160.263827 
L 72.687603 161.082995 
L 74.73719 161.877517 
L 76.786777 162.648124 
L 78.836364 163.395522 
L 80.88595 164.120398 
L 82.935537 164.823418 
L 84.985124 165.505227 
L 87.034711 166.166452 
L 89.084298 166.8077 
L 91.133884 167.429559 
L 93.183471 168.032602 
L 95.233058 168.61738 
L 97.282645 169.184432 
L 99.332231 169.734279 
L 101.381818 170.267425 
L 103.431405 170.784359 
L 105.480992 171.285557 
L 107.530579 171.771479 
L 109.580165 172.242572 
L 111.629752 172.699266 
L 113.679339 173.141983 
L 115.728926 173.571129 
L 117.778512 173.987098 
L 119.828099 174.390271 
L 121.877686 174.781019 
L 123.927273 175.159702 
L 125.97686 175.526666 
L 128.026446 175.882248 
L 130.076033 176.226776 
L 132.12562 176.560565 
L 134.175207 176.883923 
L 136.224793 177.197145 
L 138.27438 177.500521 
L 140.323967 177.794327 
L 142.373554 178.078835 
L 144.42314 178.354306 
L 146.472727 178.620991 
L 148.522314 178.879137 
L 150.571901 179.12898 
L 152.621488 179.370751 
L 154.671074 179.60467 
L 156.720661 179.830952 
L 158.770248 180.049807 
L 160.819835 180.261433 
L 162.869421 180.466027 
L 164.919008 180.663775 
L 166.968595 180.854859 
L 169.018182 181.039455 
L 171.067769 181.217733 
L 173.117355 181.389855 
L 175.166942 181.555981 
L 177.216529 181.716262 
L 179.266116 181.870846 
L 181.315702 182.019875 
L 183.365289 182.163485 
L 185.414876 182.301809 
L 187.464463 182.434974 
L 189.51405 182.563101 
L 191.563636 182.686309 
L 193.613223 182.804711 
L 195.66281 182.918415 
L 197.712397 183.027526 
L 199.761983 183.132144 
L 201.81157 183.232365 
L 203.861157 183.328281 
L 205.910744 183.41998 
L 207.960331 183.507547 
L 210.009917 183.591061 
L 212.059504 183.670601 
L 214.109091 183.746237 
L 216.158678 183.818041 
L 218.208264 183.886078 
L 220.257851 183.95041 
L 222.307438 184.011097 
L 224.357025 184.068194 
L 226.406612 184.121754 
L 228.456198 184.171826 
L 230.505785 184.218456 
L 232.555372 184.261686 
L 234.604959 184.301557 
L 236.654545 184.338104 
L 238.704132 184.371363 
L 240.753719 184.401362 
L 242.803306 184.42813 
L 244.852893 184.451692 
L 246.902479 184.472068 
L 248.952066 184.489278 
L 251.001653 184.503338 
L 253.05124 184.514259 
L 255.100826 184.522053 
L 257.150413 184.526727 
L 259.2 184.528284 
" clip-path="url(#p7bf597b474)" style="fill: none; stroke: #71a8c4; stroke-opacity: 0.8; stroke-width: 3; stroke-linecap: square"/>
   </g>
   <g id="line2d_16">
    <path d="M 36 51.84 
L 56.290909 153.773352 
" clip-path="url(#p7bf597b474)" style="fill: none; stroke: #71a8c4; stroke-opacity: 0.8; stroke-width: 3; stroke-linecap: square"/>
   </g>
   <g id="line2d_17">
    <path d="M 56.290909 133.326012 
L 58.340496 134.947378 
L 60.390083 136.520096 
L 62.439669 138.045613 
L 64.489256 139.525327 
L 66.538843 140.960598 
L 68.58843 142.352745 
L 70.638017 143.703045 
L 72.687603 145.012738 
L 74.73719 146.283028 
L 76.786777 147.515081 
L 78.836364 148.710029 
L 80.88595 149.868968 
L 82.935537 150.992963 
L 84.985124 152.083046 
L 87.034711 153.140219 
L 89.084298 154.165452 
L 91.133884 155.159687 
L 93.183471 156.123836 
L 95.233058 157.058786 
L 97.282645 157.965394 
L 99.332231 158.844494 
L 101.381818 159.696893 
L 103.431405 160.523373 
L 105.480992 161.324693 
L 107.530579 162.10159 
L 109.580165 162.854777 
L 111.629752 163.584945 
L 113.679339 164.292765 
L 115.728926 164.978887 
L 117.778512 165.643942 
L 119.828099 166.288539 
L 121.877686 166.913272 
L 123.927273 167.518712 
L 125.97686 168.105418 
L 128.026446 168.673927 
L 130.076033 169.224761 
L 132.12562 169.758427 
L 134.175207 170.275414 
L 136.224793 170.776197 
L 138.27438 171.261237 
L 140.323967 171.730977 
L 142.373554 172.185851 
L 144.42314 172.626276 
L 146.472727 173.052655 
L 148.522314 173.465382 
L 150.571901 173.864834 
L 152.621488 174.251378 
L 154.671074 174.62537 
L 156.720661 174.987153 
L 158.770248 175.337059 
L 160.819835 175.67541 
L 162.869421 176.002516 
L 164.919008 176.318677 
L 166.968595 176.624185 
L 169.018182 176.919319 
L 171.067769 177.20435 
L 173.117355 177.479542 
L 175.166942 177.745145 
L 177.216529 178.001404 
L 179.266116 178.248554 
L 181.315702 178.486823 
L 183.365289 178.716429 
L 185.414876 178.937582 
L 187.464463 179.150487 
L 189.51405 179.355339 
L 191.563636 179.552325 
L 193.613223 179.741626 
L 195.66281 179.923418 
L 197.712397 180.097865 
L 199.761983 180.265129 
L 201.81157 180.425363 
L 203.861157 180.578715 
L 205.910744 180.725325 
L 207.960331 180.865327 
L 210.009917 180.998851 
L 212.059504 181.126019 
L 214.109091 181.246948 
L 216.158678 181.361749 
L 218.208264 181.470527 
L 220.257851 181.573382 
L 222.307438 181.670409 
L 224.357025 181.761696 
L 226.406612 181.847328 
L 228.456198 181.927383 
L 230.505785 182.001935 
L 232.555372 182.071052 
L 234.604959 182.134798 
L 236.654545 182.193231 
L 238.704132 182.246405 
L 240.753719 182.294368 
L 242.803306 182.337165 
L 244.852893 182.374836 
L 246.902479 182.407414 
L 248.952066 182.434929 
L 251.001653 182.457407 
L 253.05124 182.474869 
L 255.100826 182.48733 
L 257.150413 182.494802 
L 259.2 182.497292 
" clip-path="url(#p7bf597b474)" style="fill: none; stroke: #71a8c4; stroke-opacity: 0.9; stroke-width: 3; stroke-linecap: square"/>
   </g>
   <g id="line2d_18">
    <path d="M 36 51.84 
L 56.290909 133.326012 
" clip-path="url(#p7bf597b474)" style="fill: none; stroke: #71a8c4; stroke-opacity: 0.9; stroke-width: 3; stroke-linecap: square"/>
   </g>
   <g id="line2d_19">
    <path d="M 56.290909 119.711346 
L 58.340496 121.737048 
L 60.390083 123.701972 
L 62.439669 125.607922 
L 64.489256 127.456648 
L 66.538843 129.249848 
L 68.58843 130.989168 
L 70.638017 132.676206 
L 72.687603 134.312512 
L 74.73719 135.899587 
L 76.786777 137.43889 
L 78.836364 138.931834 
L 80.88595 140.379789 
L 82.935537 141.784087 
L 84.985124 143.146016 
L 87.034711 144.466826 
L 89.084298 145.747732 
L 91.133884 146.98991 
L 93.183471 148.194499 
L 95.233058 149.362607 
L 97.282645 150.495306 
L 99.332231 151.593636 
L 101.381818 152.658606 
L 103.431405 153.691193 
L 105.480992 154.692347 
L 107.530579 155.662987 
L 109.580165 156.604004 
L 111.629752 157.516261 
L 113.679339 158.400598 
L 115.728926 159.257826 
L 117.778512 160.088732 
L 119.828099 160.894079 
L 121.877686 161.674607 
L 123.927273 162.431033 
L 125.97686 163.164051 
L 128.026446 163.874335 
L 130.076033 164.562537 
L 132.12562 165.229288 
L 134.175207 165.875201 
L 136.224793 166.50087 
L 138.27438 167.106869 
L 140.323967 167.693754 
L 142.373554 168.262064 
L 144.42314 168.812322 
L 146.472727 169.345032 
L 148.522314 169.860684 
L 150.571901 170.359752 
L 152.621488 170.842693 
L 154.671074 171.309951 
L 156.720661 171.761955 
L 158.770248 172.199121 
L 160.819835 172.62185 
L 162.869421 173.03053 
L 164.919008 173.425536 
L 166.968595 173.807231 
L 169.018182 174.175965 
L 171.067769 174.532078 
L 173.117355 174.875897 
L 175.166942 175.207736 
L 177.216529 175.527901 
L 179.266116 175.836686 
L 181.315702 176.134374 
L 183.365289 176.421239 
L 185.414876 176.697544 
L 187.464463 176.963543 
L 189.51405 177.219481 
L 191.563636 177.465591 
L 193.613223 177.702101 
L 195.66281 177.929227 
L 197.712397 178.147179 
L 199.761983 178.356155 
L 201.81157 178.556349 
L 203.861157 178.747943 
L 205.910744 178.931115 
L 207.960331 179.106031 
L 210.009917 179.272853 
L 212.059504 179.431735 
L 214.109091 179.582821 
L 216.158678 179.72625 
L 218.208264 179.862155 
L 220.257851 179.99066 
L 222.307438 180.111884 
L 224.357025 180.225936 
L 226.406612 180.332923 
L 228.456198 180.432943 
L 230.505785 180.526086 
L 232.555372 180.61244 
L 234.604959 180.692083 
L 236.654545 180.765087 
L 238.704132 180.831522 
L 240.753719 180.891446 
L 242.803306 180.944916 
L 244.852893 180.991981 
L 246.902479 181.032683 
L 248.952066 181.06706 
L 251.001653 181.095144 
L 253.05124 181.11696 
L 255.100826 181.132529 
L 257.150413 181.141865 
L 259.2 181.144976 
" clip-path="url(#p7bf597b474)" style="fill: none; stroke: #71a8c4; stroke-width: 3; stroke-linecap: square"/>
   </g>
   <g id="line2d_20">
    <path d="M 36 51.84 
L 56.290909 119.711346 
" clip-path="url(#p7bf597b474)" style="fill: none; stroke: #71a8c4; stroke-width: 3; stroke-linecap: square"/>
   </g>
   <g id="patch_3">
    <path d="M 36 203.04 
L 36 51.84 
" style="fill: none; stroke: #000000; stroke-width: 0.8; stroke-linejoin: miter; stroke-linecap: square"/>
   </g>
   <g id="patch_4">
    <path d="M 259.2 203.04 
L 259.2 51.84 
" style="fill: none; stroke: #000000; stroke-width: 0.8; stroke-linejoin: miter; stroke-linecap: square"/>
   </g>
   <g id="patch_5">
    <path d="M 36 203.04 
L 259.2 203.04 
" style="fill: none; stroke: #000000; stroke-width: 0.8; stroke-linejoin: miter; stroke-linecap: square"/>
   </g>
   <g id="patch_6">
    <path d="M 36 51.84 
L 259.2 51.84 
" style="fill: none; stroke: #000000; stroke-width: 0.8; stroke-linejoin: miter; stroke-linecap: square"/>
   </g>
   <g id="text_7">
    <!-- Increasing $\gamma$ -->
    <g transform="translate(137.454545 139.536) scale(0.18 -0.18)">
     <defs>
      <path id="STIXGeneral-Regular-49" d="M 2016 0 
L 115 0 
L 115 122 
Q 518 134 627 240 
Q 736 346 736 717 
L 736 3526 
Q 736 3898 633 3994 
Q 531 4090 115 4115 
L 115 4237 
L 2016 4237 
L 2016 4115 
Q 1613 4096 1501 3993 
Q 1389 3891 1389 3526 
L 1389 717 
Q 1389 358 1504 246 
Q 1619 134 2016 122 
L 2016 0 
z
" transform="scale(0.015625)"/>
      <path id="STIXGeneral-Regular-6e" d="M 3104 0 
L 1773 0 
L 1779 96 
Q 2016 115 2096 233 
Q 2176 352 2176 672 
L 2176 1946 
Q 2176 2592 1709 2592 
Q 1549 2592 1408 2515 
Q 1267 2438 1050 2227 
L 1050 461 
Q 1050 269 1136 192 
Q 1222 115 1466 96 
L 1466 0 
L 115 0 
L 115 96 
Q 358 115 435 214 
Q 512 314 512 602 
L 512 2157 
Q 512 2394 467 2483 
Q 422 2573 288 2573 
Q 160 2573 102 2547 
L 102 2656 
Q 550 2784 979 2944 
L 1030 2925 
L 1030 2426 
L 1037 2426 
Q 1491 2944 1958 2944 
Q 2323 2944 2518 2688 
Q 2714 2432 2714 1958 
L 2714 544 
Q 2714 288 2790 205 
Q 2867 122 3104 96 
L 3104 0 
z
" transform="scale(0.015625)"/>
      <path id="STIXGeneral-Regular-63" d="M 2547 998 
L 2637 941 
Q 2362 403 2112 205 
Q 1786 -64 1376 -64 
Q 845 -64 502 336 
Q 160 736 160 1357 
Q 160 2170 698 2618 
Q 1094 2944 1562 2944 
Q 1965 2944 2256 2749 
Q 2547 2554 2547 2285 
Q 2547 2176 2457 2096 
Q 2368 2016 2246 2016 
Q 2022 2016 1939 2310 
L 1901 2451 
Q 1850 2630 1773 2694 
Q 1696 2758 1523 2758 
Q 1133 2758 893 2451 
Q 653 2144 653 1645 
Q 653 1094 928 745 
Q 1203 397 1645 397 
Q 1920 397 2118 528 
Q 2317 659 2547 998 
z
" transform="scale(0.015625)"/>
      <path id="STIXGeneral-Regular-72" d="M 1024 2931 
L 1024 2342 
Q 1267 2688 1430 2816 
Q 1594 2944 1792 2944 
Q 1958 2944 2051 2854 
Q 2144 2765 2144 2605 
Q 2144 2470 2077 2393 
Q 2010 2317 1894 2317 
Q 1773 2317 1638 2445 
Q 1536 2541 1472 2541 
Q 1338 2541 1181 2355 
Q 1024 2170 1024 2016 
L 1024 576 
Q 1024 301 1133 205 
Q 1242 109 1568 96 
L 1568 0 
L 32 0 
L 32 96 
Q 339 154 412 224 
Q 486 294 486 538 
L 486 2138 
Q 486 2349 438 2435 
Q 390 2522 269 2522 
Q 166 2522 45 2496 
L 45 2598 
Q 448 2726 992 2944 
L 1024 2931 
z
" transform="scale(0.015625)"/>
      <path id="STIXGeneral-Regular-65" d="M 2611 1050 
L 2714 1005 
Q 2330 -64 1376 -64 
Q 813 -64 486 329 
Q 160 723 160 1389 
Q 160 2074 525 2509 
Q 890 2944 1485 2944 
Q 2061 2944 2374 2502 
Q 2560 2246 2592 1773 
L 621 1773 
Q 646 1370 700 1158 
Q 755 947 915 730 
Q 1184 378 1626 378 
Q 1939 378 2153 531 
Q 2368 685 2611 1050 
z
M 634 1978 
L 1939 1978 
Q 1882 2381 1750 2547 
Q 1619 2714 1312 2714 
Q 1043 2714 864 2525 
Q 685 2336 634 1978 
z
" transform="scale(0.015625)"/>
      <path id="STIXGeneral-Regular-61" d="M 2829 422 
L 2829 243 
Q 2586 -64 2253 -64 
Q 1888 -64 1843 403 
L 1837 403 
Q 1427 -64 909 -64 
Q 608 -64 422 112 
Q 237 288 237 602 
Q 237 1050 685 1350 
Q 992 1555 1837 1869 
L 1837 2214 
Q 1837 2502 1699 2646 
Q 1562 2790 1338 2790 
Q 1146 2790 1018 2697 
Q 890 2605 890 2477 
Q 890 2419 909 2348 
Q 928 2278 928 2208 
Q 928 2112 841 2029 
Q 755 1946 634 1946 
Q 525 1946 441 2029 
Q 358 2112 358 2240 
Q 358 2547 685 2752 
Q 986 2944 1421 2944 
Q 1939 2944 2176 2656 
Q 2291 2522 2323 2384 
Q 2355 2246 2355 1946 
L 2355 723 
Q 2355 301 2554 301 
Q 2682 301 2829 422 
z
M 1837 813 
L 1837 1715 
Q 1248 1510 1018 1293 
Q 800 1094 800 800 
Q 800 557 921 432 
Q 1043 307 1242 307 
Q 1453 307 1613 410 
Q 1747 506 1792 589 
Q 1837 672 1837 813 
z
" transform="scale(0.015625)"/>
      <path id="STIXGeneral-Regular-73" d="M 998 1926 
L 1664 1523 
Q 1984 1331 2105 1164 
Q 2227 998 2227 736 
Q 2227 416 1961 176 
Q 1696 -64 1331 -64 
Q 1030 -64 864 -6 
Q 691 51 570 51 
Q 461 51 416 -26 
L 333 -26 
L 333 979 
L 435 979 
Q 538 512 730 294 
Q 922 77 1248 77 
Q 1485 77 1632 211 
Q 1779 346 1779 550 
Q 1779 845 1440 1030 
L 1094 1222 
Q 326 1651 326 2150 
Q 326 2522 566 2730 
Q 806 2938 1210 2938 
Q 1491 2938 1638 2867 
Q 1754 2816 1818 2816 
Q 1862 2816 1920 2880 
L 1990 2880 
L 2022 2010 
L 1926 2010 
Q 1818 2445 1654 2621 
Q 1491 2797 1203 2797 
Q 986 2797 854 2688 
Q 723 2579 723 2362 
Q 723 2253 796 2128 
Q 870 2003 998 1926 
z
" transform="scale(0.015625)"/>
      <path id="STIXGeneral-Regular-69" d="M 1152 4045 
Q 1152 3904 1056 3811 
Q 960 3718 819 3718 
Q 685 3718 592 3811 
Q 499 3904 499 4045 
Q 499 4179 595 4275 
Q 691 4371 826 4371 
Q 966 4371 1059 4275 
Q 1152 4179 1152 4045 
z
M 1619 0 
L 102 0 
L 102 96 
Q 435 115 521 211 
Q 608 307 608 666 
L 608 2118 
Q 608 2342 563 2432 
Q 518 2522 397 2522 
Q 243 2522 128 2490 
L 128 2592 
L 1120 2944 
L 1146 2918 
L 1146 672 
Q 1146 314 1226 218 
Q 1306 122 1619 96 
L 1619 0 
z
" transform="scale(0.015625)"/>
      <path id="STIXGeneral-Regular-67" d="M 3008 2483 
L 2477 2483 
Q 2598 2208 2598 1946 
Q 2598 1453 2265 1203 
Q 1933 954 1600 954 
Q 1530 954 1357 973 
L 1235 986 
Q 1107 947 979 812 
Q 851 678 851 582 
Q 851 435 1350 410 
L 2176 371 
Q 2528 358 2739 172 
Q 2950 -13 2950 -314 
Q 2950 -685 2566 -986 
Q 2035 -1395 1286 -1395 
Q 826 -1395 502 -1212 
Q 179 -1030 179 -774 
Q 179 -595 320 -419 
Q 461 -243 806 6 
Q 602 102 534 172 
Q 467 243 467 346 
Q 467 531 762 787 
Q 909 915 1037 1043 
Q 717 1203 579 1401 
Q 442 1600 442 1901 
Q 442 2336 752 2640 
Q 1062 2944 1510 2944 
Q 1766 2944 2022 2848 
L 2163 2797 
Q 2349 2733 2515 2733 
L 3008 2733 
L 3008 2483 
z
M 973 2163 
L 973 2144 
Q 973 1683 1155 1398 
Q 1338 1114 1632 1114 
Q 1850 1114 1978 1270 
Q 2106 1427 2106 1690 
Q 2106 2112 1914 2464 
Q 1754 2765 1446 2765 
Q 1222 2765 1097 2605 
Q 973 2445 973 2163 
z
M 2771 -410 
Q 2771 -230 2595 -163 
Q 2419 -96 1978 -96 
Q 1344 -96 941 -13 
Q 749 -243 688 -348 
Q 627 -454 627 -563 
Q 627 -774 880 -902 
Q 1133 -1030 1555 -1030 
Q 2099 -1030 2435 -860 
Q 2771 -691 2771 -410 
z
" transform="scale(0.015625)"/>
      <path id="STIXGeneral-Regular-20" transform="scale(0.015625)"/>
      <path id="STIXGeneral-Italic-3b3" d="M 2803 2739 
L 1050 250 
Q 1037 32 1030 -73 
Q 1024 -179 998 -406 
Q 973 -634 934 -758 
Q 896 -883 835 -1033 
Q 774 -1184 681 -1251 
Q 589 -1318 467 -1318 
Q 224 -1318 224 -998 
Q 224 -845 329 -608 
Q 435 -371 608 -57 
Q 781 256 845 397 
Q 941 1293 941 1555 
Q 941 2381 634 2381 
Q 538 2381 422 2259 
Q 307 2138 224 1894 
L 122 1894 
Q 358 2784 755 2784 
Q 986 2784 1075 2589 
Q 1165 2394 1165 2029 
Q 1165 1850 1145 1632 
Q 1126 1414 1091 1148 
Q 1056 883 1050 813 
L 2189 2739 
L 2803 2739 
z
" transform="scale(0.015625)"/>
     </defs>
     <use xlink:href="#STIXGeneral-Regular-49" transform="translate(0 0.703125)"/>
     <use xlink:href="#STIXGeneral-Regular-6e" transform="translate(33.299988 0.703125)"/>
     <use xlink:href="#STIXGeneral-Regular-63" transform="translate(83.299973 0.703125)"/>
     <use xlink:href="#STIXGeneral-Regular-72" transform="translate(127.699966 0.703125)"/>
     <use xlink:href="#STIXGeneral-Regular-65" transform="translate(160.999954 0.703125)"/>
     <use xlink:href="#STIXGeneral-Regular-61" transform="translate(205.399948 0.703125)"/>
     <use xlink:href="#STIXGeneral-Regular-73" transform="translate(249.799942 0.703125)"/>
     <use xlink:href="#STIXGeneral-Regular-69" transform="translate(288.699936 0.703125)"/>
     <use xlink:href="#STIXGeneral-Regular-6e" transform="translate(316.499924 0.703125)"/>
     <use xlink:href="#STIXGeneral-Regular-67" transform="translate(366.499908 0.703125)"/>
     <use xlink:href="#STIXGeneral-Regular-20" transform="translate(416.499893 0.703125)"/>
     <use xlink:href="#STIXGeneral-Italic-3b3" transform="translate(441.499878 0.703125)"/>
    </g>
   </g>
   <g id="patch_7">
    <path d="M 125.309091 141.050215 
Q 125.309091 133.439824 125.309091 125.829433 
L 121.309091 125.829433 
Q 124.309091 119.830498 127.309091 113.831563 
Q 130.309091 119.830498 133.309091 125.829433 
L 129.309091 125.829433 
Q 129.309091 133.439824 129.309091 141.050215 
L 125.309091 141.050215 
z
" style="fill: #71a8c4; stroke: #000000; stroke-linecap: round"/>
   </g>
   <g id="text_8">
    <!-- Stomata limited -->
    <g transform="translate(93.1625 45.84) scale(0.16 -0.16)">
     <defs>
      <path id="STIXGeneral-Bold-53" d="M 3098 3034 
L 2918 3034 
Q 2752 3578 2470 3866 
Q 2125 4224 1683 4224 
Q 1357 4224 1168 4048 
Q 979 3872 979 3590 
Q 979 3360 1113 3213 
Q 1248 3066 1638 2861 
Q 1754 2797 2077 2633 
Q 2400 2470 2586 2368 
Q 2899 2195 3091 1897 
Q 3283 1600 3283 1242 
Q 3283 634 2844 256 
Q 2406 -122 1696 -122 
Q 1306 -122 864 32 
Q 666 96 602 96 
Q 525 96 480 48 
Q 435 0 410 -122 
L 224 -122 
L 224 1466 
L 410 1466 
Q 557 851 794 550 
Q 1158 90 1715 90 
Q 2086 90 2304 285 
Q 2522 480 2522 813 
Q 2522 1120 2157 1376 
Q 1997 1491 1376 1792 
Q 806 2067 544 2368 
Q 282 2669 282 3136 
Q 282 3744 656 4083 
Q 1030 4422 1683 4422 
Q 2035 4422 2432 4275 
Q 2624 4211 2701 4211 
Q 2790 4211 2832 4256 
Q 2874 4301 2906 4429 
L 3098 4429 
L 3098 3034 
z
" transform="scale(0.015625)"/>
      <path id="STIXGeneral-Bold-74" d="M 1965 717 
L 2125 646 
Q 1926 250 1712 86 
Q 1498 -77 1178 -77 
Q 845 -77 653 105 
Q 461 288 461 608 
L 461 2669 
L 122 2669 
L 122 2842 
Q 435 3053 646 3299 
Q 858 3546 1190 4032 
L 1350 4032 
L 1350 2950 
L 1958 2950 
L 1958 2669 
L 1350 2669 
L 1350 762 
Q 1350 378 1600 378 
Q 1786 378 1965 717 
z
" transform="scale(0.015625)"/>
      <path id="STIXGeneral-Bold-6f" d="M 3046 1466 
Q 3046 794 2633 352 
Q 2221 -90 1600 -90 
Q 992 -90 576 348 
Q 160 787 160 1459 
Q 160 2157 573 2592 
Q 986 3027 1626 3027 
Q 2234 3027 2640 2585 
Q 3046 2144 3046 1466 
z
M 2106 1395 
Q 2106 2214 1997 2521 
Q 1888 2829 1606 2829 
Q 1312 2829 1206 2525 
Q 1101 2221 1101 1395 
Q 1101 698 1216 403 
Q 1331 109 1606 109 
Q 1882 109 1994 393 
Q 2106 678 2106 1395 
z
" transform="scale(0.015625)"/>
      <path id="STIXGeneral-Bold-6d" d="M 5210 0 
L 3693 0 
L 3693 154 
Q 3872 166 3936 246 
Q 4000 326 4000 531 
L 4000 1990 
Q 4000 2598 3661 2598 
Q 3475 2598 3290 2438 
Q 3232 2394 3174 2323 
Q 3117 2253 3117 2227 
L 3117 531 
Q 3117 346 3181 259 
Q 3245 173 3411 154 
L 3411 0 
L 1926 0 
L 1926 154 
Q 2099 166 2163 249 
Q 2227 333 2227 531 
L 2227 2067 
Q 2227 2355 2147 2476 
Q 2067 2598 1882 2598 
Q 1760 2598 1552 2454 
Q 1344 2310 1344 2202 
L 1344 531 
Q 1344 346 1405 262 
Q 1466 179 1632 154 
L 1632 0 
L 102 0 
L 102 154 
Q 314 192 384 272 
Q 454 352 454 550 
L 454 2387 
Q 454 2611 384 2688 
Q 314 2765 96 2797 
L 96 2950 
L 1325 2950 
L 1325 2470 
L 1344 2470 
Q 1530 2765 1744 2896 
Q 1958 3027 2266 3027 
Q 2566 3027 2752 2899 
Q 2938 2771 3085 2470 
Q 3334 2778 3542 2902 
Q 3750 3027 4026 3027 
Q 4422 3027 4656 2784 
Q 4890 2541 4890 2118 
L 4890 531 
Q 4890 326 4957 243 
Q 5024 160 5210 154 
L 5210 0 
z
" transform="scale(0.015625)"/>
      <path id="STIXGeneral-Bold-61" d="M 3027 410 
L 3123 275 
Q 2784 -90 2406 -90 
Q 2170 -90 2051 9 
Q 1933 109 1882 352 
Q 1395 -90 864 -90 
Q 544 -90 352 80 
Q 160 250 160 589 
Q 160 1018 589 1306 
Q 909 1517 1875 1792 
L 1875 2227 
Q 1875 2541 1756 2681 
Q 1638 2822 1357 2822 
Q 1178 2822 1059 2758 
Q 941 2694 941 2586 
Q 941 2515 1011 2438 
Q 1133 2291 1133 2170 
Q 1133 2003 1011 1894 
Q 890 1786 698 1786 
Q 499 1786 390 1901 
Q 282 2016 282 2221 
Q 282 2598 618 2812 
Q 954 3027 1504 3027 
Q 2093 3027 2425 2803 
Q 2758 2579 2758 2170 
L 2758 499 
Q 2758 320 2893 320 
Q 2938 320 2963 346 
L 3027 410 
z
M 1875 621 
L 1875 1568 
Q 1094 1350 1094 794 
Q 1094 589 1187 477 
Q 1280 365 1427 365 
Q 1696 365 1875 621 
z
" transform="scale(0.015625)"/>
      <path id="STIXGeneral-Bold-20" transform="scale(0.015625)"/>
      <path id="STIXGeneral-Bold-6c" d="M 1638 0 
L 102 0 
L 102 154 
Q 429 179 429 557 
L 429 3757 
Q 429 4147 96 4173 
L 96 4326 
L 1318 4326 
L 1318 557 
Q 1318 346 1395 253 
Q 1472 160 1638 154 
L 1638 0 
z
" transform="scale(0.015625)"/>
      <path id="STIXGeneral-Bold-69" d="M 1376 3923 
Q 1376 3712 1232 3571 
Q 1088 3430 877 3430 
Q 666 3430 525 3571 
Q 384 3712 384 3923 
Q 384 4134 528 4278 
Q 672 4422 890 4422 
Q 1088 4422 1232 4275 
Q 1376 4128 1376 3923 
z
M 1638 0 
L 102 0 
L 102 154 
Q 326 205 384 275 
Q 442 346 442 563 
L 442 2387 
Q 442 2598 374 2675 
Q 307 2752 96 2797 
L 96 2950 
L 1331 2950 
L 1331 544 
Q 1331 339 1398 259 
Q 1466 179 1638 154 
L 1638 0 
z
" transform="scale(0.015625)"/>
      <path id="STIXGeneral-Bold-65" d="M 2579 806 
L 2733 717 
Q 2451 269 2166 89 
Q 1882 -90 1466 -90 
Q 890 -90 525 342 
Q 160 774 160 1434 
Q 160 2150 528 2588 
Q 896 3027 1498 3027 
Q 2029 3027 2317 2707 
Q 2656 2336 2694 1568 
L 1082 1568 
Q 1101 1299 1133 1116 
Q 1165 934 1241 748 
Q 1318 563 1468 467 
Q 1619 371 1843 371 
Q 2048 371 2214 470 
Q 2381 570 2579 806 
z
M 1907 1805 
L 1907 1939 
Q 1907 2406 1850 2528 
Q 1773 2688 1699 2758 
Q 1626 2829 1498 2829 
Q 1267 2829 1158 2595 
Q 1050 2362 1050 1805 
L 1907 1805 
z
" transform="scale(0.015625)"/>
      <path id="STIXGeneral-Bold-64" d="M 3418 128 
L 3021 77 
Q 2496 6 2170 -83 
L 2170 333 
Q 1946 96 1760 3 
Q 1574 -90 1318 -90 
Q 813 -90 486 332 
Q 160 755 160 1414 
Q 160 2112 509 2569 
Q 858 3027 1389 3027 
Q 1606 3027 1776 2940 
Q 1946 2854 2150 2630 
L 2150 3802 
Q 2150 4026 2067 4086 
Q 1984 4147 1664 4173 
L 1664 4326 
L 3040 4326 
L 3040 646 
Q 3040 442 3120 365 
Q 3200 288 3418 275 
L 3418 128 
z
M 2150 717 
L 2150 2272 
Q 2080 2458 1945 2563 
Q 1811 2669 1651 2669 
Q 1107 2669 1107 1466 
Q 1107 269 1606 269 
Q 1837 269 2029 506 
Q 2150 666 2150 717 
z
" transform="scale(0.015625)"/>
     </defs>
     <use xlink:href="#STIXGeneral-Bold-53"/>
     <use xlink:href="#STIXGeneral-Bold-74" transform="translate(55.599991 0)"/>
     <use xlink:href="#STIXGeneral-Bold-6f" transform="translate(88.899979 0)"/>
     <use xlink:href="#STIXGeneral-Bold-6d" transform="translate(138.899963 0)"/>
     <use xlink:href="#STIXGeneral-Bold-61" transform="translate(222.199951 0)"/>
     <use xlink:href="#STIXGeneral-Bold-74" transform="translate(272.199936 0)"/>
     <use xlink:href="#STIXGeneral-Bold-61" transform="translate(305.499924 0)"/>
     <use xlink:href="#STIXGeneral-Bold-20" transform="translate(355.499908 0)"/>
     <use xlink:href="#STIXGeneral-Bold-6c" transform="translate(380.499893 0)"/>
     <use xlink:href="#STIXGeneral-Bold-69" transform="translate(408.299881 0)"/>
     <use xlink:href="#STIXGeneral-Bold-6d" transform="translate(436.099869 0)"/>
     <use xlink:href="#STIXGeneral-Bold-69" transform="translate(519.399857 0)"/>
     <use xlink:href="#STIXGeneral-Bold-74" transform="translate(547.199844 0)"/>
     <use xlink:href="#STIXGeneral-Bold-65" transform="translate(580.499832 0)"/>
     <use xlink:href="#STIXGeneral-Bold-64" transform="translate(624.899826 0)"/>
    </g>
   </g>
  </g>
  <g id="axes_2">
   <g id="patch_8">
    <path d="M 36 384.48 
L 259.2 384.48 
L 259.2 233.28 
L 36 233.28 
z
" style="fill: #ffffff"/>
   </g>
   <g id="matplotlib.axis_3">
    <g id="xtick_7">
     <g id="line2d_21">
      <g>
       <use xlink:href="#mce2c1da312" x="56.290909" y="384.48" style="stroke: #000000; stroke-width: 0.8"/>
      </g>
     </g>
     <g id="text_9">
      <!-- 0.0 -->
      <g transform="translate(48.790909 399.675625) scale(0.12 -0.12)">
       <use xlink:href="#STIXGeneral-Regular-30"/>
       <use xlink:href="#STIXGeneral-Regular-2e" transform="translate(49.999985 0)"/>
       <use xlink:href="#STIXGeneral-Regular-30" transform="translate(74.999969 0)"/>
      </g>
     </g>
    </g>
    <g id="xtick_8">
     <g id="line2d_22">
      <g>
       <use xlink:href="#mce2c1da312" x="96.872727" y="384.48" style="stroke: #000000; stroke-width: 0.8"/>
      </g>
     </g>
     <g id="text_10">
      <!-- 0.2 -->
      <g transform="translate(89.372727 399.675625) scale(0.12 -0.12)">
       <use xlink:href="#STIXGeneral-Regular-30"/>
       <use xlink:href="#STIXGeneral-Regular-2e" transform="translate(49.999985 0)"/>
       <use xlink:href="#STIXGeneral-Regular-32" transform="translate(74.999969 0)"/>
      </g>
     </g>
    </g>
    <g id="xtick_9">
     <g id="line2d_23">
      <g>
       <use xlink:href="#mce2c1da312" x="137.454545" y="384.48" style="stroke: #000000; stroke-width: 0.8"/>
      </g>
     </g>
     <g id="text_11">
      <!-- 0.4 -->
      <g transform="translate(129.954545 399.675625) scale(0.12 -0.12)">
       <use xlink:href="#STIXGeneral-Regular-30"/>
       <use xlink:href="#STIXGeneral-Regular-2e" transform="translate(49.999985 0)"/>
       <use xlink:href="#STIXGeneral-Regular-34" transform="translate(74.999969 0)"/>
      </g>
     </g>
    </g>
    <g id="xtick_10">
     <g id="line2d_24">
      <g>
       <use xlink:href="#mce2c1da312" x="178.036364" y="384.48" style="stroke: #000000; stroke-width: 0.8"/>
      </g>
     </g>
     <g id="text_12">
      <!-- 0.6 -->
      <g transform="translate(170.536364 399.675625) scale(0.12 -0.12)">
       <use xlink:href="#STIXGeneral-Regular-30"/>
       <use xlink:href="#STIXGeneral-Regular-2e" transform="translate(49.999985 0)"/>
       <use xlink:href="#STIXGeneral-Regular-36" transform="translate(74.999969 0)"/>
      </g>
     </g>
    </g>
    <g id="xtick_11">
     <g id="line2d_25">
      <g>
       <use xlink:href="#mce2c1da312" x="218.618182" y="384.48" style="stroke: #000000; stroke-width: 0.8"/>
      </g>
     </g>
     <g id="text_13">
      <!-- 0.8 -->
      <g transform="translate(211.118182 399.675625) scale(0.12 -0.12)">
       <use xlink:href="#STIXGeneral-Regular-30"/>
       <use xlink:href="#STIXGeneral-Regular-2e" transform="translate(49.999985 0)"/>
       <use xlink:href="#STIXGeneral-Regular-38" transform="translate(74.999969 0)"/>
      </g>
     </g>
    </g>
    <g id="xtick_12">
     <g id="line2d_26">
      <g>
       <use xlink:href="#mce2c1da312" x="259.2" y="384.48" style="stroke: #000000; stroke-width: 0.8"/>
      </g>
     </g>
     <g id="text_14">
      <!-- 1.0 -->
      <g transform="translate(251.7 399.675625) scale(0.12 -0.12)">
       <use xlink:href="#STIXGeneral-Regular-31"/>
       <use xlink:href="#STIXGeneral-Regular-2e" transform="translate(49.999985 0)"/>
       <use xlink:href="#STIXGeneral-Regular-30" transform="translate(74.999969 0)"/>
      </g>
     </g>
    </g>
    <g id="text_15">
     <!-- Relative depth $\lambda$ -->
     <g transform="translate(95.44 417.32) scale(0.16 -0.16)">
      <defs>
       <path id="STIXGeneral-Regular-52" d="M 4224 0 
L 3187 0 
L 1664 1971 
L 1306 1958 
L 1306 717 
Q 1306 352 1405 249 
Q 1504 147 1875 122 
L 1875 0 
L 109 0 
L 109 122 
Q 474 154 563 262 
Q 653 371 653 794 
L 653 3526 
Q 653 3885 563 3987 
Q 474 4090 109 4115 
L 109 4237 
L 1850 4237 
Q 2726 4237 3187 3859 
Q 3501 3603 3501 3091 
Q 3501 2221 2342 2042 
L 3622 422 
Q 3757 256 3878 198 
Q 4000 141 4224 122 
L 4224 0 
z
M 1306 3731 
L 1306 2195 
Q 1766 2202 1990 2246 
Q 2214 2291 2438 2413 
Q 2803 2618 2803 3142 
Q 2803 4000 1632 4000 
Q 1459 4000 1382 3945 
Q 1306 3891 1306 3731 
z
" transform="scale(0.015625)"/>
       <path id="STIXGeneral-Regular-6c" d="M 1645 0 
L 134 0 
L 134 96 
Q 435 122 531 221 
Q 627 320 627 589 
L 627 3590 
Q 627 3821 569 3910 
Q 512 4000 358 4000 
Q 224 4000 122 3987 
L 122 4090 
Q 730 4237 1133 4371 
L 1165 4346 
L 1165 557 
Q 1165 288 1254 201 
Q 1344 115 1645 96 
L 1645 0 
z
" transform="scale(0.015625)"/>
       <path id="STIXGeneral-Regular-74" d="M 1702 493 
L 1786 422 
Q 1478 -64 1011 -64 
Q 448 -64 448 749 
L 448 2675 
L 109 2675 
Q 83 2694 83 2720 
Q 83 2771 192 2842 
Q 435 2982 813 3526 
Q 826 3546 874 3606 
Q 922 3667 941 3706 
Q 986 3706 986 3622 
L 986 2880 
L 1632 2880 
L 1632 2675 
L 986 2675 
L 986 845 
Q 986 538 1062 403 
Q 1139 269 1318 269 
Q 1510 269 1702 493 
z
" transform="scale(0.015625)"/>
       <path id="STIXGeneral-Regular-76" d="M 3053 2880 
L 3053 2784 
Q 2906 2771 2835 2688 
Q 2765 2605 2637 2285 
L 1818 230 
Q 1690 -90 1638 -90 
Q 1587 -90 1523 77 
Q 1510 96 1497 141 
Q 1485 186 1472 211 
L 704 2048 
Q 499 2534 403 2652 
Q 307 2771 122 2784 
L 122 2880 
L 1376 2880 
L 1376 2784 
Q 1210 2771 1146 2732 
Q 1082 2694 1082 2611 
Q 1082 2509 1139 2368 
L 1792 730 
L 2426 2387 
Q 2464 2483 2464 2579 
Q 2464 2758 2163 2784 
L 2163 2880 
L 3053 2880 
z
" transform="scale(0.015625)"/>
       <path id="STIXGeneral-Regular-64" d="M 3142 269 
L 2202 -64 
L 2176 -45 
L 2176 365 
Q 1869 -64 1357 -64 
Q 826 -64 499 317 
Q 173 698 173 1312 
Q 173 1990 563 2467 
Q 954 2944 1504 2944 
Q 1850 2944 2176 2669 
L 2176 3667 
Q 2176 3866 2118 3930 
Q 2061 3994 1882 3994 
Q 1792 3994 1741 3987 
L 1741 4090 
Q 2323 4243 2682 4371 
L 2714 4358 
L 2714 730 
Q 2714 506 2768 435 
Q 2822 365 2995 365 
Q 3034 365 3142 371 
L 3142 269 
z
M 2176 653 
L 2176 2125 
Q 2176 2381 1981 2573 
Q 1786 2765 1523 2765 
Q 1158 2765 940 2438 
Q 723 2112 723 1568 
Q 723 979 963 624 
Q 1203 269 1606 269 
Q 1907 269 2080 474 
Q 2176 582 2176 653 
z
" transform="scale(0.015625)"/>
       <path id="STIXGeneral-Regular-70" d="M 1018 2931 
L 1018 2438 
Q 1421 2944 1939 2944 
Q 2406 2944 2707 2560 
Q 3008 2176 3008 1581 
Q 3008 883 2621 409 
Q 2234 -64 1664 -64 
Q 1466 -64 1328 -6 
Q 1190 51 1018 211 
L 1018 -794 
Q 1018 -1094 1120 -1180 
Q 1222 -1267 1581 -1274 
L 1581 -1389 
L 32 -1389 
L 32 -1280 
Q 314 -1254 397 -1171 
Q 480 -1088 480 -838 
L 480 2157 
Q 480 2381 429 2451 
Q 378 2522 218 2522 
Q 115 2522 58 2515 
L 58 2618 
Q 506 2752 979 2944 
L 1018 2931 
z
M 1018 2138 
L 1018 563 
Q 1018 422 1238 281 
Q 1459 141 1683 141 
Q 2029 141 2243 467 
Q 2458 794 2458 1325 
Q 2458 1888 2243 2224 
Q 2029 2560 1670 2560 
Q 1446 2560 1232 2419 
Q 1018 2278 1018 2138 
z
" transform="scale(0.015625)"/>
       <path id="STIXGeneral-Regular-68" d="M 3117 0 
L 1760 0 
L 1760 96 
Q 2042 128 2118 224 
Q 2195 320 2195 653 
L 2195 1920 
Q 2195 2598 1722 2598 
Q 1530 2598 1370 2508 
Q 1210 2419 1005 2195 
L 1005 653 
Q 1005 320 1081 224 
Q 1158 128 1440 96 
L 1440 0 
L 58 0 
L 58 96 
Q 333 134 400 224 
Q 467 314 467 653 
L 467 3667 
Q 467 3872 406 3933 
Q 346 3994 141 3994 
Q 83 3994 64 3987 
L 64 4090 
L 237 4141 
Q 730 4288 973 4371 
L 1005 4352 
L 1005 2406 
Q 1229 2694 1446 2819 
Q 1664 2944 1946 2944 
Q 2733 2944 2733 1926 
L 2733 653 
Q 2733 320 2793 233 
Q 2854 147 3117 96 
L 3117 0 
z
" transform="scale(0.015625)"/>
       <path id="STIXGeneral-Italic-3bb" d="M 2656 787 
L 2758 787 
Q 2560 -102 2112 -102 
Q 1965 -102 1869 48 
Q 1773 198 1773 499 
Q 1773 672 1789 889 
Q 1805 1107 1833 1446 
Q 1862 1786 1875 2016 
L 538 0 
L -77 0 
L 1907 2739 
Q 1933 2970 1933 3245 
Q 1933 3936 1619 3936 
Q 1530 3936 1408 3821 
Q 1286 3706 1203 3462 
L 1101 3462 
Q 1312 4339 1747 4339 
Q 1926 4339 2041 4115 
Q 2157 3891 2157 3475 
Q 2157 3040 2093 2192 
Q 2029 1344 2029 941 
Q 2029 602 2089 451 
Q 2150 301 2291 301 
Q 2483 301 2656 787 
z
" transform="scale(0.015625)"/>
      </defs>
      <use xlink:href="#STIXGeneral-Regular-52" transform="translate(0 0.703125)"/>
      <use xlink:href="#STIXGeneral-Regular-65" transform="translate(66.699997 0.703125)"/>
      <use xlink:href="#STIXGeneral-Regular-6c" transform="translate(111.099991 0.703125)"/>
      <use xlink:href="#STIXGeneral-Regular-61" transform="translate(138.899979 0.703125)"/>
      <use xlink:href="#STIXGeneral-Regular-74" transform="translate(183.299973 0.703125)"/>
      <use xlink:href="#STIXGeneral-Regular-69" transform="translate(211.09996 0.703125)"/>
      <use xlink:href="#STIXGeneral-Regular-76" transform="translate(238.899948 0.703125)"/>
      <use xlink:href="#STIXGeneral-Regular-65" transform="translate(288.899933 0.703125)"/>
      <use xlink:href="#STIXGeneral-Regular-20" transform="translate(333.299927 0.703125)"/>
      <use xlink:href="#STIXGeneral-Regular-64" transform="translate(358.299911 0.703125)"/>
      <use xlink:href="#STIXGeneral-Regular-65" transform="translate(408.299896 0.703125)"/>
      <use xlink:href="#STIXGeneral-Regular-70" transform="translate(452.69989 0.703125)"/>
      <use xlink:href="#STIXGeneral-Regular-74" transform="translate(502.699875 0.703125)"/>
      <use xlink:href="#STIXGeneral-Regular-68" transform="translate(530.499863 0.703125)"/>
      <use xlink:href="#STIXGeneral-Regular-20" transform="translate(580.499847 0.703125)"/>
      <use xlink:href="#STIXGeneral-Italic-3bb" transform="translate(605.499832 0.703125)"/>
     </g>
    </g>
   </g>
   <g id="matplotlib.axis_4">
    <g id="ytick_7">
     <g id="line2d_27">
      <g>
       <use xlink:href="#m816773a632" x="36" y="384.48" style="stroke: #000000; stroke-width: 0.8"/>
      </g>
     </g>
     <g id="text_16">
      <!-- 0.0 -->
      <g transform="translate(14 388.577812) scale(0.12 -0.12)">
       <use xlink:href="#STIXGeneral-Regular-30"/>
       <use xlink:href="#STIXGeneral-Regular-2e" transform="translate(49.999985 0)"/>
       <use xlink:href="#STIXGeneral-Regular-30" transform="translate(74.999969 0)"/>
      </g>
     </g>
    </g>
    <g id="ytick_8">
     <g id="line2d_28">
      <g>
       <use xlink:href="#m816773a632" x="36" y="354.24" style="stroke: #000000; stroke-width: 0.8"/>
      </g>
     </g>
     <g id="text_17">
      <!-- 0.2 -->
      <g transform="translate(14 358.337813) scale(0.12 -0.12)">
       <use xlink:href="#STIXGeneral-Regular-30"/>
       <use xlink:href="#STIXGeneral-Regular-2e" transform="translate(49.999985 0)"/>
       <use xlink:href="#STIXGeneral-Regular-32" transform="translate(74.999969 0)"/>
      </g>
     </g>
    </g>
    <g id="ytick_9">
     <g id="line2d_29">
      <g>
       <use xlink:href="#m816773a632" x="36" y="324" style="stroke: #000000; stroke-width: 0.8"/>
      </g>
     </g>
     <g id="text_18">
      <!-- 0.4 -->
      <g transform="translate(14 328.097813) scale(0.12 -0.12)">
       <use xlink:href="#STIXGeneral-Regular-30"/>
       <use xlink:href="#STIXGeneral-Regular-2e" transform="translate(49.999985 0)"/>
       <use xlink:href="#STIXGeneral-Regular-34" transform="translate(74.999969 0)"/>
      </g>
     </g>
    </g>
    <g id="ytick_10">
     <g id="line2d_30">
      <g>
       <use xlink:href="#m816773a632" x="36" y="293.76" style="stroke: #000000; stroke-width: 0.8"/>
      </g>
     </g>
     <g id="text_19">
      <!-- 0.6 -->
      <g transform="translate(14 297.857813) scale(0.12 -0.12)">
       <use xlink:href="#STIXGeneral-Regular-30"/>
       <use xlink:href="#STIXGeneral-Regular-2e" transform="translate(49.999985 0)"/>
       <use xlink:href="#STIXGeneral-Regular-36" transform="translate(74.999969 0)"/>
      </g>
     </g>
    </g>
    <g id="ytick_11">
     <g id="line2d_31">
      <g>
       <use xlink:href="#m816773a632" x="36" y="263.52" style="stroke: #000000; stroke-width: 0.8"/>
      </g>
     </g>
     <g id="text_20">
      <!-- 0.8 -->
      <g transform="translate(14 267.617813) scale(0.12 -0.12)">
       <use xlink:href="#STIXGeneral-Regular-30"/>
       <use xlink:href="#STIXGeneral-Regular-2e" transform="translate(49.999985 0)"/>
       <use xlink:href="#STIXGeneral-Regular-38" transform="translate(74.999969 0)"/>
      </g>
     </g>
    </g>
    <g id="ytick_12">
     <g id="line2d_32">
      <g>
       <use xlink:href="#m816773a632" x="36" y="233.28" style="stroke: #000000; stroke-width: 0.8"/>
      </g>
     </g>
     <g id="text_21">
      <!-- 1.0 -->
      <g transform="translate(14 237.377813) scale(0.12 -0.12)">
       <use xlink:href="#STIXGeneral-Regular-31"/>
       <use xlink:href="#STIXGeneral-Regular-2e" transform="translate(49.999985 0)"/>
       <use xlink:href="#STIXGeneral-Regular-30" transform="translate(74.999969 0)"/>
      </g>
     </g>
    </g>
   </g>
   <g id="line2d_33">
    <path d="M 56.290909 249.103745 
L 58.340496 249.15145 
L 60.390083 249.198665 
L 62.439669 249.245389 
L 64.489256 249.291623 
L 66.538843 249.337367 
L 68.58843 249.382622 
L 70.638017 249.427386 
L 72.687603 249.471662 
L 74.73719 249.515447 
L 76.786777 249.558744 
L 78.836364 249.601552 
L 80.88595 249.643871 
L 82.935537 249.685702 
L 84.985124 249.727044 
L 87.034711 249.767898 
L 89.084298 249.808263 
L 91.133884 249.848141 
L 93.183471 249.887531 
L 95.233058 249.926434 
L 97.282645 249.964849 
L 99.332231 250.002776 
L 101.381818 250.040217 
L 103.431405 250.077171 
L 105.480992 250.113638 
L 107.530579 250.149618 
L 109.580165 250.185111 
L 111.629752 250.220119 
L 113.679339 250.25464 
L 115.728926 250.288675 
L 117.778512 250.322224 
L 119.828099 250.355287 
L 121.877686 250.387864 
L 123.927273 250.419956 
L 125.97686 250.451563 
L 128.026446 250.482684 
L 130.076033 250.51332 
L 132.12562 250.543471 
L 134.175207 250.573137 
L 136.224793 250.602319 
L 138.27438 250.631015 
L 140.323967 250.659227 
L 142.373554 250.686955 
L 144.42314 250.714198 
L 146.472727 250.740957 
L 148.522314 250.767232 
L 150.571901 250.793023 
L 152.621488 250.81833 
L 154.671074 250.843154 
L 156.720661 250.867493 
L 158.770248 250.891349 
L 160.819835 250.914722 
L 162.869421 250.937611 
L 164.919008 250.960017 
L 166.968595 250.981939 
L 169.018182 251.003379 
L 171.067769 251.024335 
L 173.117355 251.044809 
L 175.166942 251.064799 
L 177.216529 251.084307 
L 179.266116 251.103332 
L 181.315702 251.121874 
L 183.365289 251.139934 
L 185.414876 251.157512 
L 187.464463 251.174607 
L 189.51405 251.191219 
L 191.563636 251.20735 
L 193.613223 251.222998 
L 195.66281 251.238164 
L 197.712397 251.252848 
L 199.761983 251.26705 
L 201.81157 251.28077 
L 203.861157 251.294008 
L 205.910744 251.306764 
L 207.960331 251.319039 
L 210.009917 251.330831 
L 212.059504 251.342142 
L 214.109091 251.352972 
L 216.158678 251.363319 
L 218.208264 251.373185 
L 220.257851 251.38257 
L 222.307438 251.391473 
L 224.357025 251.399895 
L 226.406612 251.407835 
L 228.456198 251.415294 
L 230.505785 251.422271 
L 232.555372 251.428768 
L 234.604959 251.434782 
L 236.654545 251.440316 
L 238.704132 251.445368 
L 240.753719 251.449939 
L 242.803306 251.454029 
L 244.852893 251.457638 
L 246.902479 251.460765 
L 248.952066 251.463412 
L 251.001653 251.465577 
L 253.05124 251.467261 
L 255.100826 251.468464 
L 257.150413 251.469185 
L 259.2 251.469426 
" clip-path="url(#p5092d22fc2)" style="fill: none; stroke: #f8a17b; stroke-opacity: 0.7; stroke-width: 3; stroke-linecap: square"/>
   </g>
   <g id="line2d_34">
    <path d="M 36 233.28 
L 56.290909 249.103745 
" clip-path="url(#p5092d22fc2)" style="fill: none; stroke: #f8a17b; stroke-opacity: 0.7; stroke-width: 3; stroke-linecap: square"/>
   </g>
   <g id="line2d_35">
    <path d="M 56.290909 271.632139 
L 58.340496 271.747747 
L 60.390083 271.862136 
L 62.439669 271.975305 
L 64.489256 272.087257 
L 66.538843 272.197994 
L 68.58843 272.307516 
L 70.638017 272.415825 
L 72.687603 272.522922 
L 74.73719 272.628809 
L 76.786777 272.733487 
L 78.836364 272.836958 
L 80.88595 272.939222 
L 82.935537 273.04028 
L 84.985124 273.140135 
L 87.034711 273.238788 
L 89.084298 273.336239 
L 91.133884 273.432489 
L 93.183471 273.527541 
L 95.233058 273.621395 
L 97.282645 273.714052 
L 99.332231 273.805514 
L 101.381818 273.895782 
L 103.431405 273.984856 
L 105.480992 274.072738 
L 107.530579 274.15943 
L 109.580165 274.244931 
L 111.629752 274.329244 
L 113.679339 274.412369 
L 115.728926 274.494307 
L 117.778512 274.575059 
L 119.828099 274.654627 
L 121.877686 274.733011 
L 123.927273 274.810212 
L 125.97686 274.886232 
L 128.026446 274.961071 
L 130.076033 275.03473 
L 132.12562 275.10721 
L 134.175207 275.178512 
L 136.224793 275.248636 
L 138.27438 275.317585 
L 140.323967 275.385358 
L 142.373554 275.451956 
L 144.42314 275.517381 
L 146.472727 275.581633 
L 148.522314 275.644713 
L 150.571901 275.706621 
L 152.621488 275.767359 
L 154.671074 275.826927 
L 156.720661 275.885326 
L 158.770248 275.942557 
L 160.819835 275.99862 
L 162.869421 276.053517 
L 164.919008 276.107247 
L 166.968595 276.159811 
L 169.018182 276.211211 
L 171.067769 276.261446 
L 173.117355 276.310518 
L 175.166942 276.358427 
L 177.216529 276.405173 
L 179.266116 276.450757 
L 181.315702 276.495181 
L 183.365289 276.538443 
L 185.414876 276.580546 
L 187.464463 276.621489 
L 189.51405 276.661272 
L 191.563636 276.699897 
L 193.613223 276.737364 
L 195.66281 276.773674 
L 197.712397 276.808826 
L 199.761983 276.842821 
L 201.81157 276.87566 
L 203.861157 276.907343 
L 205.910744 276.93787 
L 207.960331 276.967243 
L 210.009917 276.99546 
L 212.059504 277.022523 
L 214.109091 277.048432 
L 216.158678 277.073187 
L 218.208264 277.096789 
L 220.257851 277.119238 
L 222.307438 277.140533 
L 224.357025 277.160676 
L 226.406612 277.179667 
L 228.456198 277.197506 
L 230.505785 277.214192 
L 232.555372 277.229727 
L 234.604959 277.24411 
L 236.654545 277.257342 
L 238.704132 277.269423 
L 240.753719 277.280353 
L 242.803306 277.290132 
L 244.852893 277.29876 
L 246.902479 277.306238 
L 248.952066 277.312565 
L 251.001653 277.317742 
L 253.05124 277.321768 
L 255.100826 277.324644 
L 257.150413 277.326369 
L 259.2 277.326944 
" clip-path="url(#p5092d22fc2)" style="fill: none; stroke: #f8a17b; stroke-opacity: 0.8; stroke-width: 3; stroke-linecap: square"/>
   </g>
   <g id="line2d_36">
    <path d="M 36 233.28 
L 56.290909 271.632139 
" clip-path="url(#p5092d22fc2)" style="fill: none; stroke: #f8a17b; stroke-opacity: 0.8; stroke-width: 3; stroke-linecap: square"/>
   </g>
   <g id="line2d_37">
    <path d="M 56.290909 286.020977 
L 58.340496 286.179937 
L 60.390083 286.33718 
L 62.439669 286.492706 
L 64.489256 286.646521 
L 66.538843 286.798627 
L 68.58843 286.949027 
L 70.638017 287.097724 
L 72.687603 287.244721 
L 74.73719 287.390022 
L 76.786777 287.53363 
L 78.836364 287.675546 
L 80.88595 287.815775 
L 82.935537 287.95432 
L 84.985124 288.091182 
L 87.034711 288.226365 
L 89.084298 288.359872 
L 91.133884 288.491705 
L 93.183471 288.621868 
L 95.233058 288.750362 
L 97.282645 288.877191 
L 99.332231 289.002357 
L 101.381818 289.125862 
L 103.431405 289.24771 
L 105.480992 289.367903 
L 107.530579 289.486443 
L 109.580165 289.603333 
L 111.629752 289.718574 
L 113.679339 289.832171 
L 115.728926 289.944124 
L 117.778512 290.054436 
L 119.828099 290.16311 
L 121.877686 290.270148 
L 123.927273 290.375551 
L 125.97686 290.479323 
L 128.026446 290.581464 
L 130.076033 290.681978 
L 132.12562 290.780867 
L 134.175207 290.878132 
L 136.224793 290.973775 
L 138.27438 291.067799 
L 140.323967 291.160206 
L 142.373554 291.250996 
L 144.42314 291.340173 
L 146.472727 291.427738 
L 148.522314 291.513692 
L 150.571901 291.598039 
L 152.621488 291.680778 
L 154.671074 291.761913 
L 156.720661 291.841444 
L 158.770248 291.919374 
L 160.819835 291.995703 
L 162.869421 292.070435 
L 164.919008 292.143569 
L 166.968595 292.215108 
L 169.018182 292.285053 
L 171.067769 292.353406 
L 173.117355 292.420167 
L 175.166942 292.485339 
L 177.216529 292.548923 
L 179.266116 292.610919 
L 181.315702 292.67133 
L 183.365289 292.730156 
L 185.414876 292.7874 
L 187.464463 292.843061 
L 189.51405 292.897141 
L 191.563636 292.949641 
L 193.613223 293.000562 
L 195.66281 293.049906 
L 197.712397 293.097673 
L 199.761983 293.143865 
L 201.81157 293.188482 
L 203.861157 293.231525 
L 205.910744 293.272995 
L 207.960331 293.312893 
L 210.009917 293.35122 
L 212.059504 293.387976 
L 214.109091 293.423163 
L 216.158678 293.456781 
L 218.208264 293.48883 
L 220.257851 293.519312 
L 222.307438 293.548227 
L 224.357025 293.575576 
L 226.406612 293.601359 
L 228.456198 293.625576 
L 230.505785 293.648229 
L 232.555372 293.669318 
L 234.604959 293.688842 
L 236.654545 293.706804 
L 238.704132 293.723202 
L 240.753719 293.738037 
L 242.803306 293.75131 
L 244.852893 293.763021 
L 246.902479 293.77317 
L 248.952066 293.781757 
L 251.001653 293.788782 
L 253.05124 293.794246 
L 255.100826 293.798149 
L 257.150413 293.800491 
L 259.2 293.801272 
" clip-path="url(#p5092d22fc2)" style="fill: none; stroke: #f8a17b; stroke-opacity: 0.9; stroke-width: 3; stroke-linecap: square"/>
   </g>
   <g id="line2d_38">
    <path d="M 36 233.28 
L 56.290909 286.020977 
" clip-path="url(#p5092d22fc2)" style="fill: none; stroke: #f8a17b; stroke-opacity: 0.9; stroke-width: 3; stroke-linecap: square"/>
   </g>
   <g id="line2d_39">
    <path d="M 56.290909 292.487124 
L 58.340496 292.66556 
L 60.390083 292.84204 
L 62.439669 293.016568 
L 64.489256 293.189148 
L 66.538843 293.359786 
L 68.58843 293.528485 
L 70.638017 293.695249 
L 72.687603 293.860084 
L 74.73719 294.022993 
L 76.786777 294.18398 
L 78.836364 294.343049 
L 80.88595 294.500205 
L 82.935537 294.655452 
L 84.985124 294.808793 
L 87.034711 294.960232 
L 89.084298 295.109774 
L 91.133884 295.257421 
L 93.183471 295.403179 
L 95.233058 295.54705 
L 97.282645 295.689038 
L 99.332231 295.829147 
L 101.381818 295.967381 
L 103.431405 296.103742 
L 105.480992 296.238235 
L 107.530579 296.370862 
L 109.580165 296.501628 
L 111.629752 296.630535 
L 113.679339 296.757588 
L 115.728926 296.882788 
L 117.778512 297.00614 
L 119.828099 297.127646 
L 121.877686 297.247309 
L 123.927273 297.365133 
L 125.97686 297.481121 
L 128.026446 297.595275 
L 130.076033 297.707599 
L 132.12562 297.818095 
L 134.175207 297.926766 
L 136.224793 298.033615 
L 138.27438 298.138644 
L 140.323967 298.241857 
L 142.373554 298.343256 
L 144.42314 298.442844 
L 146.472727 298.540622 
L 148.522314 298.636594 
L 150.571901 298.730762 
L 152.621488 298.823129 
L 154.671074 298.913696 
L 156.720661 299.002466 
L 158.770248 299.089442 
L 160.819835 299.174625 
L 162.869421 299.258018 
L 164.919008 299.339623 
L 166.968595 299.419442 
L 169.018182 299.497477 
L 171.067769 299.57373 
L 173.117355 299.648202 
L 175.166942 299.720897 
L 177.216529 299.791815 
L 179.266116 299.860958 
L 181.315702 299.928329 
L 183.365289 299.993929 
L 185.414876 300.05776 
L 187.464463 300.119822 
L 189.51405 300.180119 
L 191.563636 300.238651 
L 193.613223 300.29542 
L 195.66281 300.350427 
L 197.712397 300.403674 
L 199.761983 300.455162 
L 201.81157 300.504892 
L 203.861157 300.552866 
L 205.910744 300.599085 
L 207.960331 300.64355 
L 210.009917 300.686262 
L 212.059504 300.727223 
L 214.109091 300.766432 
L 216.158678 300.803893 
L 218.208264 300.839604 
L 220.257851 300.873568 
L 222.307438 300.905784 
L 224.357025 300.936255 
L 226.406612 300.96498 
L 228.456198 300.991961 
L 230.505785 301.017198 
L 232.555372 301.040691 
L 234.604959 301.062442 
L 236.654545 301.082451 
L 238.704132 301.100718 
L 240.753719 301.117244 
L 242.803306 301.13203 
L 244.852893 301.145075 
L 246.902479 301.15638 
L 248.952066 301.165945 
L 251.001653 301.173771 
L 253.05124 301.179857 
L 255.100826 301.184204 
L 257.150413 301.186813 
L 259.2 301.187682 
" clip-path="url(#p5092d22fc2)" style="fill: none; stroke: #f8a17b; stroke-width: 3; stroke-linecap: square"/>
   </g>
   <g id="line2d_40">
    <path d="M 36 233.28 
L 56.290909 292.487124 
" clip-path="url(#p5092d22fc2)" style="fill: none; stroke: #f8a17b; stroke-width: 3; stroke-linecap: square"/>
   </g>
   <g id="patch_9">
    <path d="M 36 384.48 
L 36 233.28 
" style="fill: none; stroke: #000000; stroke-width: 0.8; stroke-linejoin: miter; stroke-linecap: square"/>
   </g>
   <g id="patch_10">
    <path d="M 259.2 384.48 
L 259.2 233.28 
" style="fill: none; stroke: #000000; stroke-width: 0.8; stroke-linejoin: miter; stroke-linecap: square"/>
   </g>
   <g id="patch_11">
    <path d="M 36 384.48 
L 259.2 384.48 
" style="fill: none; stroke: #000000; stroke-width: 0.8; stroke-linejoin: miter; stroke-linecap: square"/>
   </g>
   <g id="patch_12">
    <path d="M 36 233.28 
L 259.2 233.28 
" style="fill: none; stroke: #000000; stroke-width: 0.8; stroke-linejoin: miter; stroke-linecap: square"/>
   </g>
   <g id="text_22">
    <!-- Increasing $\tau$ -->
    <g transform="translate(137.454545 331.56) scale(0.18 -0.18)">
     <defs>
      <path id="STIXGeneral-Italic-3c4" d="M 2726 2739 
L 2592 2266 
L 1741 2266 
Q 1293 1248 1293 742 
Q 1293 416 1523 416 
Q 1638 416 1779 547 
Q 1920 678 2003 858 
L 2106 858 
Q 1990 467 1731 198 
Q 1472 -70 1178 -70 
Q 768 -70 768 384 
Q 768 890 1395 2266 
L 1005 2266 
Q 493 2266 179 1702 
L 77 1702 
Q 237 2093 569 2416 
Q 902 2739 1331 2739 
L 2726 2739 
z
" transform="scale(0.015625)"/>
     </defs>
     <use xlink:href="#STIXGeneral-Regular-49" transform="translate(0 0.703125)"/>
     <use xlink:href="#STIXGeneral-Regular-6e" transform="translate(33.299988 0.703125)"/>
     <use xlink:href="#STIXGeneral-Regular-63" transform="translate(83.299973 0.703125)"/>
     <use xlink:href="#STIXGeneral-Regular-72" transform="translate(127.699966 0.703125)"/>
     <use xlink:href="#STIXGeneral-Regular-65" transform="translate(160.999954 0.703125)"/>
     <use xlink:href="#STIXGeneral-Regular-61" transform="translate(205.399948 0.703125)"/>
     <use xlink:href="#STIXGeneral-Regular-73" transform="translate(249.799942 0.703125)"/>
     <use xlink:href="#STIXGeneral-Regular-69" transform="translate(288.699936 0.703125)"/>
     <use xlink:href="#STIXGeneral-Regular-6e" transform="translate(316.499924 0.703125)"/>
     <use xlink:href="#STIXGeneral-Regular-67" transform="translate(366.499908 0.703125)"/>
     <use xlink:href="#STIXGeneral-Regular-20" transform="translate(416.499893 0.703125)"/>
     <use xlink:href="#STIXGeneral-Italic-3c4" transform="translate(441.499878 0.703125)"/>
    </g>
   </g>
   <g id="patch_13">
    <path d="M 129.309091 322.636764 
Q 129.309091 331.607589 129.309091 340.578414 
L 133.309091 340.578414 
Q 130.309091 346.577847 127.309091 352.577281 
Q 124.309091 346.577847 121.309091 340.578414 
L 125.309091 340.578414 
Q 125.309091 331.607589 125.309091 322.636764 
L 129.309091 322.636764 
z
" style="fill: #eacebd; stroke: #000000; stroke-linecap: round"/>
   </g>
   <g id="text_23">
    <!-- Absorption limited -->
    <g transform="translate(82.93 227.28) scale(0.16 -0.16)">
     <defs>
      <path id="STIXGeneral-Bold-41" d="M 4410 0 
L 2349 0 
L 2349 160 
L 2554 179 
Q 2714 192 2781 240 
Q 2848 288 2848 390 
Q 2848 576 2554 1261 
L 1114 1261 
L 1030 1043 
Q 832 531 832 422 
Q 832 301 950 240 
Q 1069 179 1350 160 
L 1350 0 
L 58 0 
L 58 160 
Q 282 198 397 339 
Q 512 480 691 928 
L 2106 4416 
L 2285 4416 
L 3706 1075 
Q 3949 499 4080 329 
Q 4211 160 4410 160 
L 4410 0 
z
M 2458 1510 
L 1811 3066 
L 1210 1510 
L 2458 1510 
z
" transform="scale(0.015625)"/>
      <path id="STIXGeneral-Bold-62" d="M 1350 4326 
L 1350 2669 
Q 1690 3027 2131 3027 
Q 2662 3027 2998 2611 
Q 3334 2195 3334 1530 
Q 3334 806 2931 358 
Q 2528 -90 1888 -90 
Q 1440 -90 1043 275 
L 538 -83 
L 461 -83 
L 461 3802 
Q 461 3994 397 4061 
Q 333 4128 109 4173 
L 109 4326 
L 1350 4326 
z
M 1350 2304 
L 1350 621 
Q 1350 390 1472 252 
Q 1594 115 1792 115 
Q 2394 115 2394 1414 
Q 2394 2682 1798 2682 
Q 1638 2682 1536 2595 
Q 1434 2509 1350 2304 
z
" transform="scale(0.015625)"/>
      <path id="STIXGeneral-Bold-73" d="M 2176 2086 
L 2016 2086 
Q 1894 2445 1715 2611 
Q 1498 2816 1235 2816 
Q 1056 2816 934 2710 
Q 813 2605 813 2445 
Q 813 2278 957 2147 
Q 1101 2016 1427 1882 
Q 1907 1683 2108 1452 
Q 2310 1222 2310 883 
Q 2310 454 2035 182 
Q 1760 -90 1325 -90 
Q 992 -90 634 58 
Q 538 96 486 96 
Q 416 96 320 -83 
L 160 -83 
L 160 973 
L 339 973 
Q 544 128 1216 128 
Q 1434 128 1565 243 
Q 1696 358 1696 544 
Q 1696 698 1555 829 
Q 1414 960 1082 1101 
Q 602 1306 387 1539 
Q 173 1773 173 2093 
Q 173 2496 457 2761 
Q 742 3027 1178 3027 
Q 1395 3027 1677 2931 
Q 1818 2886 1875 2886 
Q 1984 2886 2035 3014 
L 2176 3014 
L 2176 2086 
z
" transform="scale(0.015625)"/>
      <path id="STIXGeneral-Bold-72" d="M 1395 2950 
L 1395 2426 
Q 1619 2752 1817 2889 
Q 2016 3027 2259 3027 
Q 2483 3027 2630 2883 
Q 2778 2739 2778 2522 
Q 2778 2330 2666 2208 
Q 2554 2086 2374 2086 
Q 2138 2086 1990 2330 
Q 1901 2477 1811 2477 
Q 1645 2477 1533 2285 
Q 1421 2093 1421 1811 
L 1421 678 
Q 1421 371 1507 272 
Q 1594 173 1882 154 
L 1882 0 
L 186 0 
L 186 154 
Q 397 192 464 265 
Q 531 339 531 538 
L 531 2387 
Q 531 2611 460 2688 
Q 390 2765 179 2797 
L 179 2950 
L 1395 2950 
z
" transform="scale(0.015625)"/>
      <path id="STIXGeneral-Bold-70" d="M 1357 2950 
L 1357 2509 
Q 1517 2790 1712 2908 
Q 1907 3027 2195 3027 
Q 2739 3027 3046 2659 
Q 3354 2291 3354 1594 
Q 3354 838 3024 377 
Q 2694 -83 2125 -83 
Q 1907 -83 1753 -3 
Q 1600 77 1370 301 
L 1370 -506 
Q 1370 -838 1475 -992 
Q 1581 -1146 1862 -1158 
L 1862 -1312 
L 122 -1312 
L 122 -1158 
Q 346 -1120 413 -1040 
Q 480 -960 480 -755 
L 480 2381 
Q 480 2592 409 2678 
Q 339 2765 128 2797 
L 128 2950 
L 1357 2950 
z
M 1370 2214 
L 1370 685 
Q 1446 499 1577 384 
Q 1709 269 1862 269 
Q 2406 269 2406 1498 
Q 2406 2662 1920 2662 
Q 1683 2662 1485 2426 
Q 1370 2291 1370 2214 
z
" transform="scale(0.015625)"/>
      <path id="STIXGeneral-Bold-6e" d="M 3450 0 
L 1952 0 
L 1952 154 
Q 2112 173 2179 259 
Q 2246 346 2246 538 
L 2246 2054 
Q 2246 2598 1920 2598 
Q 1690 2598 1472 2381 
Q 1363 2272 1363 2227 
L 1363 538 
Q 1363 352 1430 265 
Q 1498 179 1670 154 
L 1670 0 
L 134 0 
L 134 154 
Q 346 198 410 275 
Q 474 352 474 557 
L 474 2406 
Q 474 2611 410 2688 
Q 346 2765 134 2797 
L 134 2950 
L 1357 2950 
L 1357 2470 
L 1363 2470 
Q 1677 3027 2272 3027 
Q 2669 3027 2902 2780 
Q 3136 2534 3136 2118 
L 3136 538 
Q 3136 320 3200 243 
Q 3264 166 3450 154 
L 3450 0 
z
" transform="scale(0.015625)"/>
     </defs>
     <use xlink:href="#STIXGeneral-Bold-41"/>
     <use xlink:href="#STIXGeneral-Bold-62" transform="translate(72.199982 0)"/>
     <use xlink:href="#STIXGeneral-Bold-73" transform="translate(127.799973 0)"/>
     <use xlink:href="#STIXGeneral-Bold-6f" transform="translate(166.699966 0)"/>
     <use xlink:href="#STIXGeneral-Bold-72" transform="translate(216.699951 0)"/>
     <use xlink:href="#STIXGeneral-Bold-70" transform="translate(261.099945 0)"/>
     <use xlink:href="#STIXGeneral-Bold-74" transform="translate(316.699936 0)"/>
     <use xlink:href="#STIXGeneral-Bold-69" transform="translate(349.999924 0)"/>
     <use xlink:href="#STIXGeneral-Bold-6f" transform="translate(377.799911 0)"/>
     <use xlink:href="#STIXGeneral-Bold-6e" transform="translate(427.799896 0)"/>
     <use xlink:href="#STIXGeneral-Bold-20" transform="translate(483.399887 0)"/>
     <use xlink:href="#STIXGeneral-Bold-6c" transform="translate(508.399872 0)"/>
     <use xlink:href="#STIXGeneral-Bold-69" transform="translate(536.19986 0)"/>
     <use xlink:href="#STIXGeneral-Bold-6d" transform="translate(563.999847 0)"/>
     <use xlink:href="#STIXGeneral-Bold-69" transform="translate(647.299835 0)"/>
     <use xlink:href="#STIXGeneral-Bold-74" transform="translate(675.099823 0)"/>
     <use xlink:href="#STIXGeneral-Bold-65" transform="translate(708.399811 0)"/>
     <use xlink:href="#STIXGeneral-Bold-64" transform="translate(752.799805 0)"/>
    </g>
   </g>
  </g>
  <g id="text_24">
   <!-- Relative concentration $\chi(\lambda)$ -->
   <g transform="translate(0.773438 313.74) rotate(-90) scale(0.18 -0.18)">
    <defs>
     <path id="STIXGeneral-Regular-6f" d="M 3008 1478 
Q 3008 806 2608 371 
Q 2208 -64 1568 -64 
Q 979 -64 582 368 
Q 186 800 186 1459 
Q 186 2125 582 2534 
Q 979 2944 1626 2944 
Q 2221 2944 2614 2537 
Q 3008 2131 3008 1478 
z
M 2432 1306 
Q 2432 2035 2112 2445 
Q 1856 2765 1504 2765 
Q 1171 2765 966 2493 
Q 762 2221 762 1747 
Q 762 928 1101 435 
Q 1318 115 1677 115 
Q 2029 115 2230 432 
Q 2432 749 2432 1306 
z
" transform="scale(0.015625)"/>
     <path id="STIXGeneral-Italic-3c7" d="M 3187 2739 
L 1363 480 
Q 1357 314 1357 38 
Q 1357 -531 1424 -726 
Q 1491 -922 1645 -922 
Q 1722 -922 1824 -803 
Q 1926 -685 2010 -448 
L 2112 -448 
Q 1939 -1325 1517 -1325 
Q 1312 -1325 1213 -1091 
Q 1114 -858 1114 -506 
Q 1114 -32 1165 288 
L -96 -1274 
L -691 -1274 
L 1146 934 
L 1146 1504 
Q 1146 1990 1085 2204 
Q 1024 2419 858 2419 
Q 774 2419 662 2307 
Q 550 2195 467 1952 
L 365 1952 
Q 416 2144 461 2272 
Q 506 2400 579 2541 
Q 653 2682 755 2752 
Q 858 2822 992 2822 
Q 1178 2822 1270 2617 
Q 1363 2413 1363 1901 
Q 1363 1882 1360 1818 
Q 1357 1754 1350 1571 
Q 1344 1389 1338 1114 
L 2592 2739 
L 3187 2739 
z
" transform="scale(0.015625)"/>
     <path id="STIXGeneral-Regular-28" d="M 1946 -1030 
L 1869 -1133 
Q 1126 -710 716 32 
Q 307 774 307 1613 
Q 307 3386 1888 4326 
L 1946 4224 
Q 1293 3667 1075 3126 
Q 858 2586 858 1632 
Q 858 685 1082 96 
Q 1306 -493 1946 -1030 
z
" transform="scale(0.015625)"/>
     <path id="STIXGeneral-Regular-29" d="M 186 4224 
L 262 4326 
Q 992 3891 1408 3148 
Q 1824 2406 1824 1581 
Q 1824 -166 243 -1133 
L 186 -1030 
Q 845 -486 1059 54 
Q 1274 595 1274 1562 
Q 1274 2534 1059 3120 
Q 845 3706 186 4224 
z
" transform="scale(0.015625)"/>
    </defs>
    <use xlink:href="#STIXGeneral-Regular-52" transform="translate(0 0.703125)"/>
    <use xlink:href="#STIXGeneral-Regular-65" transform="translate(66.699997 0.703125)"/>
    <use xlink:href="#STIXGeneral-Regular-6c" transform="translate(111.099991 0.703125)"/>
    <use xlink:href="#STIXGeneral-Regular-61" transform="translate(138.899979 0.703125)"/>
    <use xlink:href="#STIXGeneral-Regular-74" transform="translate(183.299973 0.703125)"/>
    <use xlink:href="#STIXGeneral-Regular-69" transform="translate(211.09996 0.703125)"/>
    <use xlink:href="#STIXGeneral-Regular-76" transform="translate(238.899948 0.703125)"/>
    <use xlink:href="#STIXGeneral-Regular-65" transform="translate(288.899933 0.703125)"/>
    <use xlink:href="#STIXGeneral-Regular-20" transform="translate(333.299927 0.703125)"/>
    <use xlink:href="#STIXGeneral-Regular-63" transform="translate(358.299911 0.703125)"/>
    <use xlink:href="#STIXGeneral-Regular-6f" transform="translate(402.699905 0.703125)"/>
    <use xlink:href="#STIXGeneral-Regular-6e" transform="translate(452.69989 0.703125)"/>
    <use xlink:href="#STIXGeneral-Regular-63" transform="translate(502.699875 0.703125)"/>
    <use xlink:href="#STIXGeneral-Regular-65" transform="translate(547.099869 0.703125)"/>
    <use xlink:href="#STIXGeneral-Regular-6e" transform="translate(591.499863 0.703125)"/>
    <use xlink:href="#STIXGeneral-Regular-74" transform="translate(641.499847 0.703125)"/>
    <use xlink:href="#STIXGeneral-Regular-72" transform="translate(669.299835 0.703125)"/>
    <use xlink:href="#STIXGeneral-Regular-61" transform="translate(702.599823 0.703125)"/>
    <use xlink:href="#STIXGeneral-Regular-74" transform="translate(746.999817 0.703125)"/>
    <use xlink:href="#STIXGeneral-Regular-69" transform="translate(774.799805 0.703125)"/>
    <use xlink:href="#STIXGeneral-Regular-6f" transform="translate(802.599792 0.703125)"/>
    <use xlink:href="#STIXGeneral-Regular-6e" transform="translate(852.599777 0.703125)"/>
    <use xlink:href="#STIXGeneral-Regular-20" transform="translate(902.599762 0.703125)"/>
    <use xlink:href="#STIXGeneral-Italic-3c7" transform="translate(927.599747 0.703125)"/>
    <use xlink:href="#STIXGeneral-Regular-28" transform="translate(973.299744 0.703125)"/>
    <use xlink:href="#STIXGeneral-Italic-3bb" transform="translate(1006.599731 0.703125)"/>
    <use xlink:href="#STIXGeneral-Regular-29" transform="translate(1052.399719 0.703125)"/>
   </g>
  </g>
 </g>
 <defs>
  <clipPath id="p7bf597b474">
   <rect x="36" y="51.84" width="223.2" height="151.2"/>
  </clipPath>
  <clipPath id="p5092d22fc2">
   <rect x="36" y="233.28" width="223.2" height="151.2"/>
  </clipPath>
 </defs>
</svg>
