<?xml version="1.0" encoding="utf-8" standalone="no"?>
<!DOCTYPE svg PUBLIC "-//W3C//DTD SVG 1.1//EN"
  "http://www.w3.org/Graphics/SVG/1.1/DTD/svg11.dtd">
<svg xmlns:xlink="http://www.w3.org/1999/xlink" width="360pt" height="288pt" viewBox="0 0 360 288" xmlns="http://www.w3.org/2000/svg" version="1.1">
 <metadata>
  <rdf:RDF xmlns:dc="http://purl.org/dc/elements/1.1/" xmlns:cc="http://creativecommons.org/ns#" xmlns:rdf="http://www.w3.org/1999/02/22-rdf-syntax-ns#">
   <cc:Work>
    <dc:type rdf:resource="http://purl.org/dc/dcmitype/StillImage"/>
    <dc:date>2026-03-09T10:04:04.992422</dc:date>
    <dc:format>image/svg+xml</dc:format>
    <dc:creator>
     <cc:Agent>
      <dc:title>Matplotlib v3.10.7, https://matplotlib.org/</dc:title>
     </cc:Agent>
    </dc:creator>
   </cc:Work>
  </rdf:RDF>
 </metadata>
 <defs>
  <style type="text/css">*{stroke-linejoin: round; stroke-linecap: butt}</style>
 </defs>
 <g id="figure_1">
  <g id="patch_1">
   <path d="M 0 288 
L 360 288 
L 360 0 
L 0 0 
z
" style="fill: #ffffff"/>
  </g>
  <g id="axes_1">
   <g id="patch_2">
    <path d="M 45 133.12 
L 324 133.12 
L 324 34.56 
L 45 34.56 
z
" style="fill: #ffffff"/>
   </g>
   <g id="matplotlib.axis_1">
    <g id="xtick_1">
     <g id="line2d_1">
      <defs>
       <path id="m63bcf12c9b" d="M 0 0 
L 0 3.5 
" style="stroke: #000000; stroke-width: 0.8"/>
      </defs>
      <g>
       <use xlink:href="#m63bcf12c9b" x="57.681818" y="133.12" style="stroke: #000000; stroke-width: 0.8"/>
      </g>
     </g>
    </g>
    <g id="xtick_2">
     <g id="line2d_2">
      <g>
       <use xlink:href="#m63bcf12c9b" x="108.409091" y="133.12" style="stroke: #000000; stroke-width: 0.8"/>
      </g>
     </g>
    </g>
    <g id="xtick_3">
     <g id="line2d_3">
      <g>
       <use xlink:href="#m63bcf12c9b" x="159.136364" y="133.12" style="stroke: #000000; stroke-width: 0.8"/>
      </g>
     </g>
    </g>
    <g id="xtick_4">
     <g id="line2d_4">
      <g>
       <use xlink:href="#m63bcf12c9b" x="209.863636" y="133.12" style="stroke: #000000; stroke-width: 0.8"/>
      </g>
     </g>
    </g>
    <g id="xtick_5">
     <g id="line2d_5">
      <g>
       <use xlink:href="#m63bcf12c9b" x="260.590909" y="133.12" style="stroke: #000000; stroke-width: 0.8"/>
      </g>
     </g>
    </g>
    <g id="xtick_6">
     <g id="line2d_6">
      <g>
       <use xlink:href="#m63bcf12c9b" x="311.318182" y="133.12" style="stroke: #000000; stroke-width: 0.8"/>
      </g>
     </g>
    </g>
   </g>
   <g id="matplotlib.axis_2">
    <g id="ytick_1">
     <g id="line2d_7">
      <defs>
       <path id="m46e08d36f9" d="M 0 0 
L -3.5 0 
" style="stroke: #000000; stroke-width: 0.8"/>
      </defs>
      <g>
       <use xlink:href="#m46e08d36f9" x="45" y="133.12" style="stroke: #000000; stroke-width: 0.8"/>
      </g>
     </g>
     <g id="text_1">
      <!-- 0.0 -->
      <g transform="translate(23 137.217813) scale(0.12 -0.12)">
       <defs>
        <path id="STIXGeneral-Regular-30" d="M 3046 2112 
Q 3046 1683 2963 1302 
Q 2880 922 2717 602 
Q 2554 282 2266 96 
Q 1978 -90 1600 -90 
Q 1210 -90 915 108 
Q 621 307 461 640 
Q 301 973 227 1350 
Q 154 1728 154 2150 
Q 154 2746 301 3222 
Q 448 3699 790 4012 
Q 1133 4326 1626 4326 
Q 2253 4326 2649 3712 
Q 3046 3098 3046 2112 
z
M 2432 2080 
Q 2432 3091 2217 3625 
Q 2003 4160 1587 4160 
Q 1190 4160 979 3622 
Q 768 3085 768 2106 
Q 768 1120 979 598 
Q 1190 77 1600 77 
Q 2003 77 2217 598 
Q 2432 1120 2432 2080 
z
" transform="scale(0.015625)"/>
        <path id="STIXGeneral-Regular-2e" d="M 1158 275 
Q 1158 134 1052 32 
Q 947 -70 800 -70 
Q 653 -70 550 32 
Q 448 134 448 281 
Q 448 429 553 534 
Q 659 640 806 640 
Q 947 640 1052 531 
Q 1158 422 1158 275 
z
" transform="scale(0.015625)"/>
       </defs>
       <use xlink:href="#STIXGeneral-Regular-30"/>
       <use xlink:href="#STIXGeneral-Regular-2e" transform="translate(49.999985 0)"/>
       <use xlink:href="#STIXGeneral-Regular-30" transform="translate(74.999969 0)"/>
      </g>
     </g>
    </g>
    <g id="ytick_2">
     <g id="line2d_8">
      <g>
       <use xlink:href="#m46e08d36f9" x="45" y="108.48" style="stroke: #000000; stroke-width: 0.8"/>
      </g>
     </g>
     <g id="text_2">
      <!-- 0.5 -->
      <g transform="translate(23 112.577813) scale(0.12 -0.12)">
       <defs>
        <path id="STIXGeneral-Regular-35" d="M 2803 4358 
L 2573 3814 
Q 2534 3731 2400 3731 
L 1158 3731 
L 902 3187 
Q 1606 3053 1920 2896 
Q 2234 2739 2502 2368 
Q 2726 2061 2726 1555 
Q 2726 1094 2576 780 
Q 2426 467 2099 224 
Q 1664 -90 1011 -90 
Q 646 -90 422 19 
Q 198 128 198 307 
Q 198 550 486 550 
Q 717 550 960 352 
Q 1210 147 1414 147 
Q 1747 147 2012 480 
Q 2278 813 2278 1229 
Q 2278 1843 1850 2189 
Q 1293 2637 486 2637 
Q 410 2637 410 2688 
L 416 2720 
L 1114 4237 
L 2438 4237 
Q 2547 4237 2608 4269 
Q 2669 4301 2746 4403 
L 2803 4358 
z
" transform="scale(0.015625)"/>
       </defs>
       <use xlink:href="#STIXGeneral-Regular-30"/>
       <use xlink:href="#STIXGeneral-Regular-2e" transform="translate(49.999985 0)"/>
       <use xlink:href="#STIXGeneral-Regular-35" transform="translate(74.999969 0)"/>
      </g>
     </g>
    </g>
    <g id="ytick_3">
     <g id="line2d_9">
      <g>
       <use xlink:href="#m46e08d36f9" x="45" y="83.84" style="stroke: #000000; stroke-width: 0.8"/>
      </g>
     </g>
     <g id="text_3">
      <!-- 1.0 -->
      <g transform="translate(23 87.937813) scale(0.12 -0.12)">
       <defs>
        <path id="STIXGeneral-Regular-31" d="M 2522 0 
L 755 0 
L 755 96 
Q 1107 115 1235 227 
Q 1363 339 1363 608 
L 1363 3482 
Q 1363 3795 1171 3795 
Q 1082 3795 883 3718 
L 710 3654 
L 710 3744 
L 1856 4326 
L 1914 4307 
L 1914 486 
Q 1914 275 2042 185 
Q 2170 96 2522 96 
L 2522 0 
z
" transform="scale(0.015625)"/>
       </defs>
       <use xlink:href="#STIXGeneral-Regular-31"/>
       <use xlink:href="#STIXGeneral-Regular-2e" transform="translate(49.999985 0)"/>
       <use xlink:href="#STIXGeneral-Regular-30" transform="translate(74.999969 0)"/>
      </g>
     </g>
    </g>
    <g id="ytick_4">
     <g id="line2d_10">
      <g>
       <use xlink:href="#m46e08d36f9" x="45" y="59.2" style="stroke: #000000; stroke-width: 0.8"/>
      </g>
     </g>
     <g id="text_4">
      <!-- 1.5 -->
      <g transform="translate(23 63.297812) scale(0.12 -0.12)">
       <use xlink:href="#STIXGeneral-Regular-31"/>
       <use xlink:href="#STIXGeneral-Regular-2e" transform="translate(49.999985 0)"/>
       <use xlink:href="#STIXGeneral-Regular-35" transform="translate(74.999969 0)"/>
      </g>
     </g>
    </g>
    <g id="ytick_5">
     <g id="line2d_11">
      <g>
       <use xlink:href="#m46e08d36f9" x="45" y="34.56" style="stroke: #000000; stroke-width: 0.8"/>
      </g>
     </g>
     <g id="text_5">
      <!-- 2.0 -->
      <g transform="translate(23 38.657813) scale(0.12 -0.12)">
       <defs>
        <path id="STIXGeneral-Regular-32" d="M 3034 877 
L 2688 0 
L 186 0 
L 186 77 
L 1325 1286 
Q 1773 1754 1965 2144 
Q 2157 2534 2157 2950 
Q 2157 3379 1920 3616 
Q 1683 3853 1267 3853 
Q 922 3853 720 3673 
Q 518 3494 326 3021 
L 192 3053 
Q 301 3648 630 3987 
Q 960 4326 1523 4326 
Q 2054 4326 2380 4006 
Q 2707 3686 2707 3200 
Q 2707 2477 1888 1613 
L 832 486 
L 2330 486 
Q 2541 486 2665 569 
Q 2790 653 2944 915 
L 3034 877 
z
" transform="scale(0.015625)"/>
       </defs>
       <use xlink:href="#STIXGeneral-Regular-32"/>
       <use xlink:href="#STIXGeneral-Regular-2e" transform="translate(49.999985 0)"/>
       <use xlink:href="#STIXGeneral-Regular-30" transform="translate(74.999969 0)"/>
      </g>
     </g>
    </g>
   </g>
   <g id="line2d_12">
    <path d="M 57.681818 116.69035 
L 60.243802 116.689683 
L 62.805785 116.688865 
L 65.367769 116.687865 
L 67.929752 116.686641 
L 70.491736 116.685143 
L 73.053719 116.68331 
L 75.615702 116.681066 
L 78.177686 116.678321 
L 80.739669 116.674961 
L 83.301653 116.670849 
L 85.863636 116.665818 
L 88.42562 116.659661 
L 90.987603 116.652127 
L 93.549587 116.642909 
L 96.11157 116.631631 
L 98.673554 116.617834 
L 101.235537 116.600955 
L 103.797521 116.58031 
L 106.359504 116.55506 
L 108.921488 116.524184 
L 111.483471 116.486435 
L 114.045455 116.440295 
L 116.607438 116.383913 
L 119.169421 116.315041 
L 121.731405 116.230948 
L 124.293388 116.128323 
L 126.855372 116.003161 
L 129.417355 115.850632 
L 131.979339 115.664926 
L 134.541322 115.439089 
L 137.103306 115.16483 
L 139.665289 114.832331 
L 142.227273 114.430054 
L 144.789256 113.944565 
L 147.35124 113.360405 
L 149.913223 112.660054 
L 152.475207 111.824027 
L 155.03719 110.831178 
L 157.599174 109.659294 
L 160.161157 108.286053 
L 162.72314 106.690425 
L 165.285124 104.85453 
L 167.847107 102.765929 
L 170.409091 100.420171 
L 172.971074 97.823305 
L 175.533058 94.993941 
L 178.095041 91.964333 
L 180.657025 88.780033 
L 183.219008 85.49785 
L 185.780992 82.18215 
L 188.342975 78.899967 
L 190.904959 75.715667 
L 193.466942 72.686059 
L 196.028926 69.856695 
L 198.590909 67.259829 
L 201.152893 64.914071 
L 203.714876 62.82547 
L 206.27686 60.989575 
L 208.838843 59.393947 
L 211.400826 58.020706 
L 213.96281 56.848822 
L 216.524793 55.855973 
L 219.086777 55.019946 
L 221.64876 54.319595 
L 224.210744 53.735435 
L 226.772727 53.249946 
L 229.334711 52.847669 
L 231.896694 52.51517 
L 234.458678 52.240911 
L 237.020661 52.015074 
L 239.582645 51.829368 
L 242.144628 51.676839 
L 244.706612 51.551677 
L 247.268595 51.449052 
L 249.830579 51.364959 
L 252.392562 51.296087 
L 254.954545 51.239705 
L 257.516529 51.193565 
L 260.078512 51.155816 
L 262.640496 51.12494 
L 265.202479 51.09969 
L 267.764463 51.079045 
L 270.326446 51.062166 
L 272.88843 51.048369 
L 275.450413 51.037091 
L 278.012397 51.027873 
L 280.57438 51.020339 
L 283.136364 51.014182 
L 285.698347 51.009151 
L 288.260331 51.005039 
L 290.822314 51.001679 
L 293.384298 50.998934 
L 295.946281 50.99669 
L 298.508264 50.994857 
L 301.070248 50.993359 
L 303.632231 50.992135 
L 306.194215 50.991135 
L 308.756198 50.990317 
L 311.318182 50.98965 
" clip-path="url(#pbe7b42a174)" style="fill: none; stroke: #3232e8; stroke-linecap: square"/>
   </g>
   <g id="line2d_13">
    <path d="M 57.681818 50.98965 
L 60.243802 50.990317 
L 62.805785 50.991135 
L 65.367769 50.992135 
L 67.929752 50.993359 
L 70.491736 50.994857 
L 73.053719 50.99669 
L 75.615702 50.998934 
L 78.177686 51.001679 
L 80.739669 51.005039 
L 83.301653 51.009151 
L 85.863636 51.014182 
L 88.42562 51.020339 
L 90.987603 51.027873 
L 93.549587 51.037091 
L 96.11157 51.048369 
L 98.673554 51.062166 
L 101.235537 51.079045 
L 103.797521 51.09969 
L 106.359504 51.12494 
L 108.921488 51.155816 
L 111.483471 51.193565 
L 114.045455 51.239705 
L 116.607438 51.296087 
L 119.169421 51.364959 
L 121.731405 51.449052 
L 124.293388 51.551677 
L 126.855372 51.676839 
L 129.417355 51.829368 
L 131.979339 52.015074 
L 134.541322 52.240911 
L 137.103306 52.51517 
L 139.665289 52.847669 
L 142.227273 53.249946 
L 144.789256 53.735435 
L 147.35124 54.319595 
L 149.913223 55.019946 
L 152.475207 55.855973 
L 155.03719 56.848822 
L 157.599174 58.020706 
L 160.161157 59.393947 
L 162.72314 60.989575 
L 165.285124 62.82547 
L 167.847107 64.914071 
L 170.409091 67.259829 
L 172.971074 69.856695 
L 175.533058 72.686059 
L 178.095041 75.715667 
L 180.657025 78.899967 
L 183.219008 82.18215 
L 185.780992 85.49785 
L 188.342975 88.780033 
L 190.904959 91.964333 
L 193.466942 94.993941 
L 196.028926 97.823305 
L 198.590909 100.420171 
L 201.152893 102.765929 
L 203.714876 104.85453 
L 206.27686 106.690425 
L 208.838843 108.286053 
L 211.400826 109.659294 
L 213.96281 110.831178 
L 216.524793 111.824027 
L 219.086777 112.660054 
L 221.64876 113.360405 
L 224.210744 113.944565 
L 226.772727 114.430054 
L 229.334711 114.832331 
L 231.896694 115.16483 
L 234.458678 115.439089 
L 237.020661 115.664926 
L 239.582645 115.850632 
L 242.144628 116.003161 
L 244.706612 116.128323 
L 247.268595 116.230948 
L 249.830579 116.315041 
L 252.392562 116.383913 
L 254.954545 116.440295 
L 257.516529 116.486435 
L 260.078512 116.524184 
L 262.640496 116.55506 
L 265.202479 116.58031 
L 267.764463 116.600955 
L 270.326446 116.617834 
L 272.88843 116.631631 
L 275.450413 116.642909 
L 278.012397 116.652127 
L 280.57438 116.659661 
L 283.136364 116.665818 
L 285.698347 116.670849 
L 288.260331 116.674961 
L 290.822314 116.678321 
L 293.384298 116.681066 
L 295.946281 116.68331 
L 298.508264 116.685143 
L 301.070248 116.686641 
L 303.632231 116.687865 
L 306.194215 116.688865 
L 308.756198 116.689683 
L 311.318182 116.69035 
" clip-path="url(#pbe7b42a174)" style="fill: none; stroke: #d35b11; stroke-linecap: square"/>
   </g>
   <g id="patch_3">
    <path d="M 45 133.12 
L 45 34.56 
" style="fill: none; stroke: #000000; stroke-width: 0.8; stroke-linejoin: miter; stroke-linecap: square"/>
   </g>
   <g id="patch_4">
    <path d="M 324 133.12 
L 324 34.56 
" style="fill: none; stroke: #000000; stroke-width: 0.8; stroke-linejoin: miter; stroke-linecap: square"/>
   </g>
   <g id="patch_5">
    <path d="M 45 133.12 
L 324 133.12 
" style="fill: none; stroke: #000000; stroke-width: 0.8; stroke-linejoin: miter; stroke-linecap: square"/>
   </g>
   <g id="patch_6">
    <path d="M 45 34.56 
L 324 34.56 
" style="fill: none; stroke: #000000; stroke-width: 0.8; stroke-linejoin: miter; stroke-linecap: square"/>
   </g>
   <g id="legend_1">
    <g id="patch_7">
     <path d="M 257.7 71.36 
L 317 71.36 
Q 319 71.36 319 69.36 
L 319 41.56 
Q 319 39.56 317 39.56 
L 257.7 39.56 
Q 255.7 39.56 255.7 41.56 
L 255.7 69.36 
Q 255.7 71.36 257.7 71.36 
z
" style="fill: #ffffff; opacity: 0.8; stroke: #cccccc; stroke-linejoin: miter"/>
    </g>
    <g id="line2d_14">
     <path d="M 259.7 47.26 
L 269.7 47.26 
L 279.7 47.26 
" style="fill: none; stroke: #3232e8; stroke-linecap: square"/>
    </g>
    <g id="text_6">
     <!-- $K\; /\langle K \rangle$ -->
     <g transform="translate(287.7 50.76) scale(0.1 -0.1)">
      <defs>
       <path id="STIXGeneral-Italic-4b" d="M 4621 4179 
L 4621 4077 
Q 4442 4077 4128 3840 
L 2221 2400 
L 3296 525 
Q 3443 269 3552 201 
Q 3661 134 3962 102 
L 3962 0 
L 2202 0 
L 2202 102 
L 2387 122 
Q 2682 147 2682 326 
Q 2682 365 2672 409 
Q 2662 454 2630 515 
Q 2598 576 2579 611 
Q 2560 646 2509 736 
Q 2458 826 2445 851 
L 1658 2227 
L 1242 710 
Q 1171 467 1171 384 
Q 1171 237 1264 182 
Q 1357 128 1626 102 
L 1626 0 
L 45 0 
L 45 102 
Q 320 134 403 211 
Q 486 288 563 557 
L 1357 3405 
Q 1446 3725 1446 3802 
Q 1446 3936 1337 4000 
Q 1229 4064 941 4077 
L 941 4179 
L 2669 4179 
L 2669 4077 
Q 2400 4058 2253 3958 
Q 2106 3859 2035 3603 
L 1696 2362 
L 2675 3059 
Q 3590 3706 3590 3936 
Q 3590 4032 3360 4058 
L 3206 4077 
L 3206 4179 
L 4621 4179 
z
" transform="scale(0.015625)"/>
       <path id="STIXGeneral-Regular-2f" d="M 1837 4326 
L 378 -90 
L -58 -90 
L 1408 4326 
L 1837 4326 
z
" transform="scale(0.015625)"/>
       <path id="STIXGeneral-Regular-27e8" d="M 2144 4563 
L 915 1606 
L 2138 -1363 
L 1805 -1363 
L 493 1542 
L 493 1670 
L 1811 4563 
L 2144 4563 
z
" transform="scale(0.015625)"/>
       <path id="STIXGeneral-Regular-27e9" d="M 2067 1536 
L 749 -1363 
L 416 -1363 
L 1645 1600 
L 422 4563 
L 755 4563 
L 2067 1664 
L 2067 1536 
z
" transform="scale(0.015625)"/>
      </defs>
      <use xlink:href="#STIXGeneral-Italic-4b" transform="translate(0 0.703125)"/>
      <use xlink:href="#STIXGeneral-Regular-2f" transform="translate(86.755708 0.703125)"/>
      <use xlink:href="#STIXGeneral-Regular-27e8" transform="translate(114.555696 0.703125)"/>
      <use xlink:href="#STIXGeneral-Italic-4b" transform="translate(154.55568 0.703125)"/>
      <use xlink:href="#STIXGeneral-Regular-27e9" transform="translate(221.255677 0.703125)"/>
     </g>
    </g>
    <g id="line2d_15">
     <path d="M 259.7 61.66 
L 269.7 61.66 
L 279.7 61.66 
" style="fill: none; stroke: #d35b11; stroke-linecap: square"/>
    </g>
    <g id="text_7">
     <!-- $D\; /\langle D \rangle$ -->
     <g transform="translate(287.7 65.16) scale(0.1 -0.1)">
      <defs>
       <path id="STIXGeneral-Italic-44" d="M 838 4179 
L 2611 4179 
Q 3469 4179 3974 3731 
Q 4480 3283 4480 2458 
Q 4480 1325 3456 531 
Q 2778 0 1594 0 
L -51 0 
L -51 102 
Q 224 154 310 230 
Q 397 307 474 589 
L 1254 3437 
Q 1325 3686 1325 3814 
Q 1325 3949 1222 4009 
Q 1120 4070 838 4077 
L 838 4179 
z
M 1984 3738 
L 1229 1037 
Q 1088 525 1088 429 
Q 1088 192 1523 192 
Q 2470 192 3066 768 
Q 3398 1088 3584 1597 
Q 3770 2106 3770 2611 
Q 3770 3386 3270 3763 
Q 2970 3987 2432 3987 
Q 2227 3987 2128 3939 
Q 2029 3891 1984 3738 
z
" transform="scale(0.015625)"/>
      </defs>
      <use xlink:href="#STIXGeneral-Italic-44" transform="translate(0 0.703125)"/>
      <use xlink:href="#STIXGeneral-Regular-2f" transform="translate(92.255693 0.703125)"/>
      <use xlink:href="#STIXGeneral-Regular-27e8" transform="translate(120.05568 0.703125)"/>
      <use xlink:href="#STIXGeneral-Italic-44" transform="translate(160.055665 0.703125)"/>
      <use xlink:href="#STIXGeneral-Regular-27e9" transform="translate(232.255647 0.703125)"/>
     </g>
    </g>
   </g>
  </g>
  <g id="axes_2">
   <g id="patch_8">
    <path d="M 45 256.32 
L 324 256.32 
L 324 157.76 
L 45 157.76 
z
" style="fill: #ffffff"/>
   </g>
   <g id="matplotlib.axis_3">
    <g id="xtick_7">
     <g id="line2d_16">
      <g>
       <use xlink:href="#m63bcf12c9b" x="57.681818" y="256.32" style="stroke: #000000; stroke-width: 0.8"/>
      </g>
     </g>
     <g id="text_8">
      <!-- 0.0 -->
      <g transform="translate(50.181818 271.515625) scale(0.12 -0.12)">
       <use xlink:href="#STIXGeneral-Regular-30"/>
       <use xlink:href="#STIXGeneral-Regular-2e" transform="translate(49.999985 0)"/>
       <use xlink:href="#STIXGeneral-Regular-30" transform="translate(74.999969 0)"/>
      </g>
     </g>
    </g>
    <g id="xtick_8">
     <g id="line2d_17">
      <g>
       <use xlink:href="#m63bcf12c9b" x="108.409091" y="256.32" style="stroke: #000000; stroke-width: 0.8"/>
      </g>
     </g>
     <g id="text_9">
      <!-- 0.2 -->
      <g transform="translate(100.909091 271.515625) scale(0.12 -0.12)">
       <use xlink:href="#STIXGeneral-Regular-30"/>
       <use xlink:href="#STIXGeneral-Regular-2e" transform="translate(49.999985 0)"/>
       <use xlink:href="#STIXGeneral-Regular-32" transform="translate(74.999969 0)"/>
      </g>
     </g>
    </g>
    <g id="xtick_9">
     <g id="line2d_18">
      <g>
       <use xlink:href="#m63bcf12c9b" x="159.136364" y="256.32" style="stroke: #000000; stroke-width: 0.8"/>
      </g>
     </g>
     <g id="text_10">
      <!-- 0.4 -->
      <g transform="translate(151.636364 271.515625) scale(0.12 -0.12)">
       <defs>
        <path id="STIXGeneral-Regular-34" d="M 3027 1069 
L 2368 1069 
L 2368 0 
L 1869 0 
L 1869 1069 
L 77 1069 
L 77 1478 
L 2086 4326 
L 2368 4326 
L 2368 1478 
L 3027 1478 
L 3027 1069 
z
M 1869 1478 
L 1869 3674 
L 333 1478 
L 1869 1478 
z
" transform="scale(0.015625)"/>
       </defs>
       <use xlink:href="#STIXGeneral-Regular-30"/>
       <use xlink:href="#STIXGeneral-Regular-2e" transform="translate(49.999985 0)"/>
       <use xlink:href="#STIXGeneral-Regular-34" transform="translate(74.999969 0)"/>
      </g>
     </g>
    </g>
    <g id="xtick_10">
     <g id="line2d_19">
      <g>
       <use xlink:href="#m63bcf12c9b" x="209.863636" y="256.32" style="stroke: #000000; stroke-width: 0.8"/>
      </g>
     </g>
     <g id="text_11">
      <!-- 0.6 -->
      <g transform="translate(202.363636 271.515625) scale(0.12 -0.12)">
       <defs>
        <path id="STIXGeneral-Regular-36" d="M 2854 4378 
L 2867 4275 
Q 2112 4154 1606 3664 
Q 1101 3174 973 2451 
Q 1344 2739 1786 2739 
Q 2349 2739 2672 2380 
Q 2995 2022 2995 1402 
Q 2995 774 2669 378 
Q 2291 -90 1651 -90 
Q 870 -90 518 557 
Q 218 1107 218 1786 
Q 218 2835 915 3552 
Q 1312 3962 1731 4131 
Q 2150 4301 2854 4378 
z
M 2419 1203 
Q 2419 2445 1555 2445 
Q 1235 2445 1024 2275 
Q 813 2106 813 1702 
Q 813 954 1046 522 
Q 1280 90 1722 90 
Q 2061 90 2240 394 
Q 2419 698 2419 1203 
z
" transform="scale(0.015625)"/>
       </defs>
       <use xlink:href="#STIXGeneral-Regular-30"/>
       <use xlink:href="#STIXGeneral-Regular-2e" transform="translate(49.999985 0)"/>
       <use xlink:href="#STIXGeneral-Regular-36" transform="translate(74.999969 0)"/>
      </g>
     </g>
    </g>
    <g id="xtick_11">
     <g id="line2d_20">
      <g>
       <use xlink:href="#m63bcf12c9b" x="260.590909" y="256.32" style="stroke: #000000; stroke-width: 0.8"/>
      </g>
     </g>
     <g id="text_12">
      <!-- 0.8 -->
      <g transform="translate(253.090909 271.515625) scale(0.12 -0.12)">
       <defs>
        <path id="STIXGeneral-Regular-38" d="M 2848 992 
Q 2848 499 2505 204 
Q 2163 -90 1587 -90 
Q 1050 -90 704 204 
Q 358 499 358 954 
Q 358 1293 524 1533 
Q 691 1773 1190 2125 
Q 710 2522 553 2765 
Q 397 3008 397 3328 
Q 397 3782 745 4054 
Q 1094 4326 1638 4326 
Q 2106 4326 2410 4060 
Q 2714 3795 2714 3411 
Q 2714 3059 2531 2848 
Q 2349 2637 1856 2374 
Q 2432 1990 2640 1689 
Q 2848 1389 2848 992 
z
M 2272 3411 
Q 2272 3744 2086 3945 
Q 1901 4147 1574 4147 
Q 1248 4147 1059 3977 
Q 870 3808 870 3513 
Q 870 3219 1059 2979 
Q 1248 2739 1670 2490 
Q 1997 2682 2134 2896 
Q 2272 3110 2272 3411 
z
M 1734 1741 
L 1357 1997 
Q 1075 1766 960 1545 
Q 845 1325 845 1011 
Q 845 576 1065 333 
Q 1286 90 1658 90 
Q 1971 90 2166 285 
Q 2362 480 2362 794 
Q 2362 1082 2214 1299 
Q 2067 1517 1734 1741 
z
" transform="scale(0.015625)"/>
       </defs>
       <use xlink:href="#STIXGeneral-Regular-30"/>
       <use xlink:href="#STIXGeneral-Regular-2e" transform="translate(49.999985 0)"/>
       <use xlink:href="#STIXGeneral-Regular-38" transform="translate(74.999969 0)"/>
      </g>
     </g>
    </g>
    <g id="xtick_12">
     <g id="line2d_21">
      <g>
       <use xlink:href="#m63bcf12c9b" x="311.318182" y="256.32" style="stroke: #000000; stroke-width: 0.8"/>
      </g>
     </g>
     <g id="text_13">
      <!-- 1.0 -->
      <g transform="translate(303.818182 271.515625) scale(0.12 -0.12)">
       <use xlink:href="#STIXGeneral-Regular-31"/>
       <use xlink:href="#STIXGeneral-Regular-2e" transform="translate(49.999985 0)"/>
       <use xlink:href="#STIXGeneral-Regular-30" transform="translate(74.999969 0)"/>
      </g>
     </g>
    </g>
    <g id="text_14">
     <!-- Normalized depth $\lambda$ -->
     <g transform="translate(129.13 287.78) scale(0.14 -0.14)">
      <defs>
       <path id="STIXGeneral-Regular-4e" d="M 4525 4237 
L 4525 4115 
Q 4198 4083 4102 4000 
Q 4000 3910 3958 3756 
Q 3917 3603 3917 3245 
L 3917 -70 
L 3802 -70 
L 979 3443 
L 979 960 
Q 979 474 1088 323 
Q 1197 173 1574 122 
L 1574 0 
L 77 0 
L 77 122 
Q 474 166 586 310 
Q 698 454 698 960 
L 698 3776 
Q 531 3981 416 4048 
Q 301 4115 77 4115 
L 77 4237 
L 1165 4237 
L 3635 1146 
L 3635 3322 
Q 3635 3808 3514 3949 
Q 3437 4032 3344 4061 
Q 3251 4090 3008 4115 
L 3008 4237 
L 4525 4237 
z
" transform="scale(0.015625)"/>
       <path id="STIXGeneral-Regular-6f" d="M 3008 1478 
Q 3008 806 2608 371 
Q 2208 -64 1568 -64 
Q 979 -64 582 368 
Q 186 800 186 1459 
Q 186 2125 582 2534 
Q 979 2944 1626 2944 
Q 2221 2944 2614 2537 
Q 3008 2131 3008 1478 
z
M 2432 1306 
Q 2432 2035 2112 2445 
Q 1856 2765 1504 2765 
Q 1171 2765 966 2493 
Q 762 2221 762 1747 
Q 762 928 1101 435 
Q 1318 115 1677 115 
Q 2029 115 2230 432 
Q 2432 749 2432 1306 
z
" transform="scale(0.015625)"/>
       <path id="STIXGeneral-Regular-72" d="M 1024 2931 
L 1024 2342 
Q 1267 2688 1430 2816 
Q 1594 2944 1792 2944 
Q 1958 2944 2051 2854 
Q 2144 2765 2144 2605 
Q 2144 2470 2077 2393 
Q 2010 2317 1894 2317 
Q 1773 2317 1638 2445 
Q 1536 2541 1472 2541 
Q 1338 2541 1181 2355 
Q 1024 2170 1024 2016 
L 1024 576 
Q 1024 301 1133 205 
Q 1242 109 1568 96 
L 1568 0 
L 32 0 
L 32 96 
Q 339 154 412 224 
Q 486 294 486 538 
L 486 2138 
Q 486 2349 438 2435 
Q 390 2522 269 2522 
Q 166 2522 45 2496 
L 45 2598 
Q 448 2726 992 2944 
L 1024 2931 
z
" transform="scale(0.015625)"/>
       <path id="STIXGeneral-Regular-6d" d="M 4960 0 
L 3565 0 
L 3565 96 
Q 3834 122 3907 208 
Q 3981 294 3981 576 
L 3981 1894 
Q 3981 2278 3869 2444 
Q 3757 2611 3488 2611 
Q 3264 2611 3107 2521 
Q 2950 2432 2803 2221 
L 2803 608 
Q 2803 301 2896 201 
Q 2989 102 3264 96 
L 3264 0 
L 1830 0 
L 1830 96 
Q 2112 115 2189 188 
Q 2266 262 2266 550 
L 2266 1901 
Q 2266 2611 1850 2611 
Q 1670 2611 1468 2531 
Q 1267 2451 1171 2336 
Q 1088 2240 1088 2227 
L 1088 448 
Q 1088 243 1177 176 
Q 1267 109 1523 96 
L 1523 0 
L 102 0 
L 102 96 
Q 371 102 460 195 
Q 550 288 550 563 
L 550 2150 
Q 550 2387 499 2480 
Q 448 2573 326 2573 
Q 230 2573 122 2547 
L 122 2656 
Q 557 2778 1011 2944 
L 1062 2925 
L 1062 2451 
L 1075 2451 
Q 1363 2752 1584 2848 
Q 1805 2944 2054 2944 
Q 2560 2944 2733 2406 
Q 3232 2944 3776 2944 
Q 4518 2944 4518 1792 
L 4518 493 
Q 4518 282 4582 202 
Q 4646 122 4794 109 
L 4960 96 
L 4960 0 
z
" transform="scale(0.015625)"/>
       <path id="STIXGeneral-Regular-61" d="M 2829 422 
L 2829 243 
Q 2586 -64 2253 -64 
Q 1888 -64 1843 403 
L 1837 403 
Q 1427 -64 909 -64 
Q 608 -64 422 112 
Q 237 288 237 602 
Q 237 1050 685 1350 
Q 992 1555 1837 1869 
L 1837 2214 
Q 1837 2502 1699 2646 
Q 1562 2790 1338 2790 
Q 1146 2790 1018 2697 
Q 890 2605 890 2477 
Q 890 2419 909 2348 
Q 928 2278 928 2208 
Q 928 2112 841 2029 
Q 755 1946 634 1946 
Q 525 1946 441 2029 
Q 358 2112 358 2240 
Q 358 2547 685 2752 
Q 986 2944 1421 2944 
Q 1939 2944 2176 2656 
Q 2291 2522 2323 2384 
Q 2355 2246 2355 1946 
L 2355 723 
Q 2355 301 2554 301 
Q 2682 301 2829 422 
z
M 1837 813 
L 1837 1715 
Q 1248 1510 1018 1293 
Q 800 1094 800 800 
Q 800 557 921 432 
Q 1043 307 1242 307 
Q 1453 307 1613 410 
Q 1747 506 1792 589 
Q 1837 672 1837 813 
z
" transform="scale(0.015625)"/>
       <path id="STIXGeneral-Regular-6c" d="M 1645 0 
L 134 0 
L 134 96 
Q 435 122 531 221 
Q 627 320 627 589 
L 627 3590 
Q 627 3821 569 3910 
Q 512 4000 358 4000 
Q 224 4000 122 3987 
L 122 4090 
Q 730 4237 1133 4371 
L 1165 4346 
L 1165 557 
Q 1165 288 1254 201 
Q 1344 115 1645 96 
L 1645 0 
z
" transform="scale(0.015625)"/>
       <path id="STIXGeneral-Regular-69" d="M 1152 4045 
Q 1152 3904 1056 3811 
Q 960 3718 819 3718 
Q 685 3718 592 3811 
Q 499 3904 499 4045 
Q 499 4179 595 4275 
Q 691 4371 826 4371 
Q 966 4371 1059 4275 
Q 1152 4179 1152 4045 
z
M 1619 0 
L 102 0 
L 102 96 
Q 435 115 521 211 
Q 608 307 608 666 
L 608 2118 
Q 608 2342 563 2432 
Q 518 2522 397 2522 
Q 243 2522 128 2490 
L 128 2592 
L 1120 2944 
L 1146 2918 
L 1146 672 
Q 1146 314 1226 218 
Q 1306 122 1619 96 
L 1619 0 
z
" transform="scale(0.015625)"/>
       <path id="STIXGeneral-Regular-7a" d="M 2675 870 
L 2579 0 
L 173 0 
L 173 96 
L 1875 2688 
L 1011 2688 
Q 710 2688 604 2582 
Q 499 2477 454 2125 
L 339 2125 
L 365 2880 
L 2579 2880 
L 2579 2784 
L 858 192 
L 1709 192 
Q 2246 192 2387 365 
Q 2477 474 2560 896 
L 2675 870 
z
" transform="scale(0.015625)"/>
       <path id="STIXGeneral-Regular-65" d="M 2611 1050 
L 2714 1005 
Q 2330 -64 1376 -64 
Q 813 -64 486 329 
Q 160 723 160 1389 
Q 160 2074 525 2509 
Q 890 2944 1485 2944 
Q 2061 2944 2374 2502 
Q 2560 2246 2592 1773 
L 621 1773 
Q 646 1370 700 1158 
Q 755 947 915 730 
Q 1184 378 1626 378 
Q 1939 378 2153 531 
Q 2368 685 2611 1050 
z
M 634 1978 
L 1939 1978 
Q 1882 2381 1750 2547 
Q 1619 2714 1312 2714 
Q 1043 2714 864 2525 
Q 685 2336 634 1978 
z
" transform="scale(0.015625)"/>
       <path id="STIXGeneral-Regular-64" d="M 3142 269 
L 2202 -64 
L 2176 -45 
L 2176 365 
Q 1869 -64 1357 -64 
Q 826 -64 499 317 
Q 173 698 173 1312 
Q 173 1990 563 2467 
Q 954 2944 1504 2944 
Q 1850 2944 2176 2669 
L 2176 3667 
Q 2176 3866 2118 3930 
Q 2061 3994 1882 3994 
Q 1792 3994 1741 3987 
L 1741 4090 
Q 2323 4243 2682 4371 
L 2714 4358 
L 2714 730 
Q 2714 506 2768 435 
Q 2822 365 2995 365 
Q 3034 365 3142 371 
L 3142 269 
z
M 2176 653 
L 2176 2125 
Q 2176 2381 1981 2573 
Q 1786 2765 1523 2765 
Q 1158 2765 940 2438 
Q 723 2112 723 1568 
Q 723 979 963 624 
Q 1203 269 1606 269 
Q 1907 269 2080 474 
Q 2176 582 2176 653 
z
" transform="scale(0.015625)"/>
       <path id="STIXGeneral-Regular-20" transform="scale(0.015625)"/>
       <path id="STIXGeneral-Regular-70" d="M 1018 2931 
L 1018 2438 
Q 1421 2944 1939 2944 
Q 2406 2944 2707 2560 
Q 3008 2176 3008 1581 
Q 3008 883 2621 409 
Q 2234 -64 1664 -64 
Q 1466 -64 1328 -6 
Q 1190 51 1018 211 
L 1018 -794 
Q 1018 -1094 1120 -1180 
Q 1222 -1267 1581 -1274 
L 1581 -1389 
L 32 -1389 
L 32 -1280 
Q 314 -1254 397 -1171 
Q 480 -1088 480 -838 
L 480 2157 
Q 480 2381 429 2451 
Q 378 2522 218 2522 
Q 115 2522 58 2515 
L 58 2618 
Q 506 2752 979 2944 
L 1018 2931 
z
M 1018 2138 
L 1018 563 
Q 1018 422 1238 281 
Q 1459 141 1683 141 
Q 2029 141 2243 467 
Q 2458 794 2458 1325 
Q 2458 1888 2243 2224 
Q 2029 2560 1670 2560 
Q 1446 2560 1232 2419 
Q 1018 2278 1018 2138 
z
" transform="scale(0.015625)"/>
       <path id="STIXGeneral-Regular-74" d="M 1702 493 
L 1786 422 
Q 1478 -64 1011 -64 
Q 448 -64 448 749 
L 448 2675 
L 109 2675 
Q 83 2694 83 2720 
Q 83 2771 192 2842 
Q 435 2982 813 3526 
Q 826 3546 874 3606 
Q 922 3667 941 3706 
Q 986 3706 986 3622 
L 986 2880 
L 1632 2880 
L 1632 2675 
L 986 2675 
L 986 845 
Q 986 538 1062 403 
Q 1139 269 1318 269 
Q 1510 269 1702 493 
z
" transform="scale(0.015625)"/>
       <path id="STIXGeneral-Regular-68" d="M 3117 0 
L 1760 0 
L 1760 96 
Q 2042 128 2118 224 
Q 2195 320 2195 653 
L 2195 1920 
Q 2195 2598 1722 2598 
Q 1530 2598 1370 2508 
Q 1210 2419 1005 2195 
L 1005 653 
Q 1005 320 1081 224 
Q 1158 128 1440 96 
L 1440 0 
L 58 0 
L 58 96 
Q 333 134 400 224 
Q 467 314 467 653 
L 467 3667 
Q 467 3872 406 3933 
Q 346 3994 141 3994 
Q 83 3994 64 3987 
L 64 4090 
L 237 4141 
Q 730 4288 973 4371 
L 1005 4352 
L 1005 2406 
Q 1229 2694 1446 2819 
Q 1664 2944 1946 2944 
Q 2733 2944 2733 1926 
L 2733 653 
Q 2733 320 2793 233 
Q 2854 147 3117 96 
L 3117 0 
z
" transform="scale(0.015625)"/>
       <path id="STIXGeneral-Italic-3bb" d="M 2656 787 
L 2758 787 
Q 2560 -102 2112 -102 
Q 1965 -102 1869 48 
Q 1773 198 1773 499 
Q 1773 672 1789 889 
Q 1805 1107 1833 1446 
Q 1862 1786 1875 2016 
L 538 0 
L -77 0 
L 1907 2739 
Q 1933 2970 1933 3245 
Q 1933 3936 1619 3936 
Q 1530 3936 1408 3821 
Q 1286 3706 1203 3462 
L 1101 3462 
Q 1312 4339 1747 4339 
Q 1926 4339 2041 4115 
Q 2157 3891 2157 3475 
Q 2157 3040 2093 2192 
Q 2029 1344 2029 941 
Q 2029 602 2089 451 
Q 2150 301 2291 301 
Q 2483 301 2656 787 
z
" transform="scale(0.015625)"/>
      </defs>
      <use xlink:href="#STIXGeneral-Regular-4e" transform="translate(0 0.703125)"/>
      <use xlink:href="#STIXGeneral-Regular-6f" transform="translate(72.199982 0.703125)"/>
      <use xlink:href="#STIXGeneral-Regular-72" transform="translate(122.199966 0.703125)"/>
      <use xlink:href="#STIXGeneral-Regular-6d" transform="translate(155.499954 0.703125)"/>
      <use xlink:href="#STIXGeneral-Regular-61" transform="translate(233.299942 0.703125)"/>
      <use xlink:href="#STIXGeneral-Regular-6c" transform="translate(277.699936 0.703125)"/>
      <use xlink:href="#STIXGeneral-Regular-69" transform="translate(305.499924 0.703125)"/>
      <use xlink:href="#STIXGeneral-Regular-7a" transform="translate(333.299911 0.703125)"/>
      <use xlink:href="#STIXGeneral-Regular-65" transform="translate(377.699905 0.703125)"/>
      <use xlink:href="#STIXGeneral-Regular-64" transform="translate(422.099899 0.703125)"/>
      <use xlink:href="#STIXGeneral-Regular-20" transform="translate(472.099884 0.703125)"/>
      <use xlink:href="#STIXGeneral-Regular-64" transform="translate(497.099869 0.703125)"/>
      <use xlink:href="#STIXGeneral-Regular-65" transform="translate(547.099854 0.703125)"/>
      <use xlink:href="#STIXGeneral-Regular-70" transform="translate(591.499847 0.703125)"/>
      <use xlink:href="#STIXGeneral-Regular-74" transform="translate(641.499832 0.703125)"/>
      <use xlink:href="#STIXGeneral-Regular-68" transform="translate(669.29982 0.703125)"/>
      <use xlink:href="#STIXGeneral-Regular-20" transform="translate(719.299805 0.703125)"/>
      <use xlink:href="#STIXGeneral-Italic-3bb" transform="translate(744.299789 0.703125)"/>
     </g>
    </g>
   </g>
   <g id="matplotlib.axis_4">
    <g id="ytick_6">
     <g id="line2d_22">
      <g>
       <use xlink:href="#m46e08d36f9" x="45" y="256.32" style="stroke: #000000; stroke-width: 0.8"/>
      </g>
     </g>
     <g id="text_15">
      <!-- 0.0 -->
      <g transform="translate(23 260.417813) scale(0.12 -0.12)">
       <use xlink:href="#STIXGeneral-Regular-30"/>
       <use xlink:href="#STIXGeneral-Regular-2e" transform="translate(49.999985 0)"/>
       <use xlink:href="#STIXGeneral-Regular-30" transform="translate(74.999969 0)"/>
      </g>
     </g>
    </g>
    <g id="ytick_7">
     <g id="line2d_23">
      <g>
       <use xlink:href="#m46e08d36f9" x="45" y="231.68" style="stroke: #000000; stroke-width: 0.8"/>
      </g>
     </g>
     <g id="text_16">
      <!-- 0.5 -->
      <g transform="translate(23 235.777812) scale(0.12 -0.12)">
       <use xlink:href="#STIXGeneral-Regular-30"/>
       <use xlink:href="#STIXGeneral-Regular-2e" transform="translate(49.999985 0)"/>
       <use xlink:href="#STIXGeneral-Regular-35" transform="translate(74.999969 0)"/>
      </g>
     </g>
    </g>
    <g id="ytick_8">
     <g id="line2d_24">
      <g>
       <use xlink:href="#m46e08d36f9" x="45" y="207.04" style="stroke: #000000; stroke-width: 0.8"/>
      </g>
     </g>
     <g id="text_17">
      <!-- 1.0 -->
      <g transform="translate(23 211.137812) scale(0.12 -0.12)">
       <use xlink:href="#STIXGeneral-Regular-31"/>
       <use xlink:href="#STIXGeneral-Regular-2e" transform="translate(49.999985 0)"/>
       <use xlink:href="#STIXGeneral-Regular-30" transform="translate(74.999969 0)"/>
      </g>
     </g>
    </g>
    <g id="ytick_9">
     <g id="line2d_25">
      <g>
       <use xlink:href="#m46e08d36f9" x="45" y="182.4" style="stroke: #000000; stroke-width: 0.8"/>
      </g>
     </g>
     <g id="text_18">
      <!-- 1.5 -->
      <g transform="translate(23 186.497813) scale(0.12 -0.12)">
       <use xlink:href="#STIXGeneral-Regular-31"/>
       <use xlink:href="#STIXGeneral-Regular-2e" transform="translate(49.999985 0)"/>
       <use xlink:href="#STIXGeneral-Regular-35" transform="translate(74.999969 0)"/>
      </g>
     </g>
    </g>
    <g id="ytick_10">
     <g id="line2d_26">
      <g>
       <use xlink:href="#m46e08d36f9" x="45" y="157.76" style="stroke: #000000; stroke-width: 0.8"/>
      </g>
     </g>
     <g id="text_19">
      <!-- 2.0 -->
      <g transform="translate(23 161.857812) scale(0.12 -0.12)">
       <use xlink:href="#STIXGeneral-Regular-32"/>
       <use xlink:href="#STIXGeneral-Regular-2e" transform="translate(49.999985 0)"/>
       <use xlink:href="#STIXGeneral-Regular-30" transform="translate(74.999969 0)"/>
      </g>
     </g>
    </g>
   </g>
   <g id="line2d_27">
    <path d="M 57.681818 207.04 
L 60.243802 207.04 
L 62.805785 207.04 
L 65.367769 207.04 
L 67.929752 207.04 
L 70.491736 207.04 
L 73.053719 207.04 
L 75.615702 207.04 
L 78.177686 207.04 
L 80.739669 207.04 
L 83.301653 207.04 
L 85.863636 207.04 
L 88.42562 207.04 
L 90.987603 207.04 
L 93.549587 207.04 
L 96.11157 207.04 
L 98.673554 207.04 
L 101.235537 207.04 
L 103.797521 207.04 
L 106.359504 207.04 
L 108.921488 207.04 
L 111.483471 207.04 
L 114.045455 207.04 
L 116.607438 207.04 
L 119.169421 207.04 
L 121.731405 207.04 
L 124.293388 207.04 
L 126.855372 207.04 
L 129.417355 207.04 
L 131.979339 207.04 
L 134.541322 207.04 
L 137.103306 207.04 
L 139.665289 207.04 
L 142.227273 207.04 
L 144.789256 207.04 
L 147.35124 207.04 
L 149.913223 207.04 
L 152.475207 207.04 
L 155.03719 207.04 
L 157.599174 207.04 
L 160.161157 207.04 
L 162.72314 207.04 
L 165.285124 207.04 
L 167.847107 207.04 
L 170.409091 207.04 
L 172.971074 207.04 
L 175.533058 207.04 
L 178.095041 207.04 
L 180.657025 207.04 
L 183.219008 207.04 
L 185.780992 207.04 
L 188.342975 207.04 
L 190.904959 207.04 
L 193.466942 207.04 
L 196.028926 207.04 
L 198.590909 207.04 
L 201.152893 207.04 
L 203.714876 207.04 
L 206.27686 207.04 
L 208.838843 207.04 
L 211.400826 207.04 
L 213.96281 207.04 
L 216.524793 207.04 
L 219.086777 207.04 
L 221.64876 207.04 
L 224.210744 207.04 
L 226.772727 207.04 
L 229.334711 207.04 
L 231.896694 207.04 
L 234.458678 207.04 
L 237.020661 207.04 
L 239.582645 207.04 
L 242.144628 207.04 
L 244.706612 207.04 
L 247.268595 207.04 
L 249.830579 207.04 
L 252.392562 207.04 
L 254.954545 207.04 
L 257.516529 207.04 
L 260.078512 207.04 
L 262.640496 207.04 
L 265.202479 207.04 
L 267.764463 207.04 
L 270.326446 207.04 
L 272.88843 207.04 
L 275.450413 207.04 
L 278.012397 207.04 
L 280.57438 207.04 
L 283.136364 207.04 
L 285.698347 207.04 
L 288.260331 207.04 
L 290.822314 207.04 
L 293.384298 207.04 
L 295.946281 207.04 
L 298.508264 207.04 
L 301.070248 207.04 
L 303.632231 207.04 
L 306.194215 207.04 
L 308.756198 207.04 
L 311.318182 207.04 
" clip-path="url(#p8163d8b6b0)" style="fill: none; stroke: #3232e8; stroke-linecap: square"/>
   </g>
   <g id="line2d_28">
    <path d="M 57.681818 174.18965 
L 60.243802 174.190317 
L 62.805785 174.191135 
L 65.367769 174.192135 
L 67.929752 174.193359 
L 70.491736 174.194857 
L 73.053719 174.19669 
L 75.615702 174.198934 
L 78.177686 174.201679 
L 80.739669 174.205039 
L 83.301653 174.209151 
L 85.863636 174.214182 
L 88.42562 174.220339 
L 90.987603 174.227873 
L 93.549587 174.237091 
L 96.11157 174.248369 
L 98.673554 174.262166 
L 101.235537 174.279045 
L 103.797521 174.29969 
L 106.359504 174.32494 
L 108.921488 174.355816 
L 111.483471 174.393565 
L 114.045455 174.439705 
L 116.607438 174.496087 
L 119.169421 174.564959 
L 121.731405 174.649052 
L 124.293388 174.751677 
L 126.855372 174.876839 
L 129.417355 175.029368 
L 131.979339 175.215074 
L 134.541322 175.440911 
L 137.103306 175.71517 
L 139.665289 176.047669 
L 142.227273 176.449946 
L 144.789256 176.935435 
L 147.35124 177.519595 
L 149.913223 178.219946 
L 152.475207 179.055973 
L 155.03719 180.048822 
L 157.599174 181.220706 
L 160.161157 182.593947 
L 162.72314 184.189575 
L 165.285124 186.02547 
L 167.847107 188.114071 
L 170.409091 190.459829 
L 172.971074 193.056695 
L 175.533058 195.886059 
L 178.095041 198.915667 
L 180.657025 202.099967 
L 183.219008 205.38215 
L 185.780992 208.69785 
L 188.342975 211.980033 
L 190.904959 215.164333 
L 193.466942 218.193941 
L 196.028926 221.023305 
L 198.590909 223.620171 
L 201.152893 225.965929 
L 203.714876 228.05453 
L 206.27686 229.890425 
L 208.838843 231.486053 
L 211.400826 232.859294 
L 213.96281 234.031178 
L 216.524793 235.024027 
L 219.086777 235.860054 
L 221.64876 236.560405 
L 224.210744 237.144565 
L 226.772727 237.630054 
L 229.334711 238.032331 
L 231.896694 238.36483 
L 234.458678 238.639089 
L 237.020661 238.864926 
L 239.582645 239.050632 
L 242.144628 239.203161 
L 244.706612 239.328323 
L 247.268595 239.430948 
L 249.830579 239.515041 
L 252.392562 239.583913 
L 254.954545 239.640295 
L 257.516529 239.686435 
L 260.078512 239.724184 
L 262.640496 239.75506 
L 265.202479 239.78031 
L 267.764463 239.800955 
L 270.326446 239.817834 
L 272.88843 239.831631 
L 275.450413 239.842909 
L 278.012397 239.852127 
L 280.57438 239.859661 
L 283.136364 239.865818 
L 285.698347 239.870849 
L 288.260331 239.874961 
L 290.822314 239.878321 
L 293.384298 239.881066 
L 295.946281 239.88331 
L 298.508264 239.885143 
L 301.070248 239.886641 
L 303.632231 239.887865 
L 306.194215 239.888865 
L 308.756198 239.889683 
L 311.318182 239.89035 
" clip-path="url(#p8163d8b6b0)" style="fill: none; stroke: #d35b11; stroke-linecap: square"/>
   </g>
   <g id="patch_9">
    <path d="M 45 256.32 
L 45 157.76 
" style="fill: none; stroke: #000000; stroke-width: 0.8; stroke-linejoin: miter; stroke-linecap: square"/>
   </g>
   <g id="patch_10">
    <path d="M 324 256.32 
L 324 157.76 
" style="fill: none; stroke: #000000; stroke-width: 0.8; stroke-linejoin: miter; stroke-linecap: square"/>
   </g>
   <g id="patch_11">
    <path d="M 45 256.32 
L 324 256.32 
" style="fill: none; stroke: #000000; stroke-width: 0.8; stroke-linejoin: miter; stroke-linecap: square"/>
   </g>
   <g id="patch_12">
    <path d="M 45 157.76 
L 324 157.76 
" style="fill: none; stroke: #000000; stroke-width: 0.8; stroke-linejoin: miter; stroke-linecap: square"/>
   </g>
   <g id="legend_2">
    <g id="patch_13">
     <path d="M 257.7 194.56 
L 317 194.56 
Q 319 194.56 319 192.56 
L 319 164.76 
Q 319 162.76 317 162.76 
L 257.7 162.76 
Q 255.7 162.76 255.7 164.76 
L 255.7 192.56 
Q 255.7 194.56 257.7 194.56 
z
" style="fill: #ffffff; opacity: 0.8; stroke: #cccccc; stroke-linejoin: miter"/>
    </g>
    <g id="line2d_29">
     <path d="M 259.7 170.46 
L 269.7 170.46 
L 279.7 170.46 
" style="fill: none; stroke: #3232e8; stroke-linecap: square"/>
    </g>
    <g id="text_20">
     <!-- $K\; /\langle K \rangle$ -->
     <g transform="translate(287.7 173.96) scale(0.1 -0.1)">
      <use xlink:href="#STIXGeneral-Italic-4b" transform="translate(0 0.703125)"/>
      <use xlink:href="#STIXGeneral-Regular-2f" transform="translate(86.755708 0.703125)"/>
      <use xlink:href="#STIXGeneral-Regular-27e8" transform="translate(114.555696 0.703125)"/>
      <use xlink:href="#STIXGeneral-Italic-4b" transform="translate(154.55568 0.703125)"/>
      <use xlink:href="#STIXGeneral-Regular-27e9" transform="translate(221.255677 0.703125)"/>
     </g>
    </g>
    <g id="line2d_30">
     <path d="M 259.7 184.86 
L 269.7 184.86 
L 279.7 184.86 
" style="fill: none; stroke: #d35b11; stroke-linecap: square"/>
    </g>
    <g id="text_21">
     <!-- $D\; /\langle D \rangle$ -->
     <g transform="translate(287.7 188.36) scale(0.1 -0.1)">
      <use xlink:href="#STIXGeneral-Italic-44" transform="translate(0 0.703125)"/>
      <use xlink:href="#STIXGeneral-Regular-2f" transform="translate(92.255693 0.703125)"/>
      <use xlink:href="#STIXGeneral-Regular-27e8" transform="translate(120.05568 0.703125)"/>
      <use xlink:href="#STIXGeneral-Italic-44" transform="translate(160.055665 0.703125)"/>
      <use xlink:href="#STIXGeneral-Regular-27e9" transform="translate(232.255647 0.703125)"/>
     </g>
    </g>
   </g>
  </g>
  <g id="text_22">
   <!-- Normalized diffusivity and absorption -->
   <g transform="translate(16.761563 251.128438) rotate(-90) scale(0.14 -0.14)">
    <defs>
     <path id="STIXGeneral-Regular-66" d="M 134 2880 
L 659 2880 
Q 666 3264 710 3478 
Q 755 3693 883 3910 
Q 1152 4371 1786 4371 
Q 2074 4371 2262 4259 
Q 2451 4147 2451 3974 
Q 2451 3866 2374 3789 
Q 2298 3712 2182 3712 
Q 2029 3712 1894 3942 
Q 1741 4192 1555 4192 
Q 1197 4192 1197 3622 
L 1197 2880 
L 1978 2880 
L 1978 2675 
L 1197 2675 
L 1197 666 
Q 1197 307 1299 208 
Q 1402 109 1792 96 
L 1792 0 
L 128 0 
L 128 96 
Q 474 115 566 214 
Q 659 314 659 666 
L 659 2675 
L 134 2675 
L 134 2880 
z
" transform="scale(0.015625)"/>
     <path id="STIXGeneral-Regular-75" d="M 3072 320 
L 3072 230 
Q 2573 96 2195 -58 
L 2163 -38 
L 2163 486 
L 2150 486 
Q 1747 -64 1235 -64 
Q 870 -64 662 160 
Q 454 384 454 755 
L 454 2362 
Q 454 2598 371 2688 
Q 288 2778 58 2790 
L 58 2880 
L 992 2880 
L 992 813 
Q 992 595 1123 451 
Q 1254 307 1446 307 
Q 1760 307 1984 506 
Q 2067 582 2099 649 
Q 2131 717 2131 877 
L 2131 2355 
Q 2131 2605 2041 2678 
Q 1952 2752 1658 2771 
L 1658 2880 
L 2669 2880 
L 2669 685 
Q 2669 461 2742 390 
Q 2816 320 3034 320 
L 3072 320 
z
" transform="scale(0.015625)"/>
     <path id="STIXGeneral-Regular-73" d="M 998 1926 
L 1664 1523 
Q 1984 1331 2105 1164 
Q 2227 998 2227 736 
Q 2227 416 1961 176 
Q 1696 -64 1331 -64 
Q 1030 -64 864 -6 
Q 691 51 570 51 
Q 461 51 416 -26 
L 333 -26 
L 333 979 
L 435 979 
Q 538 512 730 294 
Q 922 77 1248 77 
Q 1485 77 1632 211 
Q 1779 346 1779 550 
Q 1779 845 1440 1030 
L 1094 1222 
Q 326 1651 326 2150 
Q 326 2522 566 2730 
Q 806 2938 1210 2938 
Q 1491 2938 1638 2867 
Q 1754 2816 1818 2816 
Q 1862 2816 1920 2880 
L 1990 2880 
L 2022 2010 
L 1926 2010 
Q 1818 2445 1654 2621 
Q 1491 2797 1203 2797 
Q 986 2797 854 2688 
Q 723 2579 723 2362 
Q 723 2253 796 2128 
Q 870 2003 998 1926 
z
" transform="scale(0.015625)"/>
     <path id="STIXGeneral-Regular-76" d="M 3053 2880 
L 3053 2784 
Q 2906 2771 2835 2688 
Q 2765 2605 2637 2285 
L 1818 230 
Q 1690 -90 1638 -90 
Q 1587 -90 1523 77 
Q 1510 96 1497 141 
Q 1485 186 1472 211 
L 704 2048 
Q 499 2534 403 2652 
Q 307 2771 122 2784 
L 122 2880 
L 1376 2880 
L 1376 2784 
Q 1210 2771 1146 2732 
Q 1082 2694 1082 2611 
Q 1082 2509 1139 2368 
L 1792 730 
L 2426 2387 
Q 2464 2483 2464 2579 
Q 2464 2758 2163 2784 
L 2163 2880 
L 3053 2880 
z
" transform="scale(0.015625)"/>
     <path id="STIXGeneral-Regular-79" d="M 3040 2880 
L 3040 2784 
Q 2925 2771 2854 2700 
Q 2784 2630 2720 2458 
L 1760 -160 
Q 1510 -838 1257 -1116 
Q 1005 -1395 640 -1395 
Q 435 -1395 313 -1289 
Q 192 -1184 192 -1024 
Q 192 -902 272 -816 
Q 352 -730 467 -730 
Q 653 -730 800 -813 
Q 883 -858 966 -858 
Q 1101 -858 1286 -576 
Q 1376 -448 1459 -211 
Q 1542 26 1542 115 
Q 1542 198 1274 762 
L 429 2566 
Q 346 2752 90 2790 
L 90 2880 
L 1402 2880 
L 1402 2784 
Q 1197 2778 1117 2739 
Q 1037 2701 1037 2611 
Q 1037 2541 1120 2349 
L 1837 749 
L 2458 2515 
Q 2483 2573 2483 2630 
Q 2483 2784 2189 2784 
L 2189 2880 
L 3040 2880 
z
" transform="scale(0.015625)"/>
     <path id="STIXGeneral-Regular-6e" d="M 3104 0 
L 1773 0 
L 1779 96 
Q 2016 115 2096 233 
Q 2176 352 2176 672 
L 2176 1946 
Q 2176 2592 1709 2592 
Q 1549 2592 1408 2515 
Q 1267 2438 1050 2227 
L 1050 461 
Q 1050 269 1136 192 
Q 1222 115 1466 96 
L 1466 0 
L 115 0 
L 115 96 
Q 358 115 435 214 
Q 512 314 512 602 
L 512 2157 
Q 512 2394 467 2483 
Q 422 2573 288 2573 
Q 160 2573 102 2547 
L 102 2656 
Q 550 2784 979 2944 
L 1030 2925 
L 1030 2426 
L 1037 2426 
Q 1491 2944 1958 2944 
Q 2323 2944 2518 2688 
Q 2714 2432 2714 1958 
L 2714 544 
Q 2714 288 2790 205 
Q 2867 122 3104 96 
L 3104 0 
z
" transform="scale(0.015625)"/>
     <path id="STIXGeneral-Regular-62" d="M 979 4358 
L 979 2406 
Q 1082 2650 1315 2797 
Q 1549 2944 1843 2944 
Q 2349 2944 2672 2541 
Q 2995 2138 2995 1536 
Q 2995 832 2566 384 
Q 2138 -64 1498 -64 
Q 1107 -64 774 67 
Q 442 198 442 358 
L 442 3622 
Q 442 3859 384 3926 
Q 326 3994 128 3994 
Q 83 3994 19 3981 
L 19 4090 
L 211 4147 
Q 864 4346 947 4371 
L 979 4358 
z
M 979 2035 
L 979 474 
Q 979 326 1161 233 
Q 1344 141 1600 141 
Q 1978 141 2195 416 
Q 2432 710 2432 1261 
Q 2432 1888 2182 2240 
Q 1971 2541 1613 2541 
Q 1357 2541 1168 2390 
Q 979 2240 979 2035 
z
" transform="scale(0.015625)"/>
    </defs>
    <use xlink:href="#STIXGeneral-Regular-4e"/>
    <use xlink:href="#STIXGeneral-Regular-6f" transform="translate(72.199982 0)"/>
    <use xlink:href="#STIXGeneral-Regular-72" transform="translate(122.199966 0)"/>
    <use xlink:href="#STIXGeneral-Regular-6d" transform="translate(155.499954 0)"/>
    <use xlink:href="#STIXGeneral-Regular-61" transform="translate(233.299942 0)"/>
    <use xlink:href="#STIXGeneral-Regular-6c" transform="translate(277.699936 0)"/>
    <use xlink:href="#STIXGeneral-Regular-69" transform="translate(305.499924 0)"/>
    <use xlink:href="#STIXGeneral-Regular-7a" transform="translate(333.299911 0)"/>
    <use xlink:href="#STIXGeneral-Regular-65" transform="translate(377.699905 0)"/>
    <use xlink:href="#STIXGeneral-Regular-64" transform="translate(422.099899 0)"/>
    <use xlink:href="#STIXGeneral-Regular-20" transform="translate(472.099884 0)"/>
    <use xlink:href="#STIXGeneral-Regular-64" transform="translate(497.099869 0)"/>
    <use xlink:href="#STIXGeneral-Regular-69" transform="translate(547.099854 0)"/>
    <use xlink:href="#STIXGeneral-Regular-66" transform="translate(574.899841 0)"/>
    <use xlink:href="#STIXGeneral-Regular-66" transform="translate(608.199829 0)"/>
    <use xlink:href="#STIXGeneral-Regular-75" transform="translate(641.499817 0)"/>
    <use xlink:href="#STIXGeneral-Regular-73" transform="translate(691.499802 0)"/>
    <use xlink:href="#STIXGeneral-Regular-69" transform="translate(730.399796 0)"/>
    <use xlink:href="#STIXGeneral-Regular-76" transform="translate(758.199783 0)"/>
    <use xlink:href="#STIXGeneral-Regular-69" transform="translate(808.199768 0)"/>
    <use xlink:href="#STIXGeneral-Regular-74" transform="translate(835.999756 0)"/>
    <use xlink:href="#STIXGeneral-Regular-79" transform="translate(863.799744 0)"/>
    <use xlink:href="#STIXGeneral-Regular-20" transform="translate(913.799728 0)"/>
    <use xlink:href="#STIXGeneral-Regular-61" transform="translate(938.799713 0)"/>
    <use xlink:href="#STIXGeneral-Regular-6e" transform="translate(983.199707 0)"/>
    <use xlink:href="#STIXGeneral-Regular-64" transform="translate(1033.199692 0)"/>
    <use xlink:href="#STIXGeneral-Regular-20" transform="translate(1083.199677 0)"/>
    <use xlink:href="#STIXGeneral-Regular-61" transform="translate(1108.199661 0)"/>
    <use xlink:href="#STIXGeneral-Regular-62" transform="translate(1152.599655 0)"/>
    <use xlink:href="#STIXGeneral-Regular-73" transform="translate(1202.59964 0)"/>
    <use xlink:href="#STIXGeneral-Regular-6f" transform="translate(1241.499634 0)"/>
    <use xlink:href="#STIXGeneral-Regular-72" transform="translate(1291.499619 0)"/>
    <use xlink:href="#STIXGeneral-Regular-70" transform="translate(1324.799606 0)"/>
    <use xlink:href="#STIXGeneral-Regular-74" transform="translate(1374.799591 0)"/>
    <use xlink:href="#STIXGeneral-Regular-69" transform="translate(1402.599579 0)"/>
    <use xlink:href="#STIXGeneral-Regular-6f" transform="translate(1430.399567 0)"/>
    <use xlink:href="#STIXGeneral-Regular-6e" transform="translate(1480.399551 0)"/>
   </g>
  </g>
 </g>
 <defs>
  <clipPath id="pbe7b42a174">
   <rect x="45" y="34.56" width="279" height="98.56"/>
  </clipPath>
  <clipPath id="p8163d8b6b0">
   <rect x="45" y="157.76" width="279" height="98.56"/>
  </clipPath>
 </defs>
</svg>
